%TF.GenerationSoftware,KiCad,Pcbnew,8.99.0-unknown-1.20241217gite6b7397.fc40*%
%TF.CreationDate,2024-12-24T22:56:10-03:00*%
%TF.ProjectId,hw_v1,68775f76-312e-46b6-9963-61645f706362,rev?*%
%TF.SameCoordinates,Original*%
%TF.FileFunction,Legend,Top*%
%TF.FilePolarity,Positive*%
%FSLAX46Y46*%
G04 Gerber Fmt 4.6, Leading zero omitted, Abs format (unit mm)*
G04 Created by KiCad (PCBNEW 8.99.0-unknown-1.20241217gite6b7397.fc40) date 2024-12-24 22:56:10*
%MOMM*%
%LPD*%
G01*
G04 APERTURE LIST*
G04 Aperture macros list*
%AMRoundRect*
0 Rectangle with rounded corners*
0 $1 Rounding radius*
0 $2 $3 $4 $5 $6 $7 $8 $9 X,Y pos of 4 corners*
0 Add a 4 corners polygon primitive as box body*
4,1,4,$2,$3,$4,$5,$6,$7,$8,$9,$2,$3,0*
0 Add four circle primitives for the rounded corners*
1,1,$1+$1,$2,$3*
1,1,$1+$1,$4,$5*
1,1,$1+$1,$6,$7*
1,1,$1+$1,$8,$9*
0 Add four rect primitives between the rounded corners*
20,1,$1+$1,$2,$3,$4,$5,0*
20,1,$1+$1,$4,$5,$6,$7,0*
20,1,$1+$1,$6,$7,$8,$9,0*
20,1,$1+$1,$8,$9,$2,$3,0*%
G04 Aperture macros list end*
%ADD10C,0.250000*%
%ADD11C,0.300000*%
%ADD12C,0.200000*%
%ADD13C,0.100000*%
%ADD14C,0.130000*%
%ADD15C,0.203200*%
%ADD16C,0.150000*%
%ADD17C,0.120000*%
%ADD18C,0.127000*%
%ADD19C,0.000000*%
%ADD20C,4.000000*%
%ADD21C,2.200000*%
%ADD22RoundRect,0.250038X0.353607X0.000000X0.000000X0.353607X-0.353607X0.000000X0.000000X-0.353607X0*%
%ADD23RoundRect,0.060500X-0.181500X0.776500X-0.181500X-0.776500X0.181500X-0.776500X0.181500X0.776500X0*%
%ADD24RoundRect,0.250038X0.159099X-0.512706X0.512706X-0.159099X-0.159099X0.512706X-0.512706X0.159099X0*%
%ADD25RoundRect,0.000076X-0.800000X-0.800000X0.800000X-0.800000X0.800000X0.800000X-0.800000X0.800000X0*%
%ADD26O,1.600152X1.600152*%
%ADD27RoundRect,0.225038X0.225038X0.250038X-0.225038X0.250038X-0.225038X-0.250038X0.225038X-0.250038X0*%
%ADD28RoundRect,0.200038X-0.200038X-0.275038X0.200038X-0.275038X0.200038X0.275038X-0.200038X0.275038X0*%
%ADD29RoundRect,0.243788X-0.456288X0.243788X-0.456288X-0.243788X0.456288X-0.243788X0.456288X0.243788X0*%
%ADD30RoundRect,0.140038X-0.170038X0.140038X-0.170038X-0.140038X0.170038X-0.140038X0.170038X0.140038X0*%
%ADD31RoundRect,0.243788X0.456288X-0.243788X0.456288X0.243788X-0.456288X0.243788X-0.456288X-0.243788X0*%
%ADD32RoundRect,0.250038X-0.159099X0.512706X-0.512706X0.159099X0.159099X-0.512706X0.512706X-0.159099X0*%
%ADD33RoundRect,0.250038X-0.250038X-0.475038X0.250038X-0.475038X0.250038X0.475038X-0.250038X0.475038X0*%
%ADD34RoundRect,0.250038X-0.475038X0.250038X-0.475038X-0.250038X0.475038X-0.250038X0.475038X0.250038X0*%
%ADD35RoundRect,0.000076X0.070711X0.919239X-0.919239X-0.070711X-0.070711X-0.919239X0.919239X0.070711X0*%
%ADD36RoundRect,0.200038X0.200038X0.275038X-0.200038X0.275038X-0.200038X-0.275038X0.200038X-0.275038X0*%
%ADD37RoundRect,0.250038X-0.512706X-0.159099X-0.159099X-0.512706X0.512706X0.159099X0.159099X0.512706X0*%
%ADD38C,1.000000*%
%ADD39RoundRect,0.000076X0.750000X-0.500000X0.750000X0.500000X-0.750000X0.500000X-0.750000X-0.500000X0*%
%ADD40RoundRect,0.250031X-0.850045X-0.350045X0.850045X-0.350045X0.850045X0.350045X-0.850045X0.350045X0*%
%ADD41RoundRect,0.250004X-2.950072X-2.650072X2.950072X-2.650072X2.950072X2.650072X-2.950072X2.650072X0*%
%ADD42RoundRect,0.000076X-0.500000X-0.750000X0.500000X-0.750000X0.500000X0.750000X-0.500000X0.750000X0*%
%ADD43RoundRect,0.250038X0.475038X-0.250038X0.475038X0.250038X-0.475038X0.250038X-0.475038X-0.250038X0*%
%ADD44RoundRect,0.250038X0.512706X0.159099X0.159099X0.512706X-0.512706X-0.159099X-0.159099X-0.512706X0*%
%ADD45RoundRect,0.000076X0.400000X0.250000X-0.400000X0.250000X-0.400000X-0.250000X0.400000X-0.250000X0*%
%ADD46RoundRect,0.000076X0.400000X0.200000X-0.400000X0.200000X-0.400000X-0.200000X0.400000X-0.200000X0*%
%ADD47RoundRect,0.200038X0.275038X-0.200038X0.275038X0.200038X-0.275038X0.200038X-0.275038X-0.200038X0*%
%ADD48RoundRect,0.200038X-0.275038X0.200038X-0.275038X-0.200038X0.275038X-0.200038X0.275038X0.200038X0*%
%ADD49RoundRect,0.200038X0.053033X-0.335929X0.335929X-0.053033X-0.053033X0.335929X-0.335929X0.053033X0*%
%ADD50RoundRect,0.375038X-0.375038X0.625038X-0.375038X-0.625038X0.375038X-0.625038X0.375038X0.625038X0*%
%ADD51RoundRect,0.500038X-1.400038X0.500038X-1.400038X-0.500038X1.400038X-0.500038X1.400038X0.500038X0*%
%ADD52RoundRect,0.218788X-0.218788X-0.256288X0.218788X-0.256288X0.218788X0.256288X-0.218788X0.256288X0*%
%ADD53RoundRect,0.075038X-0.565739X0.459619X0.459619X-0.565739X0.565739X-0.459619X-0.459619X0.565739X0*%
%ADD54RoundRect,0.075038X-0.565739X-0.459619X-0.459619X-0.565739X0.565739X0.459619X0.459619X0.565739X0*%
%ADD55RoundRect,0.150038X0.150038X-0.825038X0.150038X0.825038X-0.150038X0.825038X-0.150038X-0.825038X0*%
%ADD56RoundRect,0.000076X0.250000X-0.400000X0.250000X0.400000X-0.250000X0.400000X-0.250000X-0.400000X0*%
%ADD57RoundRect,0.000076X0.200000X-0.400000X0.200000X0.400000X-0.200000X0.400000X-0.200000X-0.400000X0*%
%ADD58RoundRect,0.150038X0.650038X0.150038X-0.650038X0.150038X-0.650038X-0.150038X0.650038X-0.150038X0*%
%ADD59RoundRect,0.250038X0.250038X0.475038X-0.250038X0.475038X-0.250038X-0.475038X0.250038X-0.475038X0*%
%ADD60RoundRect,0.000076X-0.550000X-0.550000X0.550000X-0.550000X0.550000X0.550000X-0.550000X0.550000X0*%
%ADD61C,1.100152*%
%ADD62O,1.100152X2.400152*%
%ADD63C,2.375052*%
%ADD64C,0.990752*%
%ADD65C,0.787552*%
%ADD66RoundRect,0.250031X-0.350045X0.850045X-0.350045X-0.850045X0.350045X-0.850045X0.350045X0.850045X0*%
%ADD67RoundRect,0.250004X-2.650072X2.950072X-2.650072X-2.950072X2.650072X-2.950072X2.650072X2.950072X0*%
%ADD68RoundRect,0.250024X-0.550052X1.500052X-0.550052X-1.500052X0.550052X-1.500052X0.550052X1.500052X0*%
%ADD69RoundRect,0.150038X0.521545X-0.309359X-0.309359X0.521545X-0.521545X0.309359X0.309359X-0.521545X0*%
%ADD70RoundRect,0.150038X0.256326X0.468512X-0.468512X-0.256326X-0.256326X-0.468512X0.468512X0.256326X0*%
%ADD71RoundRect,0.000076X0.250000X0.175000X-0.250000X0.175000X-0.250000X-0.175000X0.250000X-0.175000X0*%
%ADD72RoundRect,0.000076X-0.750000X0.500000X-0.750000X-0.500000X0.750000X-0.500000X0.750000X0.500000X0*%
%ADD73RoundRect,0.000076X-0.250000X0.400000X-0.250000X-0.400000X0.250000X-0.400000X0.250000X0.400000X0*%
%ADD74RoundRect,0.000076X-0.200000X0.400000X-0.200000X-0.400000X0.200000X-0.400000X0.200000X0.400000X0*%
%ADD75RoundRect,0.218788X0.218788X0.256288X-0.218788X0.256288X-0.218788X-0.256288X0.218788X-0.256288X0*%
%ADD76RoundRect,0.112538X0.112538X-0.187538X0.112538X0.187538X-0.112538X0.187538X-0.112538X-0.187538X0*%
%ADD77RoundRect,0.225038X0.250038X-0.225038X0.250038X0.225038X-0.250038X0.225038X-0.250038X-0.225038X0*%
%ADD78RoundRect,0.250023X0.600053X0.750053X-0.600053X0.750053X-0.600053X-0.750053X0.600053X-0.750053X0*%
%ADD79O,1.700152X2.000152*%
%ADD80C,1.524152*%
%ADD81RoundRect,0.250021X-1.000055X-0.650055X1.000055X-0.650055X1.000055X0.650055X-1.000055X0.650055X0*%
%ADD82RoundRect,0.100038X-0.100038X0.225038X-0.100038X-0.225038X0.100038X-0.225038X0.100038X0.225038X0*%
%ADD83RoundRect,0.000076X0.750000X0.750000X-0.750000X0.750000X-0.750000X-0.750000X0.750000X-0.750000X0*%
%ADD84RoundRect,0.225038X-0.250038X0.225038X-0.250038X-0.225038X0.250038X-0.225038X0.250038X0.225038X0*%
%ADD85RoundRect,0.150038X-0.325038X-0.150038X0.325038X-0.150038X0.325038X0.150038X-0.325038X0.150038X0*%
%ADD86RoundRect,0.150038X-0.150038X-0.325038X0.150038X-0.325038X0.150038X0.325038X-0.150038X0.325038X0*%
%ADD87RoundRect,0.100038X-0.637538X-0.100038X0.637538X-0.100038X0.637538X0.100038X-0.637538X0.100038X0*%
%ADD88RoundRect,0.150038X0.825038X0.150038X-0.825038X0.150038X-0.825038X-0.150038X0.825038X-0.150038X0*%
%ADD89RoundRect,0.076200X-0.400000X0.750000X-0.400000X-0.750000X0.400000X-0.750000X0.400000X0.750000X0*%
%ADD90RoundRect,0.076200X-0.650000X-0.700000X0.650000X-0.700000X0.650000X0.700000X-0.650000X0.700000X0*%
%ADD91RoundRect,0.076200X-0.700000X0.950000X-0.700000X-0.950000X0.700000X-0.950000X0.700000X0.950000X0*%
%ADD92RoundRect,0.076200X0.475000X-0.500000X0.475000X0.500000X-0.475000X0.500000X-0.475000X-0.500000X0*%
%ADD93RoundRect,0.150038X0.150038X-0.725038X0.150038X0.725038X-0.150038X0.725038X-0.150038X-0.725038X0*%
%ADD94RoundRect,0.250034X-0.312542X-0.625042X0.312542X-0.625042X0.312542X0.625042X-0.312542X0.625042X0*%
%ADD95RoundRect,0.250024X0.550052X-1.500052X0.550052X1.500052X-0.550052X1.500052X-0.550052X-1.500052X0*%
%ADD96C,4.000152*%
%ADD97C,2.200152*%
%ADD98C,1.600152*%
%ADD99RoundRect,0.000076X-0.850000X-0.850000X0.850000X-0.850000X0.850000X0.850000X-0.850000X0.850000X0*%
%ADD100O,1.700152X1.700152*%
%ADD101RoundRect,0.250015X-1.000061X1.400061X-1.000061X-1.400061X1.000061X-1.400061X1.000061X1.400061X0*%
%ADD102RoundRect,0.000076X-0.750000X-0.750000X0.750000X-0.750000X0.750000X0.750000X-0.750000X0.750000X0*%
G04 APERTURE END LIST*
D10*
X146624657Y-46923509D02*
X127320657Y-46923509D01*
X127320657Y-50987509D02*
X146624657Y-50987509D01*
X146624657Y-50987509D02*
X146624657Y-46923509D01*
X125260000Y-95955000D02*
X132380000Y-95955000D01*
X132380000Y-101385000D01*
X125260000Y-101385000D01*
X125260000Y-95955000D01*
X141400000Y-94325000D02*
X141400000Y-100600000D01*
X127320657Y-46923509D02*
X127320657Y-50987509D01*
X128840000Y-96095000D02*
X128838492Y-101261238D01*
D11*
X143961653Y-115100828D02*
X143461653Y-114386542D01*
X143104510Y-115100828D02*
X143104510Y-113600828D01*
X143104510Y-113600828D02*
X143675939Y-113600828D01*
X143675939Y-113600828D02*
X143818796Y-113672257D01*
X143818796Y-113672257D02*
X143890225Y-113743685D01*
X143890225Y-113743685D02*
X143961653Y-113886542D01*
X143961653Y-113886542D02*
X143961653Y-114100828D01*
X143961653Y-114100828D02*
X143890225Y-114243685D01*
X143890225Y-114243685D02*
X143818796Y-114315114D01*
X143818796Y-114315114D02*
X143675939Y-114386542D01*
X143675939Y-114386542D02*
X143104510Y-114386542D01*
X144604510Y-114315114D02*
X145104510Y-114315114D01*
X145318796Y-115100828D02*
X144604510Y-115100828D01*
X144604510Y-115100828D02*
X144604510Y-113600828D01*
X144604510Y-113600828D02*
X145318796Y-113600828D01*
X145890225Y-115029400D02*
X146104511Y-115100828D01*
X146104511Y-115100828D02*
X146461653Y-115100828D01*
X146461653Y-115100828D02*
X146604511Y-115029400D01*
X146604511Y-115029400D02*
X146675939Y-114957971D01*
X146675939Y-114957971D02*
X146747368Y-114815114D01*
X146747368Y-114815114D02*
X146747368Y-114672257D01*
X146747368Y-114672257D02*
X146675939Y-114529400D01*
X146675939Y-114529400D02*
X146604511Y-114457971D01*
X146604511Y-114457971D02*
X146461653Y-114386542D01*
X146461653Y-114386542D02*
X146175939Y-114315114D01*
X146175939Y-114315114D02*
X146033082Y-114243685D01*
X146033082Y-114243685D02*
X145961653Y-114172257D01*
X145961653Y-114172257D02*
X145890225Y-114029400D01*
X145890225Y-114029400D02*
X145890225Y-113886542D01*
X145890225Y-113886542D02*
X145961653Y-113743685D01*
X145961653Y-113743685D02*
X146033082Y-113672257D01*
X146033082Y-113672257D02*
X146175939Y-113600828D01*
X146175939Y-113600828D02*
X146533082Y-113600828D01*
X146533082Y-113600828D02*
X146747368Y-113672257D01*
X147390224Y-114315114D02*
X147890224Y-114315114D01*
X148104510Y-115100828D02*
X147390224Y-115100828D01*
X147390224Y-115100828D02*
X147390224Y-113600828D01*
X147390224Y-113600828D02*
X148104510Y-113600828D01*
X148533082Y-113600828D02*
X149390225Y-113600828D01*
X148961653Y-115100828D02*
X148961653Y-113600828D01*
D12*
X119551666Y-134035552D02*
X119468333Y-134702219D01*
X119123095Y-134035552D02*
X119057619Y-134559361D01*
X119057619Y-134559361D02*
X119093333Y-134654600D01*
X119093333Y-134654600D02*
X119182619Y-134702219D01*
X119182619Y-134702219D02*
X119325476Y-134702219D01*
X119325476Y-134702219D02*
X119426666Y-134654600D01*
X119426666Y-134654600D02*
X119480238Y-134606980D01*
X120010000Y-134178409D02*
X120343333Y-134178409D01*
X120420714Y-134702219D02*
X119944523Y-134702219D01*
X119944523Y-134702219D02*
X120069523Y-133702219D01*
X120069523Y-133702219D02*
X120545714Y-133702219D01*
X121248095Y-134178409D02*
X120914762Y-134178409D01*
X120849285Y-134702219D02*
X120974285Y-133702219D01*
X120974285Y-133702219D02*
X121450476Y-133702219D01*
X121706428Y-134702219D02*
X121831428Y-133702219D01*
X122932619Y-134035552D02*
X123087381Y-134702219D01*
X123087381Y-134702219D02*
X123408809Y-134035552D01*
X123736190Y-133702219D02*
X124402857Y-133702219D01*
X124402857Y-133702219D02*
X123849286Y-134702219D01*
X124670714Y-134606980D02*
X124712381Y-134654600D01*
X124712381Y-134654600D02*
X124658809Y-134702219D01*
X124658809Y-134702219D02*
X124617143Y-134654600D01*
X124617143Y-134654600D02*
X124670714Y-134606980D01*
X124670714Y-134606980D02*
X124658809Y-134702219D01*
X125039761Y-134702219D02*
X125646904Y-134035552D01*
X125123095Y-134035552D02*
X125563571Y-134702219D01*
D13*
X137986265Y-123856895D02*
X137986265Y-123056895D01*
X137986265Y-123056895D02*
X138176741Y-123056895D01*
X138176741Y-123056895D02*
X138291027Y-123094990D01*
X138291027Y-123094990D02*
X138367217Y-123171180D01*
X138367217Y-123171180D02*
X138405312Y-123247371D01*
X138405312Y-123247371D02*
X138443408Y-123399752D01*
X138443408Y-123399752D02*
X138443408Y-123514038D01*
X138443408Y-123514038D02*
X138405312Y-123666419D01*
X138405312Y-123666419D02*
X138367217Y-123742609D01*
X138367217Y-123742609D02*
X138291027Y-123818800D01*
X138291027Y-123818800D02*
X138176741Y-123856895D01*
X138176741Y-123856895D02*
X137986265Y-123856895D01*
X138786265Y-123856895D02*
X138786265Y-123323561D01*
X138786265Y-123056895D02*
X138748169Y-123094990D01*
X138748169Y-123094990D02*
X138786265Y-123133085D01*
X138786265Y-123133085D02*
X138824360Y-123094990D01*
X138824360Y-123094990D02*
X138786265Y-123056895D01*
X138786265Y-123056895D02*
X138786265Y-123133085D01*
X139129121Y-123818800D02*
X139205312Y-123856895D01*
X139205312Y-123856895D02*
X139357693Y-123856895D01*
X139357693Y-123856895D02*
X139433883Y-123818800D01*
X139433883Y-123818800D02*
X139471979Y-123742609D01*
X139471979Y-123742609D02*
X139471979Y-123704514D01*
X139471979Y-123704514D02*
X139433883Y-123628323D01*
X139433883Y-123628323D02*
X139357693Y-123590228D01*
X139357693Y-123590228D02*
X139243407Y-123590228D01*
X139243407Y-123590228D02*
X139167217Y-123552133D01*
X139167217Y-123552133D02*
X139129121Y-123475942D01*
X139129121Y-123475942D02*
X139129121Y-123437847D01*
X139129121Y-123437847D02*
X139167217Y-123361657D01*
X139167217Y-123361657D02*
X139243407Y-123323561D01*
X139243407Y-123323561D02*
X139357693Y-123323561D01*
X139357693Y-123323561D02*
X139433883Y-123361657D01*
X140119598Y-123818800D02*
X140043407Y-123856895D01*
X140043407Y-123856895D02*
X139891026Y-123856895D01*
X139891026Y-123856895D02*
X139814836Y-123818800D01*
X139814836Y-123818800D02*
X139776740Y-123742609D01*
X139776740Y-123742609D02*
X139776740Y-123437847D01*
X139776740Y-123437847D02*
X139814836Y-123361657D01*
X139814836Y-123361657D02*
X139891026Y-123323561D01*
X139891026Y-123323561D02*
X140043407Y-123323561D01*
X140043407Y-123323561D02*
X140119598Y-123361657D01*
X140119598Y-123361657D02*
X140157693Y-123437847D01*
X140157693Y-123437847D02*
X140157693Y-123514038D01*
X140157693Y-123514038D02*
X139776740Y-123590228D01*
X140500550Y-123323561D02*
X140500550Y-123856895D01*
X140500550Y-123399752D02*
X140538645Y-123361657D01*
X140538645Y-123361657D02*
X140614835Y-123323561D01*
X140614835Y-123323561D02*
X140729121Y-123323561D01*
X140729121Y-123323561D02*
X140805312Y-123361657D01*
X140805312Y-123361657D02*
X140843407Y-123437847D01*
X140843407Y-123437847D02*
X140843407Y-123856895D01*
X140462454Y-123133085D02*
X140500550Y-123094990D01*
X140500550Y-123094990D02*
X140576740Y-123056895D01*
X140576740Y-123056895D02*
X140729121Y-123133085D01*
X140729121Y-123133085D02*
X140805312Y-123094990D01*
X140805312Y-123094990D02*
X140843407Y-123056895D01*
X141567217Y-123856895D02*
X141567217Y-123437847D01*
X141567217Y-123437847D02*
X141529122Y-123361657D01*
X141529122Y-123361657D02*
X141452931Y-123323561D01*
X141452931Y-123323561D02*
X141300550Y-123323561D01*
X141300550Y-123323561D02*
X141224360Y-123361657D01*
X141567217Y-123818800D02*
X141491026Y-123856895D01*
X141491026Y-123856895D02*
X141300550Y-123856895D01*
X141300550Y-123856895D02*
X141224360Y-123818800D01*
X141224360Y-123818800D02*
X141186264Y-123742609D01*
X141186264Y-123742609D02*
X141186264Y-123666419D01*
X141186264Y-123666419D02*
X141224360Y-123590228D01*
X141224360Y-123590228D02*
X141300550Y-123552133D01*
X141300550Y-123552133D02*
X141491026Y-123552133D01*
X141491026Y-123552133D02*
X141567217Y-123514038D01*
X142291027Y-123856895D02*
X142291027Y-123056895D01*
X142291027Y-123818800D02*
X142214836Y-123856895D01*
X142214836Y-123856895D02*
X142062455Y-123856895D01*
X142062455Y-123856895D02*
X141986265Y-123818800D01*
X141986265Y-123818800D02*
X141948170Y-123780704D01*
X141948170Y-123780704D02*
X141910074Y-123704514D01*
X141910074Y-123704514D02*
X141910074Y-123475942D01*
X141910074Y-123475942D02*
X141948170Y-123399752D01*
X141948170Y-123399752D02*
X141986265Y-123361657D01*
X141986265Y-123361657D02*
X142062455Y-123323561D01*
X142062455Y-123323561D02*
X142214836Y-123323561D01*
X142214836Y-123323561D02*
X142291027Y-123361657D01*
X142786265Y-123856895D02*
X142710075Y-123818800D01*
X142710075Y-123818800D02*
X142671980Y-123780704D01*
X142671980Y-123780704D02*
X142633884Y-123704514D01*
X142633884Y-123704514D02*
X142633884Y-123475942D01*
X142633884Y-123475942D02*
X142671980Y-123399752D01*
X142671980Y-123399752D02*
X142710075Y-123361657D01*
X142710075Y-123361657D02*
X142786265Y-123323561D01*
X142786265Y-123323561D02*
X142900551Y-123323561D01*
X142900551Y-123323561D02*
X142976742Y-123361657D01*
X142976742Y-123361657D02*
X143014837Y-123399752D01*
X143014837Y-123399752D02*
X143052932Y-123475942D01*
X143052932Y-123475942D02*
X143052932Y-123704514D01*
X143052932Y-123704514D02*
X143014837Y-123780704D01*
X143014837Y-123780704D02*
X142976742Y-123818800D01*
X142976742Y-123818800D02*
X142900551Y-123856895D01*
X142900551Y-123856895D02*
X142786265Y-123856895D01*
X144310076Y-123818800D02*
X144233885Y-123856895D01*
X144233885Y-123856895D02*
X144081504Y-123856895D01*
X144081504Y-123856895D02*
X144005314Y-123818800D01*
X144005314Y-123818800D02*
X143967218Y-123742609D01*
X143967218Y-123742609D02*
X143967218Y-123437847D01*
X143967218Y-123437847D02*
X144005314Y-123361657D01*
X144005314Y-123361657D02*
X144081504Y-123323561D01*
X144081504Y-123323561D02*
X144233885Y-123323561D01*
X144233885Y-123323561D02*
X144310076Y-123361657D01*
X144310076Y-123361657D02*
X144348171Y-123437847D01*
X144348171Y-123437847D02*
X144348171Y-123514038D01*
X144348171Y-123514038D02*
X143967218Y-123590228D01*
X144691028Y-123323561D02*
X144691028Y-123856895D01*
X144691028Y-123399752D02*
X144729123Y-123361657D01*
X144729123Y-123361657D02*
X144805313Y-123323561D01*
X144805313Y-123323561D02*
X144919599Y-123323561D01*
X144919599Y-123323561D02*
X144995790Y-123361657D01*
X144995790Y-123361657D02*
X145033885Y-123437847D01*
X145033885Y-123437847D02*
X145033885Y-123856895D01*
X145986266Y-123628323D02*
X146367219Y-123628323D01*
X145910076Y-123856895D02*
X146176743Y-123056895D01*
X146176743Y-123056895D02*
X146443409Y-123856895D01*
X146710076Y-123856895D02*
X146710076Y-123323561D01*
X146710076Y-123475942D02*
X146748171Y-123399752D01*
X146748171Y-123399752D02*
X146786266Y-123361657D01*
X146786266Y-123361657D02*
X146862457Y-123323561D01*
X146862457Y-123323561D02*
X146938647Y-123323561D01*
X147548171Y-123323561D02*
X147548171Y-123971180D01*
X147548171Y-123971180D02*
X147510076Y-124047371D01*
X147510076Y-124047371D02*
X147471980Y-124085466D01*
X147471980Y-124085466D02*
X147395790Y-124123561D01*
X147395790Y-124123561D02*
X147281504Y-124123561D01*
X147281504Y-124123561D02*
X147205314Y-124085466D01*
X147548171Y-123818800D02*
X147471980Y-123856895D01*
X147471980Y-123856895D02*
X147319599Y-123856895D01*
X147319599Y-123856895D02*
X147243409Y-123818800D01*
X147243409Y-123818800D02*
X147205314Y-123780704D01*
X147205314Y-123780704D02*
X147167218Y-123704514D01*
X147167218Y-123704514D02*
X147167218Y-123475942D01*
X147167218Y-123475942D02*
X147205314Y-123399752D01*
X147205314Y-123399752D02*
X147243409Y-123361657D01*
X147243409Y-123361657D02*
X147319599Y-123323561D01*
X147319599Y-123323561D02*
X147471980Y-123323561D01*
X147471980Y-123323561D02*
X147548171Y-123361657D01*
X148233886Y-123818800D02*
X148157695Y-123856895D01*
X148157695Y-123856895D02*
X148005314Y-123856895D01*
X148005314Y-123856895D02*
X147929124Y-123818800D01*
X147929124Y-123818800D02*
X147891028Y-123742609D01*
X147891028Y-123742609D02*
X147891028Y-123437847D01*
X147891028Y-123437847D02*
X147929124Y-123361657D01*
X147929124Y-123361657D02*
X148005314Y-123323561D01*
X148005314Y-123323561D02*
X148157695Y-123323561D01*
X148157695Y-123323561D02*
X148233886Y-123361657D01*
X148233886Y-123361657D02*
X148271981Y-123437847D01*
X148271981Y-123437847D02*
X148271981Y-123514038D01*
X148271981Y-123514038D02*
X147891028Y-123590228D01*
X148614838Y-123323561D02*
X148614838Y-123856895D01*
X148614838Y-123399752D02*
X148652933Y-123361657D01*
X148652933Y-123361657D02*
X148729123Y-123323561D01*
X148729123Y-123323561D02*
X148843409Y-123323561D01*
X148843409Y-123323561D02*
X148919600Y-123361657D01*
X148919600Y-123361657D02*
X148957695Y-123437847D01*
X148957695Y-123437847D02*
X148957695Y-123856895D01*
X149224362Y-123323561D02*
X149529124Y-123323561D01*
X149338648Y-123056895D02*
X149338648Y-123742609D01*
X149338648Y-123742609D02*
X149376743Y-123818800D01*
X149376743Y-123818800D02*
X149452933Y-123856895D01*
X149452933Y-123856895D02*
X149529124Y-123856895D01*
X149795791Y-123856895D02*
X149795791Y-123323561D01*
X149795791Y-123056895D02*
X149757695Y-123094990D01*
X149757695Y-123094990D02*
X149795791Y-123133085D01*
X149795791Y-123133085D02*
X149833886Y-123094990D01*
X149833886Y-123094990D02*
X149795791Y-123056895D01*
X149795791Y-123056895D02*
X149795791Y-123133085D01*
X150176743Y-123323561D02*
X150176743Y-123856895D01*
X150176743Y-123399752D02*
X150214838Y-123361657D01*
X150214838Y-123361657D02*
X150291028Y-123323561D01*
X150291028Y-123323561D02*
X150405314Y-123323561D01*
X150405314Y-123323561D02*
X150481505Y-123361657D01*
X150481505Y-123361657D02*
X150519600Y-123437847D01*
X150519600Y-123437847D02*
X150519600Y-123856895D01*
X151243410Y-123856895D02*
X151243410Y-123437847D01*
X151243410Y-123437847D02*
X151205315Y-123361657D01*
X151205315Y-123361657D02*
X151129124Y-123323561D01*
X151129124Y-123323561D02*
X150976743Y-123323561D01*
X150976743Y-123323561D02*
X150900553Y-123361657D01*
X151243410Y-123818800D02*
X151167219Y-123856895D01*
X151167219Y-123856895D02*
X150976743Y-123856895D01*
X150976743Y-123856895D02*
X150900553Y-123818800D01*
X150900553Y-123818800D02*
X150862457Y-123742609D01*
X150862457Y-123742609D02*
X150862457Y-123666419D01*
X150862457Y-123666419D02*
X150900553Y-123590228D01*
X150900553Y-123590228D02*
X150976743Y-123552133D01*
X150976743Y-123552133D02*
X151167219Y-123552133D01*
X151167219Y-123552133D02*
X151243410Y-123514038D01*
D14*
X143031954Y-95501454D02*
X142603383Y-95501454D01*
X142817668Y-95501454D02*
X142817668Y-94751454D01*
X142817668Y-94751454D02*
X142746240Y-94858597D01*
X142746240Y-94858597D02*
X142674811Y-94930025D01*
X142674811Y-94930025D02*
X142603383Y-94965740D01*
D15*
X129933228Y-48633973D02*
X129933228Y-49722544D01*
X129933228Y-49722544D02*
X129860657Y-49940259D01*
X129860657Y-49940259D02*
X129715514Y-50085402D01*
X129715514Y-50085402D02*
X129497800Y-50157973D01*
X129497800Y-50157973D02*
X129352657Y-50157973D01*
X131384657Y-50157973D02*
X130658943Y-50157973D01*
X130658943Y-50157973D02*
X130658943Y-48633973D01*
X132763514Y-50012830D02*
X132690942Y-50085402D01*
X132690942Y-50085402D02*
X132473228Y-50157973D01*
X132473228Y-50157973D02*
X132328085Y-50157973D01*
X132328085Y-50157973D02*
X132110371Y-50085402D01*
X132110371Y-50085402D02*
X131965228Y-49940259D01*
X131965228Y-49940259D02*
X131892657Y-49795116D01*
X131892657Y-49795116D02*
X131820085Y-49504830D01*
X131820085Y-49504830D02*
X131820085Y-49287116D01*
X131820085Y-49287116D02*
X131892657Y-48996830D01*
X131892657Y-48996830D02*
X131965228Y-48851687D01*
X131965228Y-48851687D02*
X132110371Y-48706544D01*
X132110371Y-48706544D02*
X132328085Y-48633973D01*
X132328085Y-48633973D02*
X132473228Y-48633973D01*
X132473228Y-48633973D02*
X132690942Y-48706544D01*
X132690942Y-48706544D02*
X132763514Y-48779116D01*
X133852085Y-48633973D02*
X133852085Y-49722544D01*
X133852085Y-49722544D02*
X133779514Y-49940259D01*
X133779514Y-49940259D02*
X133634371Y-50085402D01*
X133634371Y-50085402D02*
X133416657Y-50157973D01*
X133416657Y-50157973D02*
X133271514Y-50157973D01*
X135303514Y-50157973D02*
X134577800Y-50157973D01*
X134577800Y-50157973D02*
X134577800Y-48633973D01*
X136682371Y-50012830D02*
X136609799Y-50085402D01*
X136609799Y-50085402D02*
X136392085Y-50157973D01*
X136392085Y-50157973D02*
X136246942Y-50157973D01*
X136246942Y-50157973D02*
X136029228Y-50085402D01*
X136029228Y-50085402D02*
X135884085Y-49940259D01*
X135884085Y-49940259D02*
X135811514Y-49795116D01*
X135811514Y-49795116D02*
X135738942Y-49504830D01*
X135738942Y-49504830D02*
X135738942Y-49287116D01*
X135738942Y-49287116D02*
X135811514Y-48996830D01*
X135811514Y-48996830D02*
X135884085Y-48851687D01*
X135884085Y-48851687D02*
X136029228Y-48706544D01*
X136029228Y-48706544D02*
X136246942Y-48633973D01*
X136246942Y-48633973D02*
X136392085Y-48633973D01*
X136392085Y-48633973D02*
X136609799Y-48706544D01*
X136609799Y-48706544D02*
X136682371Y-48779116D01*
X137770942Y-48633973D02*
X137770942Y-49722544D01*
X137770942Y-49722544D02*
X137698371Y-49940259D01*
X137698371Y-49940259D02*
X137553228Y-50085402D01*
X137553228Y-50085402D02*
X137335514Y-50157973D01*
X137335514Y-50157973D02*
X137190371Y-50157973D01*
X139222371Y-50157973D02*
X138496657Y-50157973D01*
X138496657Y-50157973D02*
X138496657Y-48633973D01*
X140601228Y-50012830D02*
X140528656Y-50085402D01*
X140528656Y-50085402D02*
X140310942Y-50157973D01*
X140310942Y-50157973D02*
X140165799Y-50157973D01*
X140165799Y-50157973D02*
X139948085Y-50085402D01*
X139948085Y-50085402D02*
X139802942Y-49940259D01*
X139802942Y-49940259D02*
X139730371Y-49795116D01*
X139730371Y-49795116D02*
X139657799Y-49504830D01*
X139657799Y-49504830D02*
X139657799Y-49287116D01*
X139657799Y-49287116D02*
X139730371Y-48996830D01*
X139730371Y-48996830D02*
X139802942Y-48851687D01*
X139802942Y-48851687D02*
X139948085Y-48706544D01*
X139948085Y-48706544D02*
X140165799Y-48633973D01*
X140165799Y-48633973D02*
X140310942Y-48633973D01*
X140310942Y-48633973D02*
X140528656Y-48706544D01*
X140528656Y-48706544D02*
X140601228Y-48779116D01*
X141689799Y-48633973D02*
X141689799Y-49722544D01*
X141689799Y-49722544D02*
X141617228Y-49940259D01*
X141617228Y-49940259D02*
X141472085Y-50085402D01*
X141472085Y-50085402D02*
X141254371Y-50157973D01*
X141254371Y-50157973D02*
X141109228Y-50157973D01*
X143141228Y-50157973D02*
X142415514Y-50157973D01*
X142415514Y-50157973D02*
X142415514Y-48633973D01*
X144520085Y-50012830D02*
X144447513Y-50085402D01*
X144447513Y-50085402D02*
X144229799Y-50157973D01*
X144229799Y-50157973D02*
X144084656Y-50157973D01*
X144084656Y-50157973D02*
X143866942Y-50085402D01*
X143866942Y-50085402D02*
X143721799Y-49940259D01*
X143721799Y-49940259D02*
X143649228Y-49795116D01*
X143649228Y-49795116D02*
X143576656Y-49504830D01*
X143576656Y-49504830D02*
X143576656Y-49287116D01*
X143576656Y-49287116D02*
X143649228Y-48996830D01*
X143649228Y-48996830D02*
X143721799Y-48851687D01*
X143721799Y-48851687D02*
X143866942Y-48706544D01*
X143866942Y-48706544D02*
X144084656Y-48633973D01*
X144084656Y-48633973D02*
X144229799Y-48633973D01*
X144229799Y-48633973D02*
X144447513Y-48706544D01*
X144447513Y-48706544D02*
X144520085Y-48779116D01*
D16*
X129988207Y-100659580D02*
X129940588Y-100707200D01*
X129940588Y-100707200D02*
X129797731Y-100754819D01*
X129797731Y-100754819D02*
X129702493Y-100754819D01*
X129702493Y-100754819D02*
X129559636Y-100707200D01*
X129559636Y-100707200D02*
X129464398Y-100611961D01*
X129464398Y-100611961D02*
X129416779Y-100516723D01*
X129416779Y-100516723D02*
X129369160Y-100326247D01*
X129369160Y-100326247D02*
X129369160Y-100183390D01*
X129369160Y-100183390D02*
X129416779Y-99992914D01*
X129416779Y-99992914D02*
X129464398Y-99897676D01*
X129464398Y-99897676D02*
X129559636Y-99802438D01*
X129559636Y-99802438D02*
X129702493Y-99754819D01*
X129702493Y-99754819D02*
X129797731Y-99754819D01*
X129797731Y-99754819D02*
X129940588Y-99802438D01*
X129940588Y-99802438D02*
X129988207Y-99850057D01*
X130416779Y-100754819D02*
X130416779Y-99754819D01*
X130416779Y-99754819D02*
X130750112Y-100469104D01*
X130750112Y-100469104D02*
X131083445Y-99754819D01*
X131083445Y-99754819D02*
X131083445Y-100754819D01*
X131559636Y-100754819D02*
X131559636Y-99754819D01*
X131559636Y-99754819D02*
X131940588Y-99754819D01*
X131940588Y-99754819D02*
X132035826Y-99802438D01*
X132035826Y-99802438D02*
X132083445Y-99850057D01*
X132083445Y-99850057D02*
X132131064Y-99945295D01*
X132131064Y-99945295D02*
X132131064Y-100088152D01*
X132131064Y-100088152D02*
X132083445Y-100183390D01*
X132083445Y-100183390D02*
X132035826Y-100231009D01*
X132035826Y-100231009D02*
X131940588Y-100278628D01*
X131940588Y-100278628D02*
X131559636Y-100278628D01*
X126258207Y-100659580D02*
X126210588Y-100707200D01*
X126210588Y-100707200D02*
X126067731Y-100754819D01*
X126067731Y-100754819D02*
X125972493Y-100754819D01*
X125972493Y-100754819D02*
X125829636Y-100707200D01*
X125829636Y-100707200D02*
X125734398Y-100611961D01*
X125734398Y-100611961D02*
X125686779Y-100516723D01*
X125686779Y-100516723D02*
X125639160Y-100326247D01*
X125639160Y-100326247D02*
X125639160Y-100183390D01*
X125639160Y-100183390D02*
X125686779Y-99992914D01*
X125686779Y-99992914D02*
X125734398Y-99897676D01*
X125734398Y-99897676D02*
X125829636Y-99802438D01*
X125829636Y-99802438D02*
X125972493Y-99754819D01*
X125972493Y-99754819D02*
X126067731Y-99754819D01*
X126067731Y-99754819D02*
X126210588Y-99802438D01*
X126210588Y-99802438D02*
X126258207Y-99850057D01*
X126686779Y-100754819D02*
X126686779Y-99754819D01*
X127258207Y-100754819D02*
X126829636Y-100183390D01*
X127258207Y-99754819D02*
X126686779Y-100326247D01*
X127686779Y-100754819D02*
X127686779Y-99754819D01*
X127686779Y-99754819D02*
X128067731Y-99754819D01*
X128067731Y-99754819D02*
X128162969Y-99802438D01*
X128162969Y-99802438D02*
X128210588Y-99850057D01*
X128210588Y-99850057D02*
X128258207Y-99945295D01*
X128258207Y-99945295D02*
X128258207Y-100088152D01*
X128258207Y-100088152D02*
X128210588Y-100183390D01*
X128210588Y-100183390D02*
X128162969Y-100231009D01*
X128162969Y-100231009D02*
X128067731Y-100278628D01*
X128067731Y-100278628D02*
X127686779Y-100278628D01*
D14*
X134004097Y-99958597D02*
X134254097Y-99958597D01*
X134361240Y-100351454D02*
X134004097Y-100351454D01*
X134004097Y-100351454D02*
X134004097Y-99601454D01*
X134004097Y-99601454D02*
X134361240Y-99601454D01*
X134682668Y-99851454D02*
X134682668Y-100351454D01*
X134682668Y-99922882D02*
X134718382Y-99887168D01*
X134718382Y-99887168D02*
X134789811Y-99851454D01*
X134789811Y-99851454D02*
X134896954Y-99851454D01*
X134896954Y-99851454D02*
X134968382Y-99887168D01*
X134968382Y-99887168D02*
X135004097Y-99958597D01*
X135004097Y-99958597D02*
X135004097Y-100351454D01*
X135682668Y-100315740D02*
X135611239Y-100351454D01*
X135611239Y-100351454D02*
X135468382Y-100351454D01*
X135468382Y-100351454D02*
X135396953Y-100315740D01*
X135396953Y-100315740D02*
X135361239Y-100280025D01*
X135361239Y-100280025D02*
X135325525Y-100208597D01*
X135325525Y-100208597D02*
X135325525Y-99994311D01*
X135325525Y-99994311D02*
X135361239Y-99922882D01*
X135361239Y-99922882D02*
X135396953Y-99887168D01*
X135396953Y-99887168D02*
X135468382Y-99851454D01*
X135468382Y-99851454D02*
X135611239Y-99851454D01*
X135611239Y-99851454D02*
X135682668Y-99887168D01*
X136289810Y-100315740D02*
X136218382Y-100351454D01*
X136218382Y-100351454D02*
X136075525Y-100351454D01*
X136075525Y-100351454D02*
X136004096Y-100315740D01*
X136004096Y-100315740D02*
X135968382Y-100244311D01*
X135968382Y-100244311D02*
X135968382Y-99958597D01*
X135968382Y-99958597D02*
X136004096Y-99887168D01*
X136004096Y-99887168D02*
X136075525Y-99851454D01*
X136075525Y-99851454D02*
X136218382Y-99851454D01*
X136218382Y-99851454D02*
X136289810Y-99887168D01*
X136289810Y-99887168D02*
X136325525Y-99958597D01*
X136325525Y-99958597D02*
X136325525Y-100030025D01*
X136325525Y-100030025D02*
X135968382Y-100101454D01*
X136646953Y-99851454D02*
X136646953Y-100351454D01*
X136646953Y-99922882D02*
X136682667Y-99887168D01*
X136682667Y-99887168D02*
X136754096Y-99851454D01*
X136754096Y-99851454D02*
X136861239Y-99851454D01*
X136861239Y-99851454D02*
X136932667Y-99887168D01*
X136932667Y-99887168D02*
X136968382Y-99958597D01*
X136968382Y-99958597D02*
X136968382Y-100351454D01*
X137646953Y-100351454D02*
X137646953Y-99601454D01*
X137646953Y-100315740D02*
X137575524Y-100351454D01*
X137575524Y-100351454D02*
X137432667Y-100351454D01*
X137432667Y-100351454D02*
X137361238Y-100315740D01*
X137361238Y-100315740D02*
X137325524Y-100280025D01*
X137325524Y-100280025D02*
X137289810Y-100208597D01*
X137289810Y-100208597D02*
X137289810Y-99994311D01*
X137289810Y-99994311D02*
X137325524Y-99922882D01*
X137325524Y-99922882D02*
X137361238Y-99887168D01*
X137361238Y-99887168D02*
X137432667Y-99851454D01*
X137432667Y-99851454D02*
X137575524Y-99851454D01*
X137575524Y-99851454D02*
X137646953Y-99887168D01*
X138004095Y-100351454D02*
X138004095Y-99851454D01*
X138004095Y-99601454D02*
X137968381Y-99637168D01*
X137968381Y-99637168D02*
X138004095Y-99672882D01*
X138004095Y-99672882D02*
X138039809Y-99637168D01*
X138039809Y-99637168D02*
X138004095Y-99601454D01*
X138004095Y-99601454D02*
X138004095Y-99672882D01*
X138682667Y-100351454D02*
X138682667Y-99601454D01*
X138682667Y-100315740D02*
X138611238Y-100351454D01*
X138611238Y-100351454D02*
X138468381Y-100351454D01*
X138468381Y-100351454D02*
X138396952Y-100315740D01*
X138396952Y-100315740D02*
X138361238Y-100280025D01*
X138361238Y-100280025D02*
X138325524Y-100208597D01*
X138325524Y-100208597D02*
X138325524Y-99994311D01*
X138325524Y-99994311D02*
X138361238Y-99922882D01*
X138361238Y-99922882D02*
X138396952Y-99887168D01*
X138396952Y-99887168D02*
X138468381Y-99851454D01*
X138468381Y-99851454D02*
X138611238Y-99851454D01*
X138611238Y-99851454D02*
X138682667Y-99887168D01*
X139146952Y-100351454D02*
X139075523Y-100315740D01*
X139075523Y-100315740D02*
X139039809Y-100280025D01*
X139039809Y-100280025D02*
X139004095Y-100208597D01*
X139004095Y-100208597D02*
X139004095Y-99994311D01*
X139004095Y-99994311D02*
X139039809Y-99922882D01*
X139039809Y-99922882D02*
X139075523Y-99887168D01*
X139075523Y-99887168D02*
X139146952Y-99851454D01*
X139146952Y-99851454D02*
X139254095Y-99851454D01*
X139254095Y-99851454D02*
X139325523Y-99887168D01*
X139325523Y-99887168D02*
X139361238Y-99922882D01*
X139361238Y-99922882D02*
X139396952Y-99994311D01*
X139396952Y-99994311D02*
X139396952Y-100208597D01*
X139396952Y-100208597D02*
X139361238Y-100280025D01*
X139361238Y-100280025D02*
X139325523Y-100315740D01*
X139325523Y-100315740D02*
X139254095Y-100351454D01*
X139254095Y-100351454D02*
X139146952Y-100351454D01*
X134121954Y-95376454D02*
X133693383Y-95376454D01*
X133907668Y-95376454D02*
X133907668Y-94626454D01*
X133907668Y-94626454D02*
X133836240Y-94733597D01*
X133836240Y-94733597D02*
X133764811Y-94805025D01*
X133764811Y-94805025D02*
X133693383Y-94840740D01*
X132186943Y-47148713D02*
X132186943Y-47684427D01*
X132186943Y-47684427D02*
X132151228Y-47791570D01*
X132151228Y-47791570D02*
X132079800Y-47862999D01*
X132079800Y-47862999D02*
X131972657Y-47898713D01*
X131972657Y-47898713D02*
X131901228Y-47898713D01*
X132901229Y-47898713D02*
X132544086Y-47898713D01*
X132544086Y-47898713D02*
X132544086Y-47148713D01*
X133579800Y-47827284D02*
X133544086Y-47862999D01*
X133544086Y-47862999D02*
X133436943Y-47898713D01*
X133436943Y-47898713D02*
X133365515Y-47898713D01*
X133365515Y-47898713D02*
X133258372Y-47862999D01*
X133258372Y-47862999D02*
X133186943Y-47791570D01*
X133186943Y-47791570D02*
X133151229Y-47720141D01*
X133151229Y-47720141D02*
X133115515Y-47577284D01*
X133115515Y-47577284D02*
X133115515Y-47470141D01*
X133115515Y-47470141D02*
X133151229Y-47327284D01*
X133151229Y-47327284D02*
X133186943Y-47255856D01*
X133186943Y-47255856D02*
X133258372Y-47184427D01*
X133258372Y-47184427D02*
X133365515Y-47148713D01*
X133365515Y-47148713D02*
X133436943Y-47148713D01*
X133436943Y-47148713D02*
X133544086Y-47184427D01*
X133544086Y-47184427D02*
X133579800Y-47220141D01*
X134615515Y-47148713D02*
X134758372Y-47148713D01*
X134758372Y-47148713D02*
X134829801Y-47184427D01*
X134829801Y-47184427D02*
X134901229Y-47255856D01*
X134901229Y-47255856D02*
X134936944Y-47398713D01*
X134936944Y-47398713D02*
X134936944Y-47648713D01*
X134936944Y-47648713D02*
X134901229Y-47791570D01*
X134901229Y-47791570D02*
X134829801Y-47862999D01*
X134829801Y-47862999D02*
X134758372Y-47898713D01*
X134758372Y-47898713D02*
X134615515Y-47898713D01*
X134615515Y-47898713D02*
X134544087Y-47862999D01*
X134544087Y-47862999D02*
X134472658Y-47791570D01*
X134472658Y-47791570D02*
X134436944Y-47648713D01*
X134436944Y-47648713D02*
X134436944Y-47398713D01*
X134436944Y-47398713D02*
X134472658Y-47255856D01*
X134472658Y-47255856D02*
X134544087Y-47184427D01*
X134544087Y-47184427D02*
X134615515Y-47148713D01*
X135258372Y-47898713D02*
X135258372Y-47398713D01*
X135258372Y-47541570D02*
X135294086Y-47470141D01*
X135294086Y-47470141D02*
X135329801Y-47434427D01*
X135329801Y-47434427D02*
X135401229Y-47398713D01*
X135401229Y-47398713D02*
X135472658Y-47398713D01*
X136044087Y-47898713D02*
X136044087Y-47148713D01*
X136044087Y-47862999D02*
X135972658Y-47898713D01*
X135972658Y-47898713D02*
X135829801Y-47898713D01*
X135829801Y-47898713D02*
X135758372Y-47862999D01*
X135758372Y-47862999D02*
X135722658Y-47827284D01*
X135722658Y-47827284D02*
X135686944Y-47755856D01*
X135686944Y-47755856D02*
X135686944Y-47541570D01*
X135686944Y-47541570D02*
X135722658Y-47470141D01*
X135722658Y-47470141D02*
X135758372Y-47434427D01*
X135758372Y-47434427D02*
X135829801Y-47398713D01*
X135829801Y-47398713D02*
X135972658Y-47398713D01*
X135972658Y-47398713D02*
X136044087Y-47434427D01*
X136686943Y-47862999D02*
X136615515Y-47898713D01*
X136615515Y-47898713D02*
X136472658Y-47898713D01*
X136472658Y-47898713D02*
X136401229Y-47862999D01*
X136401229Y-47862999D02*
X136365515Y-47791570D01*
X136365515Y-47791570D02*
X136365515Y-47505856D01*
X136365515Y-47505856D02*
X136401229Y-47434427D01*
X136401229Y-47434427D02*
X136472658Y-47398713D01*
X136472658Y-47398713D02*
X136615515Y-47398713D01*
X136615515Y-47398713D02*
X136686943Y-47434427D01*
X136686943Y-47434427D02*
X136722658Y-47505856D01*
X136722658Y-47505856D02*
X136722658Y-47577284D01*
X136722658Y-47577284D02*
X136365515Y-47648713D01*
X137044086Y-47898713D02*
X137044086Y-47398713D01*
X137044086Y-47541570D02*
X137079800Y-47470141D01*
X137079800Y-47470141D02*
X137115515Y-47434427D01*
X137115515Y-47434427D02*
X137186943Y-47398713D01*
X137186943Y-47398713D02*
X137258372Y-47398713D01*
X138079801Y-47898713D02*
X138079801Y-47148713D01*
X138079801Y-47148713D02*
X138508372Y-47898713D01*
X138508372Y-47898713D02*
X138508372Y-47148713D01*
X139186944Y-47398713D02*
X139186944Y-47898713D01*
X138865515Y-47398713D02*
X138865515Y-47791570D01*
X138865515Y-47791570D02*
X138901229Y-47862999D01*
X138901229Y-47862999D02*
X138972658Y-47898713D01*
X138972658Y-47898713D02*
X139079801Y-47898713D01*
X139079801Y-47898713D02*
X139151229Y-47862999D01*
X139151229Y-47862999D02*
X139186944Y-47827284D01*
X139544086Y-47898713D02*
X139544086Y-47398713D01*
X139544086Y-47470141D02*
X139579800Y-47434427D01*
X139579800Y-47434427D02*
X139651229Y-47398713D01*
X139651229Y-47398713D02*
X139758372Y-47398713D01*
X139758372Y-47398713D02*
X139829800Y-47434427D01*
X139829800Y-47434427D02*
X139865515Y-47505856D01*
X139865515Y-47505856D02*
X139865515Y-47898713D01*
X139865515Y-47505856D02*
X139901229Y-47434427D01*
X139901229Y-47434427D02*
X139972657Y-47398713D01*
X139972657Y-47398713D02*
X140079800Y-47398713D01*
X140079800Y-47398713D02*
X140151229Y-47434427D01*
X140151229Y-47434427D02*
X140186943Y-47505856D01*
X140186943Y-47505856D02*
X140186943Y-47898713D01*
X140544086Y-47898713D02*
X140544086Y-47148713D01*
X140544086Y-47434427D02*
X140615515Y-47398713D01*
X140615515Y-47398713D02*
X140758372Y-47398713D01*
X140758372Y-47398713D02*
X140829800Y-47434427D01*
X140829800Y-47434427D02*
X140865515Y-47470141D01*
X140865515Y-47470141D02*
X140901229Y-47541570D01*
X140901229Y-47541570D02*
X140901229Y-47755856D01*
X140901229Y-47755856D02*
X140865515Y-47827284D01*
X140865515Y-47827284D02*
X140829800Y-47862999D01*
X140829800Y-47862999D02*
X140758372Y-47898713D01*
X140758372Y-47898713D02*
X140615515Y-47898713D01*
X140615515Y-47898713D02*
X140544086Y-47862999D01*
X141508371Y-47862999D02*
X141436943Y-47898713D01*
X141436943Y-47898713D02*
X141294086Y-47898713D01*
X141294086Y-47898713D02*
X141222657Y-47862999D01*
X141222657Y-47862999D02*
X141186943Y-47791570D01*
X141186943Y-47791570D02*
X141186943Y-47505856D01*
X141186943Y-47505856D02*
X141222657Y-47434427D01*
X141222657Y-47434427D02*
X141294086Y-47398713D01*
X141294086Y-47398713D02*
X141436943Y-47398713D01*
X141436943Y-47398713D02*
X141508371Y-47434427D01*
X141508371Y-47434427D02*
X141544086Y-47505856D01*
X141544086Y-47505856D02*
X141544086Y-47577284D01*
X141544086Y-47577284D02*
X141186943Y-47648713D01*
X141865514Y-47898713D02*
X141865514Y-47398713D01*
X141865514Y-47541570D02*
X141901228Y-47470141D01*
X141901228Y-47470141D02*
X141936943Y-47434427D01*
X141936943Y-47434427D02*
X142008371Y-47398713D01*
X142008371Y-47398713D02*
X142079800Y-47398713D01*
X143039097Y-100351454D02*
X143039097Y-99601454D01*
X143396240Y-99851454D02*
X143396240Y-100351454D01*
X143396240Y-99922882D02*
X143431954Y-99887168D01*
X143431954Y-99887168D02*
X143503383Y-99851454D01*
X143503383Y-99851454D02*
X143610526Y-99851454D01*
X143610526Y-99851454D02*
X143681954Y-99887168D01*
X143681954Y-99887168D02*
X143717669Y-99958597D01*
X143717669Y-99958597D02*
X143717669Y-100351454D01*
X144003382Y-99851454D02*
X144181954Y-100351454D01*
X144360525Y-99851454D02*
X144181954Y-100351454D01*
X144181954Y-100351454D02*
X144110525Y-100530025D01*
X144110525Y-100530025D02*
X144074811Y-100565740D01*
X144074811Y-100565740D02*
X144003382Y-100601454D01*
X144931954Y-100315740D02*
X144860526Y-100351454D01*
X144860526Y-100351454D02*
X144717669Y-100351454D01*
X144717669Y-100351454D02*
X144646240Y-100315740D01*
X144646240Y-100315740D02*
X144610526Y-100244311D01*
X144610526Y-100244311D02*
X144610526Y-99958597D01*
X144610526Y-99958597D02*
X144646240Y-99887168D01*
X144646240Y-99887168D02*
X144717669Y-99851454D01*
X144717669Y-99851454D02*
X144860526Y-99851454D01*
X144860526Y-99851454D02*
X144931954Y-99887168D01*
X144931954Y-99887168D02*
X144967669Y-99958597D01*
X144967669Y-99958597D02*
X144967669Y-100030025D01*
X144967669Y-100030025D02*
X144610526Y-100101454D01*
X145610526Y-100315740D02*
X145539097Y-100351454D01*
X145539097Y-100351454D02*
X145396240Y-100351454D01*
X145396240Y-100351454D02*
X145324811Y-100315740D01*
X145324811Y-100315740D02*
X145289097Y-100280025D01*
X145289097Y-100280025D02*
X145253383Y-100208597D01*
X145253383Y-100208597D02*
X145253383Y-99994311D01*
X145253383Y-99994311D02*
X145289097Y-99922882D01*
X145289097Y-99922882D02*
X145324811Y-99887168D01*
X145324811Y-99887168D02*
X145396240Y-99851454D01*
X145396240Y-99851454D02*
X145539097Y-99851454D01*
X145539097Y-99851454D02*
X145610526Y-99887168D01*
X146253383Y-100315740D02*
X146181954Y-100351454D01*
X146181954Y-100351454D02*
X146039097Y-100351454D01*
X146039097Y-100351454D02*
X145967668Y-100315740D01*
X145967668Y-100315740D02*
X145931954Y-100280025D01*
X145931954Y-100280025D02*
X145896240Y-100208597D01*
X145896240Y-100208597D02*
X145896240Y-99994311D01*
X145896240Y-99994311D02*
X145931954Y-99922882D01*
X145931954Y-99922882D02*
X145967668Y-99887168D01*
X145967668Y-99887168D02*
X146039097Y-99851454D01*
X146039097Y-99851454D02*
X146181954Y-99851454D01*
X146181954Y-99851454D02*
X146253383Y-99887168D01*
X146574811Y-100351454D02*
X146574811Y-99851454D01*
X146574811Y-99601454D02*
X146539097Y-99637168D01*
X146539097Y-99637168D02*
X146574811Y-99672882D01*
X146574811Y-99672882D02*
X146610525Y-99637168D01*
X146610525Y-99637168D02*
X146574811Y-99601454D01*
X146574811Y-99601454D02*
X146574811Y-99672882D01*
X147039097Y-100351454D02*
X146967668Y-100315740D01*
X146967668Y-100315740D02*
X146931954Y-100280025D01*
X146931954Y-100280025D02*
X146896240Y-100208597D01*
X146896240Y-100208597D02*
X146896240Y-99994311D01*
X146896240Y-99994311D02*
X146931954Y-99922882D01*
X146931954Y-99922882D02*
X146967668Y-99887168D01*
X146967668Y-99887168D02*
X147039097Y-99851454D01*
X147039097Y-99851454D02*
X147146240Y-99851454D01*
X147146240Y-99851454D02*
X147217668Y-99887168D01*
X147217668Y-99887168D02*
X147253383Y-99922882D01*
X147253383Y-99922882D02*
X147289097Y-99994311D01*
X147289097Y-99994311D02*
X147289097Y-100208597D01*
X147289097Y-100208597D02*
X147253383Y-100280025D01*
X147253383Y-100280025D02*
X147217668Y-100315740D01*
X147217668Y-100315740D02*
X147146240Y-100351454D01*
X147146240Y-100351454D02*
X147039097Y-100351454D01*
X147181954Y-99565740D02*
X147074811Y-99672882D01*
X147610525Y-99851454D02*
X147610525Y-100351454D01*
X147610525Y-99922882D02*
X147646239Y-99887168D01*
X147646239Y-99887168D02*
X147717668Y-99851454D01*
X147717668Y-99851454D02*
X147824811Y-99851454D01*
X147824811Y-99851454D02*
X147896239Y-99887168D01*
X147896239Y-99887168D02*
X147931954Y-99958597D01*
X147931954Y-99958597D02*
X147931954Y-100351454D01*
D11*
X143604510Y-102965114D02*
X143818796Y-103036542D01*
X143818796Y-103036542D02*
X143890225Y-103107971D01*
X143890225Y-103107971D02*
X143961653Y-103250828D01*
X143961653Y-103250828D02*
X143961653Y-103465114D01*
X143961653Y-103465114D02*
X143890225Y-103607971D01*
X143890225Y-103607971D02*
X143818796Y-103679400D01*
X143818796Y-103679400D02*
X143675939Y-103750828D01*
X143675939Y-103750828D02*
X143104510Y-103750828D01*
X143104510Y-103750828D02*
X143104510Y-102250828D01*
X143104510Y-102250828D02*
X143604510Y-102250828D01*
X143604510Y-102250828D02*
X143747368Y-102322257D01*
X143747368Y-102322257D02*
X143818796Y-102393685D01*
X143818796Y-102393685D02*
X143890225Y-102536542D01*
X143890225Y-102536542D02*
X143890225Y-102679400D01*
X143890225Y-102679400D02*
X143818796Y-102822257D01*
X143818796Y-102822257D02*
X143747368Y-102893685D01*
X143747368Y-102893685D02*
X143604510Y-102965114D01*
X143604510Y-102965114D02*
X143104510Y-102965114D01*
X144890225Y-102250828D02*
X145175939Y-102250828D01*
X145175939Y-102250828D02*
X145318796Y-102322257D01*
X145318796Y-102322257D02*
X145461653Y-102465114D01*
X145461653Y-102465114D02*
X145533082Y-102750828D01*
X145533082Y-102750828D02*
X145533082Y-103250828D01*
X145533082Y-103250828D02*
X145461653Y-103536542D01*
X145461653Y-103536542D02*
X145318796Y-103679400D01*
X145318796Y-103679400D02*
X145175939Y-103750828D01*
X145175939Y-103750828D02*
X144890225Y-103750828D01*
X144890225Y-103750828D02*
X144747368Y-103679400D01*
X144747368Y-103679400D02*
X144604510Y-103536542D01*
X144604510Y-103536542D02*
X144533082Y-103250828D01*
X144533082Y-103250828D02*
X144533082Y-102750828D01*
X144533082Y-102750828D02*
X144604510Y-102465114D01*
X144604510Y-102465114D02*
X144747368Y-102322257D01*
X144747368Y-102322257D02*
X144890225Y-102250828D01*
X146461654Y-102250828D02*
X146747368Y-102250828D01*
X146747368Y-102250828D02*
X146890225Y-102322257D01*
X146890225Y-102322257D02*
X147033082Y-102465114D01*
X147033082Y-102465114D02*
X147104511Y-102750828D01*
X147104511Y-102750828D02*
X147104511Y-103250828D01*
X147104511Y-103250828D02*
X147033082Y-103536542D01*
X147033082Y-103536542D02*
X146890225Y-103679400D01*
X146890225Y-103679400D02*
X146747368Y-103750828D01*
X146747368Y-103750828D02*
X146461654Y-103750828D01*
X146461654Y-103750828D02*
X146318797Y-103679400D01*
X146318797Y-103679400D02*
X146175939Y-103536542D01*
X146175939Y-103536542D02*
X146104511Y-103250828D01*
X146104511Y-103250828D02*
X146104511Y-102750828D01*
X146104511Y-102750828D02*
X146175939Y-102465114D01*
X146175939Y-102465114D02*
X146318797Y-102322257D01*
X146318797Y-102322257D02*
X146461654Y-102250828D01*
X147533083Y-102250828D02*
X148390226Y-102250828D01*
X147961654Y-103750828D02*
X147961654Y-102250828D01*
D16*
X87864286Y-98831009D02*
X88007143Y-98878628D01*
X88007143Y-98878628D02*
X88054762Y-98926247D01*
X88054762Y-98926247D02*
X88102381Y-99021485D01*
X88102381Y-99021485D02*
X88102381Y-99164342D01*
X88102381Y-99164342D02*
X88054762Y-99259580D01*
X88054762Y-99259580D02*
X88007143Y-99307200D01*
X88007143Y-99307200D02*
X87911905Y-99354819D01*
X87911905Y-99354819D02*
X87530953Y-99354819D01*
X87530953Y-99354819D02*
X87530953Y-98354819D01*
X87530953Y-98354819D02*
X87864286Y-98354819D01*
X87864286Y-98354819D02*
X87959524Y-98402438D01*
X87959524Y-98402438D02*
X88007143Y-98450057D01*
X88007143Y-98450057D02*
X88054762Y-98545295D01*
X88054762Y-98545295D02*
X88054762Y-98640533D01*
X88054762Y-98640533D02*
X88007143Y-98735771D01*
X88007143Y-98735771D02*
X87959524Y-98783390D01*
X87959524Y-98783390D02*
X87864286Y-98831009D01*
X87864286Y-98831009D02*
X87530953Y-98831009D01*
X88388096Y-98354819D02*
X88959524Y-98354819D01*
X88673810Y-99354819D02*
X88673810Y-98354819D01*
X89816667Y-99354819D02*
X89245239Y-99354819D01*
X89530953Y-99354819D02*
X89530953Y-98354819D01*
X89530953Y-98354819D02*
X89435715Y-98497676D01*
X89435715Y-98497676D02*
X89340477Y-98592914D01*
X89340477Y-98592914D02*
X89245239Y-98640533D01*
D11*
X118329523Y-137639160D02*
X118234285Y-137734399D01*
X118234285Y-137734399D02*
X117948571Y-137829637D01*
X117948571Y-137829637D02*
X117758095Y-137829637D01*
X117758095Y-137829637D02*
X117472380Y-137734399D01*
X117472380Y-137734399D02*
X117281904Y-137543922D01*
X117281904Y-137543922D02*
X117186666Y-137353446D01*
X117186666Y-137353446D02*
X117091428Y-136972494D01*
X117091428Y-136972494D02*
X117091428Y-136686779D01*
X117091428Y-136686779D02*
X117186666Y-136305827D01*
X117186666Y-136305827D02*
X117281904Y-136115351D01*
X117281904Y-136115351D02*
X117472380Y-135924875D01*
X117472380Y-135924875D02*
X117758095Y-135829637D01*
X117758095Y-135829637D02*
X117948571Y-135829637D01*
X117948571Y-135829637D02*
X118234285Y-135924875D01*
X118234285Y-135924875D02*
X118329523Y-136020113D01*
X119186666Y-137829637D02*
X119186666Y-135829637D01*
X120043809Y-137829637D02*
X120043809Y-136782018D01*
X120043809Y-136782018D02*
X119948571Y-136591541D01*
X119948571Y-136591541D02*
X119758095Y-136496303D01*
X119758095Y-136496303D02*
X119472380Y-136496303D01*
X119472380Y-136496303D02*
X119281904Y-136591541D01*
X119281904Y-136591541D02*
X119186666Y-136686779D01*
X121853333Y-136496303D02*
X121853333Y-137829637D01*
X120996190Y-136496303D02*
X120996190Y-137543922D01*
X120996190Y-137543922D02*
X121091428Y-137734399D01*
X121091428Y-137734399D02*
X121281904Y-137829637D01*
X121281904Y-137829637D02*
X121567619Y-137829637D01*
X121567619Y-137829637D02*
X121758095Y-137734399D01*
X121758095Y-137734399D02*
X121853333Y-137639160D01*
X122805714Y-137829637D02*
X122805714Y-136496303D01*
X122805714Y-136877256D02*
X122900952Y-136686779D01*
X122900952Y-136686779D02*
X122996190Y-136591541D01*
X122996190Y-136591541D02*
X123186666Y-136496303D01*
X123186666Y-136496303D02*
X123377143Y-136496303D01*
X124043809Y-137829637D02*
X124043809Y-136496303D01*
X124043809Y-136877256D02*
X124139047Y-136686779D01*
X124139047Y-136686779D02*
X124234285Y-136591541D01*
X124234285Y-136591541D02*
X124424761Y-136496303D01*
X124424761Y-136496303D02*
X124615238Y-136496303D01*
X125567618Y-137829637D02*
X125377142Y-137734399D01*
X125377142Y-137734399D02*
X125281904Y-137639160D01*
X125281904Y-137639160D02*
X125186666Y-137448684D01*
X125186666Y-137448684D02*
X125186666Y-136877256D01*
X125186666Y-136877256D02*
X125281904Y-136686779D01*
X125281904Y-136686779D02*
X125377142Y-136591541D01*
X125377142Y-136591541D02*
X125567618Y-136496303D01*
X125567618Y-136496303D02*
X125853333Y-136496303D01*
X125853333Y-136496303D02*
X126043809Y-136591541D01*
X126043809Y-136591541D02*
X126139047Y-136686779D01*
X126139047Y-136686779D02*
X126234285Y-136877256D01*
X126234285Y-136877256D02*
X126234285Y-137448684D01*
X126234285Y-137448684D02*
X126139047Y-137639160D01*
X126139047Y-137639160D02*
X126043809Y-137734399D01*
X126043809Y-137734399D02*
X125853333Y-137829637D01*
X125853333Y-137829637D02*
X125567618Y-137829637D01*
X126996190Y-137734399D02*
X127186666Y-137829637D01*
X127186666Y-137829637D02*
X127567618Y-137829637D01*
X127567618Y-137829637D02*
X127758095Y-137734399D01*
X127758095Y-137734399D02*
X127853333Y-137543922D01*
X127853333Y-137543922D02*
X127853333Y-137448684D01*
X127853333Y-137448684D02*
X127758095Y-137258208D01*
X127758095Y-137258208D02*
X127567618Y-137162970D01*
X127567618Y-137162970D02*
X127281904Y-137162970D01*
X127281904Y-137162970D02*
X127091428Y-137067732D01*
X127091428Y-137067732D02*
X126996190Y-136877256D01*
X126996190Y-136877256D02*
X126996190Y-136782018D01*
X126996190Y-136782018D02*
X127091428Y-136591541D01*
X127091428Y-136591541D02*
X127281904Y-136496303D01*
X127281904Y-136496303D02*
X127567618Y-136496303D01*
X127567618Y-136496303D02*
X127758095Y-136591541D01*
X128996190Y-137829637D02*
X128805714Y-137734399D01*
X128805714Y-137734399D02*
X128710476Y-137639160D01*
X128710476Y-137639160D02*
X128615238Y-137448684D01*
X128615238Y-137448684D02*
X128615238Y-136877256D01*
X128615238Y-136877256D02*
X128710476Y-136686779D01*
X128710476Y-136686779D02*
X128805714Y-136591541D01*
X128805714Y-136591541D02*
X128996190Y-136496303D01*
X128996190Y-136496303D02*
X129281905Y-136496303D01*
X129281905Y-136496303D02*
X129472381Y-136591541D01*
X129472381Y-136591541D02*
X129567619Y-136686779D01*
X129567619Y-136686779D02*
X129662857Y-136877256D01*
X129662857Y-136877256D02*
X129662857Y-137448684D01*
X129662857Y-137448684D02*
X129567619Y-137639160D01*
X129567619Y-137639160D02*
X129472381Y-137734399D01*
X129472381Y-137734399D02*
X129281905Y-137829637D01*
X129281905Y-137829637D02*
X128996190Y-137829637D01*
X130234286Y-136496303D02*
X130996190Y-136496303D01*
X130520000Y-137829637D02*
X130520000Y-136115351D01*
X130520000Y-136115351D02*
X130615238Y-135924875D01*
X130615238Y-135924875D02*
X130805714Y-135829637D01*
X130805714Y-135829637D02*
X130996190Y-135829637D01*
X131377143Y-136496303D02*
X132139047Y-136496303D01*
X131662857Y-135829637D02*
X131662857Y-137543922D01*
X131662857Y-137543922D02*
X131758095Y-137734399D01*
X131758095Y-137734399D02*
X131948571Y-137829637D01*
X131948571Y-137829637D02*
X132139047Y-137829637D01*
D14*
X97230943Y-62178510D02*
X97230943Y-62711844D01*
X97088085Y-61873749D02*
X96945228Y-62445177D01*
X96945228Y-62445177D02*
X97316657Y-62445177D01*
X129584228Y-52145510D02*
X129584228Y-52678844D01*
X129441370Y-51840749D02*
X129298513Y-52412177D01*
X129298513Y-52412177D02*
X129669942Y-52412177D01*
X130184228Y-51878844D02*
X129898514Y-51878844D01*
X129898514Y-51878844D02*
X129869942Y-52259796D01*
X129869942Y-52259796D02*
X129898514Y-52221701D01*
X129898514Y-52221701D02*
X129955657Y-52183606D01*
X129955657Y-52183606D02*
X130098514Y-52183606D01*
X130098514Y-52183606D02*
X130155657Y-52221701D01*
X130155657Y-52221701D02*
X130184228Y-52259796D01*
X130184228Y-52259796D02*
X130212799Y-52335987D01*
X130212799Y-52335987D02*
X130212799Y-52526463D01*
X130212799Y-52526463D02*
X130184228Y-52602653D01*
X130184228Y-52602653D02*
X130155657Y-52640749D01*
X130155657Y-52640749D02*
X130098514Y-52678844D01*
X130098514Y-52678844D02*
X129955657Y-52678844D01*
X129955657Y-52678844D02*
X129898514Y-52640749D01*
X129898514Y-52640749D02*
X129869942Y-52602653D01*
X104368370Y-62711844D02*
X104025513Y-62711844D01*
X104196942Y-62711844D02*
X104196942Y-61911844D01*
X104196942Y-61911844D02*
X104139799Y-62026129D01*
X104139799Y-62026129D02*
X104082656Y-62102320D01*
X104082656Y-62102320D02*
X104025513Y-62140415D01*
X104596942Y-61988034D02*
X104625514Y-61949939D01*
X104625514Y-61949939D02*
X104682657Y-61911844D01*
X104682657Y-61911844D02*
X104825514Y-61911844D01*
X104825514Y-61911844D02*
X104882657Y-61949939D01*
X104882657Y-61949939D02*
X104911228Y-61988034D01*
X104911228Y-61988034D02*
X104939799Y-62064225D01*
X104939799Y-62064225D02*
X104939799Y-62140415D01*
X104939799Y-62140415D02*
X104911228Y-62254701D01*
X104911228Y-62254701D02*
X104568371Y-62711844D01*
X104568371Y-62711844D02*
X104939799Y-62711844D01*
X97034085Y-53059844D02*
X96691228Y-53059844D01*
X96862657Y-53059844D02*
X96862657Y-52259844D01*
X96862657Y-52259844D02*
X96805514Y-52374129D01*
X96805514Y-52374129D02*
X96748371Y-52450320D01*
X96748371Y-52450320D02*
X96691228Y-52488415D01*
D17*
%TO.C,D19*%
X114310244Y-119832325D02*
X112005076Y-117527157D01*
X114310244Y-119832325D02*
X115512325Y-118630244D01*
X115512325Y-118630244D02*
X113207157Y-116325076D01*
D18*
%TO.C,U1*%
X121375000Y-67155000D02*
X121375000Y-70205000D01*
X124425000Y-67155000D02*
X124425000Y-70205000D01*
D12*
X124280000Y-65060000D02*
G75*
G02*
X124080000Y-65060000I-100000J0D01*
G01*
X124080000Y-65060000D02*
G75*
G02*
X124280000Y-65060000I100000J0D01*
G01*
D17*
%TO.C,C33*%
X105795543Y-97465010D02*
X106165010Y-97095543D01*
X106834990Y-98504457D02*
X107204457Y-98134990D01*
%TO.C,A1*%
X133770000Y-73270000D02*
X133770000Y-74670000D01*
X133770000Y-75940000D02*
X133770000Y-93850000D01*
X133770000Y-93850000D02*
X149270000Y-93850000D01*
X135170000Y-73270000D02*
X133770000Y-73270000D01*
X136440000Y-73270000D02*
X136440000Y-75940000D01*
X136440000Y-75940000D02*
X133770000Y-75940000D01*
X136440000Y-75940000D02*
X136440000Y-93850000D01*
X146600000Y-73270000D02*
X146600000Y-93850000D01*
X149270000Y-73270000D02*
X136440000Y-73270000D01*
X149270000Y-93850000D02*
X149270000Y-73270000D01*
%TO.C,C3*%
X126480582Y-72620001D02*
X126199420Y-72620001D01*
X126480582Y-73640001D02*
X126199420Y-73640001D01*
%TO.C,R15*%
X141562742Y-75477500D02*
X142037258Y-75477500D01*
X141562742Y-76522500D02*
X142037258Y-76522500D01*
%TO.C,D7*%
X134915000Y-95915000D02*
X134915000Y-98600000D01*
X136835000Y-95915000D02*
X134915000Y-95915000D01*
X136835000Y-98600000D02*
X136835000Y-95915000D01*
%TO.C,C19*%
X102940000Y-70492164D02*
X102940000Y-70707836D01*
X103660000Y-70492164D02*
X103660000Y-70707836D01*
%TO.C,D4*%
X145945000Y-96600000D02*
X145945000Y-99285000D01*
X145945000Y-99285000D02*
X147865000Y-99285000D01*
X147865000Y-99285000D02*
X147865000Y-96600000D01*
%TO.C,C45*%
X91141586Y-109445679D02*
X90772119Y-109815146D01*
X92181033Y-110485126D02*
X91811566Y-110854593D01*
%TO.C,C39*%
X125158747Y-124485000D02*
X125681253Y-124485000D01*
X125158747Y-125955000D02*
X125681253Y-125955000D01*
%TO.C,C14*%
X85895000Y-83628747D02*
X85895000Y-84151253D01*
X87365000Y-83628747D02*
X87365000Y-84151253D01*
%TO.C,Y2*%
X96137487Y-98449060D02*
X93309060Y-101277487D01*
X98470940Y-100782513D02*
X96137487Y-98449060D01*
%TO.C,D9*%
X143875000Y-96600000D02*
X143875000Y-99285000D01*
X143875000Y-99285000D02*
X145795000Y-99285000D01*
X145795000Y-99285000D02*
X145795000Y-96600000D01*
%TO.C,D1*%
X148020000Y-96600000D02*
X148020000Y-99285000D01*
X148020000Y-99285000D02*
X149940000Y-99285000D01*
X149940000Y-99285000D02*
X149940000Y-96600000D01*
%TO.C,R10*%
X96012258Y-117102500D02*
X95537742Y-117102500D01*
X96012258Y-118147500D02*
X95537742Y-118147500D01*
%TO.C,C5*%
X125115000Y-70238747D02*
X125115000Y-70761253D01*
X126585000Y-70238747D02*
X126585000Y-70761253D01*
%TO.C,C42*%
X97455356Y-99109319D02*
X97824823Y-99478786D01*
X98494803Y-98069872D02*
X98864270Y-98439339D01*
%TO.C,C26*%
X101395543Y-121534990D02*
X101765010Y-121904457D01*
X102434990Y-120495543D02*
X102804457Y-120865010D01*
%TO.C,JP13*%
X125150000Y-75850000D02*
X127150000Y-75850000D01*
X125150000Y-79950000D02*
X125150000Y-75850000D01*
X127150000Y-75850000D02*
X127150000Y-79950000D01*
X127150000Y-79950000D02*
X125150000Y-79950000D01*
X127350000Y-79200000D02*
X127650000Y-78900000D01*
X127350000Y-79200000D02*
X127650000Y-79500000D01*
X127650000Y-79500000D02*
X127650000Y-78900000D01*
%TO.C,U19*%
X79555000Y-86350000D02*
X79555000Y-86620000D01*
X79555000Y-93250000D02*
X79555000Y-92980000D01*
X85975000Y-86350000D02*
X79555000Y-86350000D01*
X85975000Y-93250000D02*
X79555000Y-93250000D01*
X77825000Y-86660000D02*
X77485000Y-86190000D01*
X78165000Y-86190000D01*
X77825000Y-86660000D01*
G36*
X77825000Y-86660000D02*
G01*
X77485000Y-86190000D01*
X78165000Y-86190000D01*
X77825000Y-86660000D01*
G37*
%TO.C,JP7*%
X143250000Y-86300000D02*
X146050000Y-86300000D01*
X143250000Y-88300000D02*
X143250000Y-86300000D01*
X146050000Y-86300000D02*
X146050000Y-88300000D01*
X146050000Y-88300000D02*
X143250000Y-88300000D01*
%TO.C,C6*%
X139205000Y-107011253D02*
X139205000Y-106488747D01*
X140675000Y-107011253D02*
X140675000Y-106488747D01*
%TO.C,C43*%
X93306410Y-103983057D02*
X92936943Y-103613590D01*
X94345857Y-102943610D02*
X93976390Y-102574143D01*
%TO.C,RN5*%
X129520000Y-72620000D02*
X130520000Y-72620000D01*
X129520000Y-75980000D02*
X130520000Y-75980000D01*
%TO.C,R102*%
X117277500Y-71357258D02*
X117277500Y-70882742D01*
X118322500Y-71357258D02*
X118322500Y-70882742D01*
%TO.C,C35*%
X105638747Y-121065000D02*
X106161253Y-121065000D01*
X105638747Y-122535000D02*
X106161253Y-122535000D01*
%TO.C,R55*%
X103227500Y-86912742D02*
X103227500Y-87387258D01*
X104272500Y-86912742D02*
X104272500Y-87387258D01*
%TO.C,R27*%
X110062770Y-99898303D02*
X110398303Y-99562770D01*
X110801697Y-100637230D02*
X111137230Y-100301697D01*
%TO.C,U8*%
X76690000Y-98080000D02*
X76690000Y-101840000D01*
X76690000Y-101840000D02*
X77950000Y-101840000D01*
X83510000Y-98080000D02*
X83510000Y-101840000D01*
X83510000Y-101840000D02*
X82250000Y-101840000D01*
X83740000Y-97040000D02*
X83410000Y-96800000D01*
X83740000Y-96560000D01*
X83740000Y-97040000D01*
G36*
X83740000Y-97040000D02*
G01*
X83410000Y-96800000D01*
X83740000Y-96560000D01*
X83740000Y-97040000D01*
G37*
%TO.C,R13*%
X141562742Y-78577500D02*
X142037258Y-78577500D01*
X141562742Y-79622500D02*
X142037258Y-79622500D01*
%TO.C,D15*%
X125643494Y-97866238D02*
X125643494Y-99336238D01*
X125643494Y-99336238D02*
X127928494Y-99336238D01*
X127928494Y-97866238D02*
X125643494Y-97866238D01*
%TO.C,C4*%
X126500582Y-74220001D02*
X126219420Y-74220001D01*
X126500582Y-75240001D02*
X126219420Y-75240001D01*
%TO.C,D2*%
X139090000Y-95915000D02*
X139090000Y-98600000D01*
X141010000Y-95915000D02*
X139090000Y-95915000D01*
X141010000Y-98600000D02*
X141010000Y-95915000D01*
%TO.C,D26*%
X87915000Y-118040001D02*
X87915000Y-120725000D01*
X89835000Y-118040001D02*
X87915000Y-118040001D01*
X89835000Y-120725000D02*
X89835000Y-118040001D01*
%TO.C,R57*%
X98577500Y-87387258D02*
X98577500Y-86912742D01*
X99622500Y-87387258D02*
X99622500Y-86912742D01*
%TO.C,U22*%
X94994942Y-110000000D02*
X95489916Y-109505025D01*
X95489916Y-110494975D02*
X94994942Y-110000000D01*
X104555025Y-119560084D02*
X105050000Y-120055058D01*
X105050000Y-99944942D02*
X104555025Y-100439916D01*
X105050000Y-120055058D02*
X105544975Y-119560084D01*
X105544975Y-100439916D02*
X105050000Y-99944942D01*
X114610084Y-109505025D02*
X115105058Y-110000000D01*
X115105058Y-110000000D02*
X114610084Y-110494975D01*
X104684072Y-99904283D02*
X104111316Y-99996207D01*
X104203240Y-99423450D01*
X104684072Y-99904283D01*
G36*
X104684072Y-99904283D02*
G01*
X104111316Y-99996207D01*
X104203240Y-99423450D01*
X104684072Y-99904283D01*
G37*
%TO.C,U2*%
X128790001Y-67650000D02*
X128790000Y-65700000D01*
X128790001Y-67650000D02*
X128790000Y-69600000D01*
X133909999Y-67650000D02*
X133910000Y-65700000D01*
X133909999Y-67650000D02*
X133910000Y-69600000D01*
X128885000Y-70350000D02*
X128555000Y-70589999D01*
X128555000Y-70110000D01*
X128885000Y-70350000D01*
G36*
X128885000Y-70350000D02*
G01*
X128555000Y-70589999D01*
X128555000Y-70110000D01*
X128885000Y-70350000D01*
G37*
%TO.C,JP8*%
X143250000Y-83700000D02*
X146050000Y-83700000D01*
X143250000Y-85700000D02*
X143250000Y-83700000D01*
X146050000Y-83700000D02*
X146050000Y-85700000D01*
X146050000Y-85700000D02*
X143250000Y-85700000D01*
%TO.C,RN7*%
X99657500Y-83350000D02*
X99657500Y-84350000D01*
X103017500Y-83350000D02*
X103017500Y-84350000D01*
%TO.C,JP6*%
X143250000Y-88900000D02*
X146050000Y-88900000D01*
X143250000Y-90900000D02*
X143250000Y-88900000D01*
X146050000Y-88900000D02*
X146050000Y-90900000D01*
X146050000Y-90900000D02*
X143250000Y-90900000D01*
D19*
%TO.C,G\u002A\u002A\u002A*%
G36*
X149882752Y-117312455D02*
G01*
X149882752Y-118351630D01*
X144880000Y-118351630D01*
X139877249Y-118351630D01*
X139877249Y-117312455D01*
X139877249Y-116273281D01*
X144880000Y-116273281D01*
X149882752Y-116273281D01*
X149882752Y-117312455D01*
G37*
G36*
X149882752Y-121515134D02*
G01*
X149882752Y-122545113D01*
X144880000Y-122545113D01*
X139877249Y-122545113D01*
X139877249Y-121515134D01*
X139877249Y-120485156D01*
X144880000Y-120485156D01*
X149882752Y-120485156D01*
X149882752Y-121515134D01*
G37*
G36*
X144937314Y-119548682D02*
G01*
X144951627Y-119567815D01*
X144943726Y-119596926D01*
X144932562Y-119629335D01*
X144931236Y-119640635D01*
X144916738Y-119648260D01*
X144880000Y-119651364D01*
X144842803Y-119648164D01*
X144828764Y-119640635D01*
X144823837Y-119616818D01*
X144815866Y-119595863D01*
X144813710Y-119560218D01*
X144842397Y-119540781D01*
X144892172Y-119539180D01*
X144937314Y-119548682D01*
G37*
G36*
X144807261Y-119281589D02*
G01*
X144844133Y-119305083D01*
X144875479Y-119327452D01*
X144896396Y-119325898D01*
X144919740Y-119305083D01*
X144970696Y-119275889D01*
X145026200Y-119276871D01*
X145069898Y-119304477D01*
X145089564Y-119332616D01*
X145084276Y-119358669D01*
X145071706Y-119378047D01*
X145032066Y-119409653D01*
X144983744Y-119416979D01*
X144941911Y-119398309D01*
X144937203Y-119393244D01*
X144929258Y-119363462D01*
X144954980Y-119338365D01*
X144963709Y-119335627D01*
X145063925Y-119335627D01*
X145073121Y-119344823D01*
X145082317Y-119335627D01*
X145073121Y-119326430D01*
X145063925Y-119335627D01*
X144963709Y-119335627D01*
X145008747Y-119321501D01*
X145034100Y-119315689D01*
X145026271Y-119312401D01*
X144994559Y-119310543D01*
X144939957Y-119322425D01*
X144908710Y-119358217D01*
X144905626Y-119410062D01*
X144915907Y-119439057D01*
X144928946Y-119467588D01*
X144924045Y-119466006D01*
X144911174Y-119450580D01*
X144881603Y-119422085D01*
X144865531Y-119427484D01*
X144861608Y-119457265D01*
X144867441Y-119483962D01*
X144892039Y-119490647D01*
X144916785Y-119488039D01*
X144955251Y-119486724D01*
X144971942Y-119494734D01*
X144971962Y-119495148D01*
X144955518Y-119504219D01*
X144913912Y-119509658D01*
X144889196Y-119510355D01*
X144839383Y-119506474D01*
X144809998Y-119496594D01*
X144806430Y-119490877D01*
X144817315Y-119479259D01*
X144822806Y-119481520D01*
X144836303Y-119472454D01*
X144849107Y-119437257D01*
X144851490Y-119426034D01*
X144853159Y-119362254D01*
X144828639Y-119323978D01*
X144776948Y-119309923D01*
X144762795Y-119309921D01*
X144705272Y-119311803D01*
X144765981Y-119326181D01*
X144815793Y-119340070D01*
X144836767Y-119354759D01*
X144836334Y-119377175D01*
X144832484Y-119388172D01*
X144806132Y-119413208D01*
X144763440Y-119418110D01*
X144718136Y-119403934D01*
X144687355Y-119377010D01*
X144668930Y-119344791D01*
X144671989Y-119335627D01*
X144677683Y-119335627D01*
X144686879Y-119344823D01*
X144696075Y-119335627D01*
X144686879Y-119326430D01*
X144677683Y-119335627D01*
X144671989Y-119335627D01*
X144676402Y-119322404D01*
X144697546Y-119303440D01*
X144752802Y-119274547D01*
X144807261Y-119281589D01*
G37*
G36*
X144886503Y-118552800D02*
G01*
X144893652Y-118600036D01*
X144900960Y-118670509D01*
X144907634Y-118757466D01*
X144909005Y-118779254D01*
X144915386Y-118875692D01*
X144920999Y-118937962D01*
X144926269Y-118968660D01*
X144931621Y-118970384D01*
X144936845Y-118949385D01*
X144952987Y-118881238D01*
X144965122Y-118842966D01*
X144993213Y-118842966D01*
X145003523Y-118837273D01*
X145008747Y-118829834D01*
X145023997Y-118790571D01*
X145025566Y-118774656D01*
X145020314Y-118763658D01*
X145008747Y-118783853D01*
X144994955Y-118822847D01*
X144993213Y-118842966D01*
X144965122Y-118842966D01*
X144975316Y-118810816D01*
X144978551Y-118802245D01*
X144997523Y-118737768D01*
X145007532Y-118673459D01*
X145007940Y-118663382D01*
X145018145Y-118602195D01*
X145044088Y-118563549D01*
X145071282Y-118553947D01*
X145076771Y-118563823D01*
X145067603Y-118576018D01*
X145054919Y-118606116D01*
X145046939Y-118658548D01*
X145045532Y-118693323D01*
X145039673Y-118764906D01*
X145024897Y-118834143D01*
X145016905Y-118857072D01*
X144999516Y-118914358D01*
X144993650Y-118966963D01*
X144994191Y-118974271D01*
X144999541Y-118988194D01*
X145011325Y-118981209D01*
X145031639Y-118950115D01*
X145057601Y-118901107D01*
X145087096Y-118901107D01*
X145100570Y-118892292D01*
X145102992Y-118889916D01*
X145117520Y-118865801D01*
X145115550Y-118856936D01*
X145101868Y-118862455D01*
X145092696Y-118879620D01*
X145087096Y-118901107D01*
X145057601Y-118901107D01*
X145062578Y-118891711D01*
X145097484Y-118820637D01*
X145119102Y-118820637D01*
X145128298Y-118829834D01*
X145137495Y-118820637D01*
X145128298Y-118811441D01*
X145119102Y-118820637D01*
X145097484Y-118820637D01*
X145105705Y-118803899D01*
X145145303Y-118723904D01*
X145179658Y-118658517D01*
X145205576Y-118613524D01*
X145219860Y-118594715D01*
X145221180Y-118594716D01*
X145219607Y-118615287D01*
X145207255Y-118662962D01*
X145186476Y-118730484D01*
X145159618Y-118810594D01*
X145129033Y-118896034D01*
X145097069Y-118979545D01*
X145094426Y-118986170D01*
X145077188Y-119030224D01*
X145074133Y-119043637D01*
X145085531Y-119029822D01*
X145096628Y-119013924D01*
X145129072Y-118971032D01*
X145146966Y-118949385D01*
X145186639Y-118949385D01*
X145239259Y-118899363D01*
X145270523Y-118866248D01*
X145284189Y-118844787D01*
X145283659Y-118842011D01*
X145268517Y-118850271D01*
X145240803Y-118879843D01*
X145231039Y-118892033D01*
X145186639Y-118949385D01*
X145146966Y-118949385D01*
X145171731Y-118919427D01*
X145185568Y-118903569D01*
X145228615Y-118849373D01*
X145259809Y-118802245D01*
X145284634Y-118802245D01*
X145293831Y-118811441D01*
X145303027Y-118802245D01*
X145293831Y-118793049D01*
X145284634Y-118802245D01*
X145259809Y-118802245D01*
X145265513Y-118793628D01*
X145273122Y-118779800D01*
X145305142Y-118732215D01*
X145340691Y-118700907D01*
X145371543Y-118691630D01*
X145385762Y-118701037D01*
X145384220Y-118718015D01*
X145377450Y-118719479D01*
X145359917Y-118734965D01*
X145335021Y-118775007D01*
X145314965Y-118816039D01*
X145285717Y-118874282D01*
X145256210Y-118920885D01*
X145240283Y-118938958D01*
X145212347Y-118971562D01*
X145180784Y-119021492D01*
X145170914Y-119040117D01*
X145133452Y-119114917D01*
X145213641Y-119041527D01*
X145251228Y-119006814D01*
X145284634Y-119006814D01*
X145293581Y-119012320D01*
X145318032Y-118988693D01*
X145323765Y-118981572D01*
X145339672Y-118959786D01*
X145330148Y-118964353D01*
X145316821Y-118974627D01*
X145291348Y-118997316D01*
X145284634Y-119006814D01*
X145251228Y-119006814D01*
X145271129Y-118988435D01*
X145338689Y-118925359D01*
X145389936Y-118877073D01*
X145447579Y-118825295D01*
X145482357Y-118799965D01*
X145494850Y-118799185D01*
X145485639Y-118821058D01*
X145455302Y-118863685D01*
X145404420Y-118925169D01*
X145360037Y-118974966D01*
X145209723Y-119139615D01*
X145289691Y-119099381D01*
X145359484Y-119099381D01*
X145371117Y-119105610D01*
X145375571Y-119105721D01*
X145399478Y-119094397D01*
X145436353Y-119066442D01*
X145444543Y-119059256D01*
X145496148Y-119012791D01*
X145427176Y-119051876D01*
X145377522Y-119082146D01*
X145359484Y-119099381D01*
X145289691Y-119099381D01*
X145331698Y-119078246D01*
X145397924Y-119042735D01*
X145455635Y-119007948D01*
X145492636Y-118981250D01*
X145493303Y-118980646D01*
X145534312Y-118950741D01*
X145575319Y-118931997D01*
X145605837Y-118927988D01*
X145615699Y-118938949D01*
X145604486Y-118957822D01*
X145600233Y-118958581D01*
X145579273Y-118970294D01*
X145541859Y-119000413D01*
X145511952Y-119027553D01*
X145452471Y-119076440D01*
X145380099Y-119125930D01*
X145338895Y-119149938D01*
X145282671Y-119182394D01*
X145259142Y-119201872D01*
X145266610Y-119208450D01*
X145303378Y-119202204D01*
X145367751Y-119183213D01*
X145458030Y-119151553D01*
X145479521Y-119143529D01*
X145559707Y-119113905D01*
X145627811Y-119089853D01*
X145676169Y-119074006D01*
X145696505Y-119068936D01*
X145707767Y-119075484D01*
X145688304Y-119093773D01*
X145641503Y-119121774D01*
X145570748Y-119157456D01*
X145481615Y-119197838D01*
X145408833Y-119229912D01*
X145351190Y-119256307D01*
X145315358Y-119273903D01*
X145306886Y-119279554D01*
X145326940Y-119279636D01*
X145374384Y-119275971D01*
X145440123Y-119269513D01*
X145515063Y-119261217D01*
X145590111Y-119252036D01*
X145656172Y-119242927D01*
X145657082Y-119242791D01*
X145715611Y-119237456D01*
X145742153Y-119244260D01*
X145744446Y-119250469D01*
X145729025Y-119267209D01*
X145706748Y-119271253D01*
X145662860Y-119279630D01*
X145618913Y-119297180D01*
X145568241Y-119315747D01*
X145504087Y-119329919D01*
X145486481Y-119332304D01*
X145421153Y-119341495D01*
X145361155Y-119352894D01*
X145349008Y-119355818D01*
X145293831Y-119370134D01*
X145339812Y-119383234D01*
X145377442Y-119388987D01*
X145441456Y-119393855D01*
X145521452Y-119397177D01*
X145574316Y-119398167D01*
X145660122Y-119400705D01*
X145723131Y-119406069D01*
X145757822Y-119413667D01*
X145762839Y-119418393D01*
X145745252Y-119426692D01*
X145695624Y-119432765D01*
X145618656Y-119436184D01*
X145560521Y-119436785D01*
X145479224Y-119438060D01*
X145413523Y-119441517D01*
X145370841Y-119446605D01*
X145358204Y-119451823D01*
X145374435Y-119465037D01*
X145416501Y-119483601D01*
X145474467Y-119504298D01*
X145538394Y-119523910D01*
X145598346Y-119539220D01*
X145644387Y-119547011D01*
X145653403Y-119547406D01*
X145701781Y-119557752D01*
X145736003Y-119583625D01*
X145744446Y-119606643D01*
X145731036Y-119611030D01*
X145705414Y-119601115D01*
X145658441Y-119589123D01*
X145613004Y-119590901D01*
X145561513Y-119591759D01*
X145499036Y-119580745D01*
X145481906Y-119575638D01*
X145412718Y-119555686D01*
X145346083Y-119540736D01*
X145461108Y-119540736D01*
X145468559Y-119546300D01*
X145494478Y-119557224D01*
X145527448Y-119564510D01*
X145554004Y-119566280D01*
X145560683Y-119560652D01*
X145558989Y-119558924D01*
X145537391Y-119550637D01*
X145496208Y-119539986D01*
X145496148Y-119539972D01*
X145462323Y-119534379D01*
X145461108Y-119540736D01*
X145346083Y-119540736D01*
X145342022Y-119539825D01*
X145330616Y-119537848D01*
X145291107Y-119533251D01*
X145278148Y-119537013D01*
X145293380Y-119550217D01*
X145338444Y-119573945D01*
X145414980Y-119609278D01*
X145486952Y-119640970D01*
X145574590Y-119681162D01*
X145642298Y-119716063D01*
X145688169Y-119743768D01*
X145710299Y-119762372D01*
X145706782Y-119769970D01*
X145675712Y-119764656D01*
X145615184Y-119744527D01*
X145574997Y-119728998D01*
X145496921Y-119698797D01*
X145412373Y-119667525D01*
X145379757Y-119655924D01*
X145281760Y-119621702D01*
X145377285Y-119708570D01*
X145433344Y-119756198D01*
X145486299Y-119795598D01*
X145522524Y-119817119D01*
X145568436Y-119843803D01*
X145601229Y-119874711D01*
X145612808Y-119901248D01*
X145609236Y-119909190D01*
X145588309Y-119907919D01*
X145565232Y-119892824D01*
X145522417Y-119867079D01*
X145481890Y-119852619D01*
X145437520Y-119833035D01*
X145384508Y-119797597D01*
X145362339Y-119779233D01*
X145310011Y-119736017D01*
X145289727Y-119721868D01*
X145349008Y-119721868D01*
X145384046Y-119763252D01*
X145416656Y-119798005D01*
X145430859Y-119803022D01*
X145431774Y-119798289D01*
X145419371Y-119783268D01*
X145390391Y-119756906D01*
X145349008Y-119721868D01*
X145289727Y-119721868D01*
X145262525Y-119702894D01*
X145227190Y-119684342D01*
X145211318Y-119684834D01*
X145211065Y-119686616D01*
X145222769Y-119704086D01*
X145254653Y-119742823D01*
X145301873Y-119797134D01*
X145359585Y-119861324D01*
X145360708Y-119862554D01*
X145424651Y-119935268D01*
X145468384Y-119990340D01*
X145491336Y-120025874D01*
X145492937Y-120039971D01*
X145472615Y-120030734D01*
X145429800Y-119996264D01*
X145389936Y-119959713D01*
X145315133Y-119889558D01*
X145250670Y-119830477D01*
X145242437Y-119823167D01*
X145285839Y-119823167D01*
X145290406Y-119832691D01*
X145300681Y-119846018D01*
X145327527Y-119874612D01*
X145339510Y-119874488D01*
X145339812Y-119871260D01*
X145327243Y-119855907D01*
X145307625Y-119839073D01*
X145285839Y-119823167D01*
X145242437Y-119823167D01*
X145199994Y-119785481D01*
X145166554Y-119757581D01*
X145153798Y-119749786D01*
X145159638Y-119758653D01*
X145180083Y-119790448D01*
X145206684Y-119840418D01*
X145233695Y-119896526D01*
X145255368Y-119946731D01*
X145265957Y-119978995D01*
X145266242Y-119981973D01*
X145254056Y-119982359D01*
X145245008Y-119977607D01*
X145232442Y-119975414D01*
X145237082Y-119986018D01*
X145258152Y-120000013D01*
X145265836Y-119998006D01*
X145286132Y-120004380D01*
X145316340Y-120031650D01*
X145347406Y-120069194D01*
X145370273Y-120106392D01*
X145376597Y-120127914D01*
X145367713Y-120151713D01*
X145348735Y-120148012D01*
X145331178Y-120119078D01*
X145331138Y-120118952D01*
X145308038Y-120083417D01*
X145273559Y-120053393D01*
X145237139Y-120017348D01*
X145202494Y-119964203D01*
X145193727Y-119945991D01*
X145191859Y-119942578D01*
X145211065Y-119942578D01*
X145220261Y-119951774D01*
X145229457Y-119942578D01*
X145220261Y-119933382D01*
X145211065Y-119942578D01*
X145191859Y-119942578D01*
X145161168Y-119886510D01*
X145121666Y-119834131D01*
X145111462Y-119823799D01*
X145062604Y-119778589D01*
X145093249Y-119851388D01*
X145121849Y-119923000D01*
X145151005Y-120002126D01*
X145178161Y-120080973D01*
X145200765Y-120151751D01*
X145216263Y-120206669D01*
X145222099Y-120237936D01*
X145221285Y-120241964D01*
X145210124Y-120230294D01*
X145186922Y-120191311D01*
X145155054Y-120131098D01*
X145117896Y-120055741D01*
X145117378Y-120054657D01*
X145098666Y-120016148D01*
X145119102Y-120016148D01*
X145128298Y-120025344D01*
X145137495Y-120016148D01*
X145128298Y-120006952D01*
X145119102Y-120016148D01*
X145098666Y-120016148D01*
X145080498Y-119978759D01*
X145076156Y-119970167D01*
X145100710Y-119970167D01*
X145107439Y-119985306D01*
X145112971Y-119982428D01*
X145115173Y-119960601D01*
X145112971Y-119957905D01*
X145102037Y-119960430D01*
X145100710Y-119970167D01*
X145076156Y-119970167D01*
X145049492Y-119917407D01*
X145027596Y-119876834D01*
X145018046Y-119863274D01*
X145018025Y-119863296D01*
X145017680Y-119883426D01*
X145021836Y-119932692D01*
X145029677Y-120003831D01*
X145040389Y-120089579D01*
X145053155Y-120182673D01*
X145056342Y-120204671D01*
X145060063Y-120260243D01*
X145050187Y-120282434D01*
X145047464Y-120282839D01*
X145030616Y-120267559D01*
X145027140Y-120248300D01*
X145020215Y-120208903D01*
X145003185Y-120156731D01*
X144999551Y-120147732D01*
X144980071Y-120082590D01*
X144974640Y-120043737D01*
X144994622Y-120043737D01*
X144996540Y-120077198D01*
X145001314Y-120081142D01*
X145003033Y-120075924D01*
X145005894Y-120029276D01*
X145003033Y-120011550D01*
X144997702Y-120005826D01*
X144994800Y-120031258D01*
X144994622Y-120043737D01*
X144974640Y-120043737D01*
X144970648Y-120015184D01*
X144970563Y-120012141D01*
X144962701Y-119944695D01*
X144945706Y-119879073D01*
X144945387Y-119878204D01*
X144935699Y-119854592D01*
X144928505Y-119847289D01*
X144922936Y-119860427D01*
X144918122Y-119898136D01*
X144913194Y-119964546D01*
X144907641Y-120057531D01*
X144901503Y-120147350D01*
X144894500Y-120222247D01*
X144887406Y-120275469D01*
X144880995Y-120300261D01*
X144879691Y-120301231D01*
X144873498Y-120283985D01*
X144866349Y-120236749D01*
X144859040Y-120166276D01*
X144852367Y-120079320D01*
X144850995Y-120057531D01*
X144847040Y-119997756D01*
X144880000Y-119997756D01*
X144889196Y-120006952D01*
X144898393Y-119997756D01*
X144889196Y-119988559D01*
X144880000Y-119997756D01*
X144847040Y-119997756D01*
X144844614Y-119961093D01*
X144839001Y-119898824D01*
X144833731Y-119868125D01*
X144828380Y-119866401D01*
X144823155Y-119887401D01*
X144807013Y-119955547D01*
X144784685Y-120025970D01*
X144781449Y-120034540D01*
X144762478Y-120099018D01*
X144752468Y-120163327D01*
X144752060Y-120173404D01*
X144741855Y-120234591D01*
X144715912Y-120273236D01*
X144688718Y-120282839D01*
X144683229Y-120272963D01*
X144692397Y-120260768D01*
X144705081Y-120230669D01*
X144713062Y-120178238D01*
X144714468Y-120143463D01*
X144720327Y-120071879D01*
X144722408Y-120062129D01*
X144734435Y-120062129D01*
X144740139Y-120069081D01*
X144751634Y-120052575D01*
X144762961Y-120024011D01*
X144768071Y-119997756D01*
X144761328Y-119994448D01*
X144751253Y-120006952D01*
X144736003Y-120046215D01*
X144734435Y-120062129D01*
X144722408Y-120062129D01*
X144735103Y-120002643D01*
X144743095Y-119979714D01*
X144760484Y-119922427D01*
X144766350Y-119869823D01*
X144765810Y-119862515D01*
X144760460Y-119848592D01*
X144748675Y-119855576D01*
X144728361Y-119886670D01*
X144697422Y-119945075D01*
X144654295Y-120032887D01*
X144614697Y-120112881D01*
X144580342Y-120178269D01*
X144554424Y-120223261D01*
X144540140Y-120242070D01*
X144538821Y-120242070D01*
X144540394Y-120221498D01*
X144552745Y-120173823D01*
X144573524Y-120106301D01*
X144600382Y-120026192D01*
X144603978Y-120016148D01*
X144622506Y-120016148D01*
X144631702Y-120025344D01*
X144640898Y-120016148D01*
X144631702Y-120006952D01*
X144622506Y-120016148D01*
X144603978Y-120016148D01*
X144620050Y-119971252D01*
X144640898Y-119971252D01*
X144646809Y-119987964D01*
X144660372Y-119973385D01*
X144666308Y-119960015D01*
X144667594Y-119941029D01*
X144659080Y-119942708D01*
X144641552Y-119966257D01*
X144640898Y-119971252D01*
X144620050Y-119971252D01*
X144630968Y-119940752D01*
X144662931Y-119857240D01*
X144665575Y-119850616D01*
X144682812Y-119806561D01*
X144685867Y-119793148D01*
X144674470Y-119806963D01*
X144663372Y-119822862D01*
X144630928Y-119865754D01*
X144588269Y-119917359D01*
X144574433Y-119933217D01*
X144531385Y-119987413D01*
X144494487Y-120043157D01*
X144486878Y-120056986D01*
X144454859Y-120104571D01*
X144419309Y-120135878D01*
X144388457Y-120145155D01*
X144374238Y-120135749D01*
X144375780Y-120118770D01*
X144382550Y-120117307D01*
X144400083Y-120101820D01*
X144424979Y-120061778D01*
X144438293Y-120034540D01*
X144456973Y-120034540D01*
X144466170Y-120043737D01*
X144475366Y-120034540D01*
X144466170Y-120025344D01*
X144456973Y-120034540D01*
X144438293Y-120034540D01*
X144445035Y-120020746D01*
X144458049Y-119994831D01*
X144475366Y-119994831D01*
X144478692Y-120006824D01*
X144479964Y-120005419D01*
X144493626Y-119987651D01*
X144521813Y-119953092D01*
X144530543Y-119942578D01*
X144576524Y-119887401D01*
X144525945Y-119931990D01*
X144492579Y-119965968D01*
X144475827Y-119991964D01*
X144475366Y-119994831D01*
X144458049Y-119994831D01*
X144474284Y-119962503D01*
X144503790Y-119915900D01*
X144519717Y-119897827D01*
X144547653Y-119865224D01*
X144579216Y-119815294D01*
X144589086Y-119796669D01*
X144626548Y-119721868D01*
X144546359Y-119795258D01*
X144488872Y-119848351D01*
X144421312Y-119911426D01*
X144370064Y-119959713D01*
X144312422Y-120011491D01*
X144277643Y-120036821D01*
X144265150Y-120037600D01*
X144274361Y-120015727D01*
X144304698Y-119973100D01*
X144355581Y-119911617D01*
X144391550Y-119871260D01*
X144420188Y-119871260D01*
X144429135Y-119876766D01*
X144453586Y-119853139D01*
X144459319Y-119846018D01*
X144475226Y-119824232D01*
X144465702Y-119828799D01*
X144452375Y-119839073D01*
X144426902Y-119861762D01*
X144420188Y-119871260D01*
X144391550Y-119871260D01*
X144399963Y-119861820D01*
X144550277Y-119697171D01*
X144428302Y-119758540D01*
X144362076Y-119794050D01*
X144304365Y-119828837D01*
X144267365Y-119855536D01*
X144266697Y-119856139D01*
X144225688Y-119886045D01*
X144184681Y-119904789D01*
X144154163Y-119908798D01*
X144144301Y-119897836D01*
X144155514Y-119878964D01*
X144159767Y-119878204D01*
X144180728Y-119866492D01*
X144218141Y-119836373D01*
X144231781Y-119823995D01*
X144263852Y-119823995D01*
X144332824Y-119784909D01*
X144374902Y-119759521D01*
X144399320Y-119741803D01*
X144401796Y-119738444D01*
X144389802Y-119730208D01*
X144358858Y-119744060D01*
X144316515Y-119776580D01*
X144315457Y-119777530D01*
X144263852Y-119823995D01*
X144231781Y-119823995D01*
X144248048Y-119809233D01*
X144307529Y-119760346D01*
X144379902Y-119710856D01*
X144421106Y-119686847D01*
X144477329Y-119654391D01*
X144500858Y-119634913D01*
X144493390Y-119628336D01*
X144456622Y-119634581D01*
X144392250Y-119653573D01*
X144301970Y-119685232D01*
X144280479Y-119693257D01*
X144200293Y-119722880D01*
X144132190Y-119746933D01*
X144083831Y-119762780D01*
X144063495Y-119767850D01*
X144053036Y-119761268D01*
X144073794Y-119742683D01*
X144122863Y-119713832D01*
X144197340Y-119676454D01*
X144277908Y-119639518D01*
X144350518Y-119606874D01*
X144408108Y-119580096D01*
X144444013Y-119562343D01*
X144452636Y-119556754D01*
X144432782Y-119556875D01*
X144385637Y-119560685D01*
X144320396Y-119567205D01*
X144246255Y-119575455D01*
X144172410Y-119584457D01*
X144108058Y-119593230D01*
X144102918Y-119593995D01*
X144044390Y-119599329D01*
X144017847Y-119592525D01*
X144015554Y-119586317D01*
X144030975Y-119569577D01*
X144053252Y-119565532D01*
X144096283Y-119557185D01*
X144134998Y-119541642D01*
X144179227Y-119541642D01*
X144185465Y-119549127D01*
X144219236Y-119550043D01*
X144241341Y-119548039D01*
X144288016Y-119542150D01*
X144300129Y-119538428D01*
X144297334Y-119537944D01*
X144383403Y-119537944D01*
X144392600Y-119547140D01*
X144401796Y-119537944D01*
X144475366Y-119537944D01*
X144484562Y-119547140D01*
X144493758Y-119537944D01*
X144484562Y-119528748D01*
X144475366Y-119537944D01*
X144401796Y-119537944D01*
X144392600Y-119528748D01*
X144383403Y-119537944D01*
X144297334Y-119537944D01*
X144279667Y-119534885D01*
X144256916Y-119532464D01*
X144210297Y-119532317D01*
X144180469Y-119540568D01*
X144179227Y-119541642D01*
X144134998Y-119541642D01*
X144144618Y-119537780D01*
X144195023Y-119519639D01*
X144195429Y-119519551D01*
X144346619Y-119519551D01*
X144355815Y-119528748D01*
X144365011Y-119519551D01*
X144438581Y-119519551D01*
X144447777Y-119528748D01*
X144456973Y-119519551D01*
X144447777Y-119510355D01*
X144438581Y-119519551D01*
X144365011Y-119519551D01*
X144355815Y-119510355D01*
X144346619Y-119519551D01*
X144195429Y-119519551D01*
X144261964Y-119505131D01*
X144295430Y-119500779D01*
X144358405Y-119493265D01*
X144410867Y-119484399D01*
X144429371Y-119479829D01*
X144455728Y-119469852D01*
X144447816Y-119461202D01*
X144429385Y-119453749D01*
X144396303Y-119447679D01*
X144335927Y-119442612D01*
X144257746Y-119439183D01*
X144194881Y-119438078D01*
X144105819Y-119435865D01*
X144040300Y-119430861D01*
X144003422Y-119423574D01*
X143997162Y-119418393D01*
X144558132Y-119418393D01*
X144560344Y-119489932D01*
X144569615Y-119539185D01*
X144589901Y-119580519D01*
X144610842Y-119609913D01*
X144683829Y-119687270D01*
X144763336Y-119732198D01*
X144857577Y-119749014D01*
X144876315Y-119749388D01*
X144942829Y-119744507D01*
X145001964Y-119732021D01*
X145023455Y-119723616D01*
X145107083Y-119661668D01*
X145167007Y-119579655D01*
X145188852Y-119519551D01*
X145376597Y-119519551D01*
X145385793Y-119528748D01*
X145394989Y-119519551D01*
X145385793Y-119510355D01*
X145376597Y-119519551D01*
X145188852Y-119519551D01*
X145201304Y-119485289D01*
X145208050Y-119386286D01*
X145191691Y-119317234D01*
X145303027Y-119317234D01*
X145312223Y-119326430D01*
X145321419Y-119317234D01*
X145394989Y-119317234D01*
X145404186Y-119326430D01*
X145413382Y-119317234D01*
X145404186Y-119308038D01*
X145394989Y-119317234D01*
X145321419Y-119317234D01*
X145312223Y-119308038D01*
X145303027Y-119317234D01*
X145191691Y-119317234D01*
X145187334Y-119298842D01*
X145266242Y-119298842D01*
X145275438Y-119308038D01*
X145284634Y-119298842D01*
X145358204Y-119298842D01*
X145367401Y-119308038D01*
X145374665Y-119300774D01*
X145450167Y-119300774D01*
X145465774Y-119307004D01*
X145502367Y-119308238D01*
X145544603Y-119305252D01*
X145577140Y-119298827D01*
X145585478Y-119293905D01*
X145575136Y-119286607D01*
X145538707Y-119285431D01*
X145522189Y-119286641D01*
X145476714Y-119292619D01*
X145451786Y-119299089D01*
X145450167Y-119300774D01*
X145374665Y-119300774D01*
X145376597Y-119298842D01*
X145367401Y-119289645D01*
X145358204Y-119298842D01*
X145284634Y-119298842D01*
X145275438Y-119289645D01*
X145266242Y-119298842D01*
X145187334Y-119298842D01*
X145185324Y-119290356D01*
X145147755Y-119225033D01*
X145075454Y-119148647D01*
X144996024Y-119104445D01*
X144900592Y-119087869D01*
X144880000Y-119087466D01*
X144781600Y-119099014D01*
X144700585Y-119136775D01*
X144627930Y-119205423D01*
X144610842Y-119226872D01*
X144581287Y-119270758D01*
X144565313Y-119313233D01*
X144558967Y-119368664D01*
X144558132Y-119418393D01*
X143997162Y-119418393D01*
X144014749Y-119410094D01*
X144064376Y-119404021D01*
X144141344Y-119400601D01*
X144199479Y-119400000D01*
X144280776Y-119398725D01*
X144346477Y-119395268D01*
X144389159Y-119390181D01*
X144401796Y-119384962D01*
X144385566Y-119371749D01*
X144343499Y-119353185D01*
X144285533Y-119332488D01*
X144235814Y-119317234D01*
X144365011Y-119317234D01*
X144374207Y-119326430D01*
X144383403Y-119317234D01*
X144374207Y-119308038D01*
X144365011Y-119317234D01*
X144235814Y-119317234D01*
X144221606Y-119312875D01*
X144161654Y-119297565D01*
X144115614Y-119289775D01*
X144106597Y-119289379D01*
X144058219Y-119279034D01*
X144054484Y-119276210D01*
X144206248Y-119276210D01*
X144218532Y-119283668D01*
X144236264Y-119289645D01*
X144285622Y-119303328D01*
X144305695Y-119303900D01*
X144294045Y-119291363D01*
X144291441Y-119289645D01*
X144249750Y-119275093D01*
X144227067Y-119273368D01*
X144206248Y-119276210D01*
X144054484Y-119276210D01*
X144023998Y-119253161D01*
X144015554Y-119230142D01*
X144028964Y-119225755D01*
X144054586Y-119235671D01*
X144101559Y-119247662D01*
X144146996Y-119245884D01*
X144198488Y-119245026D01*
X144260964Y-119256040D01*
X144278095Y-119261147D01*
X144347282Y-119281100D01*
X144417978Y-119296960D01*
X144429385Y-119298938D01*
X144468893Y-119303535D01*
X144481852Y-119299772D01*
X144466620Y-119286568D01*
X144421556Y-119262841D01*
X144345021Y-119227508D01*
X144273049Y-119195815D01*
X144185410Y-119155623D01*
X144117703Y-119120722D01*
X144071831Y-119093017D01*
X144049701Y-119074414D01*
X144053219Y-119066816D01*
X144084289Y-119072129D01*
X144144816Y-119092259D01*
X144185004Y-119107787D01*
X144263079Y-119137989D01*
X144347627Y-119169260D01*
X144380243Y-119180861D01*
X144478241Y-119215083D01*
X144382715Y-119128215D01*
X144326656Y-119080588D01*
X144273702Y-119041187D01*
X144243013Y-119022955D01*
X144319030Y-119022955D01*
X144354067Y-119064338D01*
X144386678Y-119099091D01*
X144400881Y-119104108D01*
X144401796Y-119099375D01*
X144389392Y-119084354D01*
X144360413Y-119057992D01*
X144319030Y-119022955D01*
X144243013Y-119022955D01*
X144237477Y-119019666D01*
X144191564Y-118992982D01*
X144158772Y-118962075D01*
X144147192Y-118935537D01*
X144150764Y-118927595D01*
X144171691Y-118928867D01*
X144194768Y-118943962D01*
X144237583Y-118969706D01*
X144278110Y-118984166D01*
X144322481Y-119003751D01*
X144375493Y-119039188D01*
X144397662Y-119057552D01*
X144449989Y-119100769D01*
X144497476Y-119133891D01*
X144532810Y-119152444D01*
X144548683Y-119151951D01*
X144548936Y-119150169D01*
X144537231Y-119132700D01*
X144505348Y-119093962D01*
X144458128Y-119039651D01*
X144400415Y-118975461D01*
X144399293Y-118974231D01*
X144385653Y-118958721D01*
X144421393Y-118958721D01*
X144425960Y-118968245D01*
X144436235Y-118981572D01*
X144463081Y-119010166D01*
X144475064Y-119010042D01*
X144475366Y-119006814D01*
X144462797Y-118991461D01*
X144443179Y-118974627D01*
X144421393Y-118958721D01*
X144385653Y-118958721D01*
X144335349Y-118901518D01*
X144291616Y-118846445D01*
X144268664Y-118810912D01*
X144267063Y-118796815D01*
X144287385Y-118806052D01*
X144330201Y-118840521D01*
X144370064Y-118877073D01*
X144444867Y-118947228D01*
X144509330Y-119006308D01*
X144560006Y-119051304D01*
X144593446Y-119079205D01*
X144606202Y-119086999D01*
X144600363Y-119078132D01*
X144579918Y-119046338D01*
X144553316Y-118996367D01*
X144526305Y-118940259D01*
X144506425Y-118894207D01*
X144530543Y-118894207D01*
X144539739Y-118903404D01*
X144548936Y-118894207D01*
X144539739Y-118885011D01*
X144530543Y-118894207D01*
X144506425Y-118894207D01*
X144504632Y-118890054D01*
X144494043Y-118857791D01*
X144493758Y-118854812D01*
X144505945Y-118854427D01*
X144514993Y-118859179D01*
X144527558Y-118861372D01*
X144522918Y-118850768D01*
X144501848Y-118836773D01*
X144494164Y-118838779D01*
X144473868Y-118832405D01*
X144443660Y-118805136D01*
X144412594Y-118767592D01*
X144389727Y-118730394D01*
X144383403Y-118708872D01*
X144392288Y-118685072D01*
X144411265Y-118688774D01*
X144428822Y-118717707D01*
X144428862Y-118717834D01*
X144451962Y-118753369D01*
X144486441Y-118783392D01*
X144522861Y-118819438D01*
X144557506Y-118872582D01*
X144566273Y-118890794D01*
X144598036Y-118949410D01*
X144635846Y-119000257D01*
X144645895Y-119010504D01*
X144664157Y-119026052D01*
X144673421Y-119028246D01*
X144672802Y-119012725D01*
X144661414Y-118975124D01*
X144638373Y-118911080D01*
X144621720Y-118866619D01*
X144640898Y-118866619D01*
X144647628Y-118881758D01*
X144653160Y-118878880D01*
X144655361Y-118857053D01*
X144653160Y-118854357D01*
X144642225Y-118856882D01*
X144640898Y-118866619D01*
X144621720Y-118866619D01*
X144610781Y-118837412D01*
X144604690Y-118820637D01*
X144622506Y-118820637D01*
X144631702Y-118829834D01*
X144640898Y-118820637D01*
X144631702Y-118811441D01*
X144622506Y-118820637D01*
X144604690Y-118820637D01*
X144580373Y-118753665D01*
X144556401Y-118681720D01*
X144541142Y-118628856D01*
X144536868Y-118602350D01*
X144537077Y-118601565D01*
X144547378Y-118609162D01*
X144569900Y-118644498D01*
X144601381Y-118701945D01*
X144638557Y-118775874D01*
X144640733Y-118780369D01*
X144678153Y-118856567D01*
X144709651Y-118918289D01*
X144731981Y-118959345D01*
X144741900Y-118973547D01*
X144741976Y-118973490D01*
X144742321Y-118953359D01*
X144738165Y-118904093D01*
X144730323Y-118832955D01*
X144725338Y-118793049D01*
X144755520Y-118793049D01*
X144757438Y-118826511D01*
X144762212Y-118830454D01*
X144763931Y-118825236D01*
X144766792Y-118778588D01*
X144763931Y-118760862D01*
X144758600Y-118755138D01*
X144755698Y-118780570D01*
X144755520Y-118793049D01*
X144725338Y-118793049D01*
X144719612Y-118747207D01*
X144706845Y-118654113D01*
X144703658Y-118632115D01*
X144699938Y-118576543D01*
X144709813Y-118554352D01*
X144712536Y-118553947D01*
X144729384Y-118569227D01*
X144732860Y-118588485D01*
X144739785Y-118627882D01*
X144756815Y-118680055D01*
X144760449Y-118689053D01*
X144779929Y-118754195D01*
X144789352Y-118821601D01*
X144789437Y-118824645D01*
X144797299Y-118892091D01*
X144814295Y-118957712D01*
X144814613Y-118958581D01*
X144824302Y-118982193D01*
X144831495Y-118989496D01*
X144837064Y-118976359D01*
X144841878Y-118938650D01*
X144846806Y-118872239D01*
X144848789Y-118839030D01*
X144861608Y-118839030D01*
X144870804Y-118848226D01*
X144880000Y-118839030D01*
X144870804Y-118829834D01*
X144861608Y-118839030D01*
X144848789Y-118839030D01*
X144852359Y-118779254D01*
X144858497Y-118689436D01*
X144865501Y-118614538D01*
X144872595Y-118561316D01*
X144879005Y-118536525D01*
X144880309Y-118535554D01*
X144886503Y-118552800D01*
G37*
D17*
%TO.C,U14*%
X104430000Y-76475000D02*
X104430000Y-74525000D01*
X104430000Y-76475000D02*
X104430000Y-78425000D01*
X109550000Y-76475000D02*
X109550000Y-74525000D01*
X109550000Y-76475000D02*
X109550000Y-78425000D01*
X104525000Y-79175000D02*
X104195000Y-79415000D01*
X104195000Y-78935000D01*
X104525000Y-79175000D01*
G36*
X104525000Y-79175000D02*
G01*
X104195000Y-79415000D01*
X104195000Y-78935000D01*
X104525000Y-79175000D01*
G37*
%TO.C,U15*%
X125637500Y-118457500D02*
X125637500Y-118740000D01*
X125637500Y-123952500D02*
X125637500Y-123670000D01*
X128385000Y-118457500D02*
X125637500Y-118457500D01*
X128385000Y-118457500D02*
X131132500Y-118457500D01*
X128385000Y-123952500D02*
X125637500Y-123952500D01*
X128385000Y-123952500D02*
X131132500Y-123952500D01*
X131132500Y-118457500D02*
X131132500Y-118740000D01*
X131132500Y-123952500D02*
X131132500Y-123670000D01*
X132143750Y-124000000D02*
X131663750Y-124000000D01*
X131903750Y-123670000D01*
X132143750Y-124000000D01*
G36*
X132143750Y-124000000D02*
G01*
X131663750Y-124000000D01*
X131903750Y-123670000D01*
X132143750Y-124000000D01*
G37*
%TO.C,C50*%
X133201253Y-111855000D02*
X132678747Y-111855000D01*
X133201253Y-113325000D02*
X132678747Y-113325000D01*
D16*
%TO.C,J8*%
X112149999Y-125175000D02*
X112150000Y-125775001D01*
X112150000Y-121675000D02*
X119950000Y-121675000D01*
X112150000Y-122275000D02*
X112150000Y-121675000D01*
X112150000Y-125775001D02*
X119950000Y-125775000D01*
X113950000Y-126075000D02*
X114950000Y-126075000D01*
X119950000Y-121675000D02*
X119950000Y-122275000D01*
X119950000Y-125775000D02*
X119950000Y-125175000D01*
D17*
%TO.C,J9*%
X121870000Y-98420000D02*
X122505000Y-98420000D01*
X122505000Y-98420000D02*
X122505000Y-99055000D01*
%TO.C,R6*%
X144612742Y-75477500D02*
X145087258Y-75477500D01*
X144612742Y-76522500D02*
X145087258Y-76522500D01*
%TO.C,R11*%
X119717500Y-71397258D02*
X119717500Y-70922742D01*
X120762500Y-71397258D02*
X120762500Y-70922742D01*
%TO.C,U11*%
X87750000Y-85230000D02*
X88020000Y-85230000D01*
X87750000Y-91650000D02*
X87750000Y-85230000D01*
X94650000Y-85230000D02*
X94380000Y-85230000D01*
X94650000Y-91650000D02*
X94650000Y-85230000D01*
X94810000Y-83840000D02*
X94340000Y-83500000D01*
X94810000Y-83160000D01*
X94810000Y-83840000D01*
G36*
X94810000Y-83840000D02*
G01*
X94340000Y-83500000D01*
X94810000Y-83160000D01*
X94810000Y-83840000D01*
G37*
%TO.C,C31*%
X117895543Y-110965010D02*
X118265010Y-110595543D01*
X118934990Y-112004457D02*
X119304457Y-111634990D01*
%TO.C,R99*%
X109037500Y-65322742D02*
X109037500Y-65797258D01*
X110082500Y-65322742D02*
X110082500Y-65797258D01*
%TO.C,C69*%
X77040000Y-78344437D02*
X77040000Y-84100000D01*
X77040000Y-84100000D02*
X79390000Y-84100000D01*
X78104437Y-77280000D02*
X77040000Y-78344437D01*
X78104437Y-77280000D02*
X79390000Y-77280000D01*
X82297500Y-76252500D02*
X82297500Y-77040000D01*
X82691250Y-76646250D02*
X81903750Y-76646250D01*
X82795563Y-77280000D02*
X81510000Y-77280000D01*
X82795563Y-77280000D02*
X83860000Y-78344437D01*
X83860000Y-78344437D02*
X83860000Y-84100000D01*
X83860000Y-84100000D02*
X81510000Y-84100000D01*
%TO.C,C29*%
X116495543Y-109565010D02*
X116865010Y-109195543D01*
X117534990Y-110604457D02*
X117904457Y-110234990D01*
%TO.C,C36*%
X92591586Y-110855679D02*
X92222119Y-111225146D01*
X93631033Y-111895126D02*
X93261566Y-112264593D01*
%TO.C,U16*%
X88998785Y-104731215D02*
X88539166Y-104271595D01*
X88998785Y-104731215D02*
X89458405Y-105190834D01*
X91204959Y-102525041D02*
X90745339Y-102065422D01*
X91204959Y-102525041D02*
X91664578Y-102984661D01*
X89792513Y-105920922D02*
X89453102Y-105581510D01*
X89856152Y-105517871D01*
X89792513Y-105920922D01*
G36*
X89792513Y-105920922D02*
G01*
X89453102Y-105581510D01*
X89856152Y-105517871D01*
X89792513Y-105920922D01*
G37*
%TO.C,U17*%
X114246913Y-113946913D02*
X113681228Y-114512599D01*
X114246913Y-113946913D02*
X114812599Y-113381228D01*
X116453087Y-116153087D02*
X115887401Y-116718772D01*
X116453087Y-116153087D02*
X117018772Y-115587401D01*
X117740021Y-115262132D02*
X117400610Y-115601543D01*
X117336970Y-115198492D01*
X117740021Y-115262132D01*
G36*
X117740021Y-115262132D02*
G01*
X117400610Y-115601543D01*
X117336970Y-115198492D01*
X117740021Y-115262132D01*
G37*
D13*
%TO.C,U10*%
X131820000Y-108609999D02*
X131820000Y-108460000D01*
X132460000Y-108460000D02*
X131820000Y-108460000D01*
X132460000Y-111160000D02*
X132020000Y-111160000D01*
X133995000Y-108735000D02*
X133995000Y-108585000D01*
X134020000Y-108460000D02*
X133380000Y-108460000D01*
X134020000Y-111160000D02*
X133380000Y-111160000D01*
X134020000Y-111160000D02*
X134020000Y-111010001D01*
X131820000Y-111520000D02*
X131460000Y-111160000D01*
X131820000Y-111160000D01*
X131820000Y-111520000D01*
G36*
X131820000Y-111520000D02*
G01*
X131460000Y-111160000D01*
X131820000Y-111160000D01*
X131820000Y-111520000D01*
G37*
D17*
%TO.C,JP2*%
X124640000Y-64710000D02*
X124640000Y-65310000D01*
X124940000Y-65010000D02*
X124640000Y-64710000D01*
X124940000Y-65010000D02*
X124640000Y-65310000D01*
X125140000Y-64260000D02*
X127140000Y-64260000D01*
X125140000Y-68360000D02*
X125140000Y-64260000D01*
X127140000Y-64260000D02*
X127140000Y-68360000D01*
X127140000Y-68360000D02*
X125140000Y-68360000D01*
%TO.C,R42*%
X84177500Y-116712258D02*
X84177500Y-116237742D01*
X85222500Y-116712258D02*
X85222500Y-116237742D01*
%TO.C,C30*%
X139205000Y-110188747D02*
X139205000Y-110711253D01*
X140675000Y-110188747D02*
X140675000Y-110711253D01*
%TO.C,RN2*%
X133030000Y-103050000D02*
X133030000Y-102050000D01*
X136390000Y-103050000D02*
X136390000Y-102050000D01*
%TO.C,D13*%
X129758493Y-99366238D02*
X132043493Y-99366238D01*
X132043493Y-97896238D02*
X129758493Y-97896238D01*
X132043493Y-99366238D02*
X132043493Y-97896238D01*
%TO.C,D22*%
X82720000Y-105330000D02*
X82720000Y-108014999D01*
X82720000Y-108014999D02*
X84640000Y-108014999D01*
X84640000Y-108014999D02*
X84640000Y-105330000D01*
%TO.C,D12*%
X141775000Y-96600000D02*
X141775000Y-99285000D01*
X141775000Y-99285000D02*
X143695000Y-99285000D01*
X143695000Y-99285000D02*
X143695000Y-96600000D01*
%TO.C,R58*%
X101677500Y-86912742D02*
X101677500Y-87387258D01*
X102722500Y-86912742D02*
X102722500Y-87387258D01*
%TO.C,D18*%
X93125000Y-96660000D02*
X93125000Y-94000000D01*
X93125000Y-96660000D02*
X94825000Y-96660000D01*
X94825000Y-96660000D02*
X94825000Y-94000000D01*
%TO.C,C63*%
X110570000Y-65700581D02*
X110570000Y-65419419D01*
X111590000Y-65700581D02*
X111590000Y-65419419D01*
%TO.C,BT1*%
X84790000Y-93790000D02*
X84790000Y-97810000D01*
X84790000Y-95290000D02*
X85790001Y-95290000D01*
X84790000Y-97810000D02*
X92510000Y-97810000D01*
X85290000Y-96100000D02*
X84790000Y-96100000D01*
X85290000Y-97310000D02*
X85290000Y-96100000D01*
X85790001Y-95290000D02*
X85790000Y-93790000D01*
X91509999Y-95290000D02*
X91510000Y-93790000D01*
X92010000Y-96100000D02*
X92010000Y-97310000D01*
X92010000Y-97310000D02*
X85290000Y-97310000D01*
X92510000Y-93790000D02*
X84790000Y-93790000D01*
X92510000Y-95290000D02*
X91509999Y-95290000D01*
X92510000Y-96100000D02*
X92010000Y-96100000D01*
X92510000Y-97810000D02*
X92510000Y-93790000D01*
X92810000Y-93490000D02*
X90310000Y-93490000D01*
X92810000Y-95990000D02*
X92810000Y-93490000D01*
%TO.C,C46*%
X89665010Y-107975543D02*
X89295543Y-108345010D01*
X90704457Y-109014990D02*
X90334990Y-109384457D01*
%TO.C,C58*%
X105111204Y-70439895D02*
X105111204Y-70655567D01*
X105831204Y-70439895D02*
X105831204Y-70655567D01*
%TO.C,R106*%
X115727500Y-70882742D02*
X115727500Y-71357258D01*
X116772500Y-70882742D02*
X116772500Y-71357258D01*
%TO.C,U4*%
X124305000Y-94020000D02*
X95095000Y-94020000D01*
X95095000Y-72430000D01*
X124305000Y-72430000D01*
X124305000Y-94020000D01*
%TO.C,D17*%
X87565000Y-71050000D02*
X87565000Y-74350000D01*
X87565000Y-71050000D02*
X93075000Y-71050000D01*
X87565000Y-74350000D02*
X93075000Y-74350000D01*
%TO.C,D24*%
X83715000Y-118065001D02*
X83715000Y-120750000D01*
X85635000Y-118065001D02*
X83715000Y-118065001D01*
X85635000Y-120750000D02*
X85635000Y-118065001D01*
%TO.C,C15*%
X77970581Y-84830000D02*
X77689419Y-84830000D01*
X77970581Y-85850000D02*
X77689419Y-85850000D01*
%TO.C,U7*%
X128680000Y-77250000D02*
X128680000Y-78650000D01*
X131000000Y-77240000D02*
X131000000Y-78650000D01*
X131280000Y-77110000D02*
X130950000Y-76870000D01*
X131280000Y-76630000D01*
X131280000Y-77110000D01*
G36*
X131280000Y-77110000D02*
G01*
X130950000Y-76870000D01*
X131280000Y-76630000D01*
X131280000Y-77110000D01*
G37*
%TO.C,R9*%
X144612742Y-78577500D02*
X145087258Y-78577500D01*
X144612742Y-79622500D02*
X145087258Y-79622500D01*
%TO.C,C9*%
X82148747Y-93595000D02*
X82671253Y-93595000D01*
X82148747Y-95065000D02*
X82671253Y-95065000D01*
%TO.C,C60*%
X106124509Y-70461165D02*
X106124509Y-70676837D01*
X106844509Y-70461165D02*
X106844509Y-70676837D01*
%TO.C,R4*%
X127395751Y-96388739D02*
X126921235Y-96388739D01*
X127395751Y-97433739D02*
X126921235Y-97433739D01*
%TO.C,C49*%
X78508747Y-93615000D02*
X79031253Y-93615000D01*
X78508747Y-95085000D02*
X79031253Y-95085000D01*
%TO.C,SW2*%
X142990000Y-108950000D02*
X149110000Y-108950000D01*
X142990000Y-112650000D02*
X142990000Y-108950000D01*
X149110000Y-108950000D02*
X149110000Y-112650000D01*
X149110000Y-112650000D02*
X142990000Y-112650000D01*
%TO.C,D23*%
X80570000Y-105320001D02*
X80570000Y-108005000D01*
X80570000Y-108005000D02*
X82490000Y-108005000D01*
X82490000Y-108005000D02*
X82490000Y-105320001D01*
%TO.C,C48*%
X84320000Y-83089419D02*
X84320000Y-83370581D01*
X85340000Y-83089419D02*
X85340000Y-83370581D01*
%TO.C,R43*%
X86277500Y-116687258D02*
X86277500Y-116212742D01*
X87322500Y-116687258D02*
X87322500Y-116212742D01*
%TO.C,U21*%
X126947500Y-107582500D02*
X126197500Y-107582500D01*
X126947500Y-112802500D02*
X125897500Y-112802500D01*
X128067500Y-107582500D02*
X129117500Y-107582500D01*
X128067500Y-112802500D02*
X129117500Y-112802500D01*
X125897500Y-107582500D02*
X125757500Y-107392500D01*
X126037500Y-107392500D01*
X125897500Y-107582500D01*
G36*
X125897500Y-107582500D02*
G01*
X125757500Y-107392500D01*
X126037500Y-107392500D01*
X125897500Y-107582500D01*
G37*
%TO.C,U23*%
X104862500Y-64146965D02*
X102662500Y-64146965D01*
X104862500Y-64146965D02*
X107062500Y-64146965D01*
X104862500Y-69366965D02*
X102662500Y-69366965D01*
X104862500Y-69366965D02*
X107062500Y-69366965D01*
X101962500Y-64346965D02*
X101722500Y-64016965D01*
X102202500Y-64016965D01*
X101962500Y-64346965D01*
G36*
X101962500Y-64346965D02*
G01*
X101722500Y-64016965D01*
X102202500Y-64016965D01*
X101962500Y-64346965D01*
G37*
%TO.C,R14*%
X141562742Y-73927500D02*
X142037258Y-73927500D01*
X141562742Y-74972500D02*
X142037258Y-74972500D01*
%TO.C,R38*%
X80937500Y-109402742D02*
X80937500Y-109877258D01*
X81982500Y-109402742D02*
X81982500Y-109877258D01*
%TO.C,R1*%
X130795750Y-96398740D02*
X130321234Y-96398740D01*
X130795750Y-97443740D02*
X130321234Y-97443740D01*
%TO.C,R12*%
X141562742Y-77047500D02*
X142037258Y-77047500D01*
X141562742Y-78092500D02*
X142037258Y-78092500D01*
%TO.C,D25*%
X85815000Y-118040001D02*
X85815000Y-120725000D01*
X87735000Y-118040001D02*
X85815000Y-118040001D01*
X87735000Y-120725000D02*
X87735000Y-118040001D01*
%TO.C,C47*%
X123875000Y-110591253D02*
X123875000Y-110068747D01*
X125345000Y-110591253D02*
X125345000Y-110068747D01*
%TO.C,R108*%
X114147500Y-70892742D02*
X114147500Y-71367258D01*
X115192500Y-70892742D02*
X115192500Y-71367258D01*
%TO.C,R8*%
X144612742Y-77047500D02*
X145087258Y-77047500D01*
X144612742Y-78092500D02*
X145087258Y-78092500D01*
%TO.C,U6*%
X113475000Y-72925000D02*
X111525000Y-72925000D01*
X113475000Y-72925000D02*
X115425000Y-72925000D01*
X113475000Y-78045000D02*
X111525000Y-78045000D01*
X113475000Y-78045000D02*
X115425000Y-78045000D01*
X116415000Y-78280000D02*
X115935000Y-78280000D01*
X116175000Y-77950000D01*
X116415000Y-78280000D01*
G36*
X116415000Y-78280000D02*
G01*
X115935000Y-78280000D01*
X116175000Y-77950000D01*
X116415000Y-78280000D01*
G37*
%TO.C,C44*%
X91513432Y-105419762D02*
X91882899Y-105050295D01*
X92552879Y-106459209D02*
X92922346Y-106089742D01*
D18*
%TO.C,J16*%
X92972266Y-124555713D02*
X92972266Y-137655713D01*
X92972266Y-137655713D02*
X98172266Y-137655713D01*
X95472266Y-122455713D02*
X94472266Y-122455713D01*
X95472266Y-123455713D02*
X95472266Y-122455713D01*
X102572266Y-137655713D02*
X100372266Y-137655713D01*
X105372266Y-123455713D02*
X95472266Y-123455713D01*
X105972266Y-137655713D02*
X106972266Y-137655713D01*
X106972266Y-137655713D02*
X106972266Y-125455713D01*
D11*
X98072266Y-122755713D02*
G75*
G02*
X97872266Y-122755713I-100000J0D01*
G01*
X97872266Y-122755713D02*
G75*
G02*
X98072266Y-122755713I100000J0D01*
G01*
D19*
%TO.C,Churrosoft*%
G36*
X120335709Y-130737637D02*
G01*
X119999603Y-130737637D01*
X119999603Y-129633289D01*
X120335709Y-129633289D01*
X120335709Y-130737637D01*
G37*
G36*
X119231361Y-126464291D02*
G01*
X119236449Y-126587261D01*
X119267862Y-126641909D01*
X119349826Y-126655922D01*
X119399414Y-126656351D01*
X119512049Y-126663784D01*
X119558241Y-126705720D01*
X119567446Y-126811613D01*
X119567467Y-126824404D01*
X119567467Y-126992457D01*
X118847240Y-126992457D01*
X118847240Y-126272230D01*
X119231361Y-126272230D01*
X119231361Y-126464291D01*
G37*
G36*
X119951588Y-129633289D02*
G01*
X119783535Y-129633289D01*
X119675937Y-129627475D01*
X119628120Y-129591574D01*
X119615858Y-129497901D01*
X119615482Y-129441229D01*
X119615482Y-129249168D01*
X119423422Y-129249168D01*
X119300452Y-129244080D01*
X119245804Y-129212667D01*
X119231791Y-129130704D01*
X119231361Y-129081115D01*
X119231361Y-128913062D01*
X119951588Y-128913062D01*
X119951588Y-129633289D01*
G37*
G36*
X115766869Y-126663784D02*
G01*
X115813061Y-126705720D01*
X115822267Y-126811613D01*
X115822288Y-126824404D01*
X115814855Y-126937039D01*
X115772919Y-126983231D01*
X115667026Y-126992436D01*
X115654235Y-126992457D01*
X115541600Y-126985024D01*
X115495408Y-126943089D01*
X115486203Y-126837196D01*
X115486182Y-126824404D01*
X115493615Y-126711770D01*
X115535550Y-126665578D01*
X115641443Y-126656372D01*
X115654235Y-126656351D01*
X115766869Y-126663784D01*
G37*
G36*
X116206409Y-130353516D02*
G01*
X115822288Y-130353516D01*
X115822288Y-130545576D01*
X115817200Y-130668546D01*
X115785787Y-130723194D01*
X115703823Y-130737207D01*
X115654235Y-130737637D01*
X115486182Y-130737637D01*
X115486182Y-130017410D01*
X115870303Y-130017410D01*
X115870303Y-129825350D01*
X115875390Y-129702380D01*
X115906804Y-129647732D01*
X115988767Y-129633719D01*
X116038356Y-129633289D01*
X116206409Y-129633289D01*
X116206409Y-130353516D01*
G37*
G36*
X117639459Y-133049796D02*
G01*
X117685651Y-133091731D01*
X117694857Y-133197624D01*
X117694877Y-133210416D01*
X117687445Y-133323050D01*
X117645509Y-133369242D01*
X117539616Y-133378448D01*
X117526825Y-133378469D01*
X117414190Y-133371036D01*
X117367998Y-133329100D01*
X117358793Y-133223207D01*
X117358772Y-133210416D01*
X117366204Y-133097781D01*
X117408140Y-133051589D01*
X117514033Y-133042384D01*
X117526825Y-133042363D01*
X117639459Y-133049796D01*
G37*
G36*
X118023580Y-132665675D02*
G01*
X118069772Y-132707610D01*
X118078978Y-132813503D01*
X118078998Y-132826295D01*
X118071566Y-132938929D01*
X118029630Y-132985121D01*
X117923737Y-132994327D01*
X117910946Y-132994348D01*
X117798311Y-132986915D01*
X117752119Y-132944979D01*
X117742914Y-132839086D01*
X117742893Y-132826295D01*
X117750325Y-132713660D01*
X117792261Y-132667468D01*
X117898154Y-132658263D01*
X117910946Y-132658242D01*
X118023580Y-132665675D01*
G37*
G36*
X118407701Y-132281554D02*
G01*
X118453893Y-132323489D01*
X118463099Y-132429382D01*
X118463119Y-132442174D01*
X118455687Y-132554808D01*
X118413751Y-132601000D01*
X118307858Y-132610206D01*
X118295067Y-132610227D01*
X118182432Y-132602794D01*
X118136240Y-132560858D01*
X118127034Y-132454965D01*
X118127014Y-132442174D01*
X118134446Y-132329539D01*
X118176382Y-132283347D01*
X118282275Y-132274142D01*
X118295067Y-132274121D01*
X118407701Y-132281554D01*
G37*
G36*
X119512049Y-131177206D02*
G01*
X119558241Y-131219141D01*
X119567446Y-131325035D01*
X119567467Y-131337826D01*
X119560034Y-131450460D01*
X119518099Y-131496653D01*
X119412206Y-131505858D01*
X119399414Y-131505879D01*
X119286780Y-131498446D01*
X119240588Y-131456511D01*
X119231382Y-131350617D01*
X119231361Y-131337826D01*
X119238794Y-131225192D01*
X119280730Y-131178999D01*
X119386623Y-131169794D01*
X119399414Y-131169773D01*
X119512049Y-131177206D01*
G37*
G36*
X119896170Y-130793085D02*
G01*
X119942362Y-130835020D01*
X119951567Y-130940914D01*
X119951588Y-130953705D01*
X119944155Y-131066339D01*
X119902220Y-131112532D01*
X119796327Y-131121737D01*
X119783535Y-131121758D01*
X119670901Y-131114325D01*
X119624709Y-131072390D01*
X119615503Y-130966496D01*
X119615482Y-130953705D01*
X119622915Y-130841071D01*
X119664851Y-130794878D01*
X119770744Y-130785673D01*
X119783535Y-130785652D01*
X119896170Y-130793085D01*
G37*
G36*
X117298587Y-133414114D02*
G01*
X117310335Y-133504799D01*
X117310757Y-133567487D01*
X117305896Y-133691726D01*
X117275536Y-133747429D01*
X117196009Y-133762073D01*
X117142704Y-133762590D01*
X117030069Y-133770022D01*
X116983877Y-133811958D01*
X116974672Y-133917851D01*
X116974651Y-133930643D01*
X116969008Y-134037656D01*
X116933761Y-134085636D01*
X116841433Y-134098251D01*
X116779548Y-134098696D01*
X116655810Y-134094240D01*
X116602788Y-134066257D01*
X116595181Y-133992818D01*
X116599491Y-133942646D01*
X116619601Y-133838235D01*
X116673348Y-133790537D01*
X116791859Y-133771858D01*
X116909668Y-133753986D01*
X116962756Y-133706202D01*
X116982424Y-133597207D01*
X116983919Y-133579798D01*
X117002611Y-133461251D01*
X117050329Y-133407526D01*
X117154707Y-133387430D01*
X117254021Y-133383425D01*
X117298587Y-133414114D01*
G37*
G36*
X115438167Y-131505879D02*
G01*
X115270114Y-131505879D01*
X115162515Y-131511693D01*
X115114698Y-131547594D01*
X115102437Y-131641267D01*
X115102061Y-131697939D01*
X115102061Y-131890000D01*
X114910000Y-131890000D01*
X114787031Y-131895087D01*
X114732382Y-131926501D01*
X114718369Y-132008464D01*
X114717940Y-132058053D01*
X114712125Y-132165651D01*
X114676225Y-132213468D01*
X114582552Y-132225730D01*
X114525879Y-132226106D01*
X114333819Y-132226106D01*
X114333819Y-132418166D01*
X114328731Y-132541136D01*
X114297318Y-132595784D01*
X114215354Y-132609797D01*
X114165766Y-132610227D01*
X113997713Y-132610227D01*
X113997713Y-131890000D01*
X114381834Y-131890000D01*
X114381834Y-131697939D01*
X114386922Y-131574970D01*
X114418335Y-131520321D01*
X114500299Y-131506308D01*
X114549887Y-131505879D01*
X114662521Y-131498446D01*
X114708714Y-131456511D01*
X114717919Y-131350617D01*
X114717940Y-131337826D01*
X114723754Y-131230228D01*
X114759655Y-131182410D01*
X114853328Y-131170149D01*
X114910000Y-131169773D01*
X115102061Y-131169773D01*
X115102061Y-130977713D01*
X115107148Y-130854743D01*
X115138562Y-130800095D01*
X115220525Y-130786082D01*
X115270114Y-130785652D01*
X115438167Y-130785652D01*
X115438167Y-131505879D01*
G37*
G36*
X118463119Y-126992457D02*
G01*
X118078998Y-126992457D01*
X118078998Y-127760699D01*
X117886938Y-127760699D01*
X117763957Y-127765851D01*
X117709302Y-127797171D01*
X117695298Y-127878457D01*
X117694877Y-127925854D01*
X117687210Y-128034750D01*
X117645232Y-128084542D01*
X117540482Y-128103691D01*
X117514821Y-128105910D01*
X117395946Y-128123416D01*
X117342020Y-128169872D01*
X117321985Y-128276335D01*
X117319862Y-128300869D01*
X117303060Y-128418900D01*
X117260377Y-128469397D01*
X117163351Y-128480822D01*
X117139805Y-128480926D01*
X116974651Y-128480926D01*
X116974651Y-129249168D01*
X116590530Y-129249168D01*
X116590530Y-129441229D01*
X116585442Y-129564198D01*
X116554029Y-129618846D01*
X116472065Y-129632860D01*
X116422477Y-129633289D01*
X116254424Y-129633289D01*
X116254424Y-128913062D01*
X116422477Y-128913062D01*
X116527964Y-128907668D01*
X116577158Y-128873566D01*
X116592809Y-128783879D01*
X116595182Y-128708998D01*
X116596148Y-128526442D01*
X116592417Y-128346427D01*
X116591510Y-128324877D01*
X116590814Y-128210373D01*
X116620534Y-128158947D01*
X116706962Y-128145337D01*
X116778918Y-128144820D01*
X116974651Y-128144820D01*
X116974651Y-127760699D01*
X117358772Y-127760699D01*
X117358772Y-127376578D01*
X117742893Y-127376578D01*
X117742893Y-126656351D01*
X118127014Y-126656351D01*
X118127014Y-126464291D01*
X118132101Y-126341321D01*
X118163514Y-126286673D01*
X118245478Y-126272660D01*
X118295067Y-126272230D01*
X118463119Y-126272230D01*
X118463119Y-126992457D01*
G37*
G36*
X111692987Y-133042363D02*
G01*
X112077108Y-133042363D01*
X112077108Y-133762590D01*
X112461229Y-133762590D01*
X112461229Y-134530832D01*
X112845350Y-134530832D01*
X112845350Y-135299074D01*
X113037411Y-135299074D01*
X113160380Y-135304161D01*
X113215028Y-135335574D01*
X113229042Y-135417538D01*
X113229471Y-135467127D01*
X113236904Y-135579761D01*
X113278839Y-135625953D01*
X113384733Y-135635159D01*
X113397524Y-135635179D01*
X113505122Y-135640994D01*
X113552940Y-135676895D01*
X113565201Y-135770567D01*
X113565577Y-135827240D01*
X113565577Y-136019300D01*
X114717940Y-136019300D01*
X114717940Y-136355406D01*
X113949698Y-136355406D01*
X113949698Y-136739527D01*
X113565577Y-136739527D01*
X113565577Y-137123648D01*
X112845350Y-137123648D01*
X112845350Y-136931588D01*
X112840199Y-136808607D01*
X112808879Y-136753952D01*
X112727592Y-136739947D01*
X112680196Y-136739527D01*
X112571299Y-136731860D01*
X112521507Y-136689882D01*
X112502358Y-136585132D01*
X112500139Y-136559471D01*
X112482633Y-136440595D01*
X112436178Y-136386669D01*
X112329714Y-136366635D01*
X112305180Y-136364512D01*
X112187149Y-136347710D01*
X112136653Y-136305027D01*
X112125227Y-136208001D01*
X112125123Y-136184455D01*
X112119133Y-136078703D01*
X112082710Y-136031704D01*
X111988181Y-136019662D01*
X111933063Y-136019300D01*
X111741002Y-136019300D01*
X111741002Y-135251058D01*
X111356881Y-135251058D01*
X111356881Y-134098696D01*
X110972760Y-134098696D01*
X110972760Y-133378469D01*
X110588639Y-133378469D01*
X110588639Y-134146711D01*
X110972760Y-134146711D01*
X110972760Y-135299074D01*
X111308866Y-135299074D01*
X111308866Y-136019300D01*
X111692987Y-136019300D01*
X111692987Y-136403421D01*
X112077108Y-136403421D01*
X112077108Y-136787542D01*
X112461229Y-136787542D01*
X112461229Y-137171663D01*
X112653290Y-137171663D01*
X112776259Y-137176751D01*
X112830907Y-137208164D01*
X112844921Y-137290128D01*
X112845350Y-137339716D01*
X112845350Y-137507769D01*
X110972760Y-137507769D01*
X110972760Y-137123648D01*
X110252533Y-137123648D01*
X110252533Y-136739527D01*
X109868412Y-136739527D01*
X109868412Y-135635179D01*
X109484291Y-135635179D01*
X109484291Y-134530832D01*
X109868412Y-134530832D01*
X109868412Y-133762590D01*
X110252533Y-133762590D01*
X110252533Y-133570529D01*
X110257621Y-133447560D01*
X110289034Y-133392911D01*
X110370998Y-133378898D01*
X110420586Y-133378469D01*
X110530827Y-133371632D01*
X110578939Y-133332091D01*
X110592304Y-133231297D01*
X110593292Y-133198412D01*
X110594118Y-133017027D01*
X110589620Y-132838299D01*
X110588923Y-132723795D01*
X110618643Y-132672368D01*
X110705071Y-132658759D01*
X110777028Y-132658242D01*
X110972760Y-132658242D01*
X110972760Y-132274121D01*
X111356881Y-132274121D01*
X111356881Y-132082060D01*
X111361969Y-131959091D01*
X111393382Y-131904442D01*
X111475346Y-131890429D01*
X111524934Y-131890000D01*
X111692987Y-131890000D01*
X111692987Y-133042363D01*
G37*
G36*
X115102061Y-126848412D02*
G01*
X115107148Y-126971382D01*
X115138562Y-127026030D01*
X115220525Y-127040043D01*
X115270114Y-127040472D01*
X115438167Y-127040472D01*
X115438167Y-128480926D01*
X115102061Y-128480926D01*
X115102061Y-129249168D01*
X114717940Y-129249168D01*
X114717940Y-129633289D01*
X114910000Y-129633289D01*
X115032970Y-129628201D01*
X115087618Y-129596788D01*
X115101631Y-129514825D01*
X115102061Y-129465236D01*
X115107875Y-129357638D01*
X115143776Y-129309821D01*
X115237449Y-129297559D01*
X115294121Y-129297183D01*
X115486182Y-129297183D01*
X115486182Y-128528941D01*
X115870303Y-128528941D01*
X115870303Y-127040472D01*
X116206409Y-127040472D01*
X116206409Y-128865047D01*
X115822288Y-128865047D01*
X115822288Y-129633289D01*
X115438167Y-129633289D01*
X115438167Y-129825350D01*
X115433079Y-129948319D01*
X115401666Y-130002967D01*
X115319702Y-130016981D01*
X115270114Y-130017410D01*
X115102061Y-130017410D01*
X115102061Y-130737637D01*
X114717940Y-130737637D01*
X114717940Y-131121758D01*
X114333819Y-131121758D01*
X114333819Y-131505879D01*
X113949698Y-131505879D01*
X113949698Y-131890000D01*
X113229471Y-131890000D01*
X113229471Y-132082060D01*
X113234559Y-132205030D01*
X113265972Y-132259678D01*
X113347936Y-132273691D01*
X113397524Y-132274121D01*
X113505122Y-132279935D01*
X113552940Y-132315836D01*
X113565201Y-132409509D01*
X113565577Y-132466181D01*
X113565577Y-132658242D01*
X113949698Y-132658242D01*
X113949698Y-133042363D01*
X114141758Y-133042363D01*
X114264728Y-133047450D01*
X114319376Y-133078864D01*
X114333389Y-133160827D01*
X114333819Y-133210416D01*
X114339633Y-133318014D01*
X114375534Y-133365831D01*
X114469207Y-133378093D01*
X114525879Y-133378469D01*
X114717940Y-133378469D01*
X114717940Y-133762590D01*
X115438167Y-133762590D01*
X115438167Y-134146711D01*
X116206409Y-134146711D01*
X116206409Y-134530832D01*
X116974651Y-134530832D01*
X116974651Y-134698885D01*
X116968836Y-134806483D01*
X116932936Y-134854300D01*
X116839263Y-134866562D01*
X116782590Y-134866937D01*
X116590530Y-134866937D01*
X116590530Y-135251058D01*
X115822288Y-135251058D01*
X115822288Y-135635179D01*
X115102061Y-135635179D01*
X115102061Y-135827240D01*
X115096792Y-135950246D01*
X115065624Y-136004916D01*
X114985513Y-136018900D01*
X114942010Y-136019300D01*
X114823369Y-136010516D01*
X114752118Y-135989181D01*
X114749950Y-135987290D01*
X114727979Y-135921397D01*
X114717995Y-135804737D01*
X114717940Y-135795230D01*
X114717940Y-135635179D01*
X113613592Y-135635179D01*
X113613592Y-135251058D01*
X113229471Y-135251058D01*
X113229471Y-134482816D01*
X112845350Y-134482816D01*
X112845350Y-133762590D01*
X112509244Y-133762590D01*
X112509244Y-132994348D01*
X112125123Y-132994348D01*
X112125123Y-131890000D01*
X112845350Y-131890000D01*
X113229471Y-131890000D01*
X113229471Y-131505879D01*
X113421532Y-131505879D01*
X113544501Y-131500791D01*
X113599149Y-131469378D01*
X113613163Y-131387414D01*
X113613592Y-131337826D01*
X113619406Y-131230228D01*
X113655307Y-131182410D01*
X113748980Y-131170149D01*
X113805653Y-131169773D01*
X113997713Y-131169773D01*
X113997713Y-130785652D01*
X114381834Y-130785652D01*
X114381834Y-130593592D01*
X114386922Y-130470622D01*
X114418335Y-130415974D01*
X114500299Y-130401961D01*
X114549887Y-130401531D01*
X114717940Y-130401531D01*
X114717940Y-129633289D01*
X114333819Y-129633289D01*
X114333819Y-130353516D01*
X113949698Y-130353516D01*
X113949698Y-130737637D01*
X113565577Y-130737637D01*
X113565577Y-130929697D01*
X113560489Y-131052667D01*
X113529076Y-131107315D01*
X113447112Y-131121328D01*
X113397524Y-131121758D01*
X113289926Y-131127572D01*
X113242108Y-131163473D01*
X113229847Y-131257146D01*
X113229471Y-131313818D01*
X113229471Y-131505879D01*
X112845350Y-131505879D01*
X112845350Y-131890000D01*
X112125123Y-131890000D01*
X111741002Y-131890000D01*
X111741002Y-131169773D01*
X112125123Y-131169773D01*
X112125123Y-130977713D01*
X112130211Y-130854743D01*
X112161624Y-130800095D01*
X112243588Y-130786082D01*
X112293176Y-130785652D01*
X112461229Y-130785652D01*
X112461229Y-131505879D01*
X112845350Y-131505879D01*
X112845350Y-131313818D01*
X112845350Y-130401531D01*
X113229471Y-130401531D01*
X113229471Y-129633289D01*
X113421532Y-129633289D01*
X113544512Y-129628138D01*
X113599167Y-129596818D01*
X113613172Y-129515531D01*
X113613592Y-129468135D01*
X113621260Y-129359238D01*
X113663238Y-129309446D01*
X113767988Y-129290297D01*
X113793649Y-129288078D01*
X113973705Y-129273176D01*
X113987729Y-128901058D01*
X114001752Y-128528941D01*
X114381834Y-128528941D01*
X114381834Y-127760699D01*
X114717940Y-127760699D01*
X114722592Y-127388582D01*
X114723796Y-127180367D01*
X114722565Y-126984632D01*
X114719169Y-126842004D01*
X114718921Y-126836408D01*
X114718224Y-126721904D01*
X114747944Y-126670478D01*
X114834372Y-126656869D01*
X114906329Y-126656351D01*
X115102061Y-126656351D01*
X115102061Y-126848412D01*
G37*
G36*
X118791822Y-127047905D02*
G01*
X118838014Y-127089841D01*
X118847220Y-127195734D01*
X118847240Y-127208525D01*
X118847240Y-127376578D01*
X119219358Y-127381231D01*
X119427573Y-127382435D01*
X119623308Y-127381204D01*
X119765936Y-127377808D01*
X119771532Y-127377559D01*
X119951588Y-127369235D01*
X119951588Y-128091008D01*
X119771532Y-128105910D01*
X119652656Y-128123416D01*
X119598730Y-128169872D01*
X119578696Y-128276335D01*
X119576573Y-128300869D01*
X119559771Y-128418900D01*
X119517088Y-128469397D01*
X119420062Y-128480822D01*
X119396516Y-128480926D01*
X119290764Y-128486917D01*
X119243765Y-128523339D01*
X119231723Y-128617868D01*
X119231361Y-128672987D01*
X119231361Y-128865047D01*
X118847240Y-128865047D01*
X118847240Y-129249168D01*
X118463119Y-129249168D01*
X118463119Y-129633289D01*
X118078998Y-129633289D01*
X118078998Y-130017410D01*
X117694877Y-130017410D01*
X117694877Y-130731840D01*
X117514821Y-130746742D01*
X117395946Y-130764248D01*
X117342020Y-130810703D01*
X117321985Y-130917167D01*
X117319862Y-130941701D01*
X117303060Y-131059732D01*
X117260377Y-131110229D01*
X117163351Y-131121654D01*
X117139805Y-131121758D01*
X117034053Y-131127749D01*
X116987055Y-131164171D01*
X116975012Y-131258700D01*
X116974651Y-131313818D01*
X116974651Y-131505879D01*
X117166711Y-131505879D01*
X117289681Y-131500791D01*
X117344329Y-131469378D01*
X117358342Y-131387414D01*
X117358772Y-131337826D01*
X117364586Y-131230228D01*
X117400487Y-131182410D01*
X117494160Y-131170149D01*
X117550832Y-131169773D01*
X117742893Y-131169773D01*
X117742893Y-130785652D01*
X118127014Y-130785652D01*
X118127014Y-130017410D01*
X118511135Y-130017410D01*
X118511135Y-129825350D01*
X118516222Y-129702380D01*
X118547635Y-129647732D01*
X118629599Y-129633719D01*
X118679188Y-129633289D01*
X118791822Y-129625856D01*
X118838014Y-129583921D01*
X118847220Y-129478027D01*
X118847240Y-129465236D01*
X118853055Y-129357638D01*
X118888956Y-129309821D01*
X118982628Y-129297559D01*
X119039301Y-129297183D01*
X119162270Y-129302271D01*
X119216919Y-129333684D01*
X119230932Y-129415648D01*
X119231361Y-129465236D01*
X119238794Y-129577871D01*
X119280730Y-129624063D01*
X119386623Y-129633268D01*
X119399414Y-129633289D01*
X119567467Y-129633289D01*
X119567467Y-130737637D01*
X119399414Y-130737637D01*
X119291816Y-130743451D01*
X119243999Y-130779352D01*
X119231737Y-130873025D01*
X119231361Y-130929697D01*
X119231361Y-131121758D01*
X119039301Y-131121758D01*
X118916366Y-131126430D01*
X118861740Y-131158647D01*
X118847702Y-131245713D01*
X118847240Y-131310920D01*
X118853020Y-131433249D01*
X118888114Y-131489767D01*
X118979154Y-131510658D01*
X119027297Y-131514984D01*
X119146172Y-131532490D01*
X119200098Y-131578945D01*
X119220133Y-131685409D01*
X119222256Y-131709943D01*
X119237158Y-131890000D01*
X119042199Y-131890000D01*
X118918021Y-131894871D01*
X118862367Y-131925279D01*
X118847753Y-132004919D01*
X118847240Y-132058053D01*
X118839808Y-132170687D01*
X118797872Y-132216879D01*
X118691979Y-132226085D01*
X118679188Y-132226106D01*
X118566553Y-132218673D01*
X118520361Y-132176737D01*
X118511155Y-132070844D01*
X118511135Y-132058053D01*
X118518567Y-131945418D01*
X118560503Y-131899226D01*
X118666396Y-131890021D01*
X118679188Y-131890000D01*
X118786786Y-131884185D01*
X118834603Y-131848285D01*
X118846865Y-131754612D01*
X118847240Y-131697939D01*
X118847240Y-131505879D01*
X118463119Y-131505879D01*
X118463119Y-131890000D01*
X118271059Y-131890000D01*
X118148078Y-131895151D01*
X118093423Y-131926471D01*
X118079419Y-132007758D01*
X118078998Y-132055154D01*
X118071331Y-132164051D01*
X118029353Y-132213843D01*
X117924603Y-132232992D01*
X117898942Y-132235211D01*
X117780016Y-132252787D01*
X117726077Y-132299151D01*
X117706101Y-132404917D01*
X117704146Y-132427435D01*
X117686274Y-132545244D01*
X117638490Y-132598332D01*
X117529495Y-132618000D01*
X117512085Y-132619495D01*
X117394949Y-132637085D01*
X117341738Y-132684053D01*
X117321836Y-132791427D01*
X117319862Y-132814291D01*
X117303060Y-132932322D01*
X117260377Y-132982818D01*
X117163351Y-132994244D01*
X117139805Y-132994348D01*
X117034053Y-133000338D01*
X116987055Y-133036761D01*
X116975012Y-133131290D01*
X116974651Y-133186408D01*
X116974651Y-133378469D01*
X116590530Y-133378469D01*
X116590530Y-133762590D01*
X115486182Y-133762590D01*
X115486182Y-133042363D01*
X115870303Y-133042363D01*
X115870303Y-132658242D01*
X116254424Y-132658242D01*
X116254424Y-132466181D01*
X116259511Y-132343212D01*
X116290925Y-132288563D01*
X116372888Y-132274550D01*
X116422477Y-132274121D01*
X116530075Y-132268306D01*
X116577892Y-132232406D01*
X116590154Y-132138733D01*
X116590530Y-132082060D01*
X116590530Y-131890000D01*
X116974651Y-131890000D01*
X116974651Y-131505879D01*
X116590530Y-131505879D01*
X116590530Y-131890000D01*
X116398469Y-131890000D01*
X116275500Y-131895087D01*
X116220851Y-131926501D01*
X116206838Y-132008464D01*
X116206409Y-132058053D01*
X116200594Y-132165651D01*
X116164694Y-132213468D01*
X116071021Y-132225730D01*
X116014348Y-132226106D01*
X115822288Y-132226106D01*
X115822288Y-132610227D01*
X115438167Y-132610227D01*
X115438167Y-132802287D01*
X115433079Y-132925257D01*
X115401666Y-132979905D01*
X115319702Y-132993918D01*
X115270114Y-132994348D01*
X115162515Y-133000162D01*
X115114698Y-133036063D01*
X115102437Y-133129736D01*
X115102061Y-133186408D01*
X115102061Y-133378469D01*
X114717940Y-133378469D01*
X114717940Y-133186408D01*
X114712852Y-133063439D01*
X114681439Y-133008790D01*
X114599475Y-132994777D01*
X114549887Y-132994348D01*
X114437253Y-132986915D01*
X114391060Y-132944979D01*
X114381855Y-132839086D01*
X114381834Y-132826295D01*
X114389267Y-132713660D01*
X114431202Y-132667468D01*
X114537096Y-132658263D01*
X114549887Y-132658242D01*
X114657485Y-132652427D01*
X114705303Y-132616527D01*
X114717564Y-132522854D01*
X114717940Y-132466181D01*
X114717940Y-132274121D01*
X115102061Y-132274121D01*
X115102061Y-131890000D01*
X115486182Y-131890000D01*
X115486182Y-131505879D01*
X115870303Y-131505879D01*
X115870303Y-130785652D01*
X116254424Y-130785652D01*
X116254424Y-130593592D01*
X116259511Y-130470622D01*
X116290925Y-130415974D01*
X116372888Y-130401961D01*
X116422477Y-130401531D01*
X116527949Y-130396161D01*
X116577055Y-130362133D01*
X116592477Y-130272566D01*
X116594666Y-130197467D01*
X116599676Y-129963875D01*
X116607473Y-129809325D01*
X116624154Y-129716883D01*
X116655818Y-129669619D01*
X116708564Y-129650599D01*
X116788490Y-129642892D01*
X116794594Y-129642394D01*
X116912624Y-129625593D01*
X116963121Y-129582910D01*
X116974547Y-129485884D01*
X116974651Y-129462338D01*
X116980641Y-129356585D01*
X117017064Y-129309587D01*
X117111593Y-129297544D01*
X117166711Y-129297183D01*
X117358772Y-129297183D01*
X117358772Y-128528941D01*
X117742893Y-128528941D01*
X117742893Y-128144820D01*
X118127014Y-128144820D01*
X118127014Y-127760699D01*
X118511135Y-127760699D01*
X118511135Y-127040472D01*
X118679188Y-127040472D01*
X118791822Y-127047905D01*
G37*
D17*
%TO.C,U5*%
X98690000Y-77250000D02*
X98690000Y-75300000D01*
X98690000Y-77250000D02*
X98690000Y-79200000D01*
X103810000Y-77250000D02*
X103810000Y-75300000D01*
X103810000Y-77250000D02*
X103810000Y-79200000D01*
X98785000Y-79950000D02*
X98455000Y-80190000D01*
X98455000Y-79710000D01*
X98785000Y-79950000D01*
G36*
X98785000Y-79950000D02*
G01*
X98455000Y-80190000D01*
X98455000Y-79710000D01*
X98785000Y-79950000D01*
G37*
%TO.C,R31*%
X111322936Y-78540000D02*
X112777064Y-78540000D01*
X111322936Y-80360000D02*
X112777064Y-80360000D01*
%TO.C,C10*%
X125590000Y-86990000D02*
X127940000Y-86990000D01*
X125590000Y-92745563D02*
X125590000Y-86990000D01*
X126654437Y-93810000D02*
X125590000Y-92745563D01*
X126654437Y-93810000D02*
X127940000Y-93810000D01*
X126758750Y-94443750D02*
X127546250Y-94443750D01*
X127152500Y-94837500D02*
X127152500Y-94050000D01*
X131345563Y-93810000D02*
X130060000Y-93810000D01*
X131345563Y-93810000D02*
X132410000Y-92745563D01*
X132410000Y-86990000D02*
X130060000Y-86990000D01*
X132410000Y-92745563D02*
X132410000Y-86990000D01*
%TO.C,U24*%
X115730000Y-64130000D02*
X113530000Y-64130000D01*
X115730000Y-64130000D02*
X117930000Y-64130000D01*
X115730000Y-69350000D02*
X113530000Y-69350000D01*
X115730000Y-69350000D02*
X117930000Y-69350000D01*
X112830000Y-64330000D02*
X112590000Y-64000000D01*
X113070000Y-64000000D01*
X112830000Y-64330000D01*
G36*
X112830000Y-64330000D02*
G01*
X112590000Y-64000000D01*
X113070000Y-64000000D01*
X112830000Y-64330000D01*
G37*
%TO.C,D5*%
X137015000Y-95915000D02*
X137015000Y-98600000D01*
X138935000Y-95915000D02*
X137015000Y-95915000D01*
X138935000Y-98600000D02*
X138935000Y-95915000D01*
%TO.C,RN1*%
X136370000Y-75150000D02*
X136370000Y-74150000D01*
X139730000Y-75150000D02*
X139730000Y-74150000D01*
%TO.C,R37*%
X83157500Y-109402742D02*
X83157500Y-109877258D01*
X84202500Y-109402742D02*
X84202500Y-109877258D01*
%TO.C,C25*%
X101912546Y-70496348D02*
X101912546Y-70712020D01*
X102632546Y-70496348D02*
X102632546Y-70712020D01*
%TO.C,J14*%
X77195000Y-105545000D02*
X78525000Y-105545000D01*
X77195000Y-106875000D02*
X77195000Y-105545000D01*
X77195000Y-108145000D02*
X77195000Y-115825000D01*
X77195000Y-108145000D02*
X79855000Y-108145000D01*
X77195000Y-115825000D02*
X79855000Y-115825000D01*
X79855000Y-108145000D02*
X79855000Y-115825000D01*
%TO.C,U3*%
X135740001Y-67650000D02*
X135740000Y-65700000D01*
X135740001Y-67650000D02*
X135740000Y-69600000D01*
X140859999Y-67650000D02*
X140860000Y-65700000D01*
X140859999Y-67650000D02*
X140860000Y-69600000D01*
X135835000Y-70350000D02*
X135505000Y-70589999D01*
X135505000Y-70110000D01*
X135835000Y-70350000D01*
G36*
X135835000Y-70350000D02*
G01*
X135505000Y-70589999D01*
X135505000Y-70110000D01*
X135835000Y-70350000D01*
G37*
%TO.C,R56*%
X100127500Y-87387258D02*
X100127500Y-86912742D01*
X101172500Y-87387258D02*
X101172500Y-86912742D01*
%TO.C,D37*%
X94635000Y-74925000D02*
X86125000Y-74925000D01*
X94635000Y-74925000D02*
X94635000Y-81425000D01*
X94635000Y-81425000D02*
X86125000Y-81425000D01*
%TO.C,R104*%
X112597500Y-71357258D02*
X112597500Y-70882742D01*
X113642500Y-71357258D02*
X113642500Y-70882742D01*
%TO.C,R5*%
X144602742Y-73927500D02*
X145077258Y-73927500D01*
X144602742Y-74972500D02*
X145077258Y-74972500D01*
%TO.C,D10*%
X132830000Y-95915000D02*
X132830000Y-98600000D01*
X134750000Y-95915000D02*
X132830000Y-95915000D01*
X134750000Y-98600000D02*
X134750000Y-95915000D01*
%TO.C,R44*%
X88327500Y-116712258D02*
X88327500Y-116237742D01*
X89372500Y-116712258D02*
X89372500Y-116237742D01*
%TO.C,SW1*%
X142990000Y-104600000D02*
X149110000Y-104600000D01*
X142990000Y-108300000D02*
X142990000Y-104600000D01*
X149110000Y-104600000D02*
X149110000Y-108300000D01*
X149110000Y-108300000D02*
X142990000Y-108300000D01*
%TD*%
D20*
%TO.C,J1*%
X88256857Y-58312709D03*
D21*
X92356857Y-62162709D03*
X134956857Y-62162709D03*
D20*
X139056857Y-58312709D03*
%TD*%
%LPC*%
D22*
%TO.C,D19*%
X114373883Y-118693883D03*
X112606117Y-116926117D03*
%TD*%
D23*
%TO.C,U1*%
X123900000Y-66530000D03*
X123400000Y-66530000D03*
X122900000Y-66529999D03*
X122400000Y-66530000D03*
X121900000Y-66530000D03*
X121900000Y-70830000D03*
X122400000Y-70830000D03*
X122900000Y-70830001D03*
X123400000Y-70830000D03*
X123900000Y-70830000D03*
%TD*%
D24*
%TO.C,C33*%
X105828249Y-98471751D03*
X107171751Y-97128249D03*
%TD*%
D25*
%TO.C,A1*%
X135170000Y-74670000D03*
D26*
X135170000Y-77210000D03*
X135170000Y-79750000D03*
X135170000Y-82290000D03*
X135170000Y-84830000D03*
X135170000Y-87370000D03*
X135170000Y-89910000D03*
X135170000Y-92450000D03*
X147870000Y-92450000D03*
X147870000Y-89910000D03*
X147870000Y-87370000D03*
X147870000Y-84830000D03*
X147870000Y-82290000D03*
X147870000Y-79750000D03*
X147870000Y-77210000D03*
X147870000Y-74670000D03*
%TD*%
D27*
%TO.C,C3*%
X127115001Y-73130001D03*
X125565001Y-73130001D03*
%TD*%
D28*
%TO.C,R15*%
X140975000Y-76000000D03*
X142625000Y-76000000D03*
%TD*%
D29*
%TO.C,D7*%
X135875000Y-96662500D03*
X135875000Y-98537500D03*
%TD*%
D30*
%TO.C,C19*%
X103300000Y-70120000D03*
X103300000Y-71080000D03*
%TD*%
D31*
%TO.C,D4*%
X146905000Y-98537500D03*
X146905000Y-96662500D03*
%TD*%
D32*
%TO.C,C45*%
X92148327Y-109478385D03*
X90804825Y-110821887D03*
%TD*%
D33*
%TO.C,C39*%
X124470001Y-125220000D03*
X126369999Y-125220000D03*
%TD*%
D34*
%TO.C,C14*%
X86630000Y-82940001D03*
X86630000Y-84839999D03*
%TD*%
D35*
%TO.C,Y2*%
X96066777Y-99651142D03*
X94511142Y-101206777D03*
X95713223Y-102408858D03*
X97268858Y-100853223D03*
%TD*%
D31*
%TO.C,D9*%
X144835000Y-98537500D03*
X144835000Y-96662500D03*
%TD*%
%TO.C,D1*%
X148980000Y-98537500D03*
X148980000Y-96662500D03*
%TD*%
D36*
%TO.C,R10*%
X96600000Y-117625000D03*
X94950000Y-117625000D03*
%TD*%
D34*
%TO.C,C5*%
X125850000Y-69550001D03*
X125850000Y-71449999D03*
%TD*%
D37*
%TO.C,C42*%
X97488062Y-98102578D03*
X98831564Y-99446080D03*
%TD*%
%TO.C,C26*%
X101428249Y-120528249D03*
X102771751Y-121871751D03*
%TD*%
D38*
%TO.C,FID1*%
X82740000Y-49470000D03*
%TD*%
D39*
%TO.C,JP13*%
X126150000Y-79200000D03*
X126150000Y-77900000D03*
X126150000Y-76600000D03*
%TD*%
D40*
%TO.C,U19*%
X77825000Y-87520000D03*
D41*
X84125000Y-89800000D03*
D40*
X77825000Y-92080000D03*
%TD*%
D42*
%TO.C,JP7*%
X144000001Y-87300000D03*
X145299999Y-87300000D03*
%TD*%
D43*
%TO.C,C6*%
X139940000Y-107699999D03*
X139940000Y-105800001D03*
%TD*%
D44*
%TO.C,C43*%
X94313151Y-103950351D03*
X92969649Y-102606849D03*
%TD*%
D45*
%TO.C,RN5*%
X130920000Y-75500000D03*
D46*
X130920000Y-74700000D03*
X130920000Y-73900000D03*
D45*
X130920000Y-73100000D03*
X129120000Y-73100000D03*
D46*
X129120000Y-73900000D03*
X129120000Y-74700000D03*
D45*
X129120000Y-75500000D03*
%TD*%
D47*
%TO.C,R102*%
X117800000Y-71945000D03*
X117800000Y-70295000D03*
%TD*%
D33*
%TO.C,C35*%
X104950001Y-121800000D03*
X106849999Y-121800000D03*
%TD*%
D48*
%TO.C,R55*%
X103750000Y-86325000D03*
X103750000Y-87975000D03*
%TD*%
D49*
%TO.C,R27*%
X110016637Y-100683363D03*
X111183363Y-99516637D03*
%TD*%
D50*
%TO.C,U8*%
X82400000Y-96780000D03*
X80100000Y-96780000D03*
D51*
X80100000Y-103080000D03*
D50*
X77800000Y-96780000D03*
%TD*%
D28*
%TO.C,R13*%
X140975000Y-79100000D03*
X142625000Y-79100000D03*
%TD*%
D52*
%TO.C,D15*%
X126340993Y-98601238D03*
X127915995Y-98601238D03*
%TD*%
D27*
%TO.C,C4*%
X127135001Y-74730001D03*
X125585001Y-74730001D03*
%TD*%
D29*
%TO.C,D2*%
X140050000Y-96662500D03*
X140050000Y-98537500D03*
%TD*%
%TO.C,D26*%
X88875000Y-118787499D03*
X88875000Y-120662501D03*
%TD*%
D47*
%TO.C,R57*%
X99100000Y-87975000D03*
X99100000Y-86325000D03*
%TD*%
D53*
%TO.C,U22*%
X103865596Y-100330315D03*
X103512043Y-100683868D03*
X103158489Y-101037422D03*
X102804936Y-101390975D03*
X102451383Y-101744528D03*
X102097829Y-102098082D03*
X101744276Y-102451635D03*
X101390722Y-102805189D03*
X101037169Y-103158742D03*
X100683616Y-103512295D03*
X100330062Y-103865849D03*
X99976509Y-104219402D03*
X99622955Y-104572955D03*
X99269402Y-104926509D03*
X98915849Y-105280062D03*
X98562295Y-105633616D03*
X98208742Y-105987169D03*
X97855189Y-106340722D03*
X97501635Y-106694276D03*
X97148082Y-107047829D03*
X96794528Y-107401383D03*
X96440975Y-107754936D03*
X96087422Y-108108489D03*
X95733868Y-108462043D03*
X95380315Y-108815596D03*
D54*
X95380315Y-111184404D03*
X95733868Y-111537957D03*
X96087422Y-111891511D03*
X96440975Y-112245064D03*
X96794528Y-112598617D03*
X97148082Y-112952171D03*
X97501635Y-113305724D03*
X97855189Y-113659278D03*
X98208742Y-114012831D03*
X98562295Y-114366384D03*
X98915849Y-114719938D03*
X99269402Y-115073491D03*
X99622955Y-115427045D03*
X99976509Y-115780598D03*
X100330062Y-116134151D03*
X100683616Y-116487705D03*
X101037169Y-116841258D03*
X101390722Y-117194811D03*
X101744276Y-117548365D03*
X102097829Y-117901918D03*
X102451383Y-118255472D03*
X102804936Y-118609025D03*
X103158489Y-118962578D03*
X103512043Y-119316132D03*
X103865596Y-119669685D03*
D53*
X106234404Y-119669685D03*
X106587957Y-119316132D03*
X106941511Y-118962578D03*
X107295064Y-118609025D03*
X107648617Y-118255472D03*
X108002171Y-117901918D03*
X108355724Y-117548365D03*
X108709278Y-117194811D03*
X109062831Y-116841258D03*
X109416384Y-116487705D03*
X109769938Y-116134151D03*
X110123491Y-115780598D03*
X110477045Y-115427045D03*
X110830598Y-115073491D03*
X111184151Y-114719938D03*
X111537705Y-114366384D03*
X111891258Y-114012831D03*
X112244811Y-113659278D03*
X112598365Y-113305724D03*
X112951918Y-112952171D03*
X113305472Y-112598617D03*
X113659025Y-112245064D03*
X114012578Y-111891511D03*
X114366132Y-111537957D03*
X114719685Y-111184404D03*
D54*
X114719685Y-108815596D03*
X114366132Y-108462043D03*
X114012578Y-108108489D03*
X113659025Y-107754936D03*
X113305472Y-107401383D03*
X112951918Y-107047829D03*
X112598365Y-106694276D03*
X112244811Y-106340722D03*
X111891258Y-105987169D03*
X111537705Y-105633616D03*
X111184151Y-105280062D03*
X110830598Y-104926509D03*
X110477045Y-104572955D03*
X110123491Y-104219402D03*
X109769938Y-103865849D03*
X109416384Y-103512295D03*
X109062831Y-103158742D03*
X108709278Y-102805189D03*
X108355724Y-102451635D03*
X108002171Y-102098082D03*
X107648617Y-101744528D03*
X107295064Y-101390975D03*
X106941511Y-101037422D03*
X106587957Y-100683868D03*
X106234404Y-100330315D03*
%TD*%
D55*
%TO.C,U2*%
X129445000Y-70125000D03*
X130715000Y-70125000D03*
X131985000Y-70125000D03*
X133255000Y-70125000D03*
X133255000Y-65175000D03*
X131985000Y-65175000D03*
X130715000Y-65175000D03*
X129445000Y-65175000D03*
%TD*%
D42*
%TO.C,JP8*%
X144000001Y-84700000D03*
X145299999Y-84700000D03*
%TD*%
D56*
%TO.C,RN7*%
X100137500Y-84750000D03*
D57*
X100937500Y-84750000D03*
X101737500Y-84750000D03*
D56*
X102537500Y-84750000D03*
X102537500Y-82950000D03*
D57*
X101737500Y-82950000D03*
X100937500Y-82950000D03*
D56*
X100137500Y-82950000D03*
%TD*%
D42*
%TO.C,JP6*%
X144000001Y-89900000D03*
X145299999Y-89900000D03*
%TD*%
D55*
%TO.C,U14*%
X105085000Y-78950000D03*
X106355000Y-78950000D03*
X107625000Y-78950000D03*
X108895000Y-78950000D03*
X108895000Y-74000000D03*
X107625000Y-74000000D03*
X106355000Y-74000000D03*
X105085000Y-74000000D03*
%TD*%
D58*
%TO.C,U15*%
X131985000Y-123110000D03*
X131985000Y-121840000D03*
X131985000Y-120570000D03*
X131985000Y-119300000D03*
X124785000Y-119300000D03*
X124785000Y-120570000D03*
X124785000Y-121840000D03*
X124785000Y-123110000D03*
%TD*%
D59*
%TO.C,C50*%
X133889999Y-112590000D03*
X131990001Y-112590000D03*
%TD*%
D60*
%TO.C,J8*%
X114450000Y-124575000D03*
D61*
X115250000Y-122825001D03*
X116050000Y-124575000D03*
X116850000Y-122825000D03*
X117650000Y-124575000D03*
D62*
X112400001Y-123700000D03*
X119700000Y-123700000D03*
%TD*%
D63*
%TO.C,J9*%
X123140000Y-102230000D03*
D64*
X123140000Y-99690000D03*
D63*
X123140000Y-97150000D03*
X119965000Y-102230000D03*
X119965000Y-97150000D03*
D64*
X118060000Y-100706000D03*
X118060000Y-98674000D03*
D65*
X121870000Y-99055000D03*
X121870000Y-100325000D03*
X120600000Y-99055000D03*
X120600000Y-100325000D03*
X119330000Y-99055000D03*
X119330000Y-100325000D03*
%TD*%
D28*
%TO.C,R6*%
X144025000Y-76000000D03*
X145675000Y-76000000D03*
%TD*%
D47*
%TO.C,R11*%
X120240000Y-71985000D03*
X120240000Y-70335000D03*
%TD*%
D66*
%TO.C,U11*%
X93480000Y-83500000D03*
D67*
X91200000Y-89800000D03*
D66*
X88920000Y-83500000D03*
%TD*%
D24*
%TO.C,C31*%
X117928249Y-111971751D03*
X119271751Y-110628249D03*
%TD*%
D48*
%TO.C,R99*%
X109560000Y-64735000D03*
X109560000Y-66385000D03*
%TD*%
D68*
%TO.C,C69*%
X80450000Y-77990000D03*
X80450000Y-83390000D03*
%TD*%
D24*
%TO.C,C29*%
X116528249Y-110571751D03*
X117871751Y-109228249D03*
%TD*%
D32*
%TO.C,C36*%
X93598327Y-110888385D03*
X92254825Y-112231887D03*
%TD*%
D69*
%TO.C,U16*%
X90093033Y-104962792D03*
X91436536Y-103619289D03*
X89438959Y-102965215D03*
%TD*%
D70*
%TO.C,U17*%
X116826085Y-114917417D03*
X116154334Y-114245666D03*
X115482583Y-113573915D03*
X113873915Y-115182583D03*
X114545666Y-115854334D03*
X115217417Y-116526085D03*
%TD*%
D71*
%TO.C,U10*%
X132120000Y-110785001D03*
X132120000Y-110135000D03*
X132120000Y-109485000D03*
X132120000Y-108834999D03*
X133720000Y-108834999D03*
X133720000Y-109485000D03*
X133720000Y-110135000D03*
X133720000Y-110785001D03*
%TD*%
D72*
%TO.C,JP2*%
X126140000Y-65010000D03*
X126140000Y-66310000D03*
X126140000Y-67610000D03*
%TD*%
D47*
%TO.C,R42*%
X84700000Y-117300000D03*
X84700000Y-115650000D03*
%TD*%
D34*
%TO.C,C30*%
X139940000Y-109500001D03*
X139940000Y-111399999D03*
%TD*%
D73*
%TO.C,RN2*%
X135910000Y-101650000D03*
D74*
X135110000Y-101650000D03*
X134310000Y-101650000D03*
D73*
X133510000Y-101650000D03*
X133510000Y-103450000D03*
D74*
X134310000Y-103450000D03*
X135110000Y-103450000D03*
D73*
X135910000Y-103450000D03*
%TD*%
D75*
%TO.C,D13*%
X131345994Y-98631238D03*
X129770992Y-98631238D03*
%TD*%
D31*
%TO.C,D22*%
X83680000Y-107267501D03*
X83680000Y-105392499D03*
%TD*%
%TO.C,D12*%
X142735000Y-98537500D03*
X142735000Y-96662500D03*
%TD*%
D48*
%TO.C,R58*%
X102200000Y-86325000D03*
X102200000Y-87975000D03*
%TD*%
D76*
%TO.C,D18*%
X93975000Y-96100000D03*
X93975000Y-94000000D03*
%TD*%
D77*
%TO.C,C63*%
X111080000Y-66335000D03*
X111080000Y-64785000D03*
%TD*%
D78*
%TO.C,BT1*%
X89900000Y-96100000D03*
D79*
X87400000Y-96100000D03*
%TD*%
D32*
%TO.C,C46*%
X90671751Y-108008249D03*
X89328249Y-109351751D03*
%TD*%
D30*
%TO.C,C58*%
X105471204Y-70067731D03*
X105471204Y-71027731D03*
%TD*%
D48*
%TO.C,R106*%
X116250000Y-70295000D03*
X116250000Y-71945000D03*
%TD*%
D80*
%TO.C,U4*%
X122400000Y-92115000D03*
X122400000Y-89575000D03*
X122400000Y-87035000D03*
X122400000Y-84495000D03*
X122400000Y-81955000D03*
X122400000Y-79415000D03*
X122400000Y-76875000D03*
X122400000Y-74335000D03*
X97000000Y-92115000D03*
X97000000Y-89575000D03*
X97000000Y-87035000D03*
X97000000Y-84495000D03*
X97000000Y-81955000D03*
X97000000Y-79415000D03*
X97000000Y-76875000D03*
X97000000Y-74335000D03*
%TD*%
D81*
%TO.C,D17*%
X89075000Y-72700000D03*
X93075000Y-72700000D03*
%TD*%
D29*
%TO.C,D24*%
X84675000Y-118812499D03*
X84675000Y-120687501D03*
%TD*%
D27*
%TO.C,C15*%
X78605000Y-85340000D03*
X77055000Y-85340000D03*
%TD*%
D82*
%TO.C,U7*%
X130490000Y-77000000D03*
X129840000Y-77000001D03*
X129190000Y-77000000D03*
X129190000Y-78900000D03*
X129840000Y-78899999D03*
X130490000Y-78900000D03*
%TD*%
D28*
%TO.C,R9*%
X144025000Y-79100000D03*
X145675000Y-79100000D03*
%TD*%
D33*
%TO.C,C9*%
X81460001Y-94330000D03*
X83359999Y-94330000D03*
%TD*%
D30*
%TO.C,C60*%
X106484509Y-70089001D03*
X106484509Y-71049001D03*
%TD*%
D36*
%TO.C,R4*%
X127983493Y-96911239D03*
X126333493Y-96911239D03*
%TD*%
D33*
%TO.C,C49*%
X77820001Y-94350000D03*
X79719999Y-94350000D03*
%TD*%
D83*
%TO.C,SW2*%
X149949999Y-110800000D03*
X142150001Y-110800000D03*
%TD*%
D31*
%TO.C,D23*%
X81530000Y-107257502D03*
X81530000Y-105382500D03*
%TD*%
D84*
%TO.C,C48*%
X84830000Y-82455000D03*
X84830000Y-84005000D03*
%TD*%
D47*
%TO.C,R43*%
X86800000Y-117275000D03*
X86800000Y-115625000D03*
%TD*%
D85*
%TO.C,U21*%
X126507500Y-108192500D03*
X126507500Y-108992500D03*
X126507500Y-109792500D03*
X126507500Y-110592500D03*
X126507500Y-111392500D03*
X126507500Y-112192500D03*
D86*
X127507500Y-112192501D03*
D85*
X128507500Y-112192500D03*
X128507500Y-111392500D03*
X128507500Y-110592500D03*
X128507500Y-109792500D03*
X128507500Y-108992500D03*
X128507500Y-108192500D03*
D86*
X127507500Y-108192499D03*
%TD*%
D38*
%TO.C,FID2*%
X140290000Y-137800000D03*
%TD*%
D87*
%TO.C,U23*%
X102000000Y-64806965D03*
X102000000Y-65456965D03*
X102000000Y-66106965D03*
X102000000Y-66756965D03*
X102000000Y-67406965D03*
X102000000Y-68056965D03*
X102000000Y-68706965D03*
X107725000Y-68706965D03*
X107725000Y-68056965D03*
X107725000Y-67406965D03*
X107725000Y-66756965D03*
X107725000Y-66106965D03*
X107725000Y-65456965D03*
X107725000Y-64806965D03*
%TD*%
D28*
%TO.C,R14*%
X140975000Y-74450000D03*
X142625000Y-74450000D03*
%TD*%
D48*
%TO.C,R38*%
X81460000Y-108815000D03*
X81460000Y-110465000D03*
%TD*%
D36*
%TO.C,R1*%
X131383492Y-96921240D03*
X129733492Y-96921240D03*
%TD*%
D28*
%TO.C,R12*%
X140975000Y-77570000D03*
X142625000Y-77570000D03*
%TD*%
D29*
%TO.C,D25*%
X86775000Y-118787499D03*
X86775000Y-120662501D03*
%TD*%
D43*
%TO.C,C47*%
X124610000Y-111279999D03*
X124610000Y-109380001D03*
%TD*%
D48*
%TO.C,R108*%
X114670000Y-70305000D03*
X114670000Y-71955000D03*
%TD*%
D28*
%TO.C,R8*%
X144025000Y-77570000D03*
X145675000Y-77570000D03*
%TD*%
D88*
%TO.C,U6*%
X115950000Y-77390000D03*
X115950000Y-76120000D03*
X115950000Y-74850000D03*
X115950000Y-73580000D03*
X111000000Y-73580000D03*
X111000000Y-74850000D03*
X111000000Y-76120000D03*
X111000000Y-77390000D03*
%TD*%
D24*
%TO.C,C44*%
X91546138Y-106426503D03*
X92889640Y-105083001D03*
%TD*%
D89*
%TO.C,J16*%
X98032266Y-126395713D03*
X99132266Y-126795713D03*
X100232266Y-126395713D03*
X101332266Y-126195713D03*
X102432266Y-126395713D03*
X103532266Y-126195713D03*
X104632266Y-126395713D03*
X105732266Y-126395713D03*
D90*
X104922266Y-137255713D03*
X99222266Y-137255713D03*
D91*
X106522266Y-124105713D03*
X93372266Y-123105713D03*
D92*
X103532266Y-137455713D03*
%TD*%
D93*
%TO.C,U5*%
X99345000Y-79825000D03*
X100615000Y-79825000D03*
X101885000Y-79825000D03*
X103155000Y-79825000D03*
X103155000Y-74675000D03*
X101885000Y-74675000D03*
X100615000Y-74675000D03*
X99345000Y-74675000D03*
%TD*%
D94*
%TO.C,R31*%
X110587500Y-79450000D03*
X113512500Y-79450000D03*
%TD*%
D95*
%TO.C,C10*%
X129000000Y-93100000D03*
X129000000Y-87700000D03*
%TD*%
D96*
%TO.C,J1*%
X88256857Y-58312709D03*
D97*
X92356857Y-62162709D03*
X134956857Y-62162709D03*
D96*
X139056857Y-58312709D03*
D98*
X98806857Y-53562709D03*
X98806857Y-56062709D03*
X98806857Y-58562709D03*
X98806857Y-61062709D03*
X102506857Y-53562709D03*
X102506857Y-56062709D03*
X102506857Y-58562709D03*
X102506857Y-61062709D03*
X106006857Y-53562709D03*
X106006857Y-56062709D03*
X106006857Y-58562709D03*
X106006857Y-61062709D03*
X108506857Y-53562709D03*
X108506857Y-56062709D03*
X108506857Y-58562709D03*
X108506857Y-61062709D03*
X111006857Y-53562709D03*
X111006857Y-56062709D03*
X111006857Y-58562709D03*
X111006857Y-61062709D03*
X113506857Y-53562709D03*
X113506857Y-56062709D03*
X113506857Y-58562709D03*
X113506857Y-61062709D03*
X116006857Y-53562709D03*
X116006857Y-56062709D03*
X116006857Y-58562709D03*
X116006857Y-61062709D03*
X118506857Y-53562709D03*
X118506857Y-56062709D03*
X118506857Y-58562709D03*
X118506857Y-61062709D03*
X121006857Y-53562709D03*
X121006857Y-56062709D03*
X121006857Y-58562709D03*
X121006857Y-61062709D03*
X123506857Y-53562709D03*
X123506857Y-56062709D03*
X123506857Y-58562709D03*
X123506857Y-61062709D03*
X126006857Y-53562709D03*
X126006857Y-56062709D03*
X126006857Y-58562709D03*
X126006857Y-61062709D03*
X128506857Y-53562709D03*
X128506857Y-56062709D03*
X128506857Y-58562709D03*
X128506857Y-61062709D03*
%TD*%
D87*
%TO.C,U24*%
X112867500Y-64790000D03*
X112867500Y-65440000D03*
X112867500Y-66090000D03*
X112867500Y-66740000D03*
X112867500Y-67390000D03*
X112867500Y-68040000D03*
X112867500Y-68690000D03*
X118592500Y-68690000D03*
X118592500Y-68040000D03*
X118592500Y-67390000D03*
X118592500Y-66740000D03*
X118592500Y-66090000D03*
X118592500Y-65440000D03*
X118592500Y-64790000D03*
%TD*%
D29*
%TO.C,D5*%
X137975000Y-96662500D03*
X137975000Y-98537500D03*
%TD*%
D73*
%TO.C,RN1*%
X139250000Y-73750000D03*
D74*
X138450000Y-73750000D03*
X137650000Y-73750000D03*
D73*
X136850000Y-73750000D03*
X136850000Y-75550000D03*
D74*
X137650000Y-75550000D03*
X138450000Y-75550000D03*
D73*
X139250000Y-75550000D03*
%TD*%
D48*
%TO.C,R37*%
X83680000Y-108815000D03*
X83680000Y-110465000D03*
%TD*%
D30*
%TO.C,C25*%
X102272546Y-70124184D03*
X102272546Y-71084184D03*
%TD*%
D99*
%TO.C,J14*%
X78525000Y-106875000D03*
D100*
X78525000Y-109415000D03*
X78525000Y-111955000D03*
X78525000Y-114495000D03*
%TD*%
D55*
%TO.C,U3*%
X136395000Y-70125000D03*
X137665000Y-70125000D03*
X138935000Y-70125000D03*
X140205000Y-70125000D03*
X140205000Y-65175000D03*
X138935000Y-65175000D03*
X137665000Y-65175000D03*
X136395000Y-65175000D03*
%TD*%
D47*
%TO.C,R56*%
X100650000Y-87975000D03*
X100650000Y-86325000D03*
%TD*%
D101*
%TO.C,D37*%
X93125000Y-78175000D03*
X86325000Y-78175000D03*
%TD*%
D47*
%TO.C,R104*%
X113120000Y-71945000D03*
X113120000Y-70295000D03*
%TD*%
D28*
%TO.C,R5*%
X144015000Y-74450000D03*
X145665000Y-74450000D03*
%TD*%
D29*
%TO.C,D10*%
X133790000Y-96662500D03*
X133790000Y-98537500D03*
%TD*%
D47*
%TO.C,R44*%
X88850000Y-117300000D03*
X88850000Y-115650000D03*
%TD*%
D102*
%TO.C,SW1*%
X142150001Y-106450000D03*
X149949999Y-106450000D03*
%TD*%
G36*
X147104327Y-62450266D02*
G01*
X147146057Y-62460679D01*
X148033175Y-62852661D01*
X148064430Y-62872400D01*
X148892991Y-63585304D01*
X148912712Y-63606706D01*
X149404796Y-64283322D01*
X149417298Y-64304631D01*
X149784068Y-65099299D01*
X149795112Y-65140304D01*
X149886072Y-66107661D01*
X149886528Y-66124394D01*
X149861859Y-66753451D01*
X149859400Y-66773764D01*
X149637341Y-67859384D01*
X149621098Y-67900346D01*
X149105980Y-68734346D01*
X149090998Y-68753993D01*
X148427827Y-69466289D01*
X148395345Y-69491369D01*
X147594456Y-69922617D01*
X147581514Y-69928666D01*
X146971673Y-70172602D01*
X146933259Y-70181335D01*
X146014253Y-70242602D01*
X145987181Y-70241487D01*
X144754876Y-70056641D01*
X144709561Y-70040567D01*
X143739546Y-69468506D01*
X143725625Y-69458986D01*
X143281556Y-69109481D01*
X143261093Y-69089180D01*
X142768723Y-68473716D01*
X142757041Y-68456325D01*
X142405848Y-67825925D01*
X142394768Y-67799220D01*
X142149614Y-66941181D01*
X142144766Y-66906566D01*
X142144766Y-66182706D01*
X144224260Y-66182706D01*
X144224260Y-66450711D01*
X144264205Y-66715734D01*
X144264207Y-66715746D01*
X144343199Y-66971833D01*
X144343204Y-66971846D01*
X144459491Y-67213316D01*
X144610467Y-67434755D01*
X144792762Y-67631223D01*
X145002308Y-67798331D01*
X145234413Y-67932337D01*
X145234417Y-67932339D01*
X145483893Y-68030250D01*
X145483896Y-68030251D01*
X145745189Y-68089890D01*
X146012456Y-68109919D01*
X146279722Y-68089890D01*
X146541015Y-68030251D01*
X146541018Y-68030250D01*
X146790494Y-67932339D01*
X146790498Y-67932337D01*
X147022603Y-67798331D01*
X147232149Y-67631223D01*
X147414444Y-67434755D01*
X147565419Y-67213316D01*
X147565420Y-67213316D01*
X147681707Y-66971846D01*
X147681712Y-66971833D01*
X147760704Y-66715746D01*
X147760706Y-66715734D01*
X147800651Y-66450719D01*
X147800652Y-66450714D01*
X147803156Y-66316709D01*
X147800652Y-66182703D01*
X147800651Y-66182698D01*
X147760706Y-65917683D01*
X147760704Y-65917671D01*
X147681712Y-65661584D01*
X147681707Y-65661571D01*
X147565420Y-65420101D01*
X147414444Y-65198662D01*
X147232149Y-65002194D01*
X147022603Y-64835086D01*
X146790498Y-64701080D01*
X146790494Y-64701078D01*
X146541018Y-64603167D01*
X146541015Y-64603166D01*
X146279723Y-64543527D01*
X146012456Y-64523499D01*
X145745188Y-64543527D01*
X145483896Y-64603166D01*
X145483893Y-64603167D01*
X145234417Y-64701078D01*
X145234413Y-64701080D01*
X145002308Y-64835086D01*
X144792762Y-65002194D01*
X144610467Y-65198662D01*
X144459492Y-65420101D01*
X144459491Y-65420101D01*
X144343204Y-65661571D01*
X144343199Y-65661584D01*
X144264207Y-65917671D01*
X144264205Y-65917683D01*
X144224260Y-66182706D01*
X142144766Y-66182706D01*
X142144766Y-65923724D01*
X142148528Y-65893165D01*
X142457068Y-64659004D01*
X142474043Y-64620311D01*
X143086299Y-63689682D01*
X143112850Y-63660544D01*
X143788092Y-63120351D01*
X143804290Y-63109342D01*
X144668899Y-62615279D01*
X144702554Y-62602027D01*
X145745471Y-62356635D01*
X145783525Y-62353622D01*
X147104327Y-62450266D01*
G37*
G36*
X141516327Y-124807266D02*
G01*
X141558057Y-124817679D01*
X142445175Y-125209661D01*
X142476430Y-125229400D01*
X143304991Y-125942304D01*
X143324712Y-125963706D01*
X143816796Y-126640322D01*
X143829298Y-126661631D01*
X144199084Y-127462834D01*
X144208025Y-127489899D01*
X144409196Y-128454028D01*
X144411227Y-128492301D01*
X144350383Y-129100740D01*
X144348091Y-129115156D01*
X144117899Y-130166350D01*
X144101832Y-130205906D01*
X143531707Y-131123263D01*
X143514078Y-131145557D01*
X142838838Y-131825240D01*
X142809188Y-131847376D01*
X142006456Y-132279617D01*
X141993514Y-132285666D01*
X141383673Y-132529602D01*
X141345259Y-132538335D01*
X140426253Y-132599602D01*
X140399181Y-132598487D01*
X139166876Y-132413641D01*
X139121561Y-132397567D01*
X138151546Y-131825506D01*
X138137625Y-131815986D01*
X137693556Y-131466481D01*
X137673093Y-131446180D01*
X137180723Y-130830716D01*
X137169041Y-130813325D01*
X136817848Y-130182925D01*
X136806768Y-130156220D01*
X136561614Y-129298181D01*
X136556766Y-129263566D01*
X136556766Y-128450806D01*
X138725161Y-128450806D01*
X138725161Y-128718811D01*
X138765106Y-128983834D01*
X138765108Y-128983846D01*
X138844100Y-129239933D01*
X138844105Y-129239946D01*
X138960392Y-129481416D01*
X139111368Y-129702855D01*
X139293663Y-129899323D01*
X139503209Y-130066431D01*
X139735314Y-130200437D01*
X139735318Y-130200439D01*
X139984794Y-130298350D01*
X139984797Y-130298351D01*
X140246090Y-130357990D01*
X140513357Y-130378019D01*
X140780623Y-130357990D01*
X141041916Y-130298351D01*
X141041919Y-130298350D01*
X141291395Y-130200439D01*
X141291399Y-130200437D01*
X141523504Y-130066431D01*
X141733050Y-129899323D01*
X141915345Y-129702855D01*
X142066320Y-129481416D01*
X142066321Y-129481416D01*
X142182608Y-129239946D01*
X142182613Y-129239933D01*
X142261605Y-128983846D01*
X142261607Y-128983834D01*
X142301552Y-128718819D01*
X142301553Y-128718814D01*
X142304057Y-128584809D01*
X142301553Y-128450803D01*
X142301552Y-128450798D01*
X142261607Y-128185783D01*
X142261605Y-128185771D01*
X142182613Y-127929684D01*
X142182608Y-127929671D01*
X142066321Y-127688201D01*
X141915345Y-127466762D01*
X141733050Y-127270294D01*
X141523504Y-127103186D01*
X141291399Y-126969180D01*
X141291395Y-126969178D01*
X141041919Y-126871267D01*
X141041916Y-126871266D01*
X140780624Y-126811627D01*
X140513357Y-126791599D01*
X140246089Y-126811627D01*
X139984797Y-126871266D01*
X139984794Y-126871267D01*
X139735318Y-126969178D01*
X139735314Y-126969180D01*
X139503209Y-127103186D01*
X139293663Y-127270294D01*
X139111368Y-127466762D01*
X138960393Y-127688201D01*
X138960392Y-127688201D01*
X138844105Y-127929671D01*
X138844100Y-127929684D01*
X138765108Y-128185771D01*
X138765106Y-128185783D01*
X138725161Y-128450806D01*
X136556766Y-128450806D01*
X136556766Y-128280724D01*
X136560528Y-128250165D01*
X136869068Y-127016004D01*
X136886043Y-126977311D01*
X137498299Y-126046682D01*
X137524850Y-126017544D01*
X138200092Y-125477351D01*
X138216290Y-125466342D01*
X139080899Y-124972279D01*
X139114554Y-124959027D01*
X140157471Y-124713635D01*
X140195525Y-124710622D01*
X141516327Y-124807266D01*
G37*
G36*
X87922327Y-124743766D02*
G01*
X87964057Y-124754179D01*
X88851175Y-125146161D01*
X88882430Y-125165900D01*
X89710991Y-125878804D01*
X89730712Y-125900206D01*
X90222796Y-126576822D01*
X90235298Y-126598131D01*
X90605084Y-127399334D01*
X90614025Y-127426399D01*
X90815196Y-128390528D01*
X90817227Y-128428801D01*
X90756383Y-129037240D01*
X90754091Y-129051656D01*
X90523899Y-130102850D01*
X90507832Y-130142406D01*
X89937707Y-131059763D01*
X89920078Y-131082057D01*
X89244838Y-131761740D01*
X89215188Y-131783876D01*
X88412456Y-132216117D01*
X88399514Y-132222166D01*
X87789673Y-132466102D01*
X87751259Y-132474835D01*
X86832253Y-132536102D01*
X86805181Y-132534987D01*
X85572876Y-132350141D01*
X85527561Y-132334067D01*
X84557546Y-131762006D01*
X84543625Y-131752486D01*
X84099556Y-131402981D01*
X84079093Y-131382680D01*
X83586723Y-130767216D01*
X83575041Y-130749825D01*
X83223848Y-130119425D01*
X83212768Y-130092720D01*
X82967614Y-129234681D01*
X82962766Y-129200066D01*
X82962766Y-128450806D01*
X85054961Y-128450806D01*
X85054961Y-128718811D01*
X85094906Y-128983834D01*
X85094908Y-128983846D01*
X85173900Y-129239933D01*
X85173905Y-129239946D01*
X85290192Y-129481416D01*
X85441168Y-129702855D01*
X85623463Y-129899323D01*
X85833009Y-130066431D01*
X86065114Y-130200437D01*
X86065118Y-130200439D01*
X86314594Y-130298350D01*
X86314597Y-130298351D01*
X86575890Y-130357990D01*
X86843157Y-130378019D01*
X87110423Y-130357990D01*
X87371716Y-130298351D01*
X87371719Y-130298350D01*
X87621195Y-130200439D01*
X87621199Y-130200437D01*
X87853304Y-130066431D01*
X88062850Y-129899323D01*
X88245145Y-129702855D01*
X88396120Y-129481416D01*
X88396121Y-129481416D01*
X88512408Y-129239946D01*
X88512413Y-129239933D01*
X88591405Y-128983846D01*
X88591407Y-128983834D01*
X88631352Y-128718819D01*
X88631353Y-128718814D01*
X88633857Y-128584809D01*
X88631353Y-128450803D01*
X88631352Y-128450798D01*
X88591407Y-128185783D01*
X88591405Y-128185771D01*
X88512413Y-127929684D01*
X88512408Y-127929671D01*
X88396121Y-127688201D01*
X88245145Y-127466762D01*
X88062850Y-127270294D01*
X87853304Y-127103186D01*
X87621199Y-126969180D01*
X87621195Y-126969178D01*
X87371719Y-126871267D01*
X87371716Y-126871266D01*
X87110424Y-126811627D01*
X86843157Y-126791599D01*
X86575889Y-126811627D01*
X86314597Y-126871266D01*
X86314594Y-126871267D01*
X86065118Y-126969178D01*
X86065114Y-126969180D01*
X85833009Y-127103186D01*
X85623463Y-127270294D01*
X85441168Y-127466762D01*
X85290193Y-127688201D01*
X85290192Y-127688201D01*
X85173905Y-127929671D01*
X85173900Y-127929684D01*
X85094908Y-128185771D01*
X85094906Y-128185783D01*
X85054961Y-128450806D01*
X82962766Y-128450806D01*
X82962766Y-128217224D01*
X82966528Y-128186665D01*
X83275068Y-126952504D01*
X83292043Y-126913811D01*
X83904299Y-125983182D01*
X83930850Y-125954044D01*
X84606092Y-125413851D01*
X84622290Y-125402842D01*
X85486899Y-124908779D01*
X85520554Y-124895527D01*
X86563471Y-124650135D01*
X86601525Y-124647122D01*
X87922327Y-124743766D01*
G37*
G36*
X82396598Y-62425358D02*
G01*
X82438327Y-62435771D01*
X82889718Y-62635222D01*
X82925868Y-62659401D01*
X83078822Y-62805640D01*
X83269223Y-62931322D01*
X83269228Y-62931324D01*
X83479015Y-63020993D01*
X83556530Y-63038684D01*
X83610674Y-63066013D01*
X84185262Y-63560396D01*
X84204983Y-63581798D01*
X84697067Y-64258414D01*
X84709569Y-64279723D01*
X85079355Y-65080926D01*
X85088296Y-65107991D01*
X85289467Y-66072120D01*
X85291498Y-66110393D01*
X85230654Y-66718832D01*
X85228362Y-66733248D01*
X84998170Y-67784442D01*
X84982103Y-67823998D01*
X84411978Y-68741355D01*
X84394349Y-68763649D01*
X83719109Y-69443332D01*
X83689459Y-69465468D01*
X82886727Y-69897709D01*
X82873785Y-69903758D01*
X82263944Y-70147694D01*
X82225530Y-70156427D01*
X81306524Y-70217694D01*
X81279452Y-70216579D01*
X80047147Y-70031733D01*
X80001832Y-70015659D01*
X79031817Y-69443598D01*
X79017896Y-69434078D01*
X78577290Y-69087298D01*
X78551653Y-69060052D01*
X78161879Y-68497579D01*
X78153528Y-68483700D01*
X77782609Y-67766590D01*
X77772719Y-67740946D01*
X77551432Y-66904974D01*
X77547278Y-66875961D01*
X77529502Y-66182706D01*
X79555862Y-66182706D01*
X79555862Y-66450711D01*
X79595807Y-66715734D01*
X79595809Y-66715746D01*
X79674801Y-66971833D01*
X79674806Y-66971846D01*
X79791093Y-67213316D01*
X79942069Y-67434755D01*
X80124364Y-67631223D01*
X80333910Y-67798331D01*
X80566015Y-67932337D01*
X80566019Y-67932339D01*
X80815495Y-68030250D01*
X80815498Y-68030251D01*
X81076791Y-68089890D01*
X81344058Y-68109919D01*
X81611324Y-68089890D01*
X81872617Y-68030251D01*
X81872620Y-68030250D01*
X82122096Y-67932339D01*
X82122100Y-67932337D01*
X82354205Y-67798331D01*
X82563751Y-67631223D01*
X82746046Y-67434755D01*
X82897021Y-67213316D01*
X82897022Y-67213316D01*
X83013309Y-66971846D01*
X83013314Y-66971833D01*
X83092306Y-66715746D01*
X83092308Y-66715734D01*
X83132253Y-66450719D01*
X83132254Y-66450714D01*
X83134758Y-66316709D01*
X83132254Y-66182703D01*
X83132253Y-66182698D01*
X83092308Y-65917683D01*
X83092306Y-65917671D01*
X83013314Y-65661584D01*
X83013309Y-65661571D01*
X82897022Y-65420101D01*
X82746046Y-65198662D01*
X82563751Y-65002194D01*
X82354205Y-64835086D01*
X82122100Y-64701080D01*
X82122096Y-64701078D01*
X81872620Y-64603167D01*
X81872617Y-64603166D01*
X81611325Y-64543527D01*
X81344058Y-64523499D01*
X81076790Y-64543527D01*
X80815498Y-64603166D01*
X80815495Y-64603167D01*
X80566019Y-64701078D01*
X80566015Y-64701080D01*
X80333910Y-64835086D01*
X80124364Y-65002194D01*
X79942069Y-65198662D01*
X79791094Y-65420101D01*
X79791093Y-65420101D01*
X79674806Y-65661571D01*
X79674801Y-65661584D01*
X79595809Y-65917671D01*
X79595807Y-65917683D01*
X79555862Y-66182706D01*
X77529502Y-66182706D01*
X77522704Y-65917563D01*
X77526573Y-65883188D01*
X77834536Y-64675974D01*
X77851363Y-64637867D01*
X78464293Y-63706213D01*
X78489457Y-63678202D01*
X79117773Y-63160766D01*
X79127482Y-63153524D01*
X79957929Y-62594174D01*
X79999460Y-62576028D01*
X81037742Y-62331727D01*
X81075796Y-62328714D01*
X82396598Y-62425358D01*
G37*
%LPD*%
M02*
