%TF.GenerationSoftware,KiCad,Pcbnew,8.0.0~rc2*%
%TF.CreationDate,2024-03-12T18:06:46-03:00*%
%TF.ProjectId,hw_v1,68775f76-312e-46b6-9963-61645f706362,rev?*%
%TF.SameCoordinates,Original*%
%TF.FileFunction,Paste,Top*%
%TF.FilePolarity,Positive*%
%FSLAX46Y46*%
G04 Gerber Fmt 4.6, Leading zero omitted, Abs format (unit mm)*
G04 Created by KiCad (PCBNEW 8.0.0~rc2) date 2024-03-12 18:06:46*
%MOMM*%
%LPD*%
G01*
G04 APERTURE LIST*
G04 Aperture macros list*
%AMRoundRect*
0 Rectangle with rounded corners*
0 $1 Rounding radius*
0 $2 $3 $4 $5 $6 $7 $8 $9 X,Y pos of 4 corners*
0 Add a 4 corners polygon primitive as box body*
4,1,4,$2,$3,$4,$5,$6,$7,$8,$9,$2,$3,0*
0 Add four circle primitives for the rounded corners*
1,1,$1+$1,$2,$3*
1,1,$1+$1,$4,$5*
1,1,$1+$1,$6,$7*
1,1,$1+$1,$8,$9*
0 Add four rect primitives between the rounded corners*
20,1,$1+$1,$2,$3,$4,$5,0*
20,1,$1+$1,$4,$5,$6,$7,0*
20,1,$1+$1,$6,$7,$8,$9,0*
20,1,$1+$1,$8,$9,$2,$3,0*%
%AMRotRect*
0 Rectangle, with rotation*
0 The origin of the aperture is its center*
0 $1 length*
0 $2 width*
0 $3 Rotation angle, in degrees counterclockwise*
0 Add horizontal line*
21,1,$1,$2,0,0,$3*%
G04 Aperture macros list end*
%ADD10C,0.010000*%
%ADD11RoundRect,0.012500X-0.297500X-0.112500X0.297500X-0.112500X0.297500X0.112500X-0.297500X0.112500X0*%
%ADD12RoundRect,0.250000X0.450000X-0.262500X0.450000X0.262500X-0.450000X0.262500X-0.450000X-0.262500X0*%
%ADD13RoundRect,0.250000X0.262500X0.450000X-0.262500X0.450000X-0.262500X-0.450000X0.262500X-0.450000X0*%
%ADD14RoundRect,0.200000X0.275000X-0.200000X0.275000X0.200000X-0.275000X0.200000X-0.275000X-0.200000X0*%
%ADD15RoundRect,0.200000X-0.275000X0.200000X-0.275000X-0.200000X0.275000X-0.200000X0.275000X0.200000X0*%
%ADD16RoundRect,0.200000X0.200000X0.275000X-0.200000X0.275000X-0.200000X-0.275000X0.200000X-0.275000X0*%
%ADD17RoundRect,0.150000X-0.200000X0.150000X-0.200000X-0.150000X0.200000X-0.150000X0.200000X0.150000X0*%
%ADD18RoundRect,0.243750X-0.456250X0.243750X-0.456250X-0.243750X0.456250X-0.243750X0.456250X0.243750X0*%
%ADD19RoundRect,0.250000X0.475000X-0.250000X0.475000X0.250000X-0.475000X0.250000X-0.475000X-0.250000X0*%
%ADD20RoundRect,0.150000X0.150000X-0.587500X0.150000X0.587500X-0.150000X0.587500X-0.150000X-0.587500X0*%
%ADD21RoundRect,0.225000X-0.250000X0.225000X-0.250000X-0.225000X0.250000X-0.225000X0.250000X0.225000X0*%
%ADD22R,1.600000X0.410000*%
%ADD23RoundRect,0.250000X-0.475000X0.250000X-0.475000X-0.250000X0.475000X-0.250000X0.475000X0.250000X0*%
%ADD24RoundRect,0.150000X0.825000X0.150000X-0.825000X0.150000X-0.825000X-0.150000X0.825000X-0.150000X0*%
%ADD25RotRect,1.400000X1.200000X45.000000*%
%ADD26RoundRect,0.100000X0.100000X-0.637500X0.100000X0.637500X-0.100000X0.637500X-0.100000X-0.637500X0*%
%ADD27RoundRect,0.112500X-0.112500X0.187500X-0.112500X-0.187500X0.112500X-0.187500X0.112500X0.187500X0*%
%ADD28RoundRect,0.250000X0.512652X0.159099X0.159099X0.512652X-0.512652X-0.159099X-0.159099X-0.512652X0*%
%ADD29RoundRect,0.250000X-0.512652X-0.159099X-0.159099X-0.512652X0.512652X0.159099X0.159099X0.512652X0*%
%ADD30RoundRect,0.225000X0.250000X-0.225000X0.250000X0.225000X-0.250000X0.225000X-0.250000X-0.225000X0*%
%ADD31RoundRect,0.250000X-0.450000X0.262500X-0.450000X-0.262500X0.450000X-0.262500X0.450000X0.262500X0*%
%ADD32RoundRect,0.250000X-0.312500X-1.450000X0.312500X-1.450000X0.312500X1.450000X-0.312500X1.450000X0*%
%ADD33RoundRect,0.250000X0.000000X-0.353553X0.353553X0.000000X0.000000X0.353553X-0.353553X0.000000X0*%
%ADD34R,0.500000X0.800000*%
%ADD35R,0.400000X0.800000*%
%ADD36RoundRect,0.250000X0.250000X0.475000X-0.250000X0.475000X-0.250000X-0.475000X0.250000X-0.475000X0*%
%ADD37RoundRect,0.150000X0.256326X0.468458X-0.468458X-0.256326X-0.256326X-0.468458X0.468458X0.256326X0*%
%ADD38RoundRect,0.250000X-0.250000X-0.475000X0.250000X-0.475000X0.250000X0.475000X-0.250000X0.475000X0*%
%ADD39RoundRect,0.140000X-0.170000X0.140000X-0.170000X-0.140000X0.170000X-0.140000X0.170000X0.140000X0*%
%ADD40RoundRect,0.200000X-0.200000X-0.275000X0.200000X-0.275000X0.200000X0.275000X-0.200000X0.275000X0*%
%ADD41RotRect,0.600000X1.100000X315.000000*%
%ADD42RoundRect,0.150000X0.150000X-0.675000X0.150000X0.675000X-0.150000X0.675000X-0.150000X-0.675000X0*%
%ADD43RoundRect,0.200000X-0.335876X-0.053033X-0.053033X-0.335876X0.335876X0.053033X0.053033X0.335876X0*%
%ADD44RoundRect,0.150000X0.650000X0.150000X-0.650000X0.150000X-0.650000X-0.150000X0.650000X-0.150000X0*%
%ADD45RoundRect,0.112500X-0.187500X-0.112500X0.187500X-0.112500X0.187500X0.112500X-0.187500X0.112500X0*%
%ADD46RoundRect,0.250000X0.159099X-0.512652X0.512652X-0.159099X-0.159099X0.512652X-0.512652X0.159099X0*%
%ADD47RoundRect,0.250000X-1.500000X-0.550000X1.500000X-0.550000X1.500000X0.550000X-1.500000X0.550000X0*%
%ADD48RoundRect,0.250000X-0.262500X-0.450000X0.262500X-0.450000X0.262500X0.450000X-0.262500X0.450000X0*%
%ADD49R,0.480000X1.600000*%
%ADD50RoundRect,0.250000X0.900000X-1.000000X0.900000X1.000000X-0.900000X1.000000X-0.900000X-1.000000X0*%
%ADD51RoundRect,0.250000X0.350000X-0.850000X0.350000X0.850000X-0.350000X0.850000X-0.350000X-0.850000X0*%
%ADD52RoundRect,0.250000X1.125000X-1.275000X1.125000X1.275000X-1.125000X1.275000X-1.125000X-1.275000X0*%
%ADD53R,1.000000X1.700000*%
%ADD54RoundRect,0.075000X-0.459619X0.565685X-0.565685X0.459619X0.459619X-0.565685X0.565685X-0.459619X0*%
%ADD55RoundRect,0.075000X0.459619X0.565685X-0.565685X-0.459619X-0.459619X-0.565685X0.565685X0.459619X0*%
%ADD56RoundRect,0.250000X-0.300000X0.300000X-0.300000X-0.300000X0.300000X-0.300000X0.300000X0.300000X0*%
%ADD57RoundRect,0.150000X0.325000X-0.150000X0.325000X0.150000X-0.325000X0.150000X-0.325000X-0.150000X0*%
%ADD58RoundRect,0.150000X0.150000X-0.325000X0.150000X0.325000X-0.150000X0.325000X-0.150000X-0.325000X0*%
%ADD59RoundRect,0.100000X0.637500X0.100000X-0.637500X0.100000X-0.637500X-0.100000X0.637500X-0.100000X0*%
%ADD60R,1.500000X2.000000*%
%ADD61R,3.800000X2.000000*%
%ADD62R,0.950000X1.000000*%
%ADD63R,1.400000X1.900000*%
%ADD64R,1.300000X1.400000*%
%ADD65R,0.800000X1.500000*%
%ADD66RoundRect,0.150000X-0.150000X0.850000X-0.150000X-0.850000X0.150000X-0.850000X0.150000X0.850000X0*%
%ADD67RoundRect,0.250000X0.550000X-1.500000X0.550000X1.500000X-0.550000X1.500000X-0.550000X-1.500000X0*%
%ADD68RoundRect,0.150000X0.200000X-0.150000X0.200000X0.150000X-0.200000X0.150000X-0.200000X-0.150000X0*%
%ADD69RoundRect,0.250000X-0.625000X0.312500X-0.625000X-0.312500X0.625000X-0.312500X0.625000X0.312500X0*%
%ADD70R,0.500000X0.350000*%
%ADD71RoundRect,0.150000X-0.150000X0.675000X-0.150000X-0.675000X0.150000X-0.675000X0.150000X0.675000X0*%
G04 APERTURE END LIST*
D10*
%TO.C,U12*%
X91679800Y-56645400D02*
X91681800Y-56645400D01*
X91684800Y-56646400D01*
X91686800Y-56646400D01*
X91689800Y-56647400D01*
X91691800Y-56648400D01*
X91694800Y-56649400D01*
X91696800Y-56651400D01*
X91698800Y-56652400D01*
X91700800Y-56654400D01*
X91702800Y-56655400D01*
X91704800Y-56657400D01*
X91706800Y-56659400D01*
X91708800Y-56661400D01*
X91710800Y-56663400D01*
X91711800Y-56665400D01*
X91713800Y-56667400D01*
X91714800Y-56669400D01*
X91716800Y-56671400D01*
X91717800Y-56674400D01*
X91718800Y-56676400D01*
X91719800Y-56679400D01*
X91719800Y-56681400D01*
X91720800Y-56684400D01*
X91720800Y-56686400D01*
X91721800Y-56689400D01*
X91721800Y-56691400D01*
X91721800Y-56694400D01*
X91721800Y-57694400D01*
X91721800Y-57697400D01*
X91721800Y-57699400D01*
X91720800Y-57702400D01*
X91720800Y-57704400D01*
X91719800Y-57707400D01*
X91719800Y-57709400D01*
X91718800Y-57712400D01*
X91717800Y-57714400D01*
X91716800Y-57717400D01*
X91714800Y-57719400D01*
X91713800Y-57721400D01*
X91711800Y-57723400D01*
X91710800Y-57725400D01*
X91708800Y-57727400D01*
X91706800Y-57729400D01*
X91704800Y-57731400D01*
X91702800Y-57733400D01*
X91700800Y-57734400D01*
X91698800Y-57736400D01*
X91696800Y-57737400D01*
X91694800Y-57739400D01*
X91691800Y-57740400D01*
X91689800Y-57741400D01*
X91686800Y-57742400D01*
X91684800Y-57742400D01*
X91681800Y-57743400D01*
X91679800Y-57743400D01*
X91676800Y-57744400D01*
X91674800Y-57744400D01*
X91671800Y-57744400D01*
X90561800Y-57744400D01*
X90558800Y-57744400D01*
X90556800Y-57744400D01*
X90553800Y-57743400D01*
X90551800Y-57743400D01*
X90548800Y-57742400D01*
X90546800Y-57742400D01*
X90543800Y-57741400D01*
X90541800Y-57740400D01*
X90538800Y-57739400D01*
X90536800Y-57737400D01*
X90534800Y-57736400D01*
X90532800Y-57734400D01*
X90530800Y-57733400D01*
X90528800Y-57731400D01*
X90526800Y-57729400D01*
X90524800Y-57727400D01*
X90522800Y-57725400D01*
X90521800Y-57723400D01*
X90519800Y-57721400D01*
X90518800Y-57719400D01*
X90516800Y-57717400D01*
X90515800Y-57714400D01*
X90514800Y-57712400D01*
X90513800Y-57709400D01*
X90513800Y-57707400D01*
X90512800Y-57704400D01*
X90512800Y-57702400D01*
X90511800Y-57699400D01*
X90511800Y-57697400D01*
X90511800Y-57694400D01*
X90511800Y-56694400D01*
X90511800Y-56691400D01*
X90511800Y-56689400D01*
X90512800Y-56686400D01*
X90512800Y-56684400D01*
X90513800Y-56681400D01*
X90513800Y-56679400D01*
X90514800Y-56676400D01*
X90515800Y-56674400D01*
X90516800Y-56671400D01*
X90518800Y-56669400D01*
X90519800Y-56667400D01*
X90521800Y-56665400D01*
X90522800Y-56663400D01*
X90524800Y-56661400D01*
X90526800Y-56659400D01*
X90528800Y-56657400D01*
X90530800Y-56655400D01*
X90532800Y-56654400D01*
X90534800Y-56652400D01*
X90536800Y-56651400D01*
X90538800Y-56649400D01*
X90541800Y-56648400D01*
X90543800Y-56647400D01*
X90546800Y-56646400D01*
X90548800Y-56646400D01*
X90551800Y-56645400D01*
X90553800Y-56645400D01*
X90556800Y-56644400D01*
X90558800Y-56644400D01*
X90561800Y-56644400D01*
X91671800Y-56644400D01*
X91674800Y-56644400D01*
X91676800Y-56644400D01*
X91679800Y-56645400D01*
G36*
X91679800Y-56645400D02*
G01*
X91681800Y-56645400D01*
X91684800Y-56646400D01*
X91686800Y-56646400D01*
X91689800Y-56647400D01*
X91691800Y-56648400D01*
X91694800Y-56649400D01*
X91696800Y-56651400D01*
X91698800Y-56652400D01*
X91700800Y-56654400D01*
X91702800Y-56655400D01*
X91704800Y-56657400D01*
X91706800Y-56659400D01*
X91708800Y-56661400D01*
X91710800Y-56663400D01*
X91711800Y-56665400D01*
X91713800Y-56667400D01*
X91714800Y-56669400D01*
X91716800Y-56671400D01*
X91717800Y-56674400D01*
X91718800Y-56676400D01*
X91719800Y-56679400D01*
X91719800Y-56681400D01*
X91720800Y-56684400D01*
X91720800Y-56686400D01*
X91721800Y-56689400D01*
X91721800Y-56691400D01*
X91721800Y-56694400D01*
X91721800Y-57694400D01*
X91721800Y-57697400D01*
X91721800Y-57699400D01*
X91720800Y-57702400D01*
X91720800Y-57704400D01*
X91719800Y-57707400D01*
X91719800Y-57709400D01*
X91718800Y-57712400D01*
X91717800Y-57714400D01*
X91716800Y-57717400D01*
X91714800Y-57719400D01*
X91713800Y-57721400D01*
X91711800Y-57723400D01*
X91710800Y-57725400D01*
X91708800Y-57727400D01*
X91706800Y-57729400D01*
X91704800Y-57731400D01*
X91702800Y-57733400D01*
X91700800Y-57734400D01*
X91698800Y-57736400D01*
X91696800Y-57737400D01*
X91694800Y-57739400D01*
X91691800Y-57740400D01*
X91689800Y-57741400D01*
X91686800Y-57742400D01*
X91684800Y-57742400D01*
X91681800Y-57743400D01*
X91679800Y-57743400D01*
X91676800Y-57744400D01*
X91674800Y-57744400D01*
X91671800Y-57744400D01*
X90561800Y-57744400D01*
X90558800Y-57744400D01*
X90556800Y-57744400D01*
X90553800Y-57743400D01*
X90551800Y-57743400D01*
X90548800Y-57742400D01*
X90546800Y-57742400D01*
X90543800Y-57741400D01*
X90541800Y-57740400D01*
X90538800Y-57739400D01*
X90536800Y-57737400D01*
X90534800Y-57736400D01*
X90532800Y-57734400D01*
X90530800Y-57733400D01*
X90528800Y-57731400D01*
X90526800Y-57729400D01*
X90524800Y-57727400D01*
X90522800Y-57725400D01*
X90521800Y-57723400D01*
X90519800Y-57721400D01*
X90518800Y-57719400D01*
X90516800Y-57717400D01*
X90515800Y-57714400D01*
X90514800Y-57712400D01*
X90513800Y-57709400D01*
X90513800Y-57707400D01*
X90512800Y-57704400D01*
X90512800Y-57702400D01*
X90511800Y-57699400D01*
X90511800Y-57697400D01*
X90511800Y-57694400D01*
X90511800Y-56694400D01*
X90511800Y-56691400D01*
X90511800Y-56689400D01*
X90512800Y-56686400D01*
X90512800Y-56684400D01*
X90513800Y-56681400D01*
X90513800Y-56679400D01*
X90514800Y-56676400D01*
X90515800Y-56674400D01*
X90516800Y-56671400D01*
X90518800Y-56669400D01*
X90519800Y-56667400D01*
X90521800Y-56665400D01*
X90522800Y-56663400D01*
X90524800Y-56661400D01*
X90526800Y-56659400D01*
X90528800Y-56657400D01*
X90530800Y-56655400D01*
X90532800Y-56654400D01*
X90534800Y-56652400D01*
X90536800Y-56651400D01*
X90538800Y-56649400D01*
X90541800Y-56648400D01*
X90543800Y-56647400D01*
X90546800Y-56646400D01*
X90548800Y-56646400D01*
X90551800Y-56645400D01*
X90553800Y-56645400D01*
X90556800Y-56644400D01*
X90558800Y-56644400D01*
X90561800Y-56644400D01*
X91671800Y-56644400D01*
X91674800Y-56644400D01*
X91676800Y-56644400D01*
X91679800Y-56645400D01*
G37*
X91679800Y-55345400D02*
X91681800Y-55345400D01*
X91684800Y-55346400D01*
X91686800Y-55346400D01*
X91689800Y-55347400D01*
X91691800Y-55348400D01*
X91694800Y-55349400D01*
X91696800Y-55351400D01*
X91698800Y-55352400D01*
X91700800Y-55354400D01*
X91702800Y-55355400D01*
X91704800Y-55357400D01*
X91706800Y-55359400D01*
X91708800Y-55361400D01*
X91710800Y-55363400D01*
X91711800Y-55365400D01*
X91713800Y-55367400D01*
X91714800Y-55369400D01*
X91716800Y-55371400D01*
X91717800Y-55374400D01*
X91718800Y-55376400D01*
X91719800Y-55379400D01*
X91719800Y-55381400D01*
X91720800Y-55384400D01*
X91720800Y-55386400D01*
X91721800Y-55389400D01*
X91721800Y-55391400D01*
X91721800Y-55394400D01*
X91721800Y-56394400D01*
X91721800Y-56397400D01*
X91721800Y-56399400D01*
X91720800Y-56402400D01*
X91720800Y-56404400D01*
X91719800Y-56407400D01*
X91719800Y-56409400D01*
X91718800Y-56412400D01*
X91717800Y-56414400D01*
X91716800Y-56417400D01*
X91714800Y-56419400D01*
X91713800Y-56421400D01*
X91711800Y-56423400D01*
X91710800Y-56425400D01*
X91708800Y-56427400D01*
X91706800Y-56429400D01*
X91704800Y-56431400D01*
X91702800Y-56433400D01*
X91700800Y-56434400D01*
X91698800Y-56436400D01*
X91696800Y-56437400D01*
X91694800Y-56439400D01*
X91691800Y-56440400D01*
X91689800Y-56441400D01*
X91686800Y-56442400D01*
X91684800Y-56442400D01*
X91681800Y-56443400D01*
X91679800Y-56443400D01*
X91676800Y-56444400D01*
X91674800Y-56444400D01*
X91671800Y-56444400D01*
X90561800Y-56444400D01*
X90558800Y-56444400D01*
X90556800Y-56444400D01*
X90553800Y-56443400D01*
X90551800Y-56443400D01*
X90548800Y-56442400D01*
X90546800Y-56442400D01*
X90543800Y-56441400D01*
X90541800Y-56440400D01*
X90538800Y-56439400D01*
X90536800Y-56437400D01*
X90534800Y-56436400D01*
X90532800Y-56434400D01*
X90530800Y-56433400D01*
X90528800Y-56431400D01*
X90526800Y-56429400D01*
X90524800Y-56427400D01*
X90522800Y-56425400D01*
X90521800Y-56423400D01*
X90519800Y-56421400D01*
X90518800Y-56419400D01*
X90516800Y-56417400D01*
X90515800Y-56414400D01*
X90514800Y-56412400D01*
X90513800Y-56409400D01*
X90513800Y-56407400D01*
X90512800Y-56404400D01*
X90512800Y-56402400D01*
X90511800Y-56399400D01*
X90511800Y-56397400D01*
X90511800Y-56394400D01*
X90511800Y-55394400D01*
X90511800Y-55391400D01*
X90511800Y-55389400D01*
X90512800Y-55386400D01*
X90512800Y-55384400D01*
X90513800Y-55381400D01*
X90513800Y-55379400D01*
X90514800Y-55376400D01*
X90515800Y-55374400D01*
X90516800Y-55371400D01*
X90518800Y-55369400D01*
X90519800Y-55367400D01*
X90521800Y-55365400D01*
X90522800Y-55363400D01*
X90524800Y-55361400D01*
X90526800Y-55359400D01*
X90528800Y-55357400D01*
X90530800Y-55355400D01*
X90532800Y-55354400D01*
X90534800Y-55352400D01*
X90536800Y-55351400D01*
X90538800Y-55349400D01*
X90541800Y-55348400D01*
X90543800Y-55347400D01*
X90546800Y-55346400D01*
X90548800Y-55346400D01*
X90551800Y-55345400D01*
X90553800Y-55345400D01*
X90556800Y-55344400D01*
X90558800Y-55344400D01*
X90561800Y-55344400D01*
X91671800Y-55344400D01*
X91674800Y-55344400D01*
X91676800Y-55344400D01*
X91679800Y-55345400D01*
G36*
X91679800Y-55345400D02*
G01*
X91681800Y-55345400D01*
X91684800Y-55346400D01*
X91686800Y-55346400D01*
X91689800Y-55347400D01*
X91691800Y-55348400D01*
X91694800Y-55349400D01*
X91696800Y-55351400D01*
X91698800Y-55352400D01*
X91700800Y-55354400D01*
X91702800Y-55355400D01*
X91704800Y-55357400D01*
X91706800Y-55359400D01*
X91708800Y-55361400D01*
X91710800Y-55363400D01*
X91711800Y-55365400D01*
X91713800Y-55367400D01*
X91714800Y-55369400D01*
X91716800Y-55371400D01*
X91717800Y-55374400D01*
X91718800Y-55376400D01*
X91719800Y-55379400D01*
X91719800Y-55381400D01*
X91720800Y-55384400D01*
X91720800Y-55386400D01*
X91721800Y-55389400D01*
X91721800Y-55391400D01*
X91721800Y-55394400D01*
X91721800Y-56394400D01*
X91721800Y-56397400D01*
X91721800Y-56399400D01*
X91720800Y-56402400D01*
X91720800Y-56404400D01*
X91719800Y-56407400D01*
X91719800Y-56409400D01*
X91718800Y-56412400D01*
X91717800Y-56414400D01*
X91716800Y-56417400D01*
X91714800Y-56419400D01*
X91713800Y-56421400D01*
X91711800Y-56423400D01*
X91710800Y-56425400D01*
X91708800Y-56427400D01*
X91706800Y-56429400D01*
X91704800Y-56431400D01*
X91702800Y-56433400D01*
X91700800Y-56434400D01*
X91698800Y-56436400D01*
X91696800Y-56437400D01*
X91694800Y-56439400D01*
X91691800Y-56440400D01*
X91689800Y-56441400D01*
X91686800Y-56442400D01*
X91684800Y-56442400D01*
X91681800Y-56443400D01*
X91679800Y-56443400D01*
X91676800Y-56444400D01*
X91674800Y-56444400D01*
X91671800Y-56444400D01*
X90561800Y-56444400D01*
X90558800Y-56444400D01*
X90556800Y-56444400D01*
X90553800Y-56443400D01*
X90551800Y-56443400D01*
X90548800Y-56442400D01*
X90546800Y-56442400D01*
X90543800Y-56441400D01*
X90541800Y-56440400D01*
X90538800Y-56439400D01*
X90536800Y-56437400D01*
X90534800Y-56436400D01*
X90532800Y-56434400D01*
X90530800Y-56433400D01*
X90528800Y-56431400D01*
X90526800Y-56429400D01*
X90524800Y-56427400D01*
X90522800Y-56425400D01*
X90521800Y-56423400D01*
X90519800Y-56421400D01*
X90518800Y-56419400D01*
X90516800Y-56417400D01*
X90515800Y-56414400D01*
X90514800Y-56412400D01*
X90513800Y-56409400D01*
X90513800Y-56407400D01*
X90512800Y-56404400D01*
X90512800Y-56402400D01*
X90511800Y-56399400D01*
X90511800Y-56397400D01*
X90511800Y-56394400D01*
X90511800Y-55394400D01*
X90511800Y-55391400D01*
X90511800Y-55389400D01*
X90512800Y-55386400D01*
X90512800Y-55384400D01*
X90513800Y-55381400D01*
X90513800Y-55379400D01*
X90514800Y-55376400D01*
X90515800Y-55374400D01*
X90516800Y-55371400D01*
X90518800Y-55369400D01*
X90519800Y-55367400D01*
X90521800Y-55365400D01*
X90522800Y-55363400D01*
X90524800Y-55361400D01*
X90526800Y-55359400D01*
X90528800Y-55357400D01*
X90530800Y-55355400D01*
X90532800Y-55354400D01*
X90534800Y-55352400D01*
X90536800Y-55351400D01*
X90538800Y-55349400D01*
X90541800Y-55348400D01*
X90543800Y-55347400D01*
X90546800Y-55346400D01*
X90548800Y-55346400D01*
X90551800Y-55345400D01*
X90553800Y-55345400D01*
X90556800Y-55344400D01*
X90558800Y-55344400D01*
X90561800Y-55344400D01*
X91671800Y-55344400D01*
X91674800Y-55344400D01*
X91676800Y-55344400D01*
X91679800Y-55345400D01*
G37*
%TO.C,U1*%
X82004203Y-137794203D02*
X80544203Y-137794203D01*
X80544203Y-136334203D01*
X82004203Y-136334203D01*
X82004203Y-137794203D01*
G36*
X82004203Y-137794203D02*
G01*
X80544203Y-137794203D01*
X80544203Y-136334203D01*
X82004203Y-136334203D01*
X82004203Y-137794203D01*
G37*
X82004203Y-135484203D02*
X80544203Y-135484203D01*
X80544203Y-134024203D01*
X82004203Y-134024203D01*
X82004203Y-135484203D01*
G36*
X82004203Y-135484203D02*
G01*
X80544203Y-135484203D01*
X80544203Y-134024203D01*
X82004203Y-134024203D01*
X82004203Y-135484203D01*
G37*
X79694203Y-137794203D02*
X78234203Y-137794203D01*
X78234203Y-136334203D01*
X79694203Y-136334203D01*
X79694203Y-137794203D01*
G36*
X79694203Y-137794203D02*
G01*
X78234203Y-137794203D01*
X78234203Y-136334203D01*
X79694203Y-136334203D01*
X79694203Y-137794203D01*
G37*
X79694203Y-135484203D02*
X78234203Y-135484203D01*
X78234203Y-134024203D01*
X79694203Y-134024203D01*
X79694203Y-135484203D01*
G36*
X79694203Y-135484203D02*
G01*
X78234203Y-135484203D01*
X78234203Y-134024203D01*
X79694203Y-134024203D01*
X79694203Y-135484203D01*
G37*
%TD*%
D11*
%TO.C,U12*%
X92506800Y-55294400D03*
X92506800Y-55794400D03*
X92506800Y-56294400D03*
X92506800Y-56794400D03*
X92506800Y-57294400D03*
X92506800Y-57794400D03*
X89726800Y-57794400D03*
X89726800Y-57294400D03*
X89726800Y-56794400D03*
X89726800Y-56294400D03*
X89726800Y-55794400D03*
X89726800Y-55294400D03*
%TD*%
D12*
%TO.C,R30*%
X92225000Y-80687500D03*
X92225000Y-82512500D03*
%TD*%
D13*
%TO.C,R29*%
X81486300Y-79111600D03*
X83311300Y-79111600D03*
%TD*%
%TO.C,R28*%
X99362500Y-78968050D03*
X101187500Y-78968050D03*
%TD*%
%TO.C,R20*%
X90537500Y-70875000D03*
X92362500Y-70875000D03*
%TD*%
%TO.C,R19*%
X81509500Y-71198250D03*
X83334500Y-71198250D03*
%TD*%
%TO.C,R18*%
X99487500Y-70950000D03*
X101312500Y-70950000D03*
%TD*%
D14*
%TO.C,R5*%
X78100000Y-98775000D03*
X78100000Y-100425000D03*
%TD*%
D15*
%TO.C,R4*%
X82300000Y-96825000D03*
X82300000Y-95175000D03*
%TD*%
D14*
%TO.C,R3*%
X82300000Y-98775000D03*
X82300000Y-100425000D03*
%TD*%
D15*
%TO.C,R2*%
X78100000Y-96825000D03*
X78100000Y-95175000D03*
%TD*%
D16*
%TO.C,R1*%
X86175000Y-145000000D03*
X87825000Y-145000000D03*
%TD*%
D17*
%TO.C,D11*%
X60025000Y-108675000D03*
X60025000Y-110075000D03*
%TD*%
%TO.C,D8*%
X61575000Y-108675000D03*
X61575000Y-110075000D03*
%TD*%
%TO.C,D6*%
X63125000Y-108675000D03*
X63125000Y-110075000D03*
%TD*%
%TO.C,D3*%
X64650000Y-108675000D03*
X64650000Y-110075000D03*
%TD*%
D12*
%TO.C,R40*%
X94100000Y-77087500D03*
X94100000Y-78912500D03*
%TD*%
D18*
%TO.C,D26*%
X156405075Y-108189748D03*
X156405075Y-106314746D03*
%TD*%
D14*
%TO.C,R9*%
X102500000Y-107775000D03*
X102500000Y-109425000D03*
%TD*%
D19*
%TO.C,C34*%
X146575000Y-65950001D03*
X146575000Y-67849999D03*
%TD*%
%TO.C,C4*%
X84400000Y-95050001D03*
X84400000Y-96949999D03*
%TD*%
D20*
%TO.C,Q5*%
X90500000Y-108362499D03*
X91450000Y-110237500D03*
X89550000Y-110237500D03*
%TD*%
D21*
%TO.C,C17*%
X83325000Y-74550000D03*
X83325000Y-73000000D03*
%TD*%
D18*
%TO.C,D23*%
X163920000Y-102764674D03*
X163920000Y-100889672D03*
%TD*%
D22*
%TO.C,U4*%
X113354300Y-104977500D03*
X113354301Y-105612500D03*
X113354300Y-106247500D03*
X113354300Y-106882500D03*
X113354300Y-107517500D03*
X113354300Y-108152500D03*
X113354301Y-108787500D03*
X113354300Y-109422500D03*
X108045700Y-109422500D03*
X108045699Y-108787500D03*
X108045700Y-108152500D03*
X108045700Y-107517500D03*
X108045700Y-106882500D03*
X108045700Y-106247500D03*
X108045699Y-105612500D03*
X108045700Y-104977500D03*
%TD*%
D14*
%TO.C,R61*%
X74109320Y-91852500D03*
X74109320Y-93502500D03*
%TD*%
D23*
%TO.C,C25*%
X137340000Y-113149999D03*
X137340000Y-111250001D03*
%TD*%
D19*
%TO.C,C3*%
X80200000Y-98650001D03*
X80200000Y-100549999D03*
%TD*%
D24*
%TO.C,U3*%
X78025000Y-120505000D03*
X78025000Y-119235000D03*
X78025000Y-117965000D03*
X78025000Y-116695000D03*
X82975000Y-116695000D03*
X82975000Y-117965000D03*
X82975000Y-119235000D03*
X82975000Y-120505000D03*
%TD*%
D14*
%TO.C,R54*%
X83400000Y-108475000D03*
X83400000Y-110125000D03*
%TD*%
D19*
%TO.C,C22*%
X79300000Y-80600000D03*
X79300000Y-82500000D03*
%TD*%
D25*
%TO.C,Y2*%
X139021142Y-71976777D03*
X140576777Y-70421142D03*
X141778858Y-71623223D03*
X140223223Y-73178858D03*
%TD*%
D24*
%TO.C,U2*%
X78025000Y-127305000D03*
X78025000Y-126035000D03*
X78025000Y-124765000D03*
X78025000Y-123495000D03*
X82975000Y-123495000D03*
X82975000Y-124765000D03*
X82975000Y-126035000D03*
X82975000Y-127305000D03*
%TD*%
D12*
%TO.C,R41*%
X94200000Y-69187500D03*
X94200000Y-71012500D03*
%TD*%
D21*
%TO.C,C18*%
X92350000Y-74225000D03*
X92350000Y-72675000D03*
%TD*%
%TO.C,C24*%
X101200000Y-82275000D03*
X101200000Y-80725000D03*
%TD*%
D12*
%TO.C,R33*%
X85100000Y-80787500D03*
X85100000Y-82612500D03*
%TD*%
D19*
%TO.C,C53*%
X79654400Y-55488801D03*
X79654400Y-57388799D03*
%TD*%
D26*
%TO.C,U7*%
X98050000Y-85337500D03*
X98700000Y-85337500D03*
X99350000Y-85337500D03*
X100000000Y-85337500D03*
X100650000Y-85337500D03*
X101300000Y-85337500D03*
X101950000Y-85337500D03*
X101950000Y-91062500D03*
X101300000Y-91062500D03*
X100650000Y-91062500D03*
X100000000Y-91062500D03*
X99350000Y-91062500D03*
X98700000Y-91062500D03*
X98050000Y-91062500D03*
%TD*%
D14*
%TO.C,R59*%
X70000000Y-91875000D03*
X70000000Y-93525000D03*
%TD*%
D19*
%TO.C,C1*%
X84400000Y-98650001D03*
X84400000Y-100549999D03*
%TD*%
D27*
%TO.C,D32*%
X70090680Y-96972500D03*
X70090680Y-94872500D03*
%TD*%
D28*
%TO.C,C39*%
X117628249Y-78028249D03*
X118971751Y-79371751D03*
%TD*%
D29*
%TO.C,C33*%
X135171751Y-94771751D03*
X133828249Y-93428249D03*
%TD*%
D14*
%TO.C,R43*%
X153600000Y-102875000D03*
X153600000Y-104525000D03*
%TD*%
D30*
%TO.C,C48*%
X119690800Y-63180000D03*
X119690800Y-64730000D03*
%TD*%
D23*
%TO.C,C19*%
X106400000Y-82649999D03*
X106400000Y-80750001D03*
%TD*%
D31*
%TO.C,R46*%
X85150000Y-74612500D03*
X85150000Y-72787500D03*
%TD*%
D17*
%TO.C,D16*%
X108300000Y-80584090D03*
X108300000Y-81984090D03*
%TD*%
D14*
%TO.C,R10*%
X99500000Y-107775000D03*
X99500000Y-109425000D03*
%TD*%
D32*
%TO.C,F1*%
X116137500Y-147200000D03*
X111862500Y-147200000D03*
%TD*%
D31*
%TO.C,R36*%
X94200000Y-74512500D03*
X94200000Y-72687500D03*
%TD*%
D19*
%TO.C,C44*%
X139700000Y-65725000D03*
X139700000Y-67625000D03*
%TD*%
D33*
%TO.C,D19*%
X123477293Y-95700207D03*
X121709527Y-97467973D03*
%TD*%
D19*
%TO.C,C13*%
X88437800Y-72551600D03*
X88437800Y-74451600D03*
%TD*%
D34*
%TO.C,RN1*%
X73400000Y-109900000D03*
D35*
X72600000Y-109900000D03*
X71800000Y-109900000D03*
D34*
X71000000Y-109900000D03*
X71000000Y-108100000D03*
D35*
X71800000Y-108100000D03*
X72600000Y-108100000D03*
D34*
X73400000Y-108100000D03*
%TD*%
D36*
%TO.C,C9*%
X133150001Y-64200000D03*
X135049999Y-64200000D03*
%TD*%
D19*
%TO.C,C50*%
X109950000Y-85100001D03*
X109950000Y-86999999D03*
%TD*%
D27*
%TO.C,D34*%
X74100000Y-96950000D03*
X74100000Y-94850000D03*
%TD*%
D37*
%TO.C,U17*%
X124467417Y-100676085D03*
X123795666Y-100004334D03*
X123123915Y-99332583D03*
X124732583Y-97723915D03*
X125404334Y-98395666D03*
X126076085Y-99067417D03*
%TD*%
D18*
%TO.C,D2*%
X83280000Y-106237501D03*
X83280000Y-104362499D03*
%TD*%
%TO.C,D12*%
X67305000Y-106217500D03*
X67305000Y-104342498D03*
%TD*%
D15*
%TO.C,R14*%
X99450000Y-74325000D03*
X99450000Y-72675000D03*
%TD*%
D38*
%TO.C,C6*%
X110449999Y-101700000D03*
X108550001Y-101700000D03*
%TD*%
D20*
%TO.C,Q6*%
X86800000Y-108362499D03*
X87750000Y-110237500D03*
X85850000Y-110237500D03*
%TD*%
D14*
%TO.C,R64*%
X99872800Y-55449200D03*
X99872800Y-57099200D03*
%TD*%
D19*
%TO.C,C45*%
X145400000Y-62275000D03*
X145400000Y-64175000D03*
%TD*%
D39*
%TO.C,C46*%
X144925000Y-68130000D03*
X144925000Y-67170000D03*
%TD*%
D40*
%TO.C,R69*%
X60705000Y-93720000D03*
X59055000Y-93720000D03*
%TD*%
D19*
%TO.C,C21*%
X97322000Y-80685051D03*
X97322000Y-82585049D03*
%TD*%
D28*
%TO.C,C42*%
X135128249Y-70728249D03*
X136471751Y-72071751D03*
%TD*%
D18*
%TO.C,D22*%
X160727174Y-102764674D03*
X160727174Y-100889672D03*
%TD*%
D13*
%TO.C,R23*%
X110587500Y-74200000D03*
X112412500Y-74200000D03*
%TD*%
D18*
%TO.C,D9*%
X69405000Y-106237500D03*
X69405000Y-104362498D03*
%TD*%
D14*
%TO.C,R44*%
X156400000Y-102875000D03*
X156400000Y-104525000D03*
%TD*%
D38*
%TO.C,C37*%
X103349999Y-117500000D03*
X101450001Y-117500000D03*
%TD*%
D41*
%TO.C,Y1*%
X145494975Y-73594975D03*
X144505025Y-72605025D03*
%TD*%
D16*
%TO.C,R37*%
X155475000Y-99010000D03*
X157125000Y-99010000D03*
%TD*%
D15*
%TO.C,R25*%
X81450000Y-82450000D03*
X81450000Y-80800000D03*
%TD*%
D20*
%TO.C,Q4*%
X60820000Y-95642499D03*
X61770000Y-97517500D03*
X59870000Y-97517500D03*
%TD*%
D42*
%TO.C,Q3*%
X81661000Y-55795000D03*
X82931000Y-55795000D03*
X84201000Y-55795000D03*
X85471000Y-55795000D03*
X85471000Y-61045000D03*
X84201000Y-61045000D03*
X82931000Y-61045000D03*
X81661000Y-61045000D03*
%TD*%
D18*
%TO.C,D20*%
X144525075Y-108289748D03*
X144525075Y-106414746D03*
%TD*%
D43*
%TO.C,R27*%
X142583363Y-88583363D03*
X141416637Y-87416637D03*
%TD*%
D12*
%TO.C,R45*%
X103200000Y-72587500D03*
X103200000Y-74412500D03*
%TD*%
D18*
%TO.C,D7*%
X79080000Y-106237501D03*
X79080000Y-104362499D03*
%TD*%
D34*
%TO.C,RN3*%
X147530000Y-84580000D03*
D35*
X148330000Y-84580000D03*
X149130000Y-84580000D03*
D34*
X149930000Y-84580000D03*
X149930000Y-86380000D03*
D35*
X149130000Y-86380000D03*
X148330000Y-86380000D03*
D34*
X147530000Y-86380000D03*
%TD*%
D44*
%TO.C,U15*%
X101700000Y-115405000D03*
X101700000Y-114135000D03*
X101700000Y-112865000D03*
X101700000Y-111595000D03*
X108900000Y-111595000D03*
X108900000Y-112865000D03*
X108900000Y-114135000D03*
X108900000Y-115405000D03*
%TD*%
D45*
%TO.C,D28*%
X87850000Y-112400000D03*
X85750000Y-112400000D03*
%TD*%
D46*
%TO.C,C40*%
X144571751Y-75228249D03*
X143228249Y-76571751D03*
%TD*%
D27*
%TO.C,D33*%
X72100000Y-96950000D03*
X72100000Y-94850000D03*
%TD*%
D47*
%TO.C,C55*%
X94636830Y-62564110D03*
X89236830Y-62564110D03*
%TD*%
D12*
%TO.C,R24*%
X112100000Y-77887500D03*
X112100000Y-79712500D03*
%TD*%
D14*
%TO.C,R56*%
X98550000Y-131085000D03*
X98550000Y-132735000D03*
%TD*%
D21*
%TO.C,C27*%
X83200000Y-82400000D03*
X83200000Y-80850000D03*
%TD*%
D28*
%TO.C,C26*%
X119128249Y-76528249D03*
X120471751Y-77871751D03*
%TD*%
D19*
%TO.C,C49*%
X128872600Y-62817002D03*
X128872600Y-64717000D03*
%TD*%
D20*
%TO.C,Q1*%
X98759999Y-104112499D03*
X99709999Y-105987500D03*
X97809999Y-105987500D03*
%TD*%
D29*
%TO.C,C29*%
X133671751Y-96271751D03*
X132328249Y-94928249D03*
%TD*%
D23*
%TO.C,C20*%
X106400000Y-74349999D03*
X106400000Y-72450001D03*
%TD*%
D46*
%TO.C,C36*%
X146171751Y-76828249D03*
X144828249Y-78171751D03*
%TD*%
D12*
%TO.C,R52*%
X103000000Y-77087500D03*
X103000000Y-78912500D03*
%TD*%
D19*
%TO.C,C14*%
X116281200Y-62822601D03*
X116281200Y-64722599D03*
%TD*%
D15*
%TO.C,R55*%
X104360000Y-132725000D03*
X104360000Y-131075000D03*
%TD*%
D14*
%TO.C,R58*%
X102700000Y-131075000D03*
X102700000Y-132725000D03*
%TD*%
D18*
%TO.C,D24*%
X150805075Y-108189748D03*
X150805075Y-106314746D03*
%TD*%
D19*
%TO.C,C35*%
X149400000Y-80850001D03*
X149400000Y-82749999D03*
%TD*%
%TO.C,C32*%
X137600000Y-65175001D03*
X137600000Y-67074999D03*
%TD*%
D18*
%TO.C,D1*%
X73805000Y-106237500D03*
X73805000Y-104362498D03*
%TD*%
D15*
%TO.C,R57*%
X100600000Y-132725000D03*
X100600000Y-131075000D03*
%TD*%
D19*
%TO.C,C11*%
X97400000Y-72650001D03*
X97400000Y-74549999D03*
%TD*%
D18*
%TO.C,D21*%
X147505075Y-108289748D03*
X147505075Y-106414746D03*
%TD*%
D14*
%TO.C,R48*%
X76093410Y-91859090D03*
X76093410Y-93509090D03*
%TD*%
%TO.C,R42*%
X150800000Y-102875000D03*
X150800000Y-104525000D03*
%TD*%
D18*
%TO.C,D4*%
X71580000Y-106237501D03*
X71580000Y-104362499D03*
%TD*%
%TO.C,D25*%
X153650075Y-108189748D03*
X153650075Y-106314746D03*
%TD*%
D48*
%TO.C,R13*%
X110212500Y-70500000D03*
X108387500Y-70500000D03*
%TD*%
D23*
%TO.C,C2*%
X80200000Y-96949999D03*
X80200000Y-95050001D03*
%TD*%
D24*
%TO.C,U18*%
X98640910Y-138698410D03*
X98640910Y-137428410D03*
X98640910Y-136158410D03*
X98640910Y-134888410D03*
X103590910Y-134888410D03*
X103590910Y-136158410D03*
X103590910Y-137428410D03*
X103590910Y-138698410D03*
%TD*%
D14*
%TO.C,R11*%
X104200000Y-107775000D03*
X104200000Y-109425000D03*
%TD*%
%TO.C,R60*%
X72109320Y-91952500D03*
X72109320Y-93602500D03*
%TD*%
D18*
%TO.C,D10*%
X76979999Y-106237501D03*
X76979999Y-104362499D03*
%TD*%
D19*
%TO.C,C51*%
X79603600Y-59334400D03*
X79603600Y-61234398D03*
%TD*%
D27*
%TO.C,D31*%
X68084090Y-96956590D03*
X68084090Y-94856590D03*
%TD*%
D16*
%TO.C,R67*%
X96203000Y-59029600D03*
X97853000Y-59029600D03*
%TD*%
D49*
%TO.C,U1*%
X75244203Y-131154203D03*
X75894203Y-131154203D03*
X76544203Y-131154203D03*
X77194203Y-131154203D03*
X77844203Y-131154203D03*
X78494203Y-131154203D03*
X79144203Y-131154203D03*
X79794203Y-131154203D03*
X80444203Y-131154203D03*
X81094203Y-131154203D03*
X81744203Y-131154203D03*
X82394203Y-131154203D03*
X83044203Y-131154203D03*
X83694203Y-131154203D03*
X84344203Y-131154203D03*
X84994203Y-131154203D03*
X84994203Y-140664203D03*
X84344203Y-140664203D03*
X83694203Y-140664203D03*
X83044203Y-140664203D03*
X82394203Y-140664203D03*
X81744203Y-140664203D03*
X81094203Y-140664203D03*
X80444203Y-140664203D03*
X79794203Y-140664203D03*
X79144203Y-140664203D03*
X78494203Y-140664203D03*
X77844203Y-140664203D03*
X77194203Y-140664203D03*
X76544203Y-140664203D03*
X75894203Y-140664203D03*
X75244203Y-140664203D03*
%TD*%
D36*
%TO.C,C54*%
X99430801Y-58928000D03*
X101330799Y-58928000D03*
%TD*%
D18*
%TO.C,D5*%
X81200000Y-106237501D03*
X81200000Y-104362499D03*
%TD*%
D12*
%TO.C,R51*%
X85150000Y-69287500D03*
X85150000Y-71112500D03*
%TD*%
D16*
%TO.C,R38*%
X155475000Y-97300000D03*
X157125000Y-97300000D03*
%TD*%
D14*
%TO.C,R66*%
X87528400Y-56235600D03*
X87528400Y-57885600D03*
%TD*%
D30*
%TO.C,C28*%
X90401000Y-77566150D03*
X90401000Y-79116150D03*
%TD*%
D12*
%TO.C,R17*%
X112200000Y-70287500D03*
X112200000Y-72112500D03*
%TD*%
D16*
%TO.C,R53*%
X89475000Y-112100000D03*
X91125000Y-112100000D03*
%TD*%
D17*
%TO.C,D17*%
X108200000Y-72300000D03*
X108200000Y-73700000D03*
%TD*%
D15*
%TO.C,R15*%
X90625000Y-74250000D03*
X90625000Y-72600000D03*
%TD*%
D31*
%TO.C,R35*%
X94250000Y-82512500D03*
X94250000Y-80687500D03*
%TD*%
D50*
%TO.C,D35*%
X70859410Y-83482889D03*
X70859410Y-87782891D03*
%TD*%
D34*
%TO.C,RN2*%
X81300000Y-110100000D03*
D35*
X80500000Y-110100000D03*
X79700000Y-110100000D03*
D34*
X78900000Y-110100000D03*
X78900000Y-108300000D03*
D35*
X79700000Y-108300000D03*
X80500000Y-108300000D03*
D34*
X81300000Y-108300000D03*
%TD*%
D23*
%TO.C,C7*%
X113500000Y-98549999D03*
X113500000Y-96650001D03*
%TD*%
D27*
%TO.C,D27*%
X76100000Y-96950000D03*
X76100000Y-94850000D03*
%TD*%
D20*
%TO.C,Q7*%
X57320000Y-95642499D03*
X58270000Y-97517500D03*
X56370000Y-97517500D03*
%TD*%
D19*
%TO.C,C12*%
X79374000Y-72661250D03*
X79374000Y-74561250D03*
%TD*%
D51*
%TO.C,U19*%
X126429200Y-64109600D03*
D52*
X125674200Y-56134600D03*
X122624200Y-56134600D03*
X125674200Y-59484600D03*
X122624200Y-59484600D03*
D51*
X121869200Y-64109600D03*
%TD*%
D36*
%TO.C,C38*%
X124950001Y-68800000D03*
X126849999Y-68800000D03*
%TD*%
D14*
%TO.C,R6*%
X97900000Y-107775000D03*
X97900000Y-109425000D03*
%TD*%
D19*
%TO.C,C47*%
X112100000Y-88950001D03*
X112100000Y-90849999D03*
%TD*%
D53*
%TO.C,SW2*%
X162600000Y-65050001D03*
X162600000Y-71349999D03*
X158800000Y-65050001D03*
X158800000Y-71349999D03*
%TD*%
D13*
%TO.C,R12*%
X108387500Y-78800000D03*
X110212500Y-78800000D03*
%TD*%
D19*
%TO.C,C30*%
X156500000Y-70650001D03*
X156500000Y-72549999D03*
%TD*%
D31*
%TO.C,R21*%
X90050000Y-82555650D03*
X90050000Y-80730650D03*
%TD*%
D19*
%TO.C,C23*%
X88100000Y-80693150D03*
X88100000Y-82593150D03*
%TD*%
D31*
%TO.C,R47*%
X103000000Y-82412500D03*
X103000000Y-80587500D03*
%TD*%
D23*
%TO.C,C52*%
X94996000Y-57439599D03*
X94996000Y-55539601D03*
%TD*%
D54*
%TO.C,U13*%
X141269685Y-82784404D03*
X140916132Y-83137957D03*
X140562578Y-83491511D03*
X140209025Y-83845064D03*
X139855472Y-84198617D03*
X139501918Y-84552171D03*
X139148365Y-84905724D03*
X138794811Y-85259278D03*
X138441258Y-85612831D03*
X138087705Y-85966384D03*
X137734151Y-86319938D03*
X137380598Y-86673491D03*
X137027045Y-87027045D03*
X136673491Y-87380598D03*
X136319938Y-87734151D03*
X135966384Y-88087705D03*
X135612831Y-88441258D03*
X135259278Y-88794811D03*
X134905724Y-89148365D03*
X134552171Y-89501918D03*
X134198617Y-89855472D03*
X133845064Y-90209025D03*
X133491511Y-90562578D03*
X133137957Y-90916132D03*
X132784404Y-91269685D03*
D55*
X130415596Y-91269685D03*
X130062043Y-90916132D03*
X129708489Y-90562578D03*
X129354936Y-90209025D03*
X129001383Y-89855472D03*
X128647829Y-89501918D03*
X128294276Y-89148365D03*
X127940722Y-88794811D03*
X127587169Y-88441258D03*
X127233616Y-88087705D03*
X126880062Y-87734151D03*
X126526509Y-87380598D03*
X126172955Y-87027045D03*
X125819402Y-86673491D03*
X125465849Y-86319938D03*
X125112295Y-85966384D03*
X124758742Y-85612831D03*
X124405189Y-85259278D03*
X124051635Y-84905724D03*
X123698082Y-84552171D03*
X123344528Y-84198617D03*
X122990975Y-83845064D03*
X122637422Y-83491511D03*
X122283868Y-83137957D03*
X121930315Y-82784404D03*
D54*
X121930315Y-80415596D03*
X122283868Y-80062043D03*
X122637422Y-79708489D03*
X122990975Y-79354936D03*
X123344528Y-79001383D03*
X123698082Y-78647829D03*
X124051635Y-78294276D03*
X124405189Y-77940722D03*
X124758742Y-77587169D03*
X125112295Y-77233616D03*
X125465849Y-76880062D03*
X125819402Y-76526509D03*
X126172955Y-76172955D03*
X126526509Y-75819402D03*
X126880062Y-75465849D03*
X127233616Y-75112295D03*
X127587169Y-74758742D03*
X127940722Y-74405189D03*
X128294276Y-74051635D03*
X128647829Y-73698082D03*
X129001383Y-73344528D03*
X129354936Y-72990975D03*
X129708489Y-72637422D03*
X130062043Y-72283868D03*
X130415596Y-71930315D03*
D55*
X132784404Y-71930315D03*
X133137957Y-72283868D03*
X133491511Y-72637422D03*
X133845064Y-72990975D03*
X134198617Y-73344528D03*
X134552171Y-73698082D03*
X134905724Y-74051635D03*
X135259278Y-74405189D03*
X135612831Y-74758742D03*
X135966384Y-75112295D03*
X136319938Y-75465849D03*
X136673491Y-75819402D03*
X137027045Y-76172955D03*
X137380598Y-76526509D03*
X137734151Y-76880062D03*
X138087705Y-77233616D03*
X138441258Y-77587169D03*
X138794811Y-77940722D03*
X139148365Y-78294276D03*
X139501918Y-78647829D03*
X139855472Y-79001383D03*
X140209025Y-79354936D03*
X140562578Y-79708489D03*
X140916132Y-80062043D03*
X141269685Y-80415596D03*
%TD*%
D56*
%TO.C,D30*%
X95800000Y-135899999D03*
X95800000Y-133100001D03*
%TD*%
D13*
%TO.C,R7*%
X97787500Y-101600000D03*
X99612500Y-101600000D03*
%TD*%
D57*
%TO.C,U21*%
X105999999Y-89800000D03*
D58*
X106000000Y-88800000D03*
X106800000Y-88800000D03*
X107600000Y-88800000D03*
X108400000Y-88800000D03*
X109200000Y-88800000D03*
X110000000Y-88800000D03*
D57*
X110000001Y-89800000D03*
D58*
X110000000Y-90800000D03*
X109200000Y-90800000D03*
X108400000Y-90800000D03*
X107600000Y-90800000D03*
X106800000Y-90800000D03*
X106000000Y-90800000D03*
%TD*%
D14*
%TO.C,R62*%
X98348800Y-55449200D03*
X98348800Y-57099200D03*
%TD*%
%TO.C,R16*%
X135330000Y-111375000D03*
X135330000Y-113025000D03*
%TD*%
D38*
%TO.C,C5*%
X103149999Y-101600000D03*
X101250001Y-101600000D03*
%TD*%
D14*
%TO.C,R65*%
X101346000Y-55449200D03*
X101346000Y-57099200D03*
%TD*%
D59*
%TO.C,U5*%
X88437500Y-124375000D03*
X88437500Y-123725000D03*
X88437500Y-123075000D03*
X88437500Y-122425000D03*
X88437500Y-121775000D03*
X88437500Y-121125000D03*
X88437500Y-120475000D03*
X88437500Y-119825000D03*
X94162500Y-119825000D03*
X94162500Y-120475000D03*
X94162500Y-121125000D03*
X94162500Y-121775000D03*
X94162500Y-122425000D03*
X94162500Y-123075000D03*
X94162500Y-123725000D03*
X94162500Y-124375000D03*
%TD*%
D28*
%TO.C,C43*%
X136528249Y-69328249D03*
X137871751Y-70671751D03*
%TD*%
D12*
%TO.C,R50*%
X103200000Y-69087500D03*
X103200000Y-70912500D03*
%TD*%
D60*
%TO.C,U8*%
X137370000Y-61750000D03*
D61*
X135070000Y-55450001D03*
D60*
X135070000Y-61749999D03*
X132770000Y-61750000D03*
%TD*%
D14*
%TO.C,R22*%
X92077400Y-77516150D03*
X92077400Y-79166150D03*
%TD*%
D56*
%TO.C,D29*%
X93384090Y-138506589D03*
X93384090Y-135706591D03*
%TD*%
D62*
%TO.C,J16*%
X154720000Y-74130000D03*
D63*
X164880000Y-88480000D03*
X151730000Y-87480000D03*
D64*
X159030000Y-74330000D03*
X153330000Y-74330000D03*
D65*
X152520000Y-85190000D03*
X153620000Y-85190000D03*
X154720000Y-85390000D03*
X155820000Y-85190000D03*
X156920000Y-85390000D03*
X158020000Y-85190000D03*
X159120000Y-84790000D03*
X160220000Y-85190000D03*
%TD*%
D66*
%TO.C,U9*%
X87645001Y-90600000D03*
X86375000Y-90600000D03*
X85104999Y-90600000D03*
X83835000Y-90600000D03*
X82565000Y-90600000D03*
X81295001Y-90600000D03*
X80025000Y-90600000D03*
X78754999Y-90600000D03*
X78754999Y-85600000D03*
X80025000Y-85600000D03*
X81295001Y-85600000D03*
X82565000Y-85600000D03*
X83835000Y-85600000D03*
X85104999Y-85600000D03*
X86375000Y-85600000D03*
X87645001Y-85600000D03*
%TD*%
D67*
%TO.C,C10*%
X157500000Y-134750000D03*
X157500000Y-140150000D03*
%TD*%
D51*
%TO.C,U11*%
X113684400Y-64111800D03*
D52*
X112929400Y-56136800D03*
X109879400Y-56136800D03*
X112929400Y-59486800D03*
X109879400Y-59486800D03*
D51*
X109124400Y-64111800D03*
%TD*%
D68*
%TO.C,D18*%
X153950000Y-67910000D03*
X153950000Y-66510000D03*
%TD*%
D14*
%TO.C,R49*%
X68200000Y-91875000D03*
X68200000Y-93525000D03*
%TD*%
D15*
%TO.C,R63*%
X96824800Y-57099200D03*
X96824800Y-55449200D03*
%TD*%
D13*
%TO.C,R26*%
X110487500Y-81700000D03*
X112312500Y-81700000D03*
%TD*%
%TO.C,R8*%
X104987500Y-101700000D03*
X106812500Y-101700000D03*
%TD*%
D69*
%TO.C,R31*%
X69200000Y-71762500D03*
X69200000Y-68837500D03*
%TD*%
D23*
%TO.C,C8*%
X116100000Y-98549999D03*
X116100000Y-96650001D03*
%TD*%
D16*
%TO.C,R68*%
X56005000Y-93700000D03*
X57655000Y-93700000D03*
%TD*%
D12*
%TO.C,R39*%
X85100000Y-77187500D03*
X85100000Y-79012500D03*
%TD*%
D16*
%TO.C,R32*%
X143775000Y-99200000D03*
X145425000Y-99200000D03*
%TD*%
D20*
%TO.C,Q2*%
X103209999Y-104112499D03*
X104159999Y-105987500D03*
X102259999Y-105987500D03*
%TD*%
D70*
%TO.C,U10*%
X107500000Y-86875001D03*
X107500000Y-86225000D03*
X107500000Y-85575000D03*
X107500000Y-84924999D03*
X105900000Y-84924999D03*
X105900000Y-85575000D03*
X105900000Y-86225000D03*
X105900000Y-86875001D03*
%TD*%
D40*
%TO.C,R34*%
X148525000Y-99200000D03*
X146875000Y-99200000D03*
%TD*%
D46*
%TO.C,C41*%
X142671751Y-73528249D03*
X141328249Y-74871751D03*
%TD*%
D30*
%TO.C,C15*%
X106959000Y-63185000D03*
X106959000Y-64735000D03*
%TD*%
D21*
%TO.C,C16*%
X101325000Y-74259250D03*
X101325000Y-72709250D03*
%TD*%
D38*
%TO.C,C31*%
X145849999Y-83400000D03*
X143950001Y-83400000D03*
%TD*%
D26*
%TO.C,U6*%
X91050000Y-85237500D03*
X91700000Y-85237500D03*
X92350000Y-85237500D03*
X93000000Y-85237500D03*
X93650000Y-85237500D03*
X94300000Y-85237500D03*
X94950000Y-85237500D03*
X94950000Y-90962500D03*
X94300000Y-90962500D03*
X93650000Y-90962500D03*
X93000000Y-90962500D03*
X92350000Y-90962500D03*
X91700000Y-90962500D03*
X91050000Y-90962500D03*
%TD*%
D20*
%TO.C,U16*%
X142475000Y-65562499D03*
X143425000Y-67437500D03*
X141525000Y-67437500D03*
%TD*%
D71*
%TO.C,U14*%
X75905000Y-71125000D03*
X74635000Y-71125000D03*
X73365000Y-71125000D03*
X72095000Y-71125000D03*
X72095000Y-65875000D03*
X73365000Y-65875000D03*
X74635000Y-65875000D03*
X75905000Y-65875000D03*
%TD*%
M02*
