%TF.GenerationSoftware,KiCad,Pcbnew,8.99.0-unknown-1.20241209git10cd458.fc40*%
%TF.CreationDate,2024-12-12T00:34:18-03:00*%
%TF.ProjectId,hw_v1,68775f76-312e-46b6-9963-61645f706362,rev?*%
%TF.SameCoordinates,Original*%
%TF.FileFunction,Other,Comment*%
%FSLAX46Y46*%
G04 Gerber Fmt 4.6, Leading zero omitted, Abs format (unit mm)*
G04 Created by KiCad (PCBNEW 8.99.0-unknown-1.20241209git10cd458.fc40) date 2024-12-12 00:34:18*
%MOMM*%
%LPD*%
G01*
G04 APERTURE LIST*
%ADD10C,0.150000*%
%ADD11C,0.200000*%
%ADD12C,0.070000*%
G04 APERTURE END LIST*
D10*
X75322657Y-128918309D02*
X75322657Y-130823309D01*
X149617657Y-131458309D02*
X152157657Y-130823309D01*
D11*
X155217800Y-58935152D02*
X155217800Y-128993660D01*
X70204000Y-58551109D02*
X70204000Y-129928541D01*
X72896400Y-140037741D02*
G75*
G02*
X69670600Y-140037741I-1612900J0D01*
G01*
X69670600Y-140037741D02*
G75*
G02*
X72896400Y-140037741I1612900J0D01*
G01*
D10*
X74687657Y-58433309D02*
X73417657Y-57163309D01*
X96277657Y-139713309D02*
X101357657Y-140983309D01*
X114057657Y-139713309D02*
X120407657Y-141618309D01*
D11*
X151687200Y-54058742D02*
G75*
G02*
X152499958Y-54871542I-300J-813058D01*
G01*
D10*
X73417657Y-85103309D02*
X74687657Y-87643309D01*
D11*
X72413800Y-58935152D02*
X72413800Y-128993660D01*
X85654100Y-141841141D02*
X141977500Y-141841141D01*
X66825800Y-42196941D02*
G75*
G02*
X70585000Y-38437700I3759200J41D01*
G01*
D10*
X72782657Y-123838309D02*
X74687657Y-126378309D01*
D11*
X149604400Y-40622141D02*
X152449200Y-42120741D01*
X152253218Y-128083325D02*
X141112139Y-138893865D01*
D10*
X154697657Y-84468309D02*
X153427657Y-81928309D01*
X75322657Y-130823309D02*
X77862657Y-131458309D01*
X153427657Y-119393309D02*
X154697657Y-116218309D01*
X154697657Y-94628309D02*
X153427657Y-92088309D01*
X73417657Y-79388309D02*
X74687657Y-82563309D01*
X89292657Y-139713309D02*
X92467657Y-140983309D01*
X153427657Y-97168309D02*
X154697657Y-94628309D01*
X146442657Y-137173309D02*
X145807657Y-135268309D01*
X149617657Y-133998309D02*
X149617657Y-131458309D01*
D11*
X75182400Y-44660741D02*
X70204000Y-58551109D01*
X160805800Y-142476141D02*
X160805800Y-42196941D01*
D10*
X73417657Y-108598309D02*
X74687657Y-111138309D01*
D11*
X84758201Y-144050941D02*
X142873399Y-144050941D01*
D10*
X150887657Y-52718309D02*
X151522657Y-50178309D01*
D11*
X157046600Y-38437741D02*
G75*
G02*
X160805759Y-42196941I-200J-3759359D01*
G01*
D10*
X109612657Y-140983309D02*
X114057657Y-139713309D01*
D11*
X157961000Y-140037741D02*
G75*
G02*
X154735200Y-140037741I-1612900J0D01*
G01*
X154735200Y-140037741D02*
G75*
G02*
X157961000Y-140037741I1612900J0D01*
G01*
X152449200Y-42120741D02*
X152449200Y-44660741D01*
D10*
X77862657Y-47638309D02*
X77227657Y-46368309D01*
D11*
X157046600Y-38437742D02*
X142708300Y-38437741D01*
D10*
X76592657Y-49543309D02*
X77862657Y-47638309D01*
D11*
X89927100Y-40622141D02*
X78027200Y-40622141D01*
X121651700Y-146743340D02*
G75*
G02*
X122159700Y-146235300I508000J40D01*
G01*
D10*
X77862657Y-131458309D02*
X78497657Y-133363309D01*
D11*
X137704500Y-40622141D02*
X149604400Y-40622141D01*
X157427600Y-58551109D02*
X157427600Y-129928541D01*
D10*
X73417657Y-119393309D02*
X74687657Y-121298309D01*
X74687657Y-82563309D02*
X73417657Y-85103309D01*
X72782657Y-68593309D02*
X74687657Y-71768309D01*
X74052657Y-116218309D02*
X73417657Y-119393309D01*
X153427657Y-92088309D02*
X154697657Y-89548309D01*
X153427657Y-81928309D02*
X154697657Y-79388309D01*
D11*
X77392200Y-43454314D02*
X77392200Y-45044784D01*
X105471900Y-146235340D02*
X70585000Y-146235340D01*
D10*
X153427657Y-114313309D02*
X154697657Y-111138309D01*
X140727657Y-140983309D02*
X143902657Y-137808309D01*
D11*
X152500000Y-127500000D02*
G75*
G02*
X152253197Y-128083303I-812700J0D01*
G01*
X155217800Y-128993660D02*
X141977500Y-141841141D01*
D10*
X92467657Y-140983309D02*
X96277657Y-139713309D01*
D11*
X149019258Y-42831941D02*
X149019258Y-51823542D01*
X66825800Y-142476140D02*
X66825801Y-42196941D01*
D10*
X76592657Y-53988309D02*
X78497657Y-53353309D01*
X74687657Y-77483309D02*
X73417657Y-79388309D01*
X74687657Y-126378309D02*
X73417657Y-127648309D01*
X74687657Y-66688309D02*
X72782657Y-68593309D01*
X73417657Y-127648309D02*
X75322657Y-128918309D01*
X131837657Y-140983309D02*
X136282657Y-139713309D01*
D11*
X160805799Y-142476141D02*
G75*
G02*
X157046599Y-146235299I-3759199J41D01*
G01*
X157961000Y-44635341D02*
G75*
G02*
X154735200Y-44635341I-1612900J0D01*
G01*
X154735200Y-44635341D02*
G75*
G02*
X157961000Y-44635341I1612900J0D01*
G01*
D10*
X81037657Y-134633309D02*
X82942657Y-138443309D01*
X82942657Y-138443309D02*
X84847657Y-138443309D01*
X149617657Y-49543309D02*
X150252657Y-47003309D01*
X74687657Y-97168309D02*
X72782657Y-101613309D01*
X74687657Y-121298309D02*
X72782657Y-123838309D01*
X154697657Y-89548309D02*
X153427657Y-87008309D01*
X153427657Y-108598309D02*
X154697657Y-105423309D01*
X74687657Y-62878309D02*
X72782657Y-64783309D01*
X154697657Y-111138309D02*
X153427657Y-108598309D01*
X153427657Y-58433309D02*
X153427657Y-55893309D01*
X153427657Y-76848309D02*
X154697657Y-73038309D01*
D11*
X141112139Y-138893865D02*
G75*
G02*
X140546121Y-139123357I-566139J583565D01*
G01*
X75131601Y-54871541D02*
X75131600Y-127500000D01*
X157046599Y-146235341D02*
X122159700Y-146235340D01*
D10*
X77862657Y-51448309D02*
X76592657Y-49543309D01*
D11*
X140999567Y-70377685D02*
X86632033Y-70377685D01*
D10*
X72782657Y-95263309D02*
X74687657Y-97168309D01*
X84847657Y-138443309D02*
X85482657Y-140348309D01*
D11*
X149057946Y-42831941D02*
X150239400Y-43454314D01*
D10*
X143902657Y-137808309D02*
X146442657Y-137173309D01*
X145807657Y-135268309D02*
X149617657Y-133998309D01*
X120407657Y-141618309D02*
X124852657Y-139713309D01*
D11*
X72413800Y-128993660D02*
X85654100Y-141841141D01*
D10*
X152157657Y-129553309D02*
X154697657Y-128283309D01*
X136282657Y-139713309D02*
X140727657Y-140983309D01*
D11*
X77392200Y-45044784D02*
X72413800Y-58935152D01*
D10*
X72782657Y-64783309D02*
X74687657Y-66688309D01*
X85482657Y-140348309D02*
X89292657Y-139713309D01*
X75957657Y-52083309D02*
X77862657Y-51448309D01*
X152792657Y-53353309D02*
X150887657Y-52718309D01*
X74687657Y-92723309D02*
X72782657Y-95263309D01*
D11*
X87085479Y-139123340D02*
X140546121Y-139123340D01*
D10*
X73417657Y-114948309D02*
X74052657Y-116218309D01*
D11*
X78027200Y-40622141D02*
X75182400Y-42120741D01*
D10*
X154697657Y-105423309D02*
X153427657Y-102883309D01*
D11*
X105471900Y-146235340D02*
G75*
G02*
X105979860Y-146743340I-200J-508160D01*
G01*
X84923300Y-38437741D02*
X70585000Y-38437741D01*
D10*
X74687657Y-87643309D02*
X72782657Y-90818309D01*
D11*
X78612342Y-42831941D02*
X78612342Y-51823541D01*
D10*
X154697657Y-64783309D02*
X153427657Y-58433309D01*
D11*
X75131601Y-54871541D02*
G75*
G02*
X75944401Y-54058701I812799J41D01*
G01*
D10*
X78497657Y-53353309D02*
X78497657Y-52718309D01*
D11*
X75182400Y-42120741D02*
X75182400Y-44660741D01*
D10*
X154697657Y-99708309D02*
X153427657Y-97168309D01*
D11*
X150239400Y-43454314D02*
X150239400Y-45044784D01*
X152449200Y-44660741D02*
X157427600Y-58551109D01*
D10*
X74687657Y-71768309D02*
X72782657Y-74308309D01*
D11*
X70204000Y-129928541D02*
X84758201Y-144050941D01*
D10*
X78497657Y-133363309D02*
X81037657Y-134633309D01*
X151522657Y-50178309D02*
X149617657Y-49543309D01*
X150252657Y-47003309D02*
X149617657Y-45733309D01*
X72782657Y-101613309D02*
X74687657Y-103518309D01*
D11*
X75378382Y-128083325D02*
X86519461Y-138893865D01*
D10*
X149617657Y-53353309D02*
X148982657Y-52083309D01*
X154697657Y-122568309D02*
X153427657Y-119393309D01*
X72782657Y-90818309D02*
X74687657Y-92723309D01*
X153427657Y-87008309D02*
X154697657Y-84468309D01*
X74687657Y-53988309D02*
X75957657Y-52083309D01*
D11*
X70585000Y-146235340D02*
G75*
G02*
X66825760Y-142476140I-100J3759140D01*
G01*
X152500000Y-54871542D02*
X152499999Y-127500000D01*
D10*
X154697657Y-128283309D02*
X153427657Y-125108309D01*
X153427657Y-125108309D02*
X154697657Y-122568309D01*
X74687657Y-55258309D02*
X74687657Y-53988309D01*
X73417657Y-57163309D02*
X74687657Y-55258309D01*
D11*
X122159700Y-146235340D02*
X105471900Y-146235340D01*
D10*
X154697657Y-79388309D02*
X153427657Y-76848309D01*
X154697657Y-73038309D02*
X153427657Y-69228309D01*
X101357657Y-140983309D02*
X105167657Y-139713309D01*
X151522657Y-53988309D02*
X149617657Y-53353309D01*
D11*
X75378382Y-128083325D02*
G75*
G02*
X75131600Y-127500000I566018J583325D01*
G01*
D10*
X74687657Y-62878309D02*
X73417657Y-60973309D01*
X74687657Y-111138309D02*
X73417657Y-114948309D01*
X72782657Y-74308309D02*
X74687657Y-77483309D01*
X73417657Y-60973309D02*
X74687657Y-58433309D01*
D11*
X72896400Y-44635341D02*
G75*
G02*
X69670600Y-44635341I-1612900J0D01*
G01*
X69670600Y-44635341D02*
G75*
G02*
X72896400Y-44635341I1612900J0D01*
G01*
X87085479Y-139123341D02*
G75*
G02*
X86519443Y-138893883I21J812941D01*
G01*
D10*
X153427657Y-55893309D02*
X152792657Y-53353309D01*
D11*
X150239400Y-45044784D02*
X155217800Y-58935152D01*
D10*
X74687657Y-103518309D02*
X73417657Y-108598309D01*
D11*
X157427600Y-129928541D02*
X142873399Y-144050941D01*
X78573654Y-42831941D02*
X77392200Y-43454314D01*
D10*
X153427657Y-69228309D02*
X154697657Y-64783309D01*
X105167657Y-139713309D02*
X109612657Y-140983309D01*
X153427657Y-102883309D02*
X154697657Y-99708309D01*
X152157657Y-130823309D02*
X152157657Y-129553309D01*
X154697657Y-116218309D02*
X153427657Y-114313309D01*
X124852657Y-139713309D02*
X131837657Y-140983309D01*
X110131538Y-158464328D02*
X110750585Y-158464328D01*
X110750585Y-158464328D02*
X110417252Y-158845280D01*
X110417252Y-158845280D02*
X110560109Y-158845280D01*
X110560109Y-158845280D02*
X110655347Y-158892899D01*
X110655347Y-158892899D02*
X110702966Y-158940518D01*
X110702966Y-158940518D02*
X110750585Y-159035756D01*
X110750585Y-159035756D02*
X110750585Y-159273851D01*
X110750585Y-159273851D02*
X110702966Y-159369089D01*
X110702966Y-159369089D02*
X110655347Y-159416709D01*
X110655347Y-159416709D02*
X110560109Y-159464328D01*
X110560109Y-159464328D02*
X110274395Y-159464328D01*
X110274395Y-159464328D02*
X110179157Y-159416709D01*
X110179157Y-159416709D02*
X110131538Y-159369089D01*
X111179157Y-159369089D02*
X111226776Y-159416709D01*
X111226776Y-159416709D02*
X111179157Y-159464328D01*
X111179157Y-159464328D02*
X111131538Y-159416709D01*
X111131538Y-159416709D02*
X111179157Y-159369089D01*
X111179157Y-159369089D02*
X111179157Y-159464328D01*
X112179156Y-159464328D02*
X111607728Y-159464328D01*
X111893442Y-159464328D02*
X111893442Y-158464328D01*
X111893442Y-158464328D02*
X111798204Y-158607185D01*
X111798204Y-158607185D02*
X111702966Y-158702423D01*
X111702966Y-158702423D02*
X111607728Y-158750042D01*
X112512490Y-158464328D02*
X113179156Y-158464328D01*
X113179156Y-158464328D02*
X112750585Y-159464328D01*
X114036299Y-158464328D02*
X113560109Y-158464328D01*
X113560109Y-158464328D02*
X113512490Y-158940518D01*
X113512490Y-158940518D02*
X113560109Y-158892899D01*
X113560109Y-158892899D02*
X113655347Y-158845280D01*
X113655347Y-158845280D02*
X113893442Y-158845280D01*
X113893442Y-158845280D02*
X113988680Y-158892899D01*
X113988680Y-158892899D02*
X114036299Y-158940518D01*
X114036299Y-158940518D02*
X114083918Y-159035756D01*
X114083918Y-159035756D02*
X114083918Y-159273851D01*
X114083918Y-159273851D02*
X114036299Y-159369089D01*
X114036299Y-159369089D02*
X113988680Y-159416709D01*
X113988680Y-159416709D02*
X113893442Y-159464328D01*
X113893442Y-159464328D02*
X113655347Y-159464328D01*
X113655347Y-159464328D02*
X113560109Y-159416709D01*
X113560109Y-159416709D02*
X113512490Y-159369089D01*
X114702966Y-158464328D02*
X114798204Y-158464328D01*
X114798204Y-158464328D02*
X114893442Y-158511947D01*
X114893442Y-158511947D02*
X114941061Y-158559566D01*
X114941061Y-158559566D02*
X114988680Y-158654804D01*
X114988680Y-158654804D02*
X115036299Y-158845280D01*
X115036299Y-158845280D02*
X115036299Y-159083375D01*
X115036299Y-159083375D02*
X114988680Y-159273851D01*
X114988680Y-159273851D02*
X114941061Y-159369089D01*
X114941061Y-159369089D02*
X114893442Y-159416709D01*
X114893442Y-159416709D02*
X114798204Y-159464328D01*
X114798204Y-159464328D02*
X114702966Y-159464328D01*
X114702966Y-159464328D02*
X114607728Y-159416709D01*
X114607728Y-159416709D02*
X114560109Y-159369089D01*
X114560109Y-159369089D02*
X114512490Y-159273851D01*
X114512490Y-159273851D02*
X114464871Y-159083375D01*
X114464871Y-159083375D02*
X114464871Y-158845280D01*
X114464871Y-158845280D02*
X114512490Y-158654804D01*
X114512490Y-158654804D02*
X114560109Y-158559566D01*
X114560109Y-158559566D02*
X114607728Y-158511947D01*
X114607728Y-158511947D02*
X114702966Y-158464328D01*
X116226776Y-159464328D02*
X116226776Y-158797661D01*
X116226776Y-158464328D02*
X116179157Y-158511947D01*
X116179157Y-158511947D02*
X116226776Y-158559566D01*
X116226776Y-158559566D02*
X116274395Y-158511947D01*
X116274395Y-158511947D02*
X116226776Y-158464328D01*
X116226776Y-158464328D02*
X116226776Y-158559566D01*
X116702966Y-158797661D02*
X116702966Y-159464328D01*
X116702966Y-158892899D02*
X116750585Y-158845280D01*
X116750585Y-158845280D02*
X116845823Y-158797661D01*
X116845823Y-158797661D02*
X116988680Y-158797661D01*
X116988680Y-158797661D02*
X117083918Y-158845280D01*
X117083918Y-158845280D02*
X117131537Y-158940518D01*
X117131537Y-158940518D02*
X117131537Y-159464328D01*
X154001657Y-140093509D02*
X154001657Y-160745929D01*
X73356657Y-140093509D02*
X73356657Y-160745929D01*
X154001657Y-160159509D02*
X73356657Y-160159509D01*
X154001657Y-160159509D02*
X73356657Y-160159509D01*
X154001657Y-160159509D02*
X152875153Y-160745930D01*
X154001657Y-160159509D02*
X152875153Y-159573088D01*
X73356657Y-160159509D02*
X74483161Y-159573088D01*
X73356657Y-160159509D02*
X74483161Y-160745930D01*
X154001657Y-160159509D02*
X73356657Y-160159509D01*
X154001657Y-160159509D02*
X73356657Y-160159509D01*
X154001657Y-160159509D02*
X152875153Y-160745930D01*
X154001657Y-160159509D02*
X152875153Y-159573088D01*
X73356657Y-160159509D02*
X74483161Y-159573088D01*
X73356657Y-160159509D02*
X74483161Y-160745930D01*
X168641465Y-89642857D02*
X168643143Y-90261903D01*
X168643143Y-90261903D02*
X168261289Y-89929603D01*
X168261289Y-89929603D02*
X168261676Y-90072459D01*
X168261676Y-90072459D02*
X168214315Y-90167826D01*
X168214315Y-90167826D02*
X168166825Y-90215574D01*
X168166825Y-90215574D02*
X168071716Y-90263451D01*
X168071716Y-90263451D02*
X167833622Y-90264096D01*
X167833622Y-90264096D02*
X167738255Y-90216736D01*
X167738255Y-90216736D02*
X167690507Y-90169246D01*
X167690507Y-90169246D02*
X167642630Y-90074137D01*
X167642630Y-90074137D02*
X167641856Y-89788424D01*
X167641856Y-89788424D02*
X167689217Y-89693057D01*
X167689217Y-89693057D02*
X167736707Y-89645309D01*
X167739546Y-90692924D02*
X167692056Y-90740672D01*
X167692056Y-90740672D02*
X167644308Y-90693182D01*
X167644308Y-90693182D02*
X167691798Y-90645435D01*
X167691798Y-90645435D02*
X167739546Y-90692924D01*
X167739546Y-90692924D02*
X167644308Y-90693182D01*
X168646756Y-91595231D02*
X168646240Y-91404755D01*
X168646240Y-91404755D02*
X168598363Y-91309646D01*
X168598363Y-91309646D02*
X168550615Y-91262157D01*
X168550615Y-91262157D02*
X168407501Y-91167306D01*
X168407501Y-91167306D02*
X168216896Y-91120203D01*
X168216896Y-91120203D02*
X167835945Y-91121236D01*
X167835945Y-91121236D02*
X167740836Y-91169113D01*
X167740836Y-91169113D02*
X167693346Y-91216861D01*
X167693346Y-91216861D02*
X167645986Y-91312227D01*
X167645986Y-91312227D02*
X167646502Y-91502703D01*
X167646502Y-91502703D02*
X167694379Y-91597812D01*
X167694379Y-91597812D02*
X167742127Y-91645301D01*
X167742127Y-91645301D02*
X167837494Y-91692662D01*
X167837494Y-91692662D02*
X168075588Y-91692017D01*
X168075588Y-91692017D02*
X168170697Y-91644140D01*
X168170697Y-91644140D02*
X168218186Y-91596392D01*
X168218186Y-91596392D02*
X168265547Y-91501025D01*
X168265547Y-91501025D02*
X168265031Y-91310550D01*
X168265031Y-91310550D02*
X168217154Y-91215441D01*
X168217154Y-91215441D02*
X168169406Y-91167951D01*
X168169406Y-91167951D02*
X168074039Y-91120590D01*
X167648309Y-92169367D02*
X167648825Y-92359843D01*
X167648825Y-92359843D02*
X167696702Y-92454951D01*
X167696702Y-92454951D02*
X167744450Y-92502441D01*
X167744450Y-92502441D02*
X167887564Y-92597292D01*
X167887564Y-92597292D02*
X168078169Y-92644394D01*
X168078169Y-92644394D02*
X168459120Y-92643362D01*
X168459120Y-92643362D02*
X168554229Y-92595485D01*
X168554229Y-92595485D02*
X168601718Y-92547737D01*
X168601718Y-92547737D02*
X168649079Y-92452370D01*
X168649079Y-92452370D02*
X168648563Y-92261895D01*
X168648563Y-92261895D02*
X168600686Y-92166786D01*
X168600686Y-92166786D02*
X168552938Y-92119296D01*
X168552938Y-92119296D02*
X168457571Y-92071936D01*
X168457571Y-92071936D02*
X168219477Y-92072581D01*
X168219477Y-92072581D02*
X168124368Y-92120458D01*
X168124368Y-92120458D02*
X168076878Y-92168206D01*
X168076878Y-92168206D02*
X168029518Y-92263572D01*
X168029518Y-92263572D02*
X168030034Y-92454048D01*
X168030034Y-92454048D02*
X168077911Y-92549157D01*
X168077911Y-92549157D02*
X168125659Y-92596646D01*
X168125659Y-92596646D02*
X168221026Y-92644007D01*
X168651273Y-93261891D02*
X168651531Y-93357129D01*
X168651531Y-93357129D02*
X168604170Y-93452496D01*
X168604170Y-93452496D02*
X168556681Y-93500244D01*
X168556681Y-93500244D02*
X168461572Y-93548121D01*
X168461572Y-93548121D02*
X168271225Y-93596256D01*
X168271225Y-93596256D02*
X168033131Y-93596901D01*
X168033131Y-93596901D02*
X167842526Y-93549798D01*
X167842526Y-93549798D02*
X167747160Y-93502438D01*
X167747160Y-93502438D02*
X167699412Y-93454948D01*
X167699412Y-93454948D02*
X167651535Y-93359839D01*
X167651535Y-93359839D02*
X167651277Y-93264601D01*
X167651277Y-93264601D02*
X167698637Y-93169234D01*
X167698637Y-93169234D02*
X167746127Y-93121487D01*
X167746127Y-93121487D02*
X167841236Y-93073610D01*
X167841236Y-93073610D02*
X168031582Y-93025474D01*
X168031582Y-93025474D02*
X168269677Y-93024829D01*
X168269677Y-93024829D02*
X168460281Y-93071932D01*
X168460281Y-93071932D02*
X168555648Y-93119293D01*
X168555648Y-93119293D02*
X168603396Y-93166783D01*
X168603396Y-93166783D02*
X168651273Y-93261891D01*
X168653854Y-94214269D02*
X168654112Y-94309506D01*
X168654112Y-94309506D02*
X168606751Y-94404873D01*
X168606751Y-94404873D02*
X168559261Y-94452621D01*
X168559261Y-94452621D02*
X168464153Y-94500498D01*
X168464153Y-94500498D02*
X168273806Y-94548633D01*
X168273806Y-94548633D02*
X168035712Y-94549278D01*
X168035712Y-94549278D02*
X167845107Y-94502176D01*
X167845107Y-94502176D02*
X167749741Y-94454815D01*
X167749741Y-94454815D02*
X167701993Y-94407325D01*
X167701993Y-94407325D02*
X167654116Y-94312216D01*
X167654116Y-94312216D02*
X167653858Y-94216979D01*
X167653858Y-94216979D02*
X167701218Y-94121612D01*
X167701218Y-94121612D02*
X167748708Y-94073864D01*
X167748708Y-94073864D02*
X167843817Y-94025987D01*
X167843817Y-94025987D02*
X168034163Y-93977852D01*
X168034163Y-93977852D02*
X168272258Y-93977207D01*
X168272258Y-93977207D02*
X168462862Y-94024309D01*
X168462862Y-94024309D02*
X168558229Y-94071670D01*
X168558229Y-94071670D02*
X168605977Y-94119160D01*
X168605977Y-94119160D02*
X168653854Y-94214269D01*
X167657987Y-95740783D02*
X168324651Y-95738976D01*
X168657984Y-95738073D02*
X168610236Y-95690583D01*
X168610236Y-95690583D02*
X168562746Y-95738331D01*
X168562746Y-95738331D02*
X168610494Y-95785821D01*
X168610494Y-95785821D02*
X168657984Y-95738073D01*
X168657984Y-95738073D02*
X168562746Y-95738331D01*
X168325942Y-96215165D02*
X167659278Y-96216971D01*
X168230704Y-96215423D02*
X168278452Y-96262912D01*
X168278452Y-96262912D02*
X168326329Y-96358021D01*
X168326329Y-96358021D02*
X168326716Y-96500878D01*
X168326716Y-96500878D02*
X168279355Y-96596245D01*
X168279355Y-96596245D02*
X168184247Y-96644122D01*
X168184247Y-96644122D02*
X167660439Y-96645541D01*
X153747657Y-46367509D02*
X167415323Y-46330469D01*
X154001657Y-140093509D02*
X167669323Y-140056469D01*
X166828905Y-46332058D02*
X167082905Y-140058058D01*
X166828905Y-46332058D02*
X167082905Y-140058058D01*
X166828905Y-46332058D02*
X167418376Y-47456968D01*
X166828905Y-46332058D02*
X166245539Y-47460147D01*
X167082905Y-140058058D02*
X166493434Y-138933148D01*
X167082905Y-140058058D02*
X167666271Y-138929969D01*
X166828905Y-46332058D02*
X167082905Y-140058058D01*
X166828905Y-46332058D02*
X167082905Y-140058058D01*
X166828905Y-46332058D02*
X167418376Y-47456968D01*
X166828905Y-46332058D02*
X166245539Y-47460147D01*
X167082905Y-140058058D02*
X166493434Y-138933148D01*
X167082905Y-140058058D02*
X167666271Y-138929969D01*
X109250586Y-161940898D02*
X109155348Y-161893279D01*
X109155348Y-161893279D02*
X109107729Y-161845660D01*
X109107729Y-161845660D02*
X109060110Y-161750422D01*
X109060110Y-161750422D02*
X109060110Y-161702803D01*
X109060110Y-161702803D02*
X109107729Y-161607565D01*
X109107729Y-161607565D02*
X109155348Y-161559946D01*
X109155348Y-161559946D02*
X109250586Y-161512327D01*
X109250586Y-161512327D02*
X109441062Y-161512327D01*
X109441062Y-161512327D02*
X109536300Y-161559946D01*
X109536300Y-161559946D02*
X109583919Y-161607565D01*
X109583919Y-161607565D02*
X109631538Y-161702803D01*
X109631538Y-161702803D02*
X109631538Y-161750422D01*
X109631538Y-161750422D02*
X109583919Y-161845660D01*
X109583919Y-161845660D02*
X109536300Y-161893279D01*
X109536300Y-161893279D02*
X109441062Y-161940898D01*
X109441062Y-161940898D02*
X109250586Y-161940898D01*
X109250586Y-161940898D02*
X109155348Y-161988517D01*
X109155348Y-161988517D02*
X109107729Y-162036136D01*
X109107729Y-162036136D02*
X109060110Y-162131374D01*
X109060110Y-162131374D02*
X109060110Y-162321850D01*
X109060110Y-162321850D02*
X109107729Y-162417088D01*
X109107729Y-162417088D02*
X109155348Y-162464708D01*
X109155348Y-162464708D02*
X109250586Y-162512327D01*
X109250586Y-162512327D02*
X109441062Y-162512327D01*
X109441062Y-162512327D02*
X109536300Y-162464708D01*
X109536300Y-162464708D02*
X109583919Y-162417088D01*
X109583919Y-162417088D02*
X109631538Y-162321850D01*
X109631538Y-162321850D02*
X109631538Y-162131374D01*
X109631538Y-162131374D02*
X109583919Y-162036136D01*
X109583919Y-162036136D02*
X109536300Y-161988517D01*
X109536300Y-161988517D02*
X109441062Y-161940898D01*
X110250586Y-161512327D02*
X110345824Y-161512327D01*
X110345824Y-161512327D02*
X110441062Y-161559946D01*
X110441062Y-161559946D02*
X110488681Y-161607565D01*
X110488681Y-161607565D02*
X110536300Y-161702803D01*
X110536300Y-161702803D02*
X110583919Y-161893279D01*
X110583919Y-161893279D02*
X110583919Y-162131374D01*
X110583919Y-162131374D02*
X110536300Y-162321850D01*
X110536300Y-162321850D02*
X110488681Y-162417088D01*
X110488681Y-162417088D02*
X110441062Y-162464708D01*
X110441062Y-162464708D02*
X110345824Y-162512327D01*
X110345824Y-162512327D02*
X110250586Y-162512327D01*
X110250586Y-162512327D02*
X110155348Y-162464708D01*
X110155348Y-162464708D02*
X110107729Y-162417088D01*
X110107729Y-162417088D02*
X110060110Y-162321850D01*
X110060110Y-162321850D02*
X110012491Y-162131374D01*
X110012491Y-162131374D02*
X110012491Y-161893279D01*
X110012491Y-161893279D02*
X110060110Y-161702803D01*
X110060110Y-161702803D02*
X110107729Y-161607565D01*
X110107729Y-161607565D02*
X110155348Y-161559946D01*
X110155348Y-161559946D02*
X110250586Y-161512327D01*
X111012491Y-162417088D02*
X111060110Y-162464708D01*
X111060110Y-162464708D02*
X111012491Y-162512327D01*
X111012491Y-162512327D02*
X110964872Y-162464708D01*
X110964872Y-162464708D02*
X111012491Y-162417088D01*
X111012491Y-162417088D02*
X111012491Y-162512327D01*
X111917252Y-161512327D02*
X111726776Y-161512327D01*
X111726776Y-161512327D02*
X111631538Y-161559946D01*
X111631538Y-161559946D02*
X111583919Y-161607565D01*
X111583919Y-161607565D02*
X111488681Y-161750422D01*
X111488681Y-161750422D02*
X111441062Y-161940898D01*
X111441062Y-161940898D02*
X111441062Y-162321850D01*
X111441062Y-162321850D02*
X111488681Y-162417088D01*
X111488681Y-162417088D02*
X111536300Y-162464708D01*
X111536300Y-162464708D02*
X111631538Y-162512327D01*
X111631538Y-162512327D02*
X111822014Y-162512327D01*
X111822014Y-162512327D02*
X111917252Y-162464708D01*
X111917252Y-162464708D02*
X111964871Y-162417088D01*
X111964871Y-162417088D02*
X112012490Y-162321850D01*
X112012490Y-162321850D02*
X112012490Y-162083755D01*
X112012490Y-162083755D02*
X111964871Y-161988517D01*
X111964871Y-161988517D02*
X111917252Y-161940898D01*
X111917252Y-161940898D02*
X111822014Y-161893279D01*
X111822014Y-161893279D02*
X111631538Y-161893279D01*
X111631538Y-161893279D02*
X111536300Y-161940898D01*
X111536300Y-161940898D02*
X111488681Y-161988517D01*
X111488681Y-161988517D02*
X111441062Y-162083755D01*
X112869633Y-161845660D02*
X112869633Y-162512327D01*
X112631538Y-161464708D02*
X112393443Y-162178993D01*
X112393443Y-162178993D02*
X113012490Y-162178993D01*
X113869633Y-161512327D02*
X113393443Y-161512327D01*
X113393443Y-161512327D02*
X113345824Y-161988517D01*
X113345824Y-161988517D02*
X113393443Y-161940898D01*
X113393443Y-161940898D02*
X113488681Y-161893279D01*
X113488681Y-161893279D02*
X113726776Y-161893279D01*
X113726776Y-161893279D02*
X113822014Y-161940898D01*
X113822014Y-161940898D02*
X113869633Y-161988517D01*
X113869633Y-161988517D02*
X113917252Y-162083755D01*
X113917252Y-162083755D02*
X113917252Y-162321850D01*
X113917252Y-162321850D02*
X113869633Y-162417088D01*
X113869633Y-162417088D02*
X113822014Y-162464708D01*
X113822014Y-162464708D02*
X113726776Y-162512327D01*
X113726776Y-162512327D02*
X113488681Y-162512327D01*
X113488681Y-162512327D02*
X113393443Y-162464708D01*
X113393443Y-162464708D02*
X113345824Y-162417088D01*
X114536300Y-161512327D02*
X114631538Y-161512327D01*
X114631538Y-161512327D02*
X114726776Y-161559946D01*
X114726776Y-161559946D02*
X114774395Y-161607565D01*
X114774395Y-161607565D02*
X114822014Y-161702803D01*
X114822014Y-161702803D02*
X114869633Y-161893279D01*
X114869633Y-161893279D02*
X114869633Y-162131374D01*
X114869633Y-162131374D02*
X114822014Y-162321850D01*
X114822014Y-162321850D02*
X114774395Y-162417088D01*
X114774395Y-162417088D02*
X114726776Y-162464708D01*
X114726776Y-162464708D02*
X114631538Y-162512327D01*
X114631538Y-162512327D02*
X114536300Y-162512327D01*
X114536300Y-162512327D02*
X114441062Y-162464708D01*
X114441062Y-162464708D02*
X114393443Y-162417088D01*
X114393443Y-162417088D02*
X114345824Y-162321850D01*
X114345824Y-162321850D02*
X114298205Y-162131374D01*
X114298205Y-162131374D02*
X114298205Y-161893279D01*
X114298205Y-161893279D02*
X114345824Y-161702803D01*
X114345824Y-161702803D02*
X114393443Y-161607565D01*
X114393443Y-161607565D02*
X114441062Y-161559946D01*
X114441062Y-161559946D02*
X114536300Y-161512327D01*
X116060110Y-162512327D02*
X116060110Y-161845660D01*
X116060110Y-161940898D02*
X116107729Y-161893279D01*
X116107729Y-161893279D02*
X116202967Y-161845660D01*
X116202967Y-161845660D02*
X116345824Y-161845660D01*
X116345824Y-161845660D02*
X116441062Y-161893279D01*
X116441062Y-161893279D02*
X116488681Y-161988517D01*
X116488681Y-161988517D02*
X116488681Y-162512327D01*
X116488681Y-161988517D02*
X116536300Y-161893279D01*
X116536300Y-161893279D02*
X116631538Y-161845660D01*
X116631538Y-161845660D02*
X116774395Y-161845660D01*
X116774395Y-161845660D02*
X116869634Y-161893279D01*
X116869634Y-161893279D02*
X116917253Y-161988517D01*
X116917253Y-161988517D02*
X116917253Y-162512327D01*
X117393443Y-162512327D02*
X117393443Y-161845660D01*
X117393443Y-161940898D02*
X117441062Y-161893279D01*
X117441062Y-161893279D02*
X117536300Y-161845660D01*
X117536300Y-161845660D02*
X117679157Y-161845660D01*
X117679157Y-161845660D02*
X117774395Y-161893279D01*
X117774395Y-161893279D02*
X117822014Y-161988517D01*
X117822014Y-161988517D02*
X117822014Y-162512327D01*
X117822014Y-161988517D02*
X117869633Y-161893279D01*
X117869633Y-161893279D02*
X117964871Y-161845660D01*
X117964871Y-161845660D02*
X118107728Y-161845660D01*
X118107728Y-161845660D02*
X118202967Y-161893279D01*
X118202967Y-161893279D02*
X118250586Y-161988517D01*
X118250586Y-161988517D02*
X118250586Y-162512327D01*
X154001657Y-140093509D02*
X154001657Y-163793928D01*
X73356657Y-140093509D02*
X73356657Y-163793928D01*
X154001657Y-163207508D02*
X73356657Y-163207508D01*
X154001657Y-163207508D02*
X73356657Y-163207508D01*
X154001657Y-163207508D02*
X152875153Y-163793929D01*
X154001657Y-163207508D02*
X152875153Y-162621087D01*
X73356657Y-163207508D02*
X74483161Y-162621087D01*
X73356657Y-163207508D02*
X74483161Y-163793929D01*
X154001657Y-163207508D02*
X73356657Y-163207508D01*
X154001657Y-163207508D02*
X73356657Y-163207508D01*
X154001657Y-163207508D02*
X152875153Y-163793929D01*
X154001657Y-163207508D02*
X152875153Y-162621087D01*
X73356657Y-163207508D02*
X74483161Y-162621087D01*
X73356657Y-163207508D02*
X74483161Y-163793929D01*
D12*
X127181407Y-133738095D02*
X126781407Y-133738095D01*
X127181407Y-133509524D02*
X126952836Y-133680953D01*
X126781407Y-133509524D02*
X127009979Y-133738095D01*
X126971883Y-133338095D02*
X126971883Y-133204762D01*
X127181407Y-133147619D02*
X127181407Y-133338095D01*
X127181407Y-133338095D02*
X126781407Y-133338095D01*
X126781407Y-133338095D02*
X126781407Y-133147619D01*
X126971883Y-132976190D02*
X126971883Y-132842857D01*
X127181407Y-132785714D02*
X127181407Y-132976190D01*
X127181407Y-132976190D02*
X126781407Y-132976190D01*
X126781407Y-132976190D02*
X126781407Y-132785714D01*
X127181407Y-132614285D02*
X126781407Y-132614285D01*
X126781407Y-132614285D02*
X126781407Y-132461904D01*
X126781407Y-132461904D02*
X126800455Y-132423809D01*
X126800455Y-132423809D02*
X126819502Y-132404762D01*
X126819502Y-132404762D02*
X126857598Y-132385714D01*
X126857598Y-132385714D02*
X126914740Y-132385714D01*
X126914740Y-132385714D02*
X126952836Y-132404762D01*
X126952836Y-132404762D02*
X126971883Y-132423809D01*
X126971883Y-132423809D02*
X126990931Y-132461904D01*
X126990931Y-132461904D02*
X126990931Y-132614285D01*
X126781407Y-132138095D02*
X126781407Y-132061904D01*
X126781407Y-132061904D02*
X126800455Y-132023809D01*
X126800455Y-132023809D02*
X126838550Y-131985714D01*
X126838550Y-131985714D02*
X126914740Y-131966666D01*
X126914740Y-131966666D02*
X127048074Y-131966666D01*
X127048074Y-131966666D02*
X127124264Y-131985714D01*
X127124264Y-131985714D02*
X127162360Y-132023809D01*
X127162360Y-132023809D02*
X127181407Y-132061904D01*
X127181407Y-132061904D02*
X127181407Y-132138095D01*
X127181407Y-132138095D02*
X127162360Y-132176190D01*
X127162360Y-132176190D02*
X127124264Y-132214285D01*
X127124264Y-132214285D02*
X127048074Y-132233333D01*
X127048074Y-132233333D02*
X126914740Y-132233333D01*
X126914740Y-132233333D02*
X126838550Y-132214285D01*
X126838550Y-132214285D02*
X126800455Y-132176190D01*
X126800455Y-132176190D02*
X126781407Y-132138095D01*
X126781407Y-131795237D02*
X127105217Y-131795237D01*
X127105217Y-131795237D02*
X127143312Y-131776190D01*
X127143312Y-131776190D02*
X127162360Y-131757142D01*
X127162360Y-131757142D02*
X127181407Y-131719047D01*
X127181407Y-131719047D02*
X127181407Y-131642856D01*
X127181407Y-131642856D02*
X127162360Y-131604761D01*
X127162360Y-131604761D02*
X127143312Y-131585714D01*
X127143312Y-131585714D02*
X127105217Y-131566666D01*
X127105217Y-131566666D02*
X126781407Y-131566666D01*
X126781407Y-131433332D02*
X126781407Y-131204761D01*
X127181407Y-131319047D02*
X126781407Y-131319047D01*
D11*
%TO.C,J1*%
X73393657Y-59533009D02*
X73395257Y-128375851D01*
X73393657Y-59533009D02*
X78689557Y-46394509D01*
X78656857Y-42162709D02*
X78656857Y-54645709D01*
X78689557Y-46394509D02*
X148634957Y-46394509D01*
X85638253Y-140066909D02*
X73395257Y-128375851D01*
X85638253Y-140066909D02*
X141740261Y-140066909D01*
X148634957Y-46394509D02*
X153981657Y-59533009D01*
X148656857Y-42162709D02*
X78656857Y-42162709D01*
X148656857Y-42162709D02*
X148656857Y-54645709D01*
X153981657Y-59533009D02*
X153983257Y-128375851D01*
X153983257Y-128375851D02*
X141740261Y-140066909D01*
X80720057Y-73953810D02*
G75*
G02*
X77443457Y-73953810I-1638300J0D01*
G01*
X77443457Y-73953810D02*
G75*
G02*
X80720057Y-73953810I1638300J0D01*
G01*
D10*
X85254857Y-66285509D02*
G75*
G02*
X77431657Y-66285509I-3911600J0D01*
G01*
X77431657Y-66285509D02*
G75*
G02*
X85254857Y-66285509I3911600J0D01*
G01*
D11*
X83145758Y-66295709D02*
G75*
G02*
X79564358Y-66295709I-1790700J0D01*
G01*
X79564358Y-66295709D02*
G75*
G02*
X83145758Y-66295709I1790700J0D01*
G01*
X88644857Y-128563809D02*
G75*
G02*
X85063457Y-128563809I-1790700J0D01*
G01*
X85063457Y-128563809D02*
G75*
G02*
X88644857Y-128563809I1790700J0D01*
G01*
D10*
X90690457Y-128566309D02*
G75*
G02*
X83019657Y-128566309I-3835400J0D01*
G01*
X83019657Y-128566309D02*
G75*
G02*
X90690457Y-128566309I3835400J0D01*
G01*
D11*
X136879457Y-123864809D02*
G75*
G02*
X133602857Y-123864809I-1638300J0D01*
G01*
X133602857Y-123864809D02*
G75*
G02*
X136879457Y-123864809I1638300J0D01*
G01*
X142315057Y-128563809D02*
G75*
G02*
X138733657Y-128563809I-1790700J0D01*
G01*
X138733657Y-128563809D02*
G75*
G02*
X142315057Y-128563809I1790700J0D01*
G01*
D10*
X144436857Y-128566309D02*
G75*
G02*
X136613657Y-128566309I-3911600J0D01*
G01*
X136613657Y-128566309D02*
G75*
G02*
X144436857Y-128566309I3911600J0D01*
G01*
X150024857Y-66310909D02*
G75*
G02*
X141998457Y-66310909I-4013200J0D01*
G01*
X141998457Y-66310909D02*
G75*
G02*
X150024857Y-66310909I4013200J0D01*
G01*
D11*
X147814156Y-66295709D02*
G75*
G02*
X144232756Y-66295709I-1790700J0D01*
G01*
X144232756Y-66295709D02*
G75*
G02*
X147814156Y-66295709I1790700J0D01*
G01*
%TD*%
M02*
