%TF.GenerationSoftware,KiCad,Pcbnew,8.99.0-unknown-1.20241217gite6b7397.fc40*%
%TF.CreationDate,2024-12-24T22:56:10-03:00*%
%TF.ProjectId,hw_v1,68775f76-312e-46b6-9963-61645f706362,rev?*%
%TF.SameCoordinates,Original*%
%TF.FileFunction,Other,Comment*%
%FSLAX46Y46*%
G04 Gerber Fmt 4.6, Leading zero omitted, Abs format (unit mm)*
G04 Created by KiCad (PCBNEW 8.99.0-unknown-1.20241217gite6b7397.fc40) date 2024-12-24 22:56:10*
%MOMM*%
%LPD*%
G01*
G04 APERTURE LIST*
%ADD10C,0.150000*%
%ADD11C,0.200000*%
%ADD12C,0.070000*%
G04 APERTURE END LIST*
D10*
X75322657Y-128918309D02*
X75322657Y-130823309D01*
X149617657Y-131458309D02*
X152157657Y-130823309D01*
D11*
X155217800Y-58935152D02*
X155217800Y-128993660D01*
X70204000Y-58551109D02*
X70204000Y-129928541D01*
X72896400Y-140037741D02*
G75*
G02*
X69670600Y-140037741I-1612900J0D01*
G01*
X69670600Y-140037741D02*
G75*
G02*
X72896400Y-140037741I1612900J0D01*
G01*
D10*
X74687657Y-58433309D02*
X73417657Y-57163309D01*
X96277657Y-139713309D02*
X101357657Y-140983309D01*
X114057657Y-139713309D02*
X120407657Y-141618309D01*
D11*
X151687200Y-54058742D02*
G75*
G02*
X152499958Y-54871542I-300J-813058D01*
G01*
D10*
X73417657Y-85103309D02*
X74687657Y-87643309D01*
D11*
X72413800Y-58935152D02*
X72413800Y-128993660D01*
X85654100Y-141841141D02*
X141977500Y-141841141D01*
X66825800Y-42196941D02*
G75*
G02*
X70585000Y-38437700I3759200J41D01*
G01*
D10*
X72782657Y-123838309D02*
X74687657Y-126378309D01*
D11*
X149604400Y-40622141D02*
X152449200Y-42120741D01*
X152253218Y-128083325D02*
X141112139Y-138893865D01*
D10*
X154697657Y-84468309D02*
X153427657Y-81928309D01*
X75322657Y-130823309D02*
X77862657Y-131458309D01*
X153427657Y-119393309D02*
X154697657Y-116218309D01*
X154697657Y-94628309D02*
X153427657Y-92088309D01*
X73417657Y-79388309D02*
X74687657Y-82563309D01*
X89292657Y-139713309D02*
X92467657Y-140983309D01*
X153427657Y-97168309D02*
X154697657Y-94628309D01*
X146442657Y-137173309D02*
X145807657Y-135268309D01*
X149617657Y-133998309D02*
X149617657Y-131458309D01*
D11*
X75182400Y-44660741D02*
X70204000Y-58551109D01*
X160805800Y-142476141D02*
X160805800Y-42196941D01*
D10*
X73417657Y-108598309D02*
X74687657Y-111138309D01*
D11*
X84758201Y-144050941D02*
X142873399Y-144050941D01*
D10*
X150887657Y-52718309D02*
X151522657Y-50178309D01*
D11*
X157046600Y-38437741D02*
G75*
G02*
X160805759Y-42196941I-200J-3759359D01*
G01*
D10*
X109612657Y-140983309D02*
X114057657Y-139713309D01*
D11*
X157961000Y-140037741D02*
G75*
G02*
X154735200Y-140037741I-1612900J0D01*
G01*
X154735200Y-140037741D02*
G75*
G02*
X157961000Y-140037741I1612900J0D01*
G01*
X152449200Y-42120741D02*
X152449200Y-44660741D01*
D10*
X77862657Y-47638309D02*
X77227657Y-46368309D01*
D11*
X157046600Y-38437742D02*
X142708300Y-38437741D01*
D10*
X76592657Y-49543309D02*
X77862657Y-47638309D01*
D11*
X89927100Y-40622141D02*
X78027200Y-40622141D01*
X121651700Y-146743340D02*
G75*
G02*
X122159700Y-146235300I508000J40D01*
G01*
D10*
X77862657Y-131458309D02*
X78497657Y-133363309D01*
D11*
X137704500Y-40622141D02*
X149604400Y-40622141D01*
X157427600Y-58551109D02*
X157427600Y-129928541D01*
D10*
X73417657Y-119393309D02*
X74687657Y-121298309D01*
X74687657Y-82563309D02*
X73417657Y-85103309D01*
X72782657Y-68593309D02*
X74687657Y-71768309D01*
X74052657Y-116218309D02*
X73417657Y-119393309D01*
X153427657Y-92088309D02*
X154697657Y-89548309D01*
X153427657Y-81928309D02*
X154697657Y-79388309D01*
D11*
X77392200Y-43454314D02*
X77392200Y-45044784D01*
X105471900Y-146235340D02*
X70585000Y-146235340D01*
D10*
X153427657Y-114313309D02*
X154697657Y-111138309D01*
X140727657Y-140983309D02*
X143902657Y-137808309D01*
D11*
X152500000Y-127500000D02*
G75*
G02*
X152253197Y-128083303I-812700J0D01*
G01*
X155217800Y-128993660D02*
X141977500Y-141841141D01*
D10*
X92467657Y-140983309D02*
X96277657Y-139713309D01*
D11*
X149019258Y-42831941D02*
X149019258Y-51823542D01*
X66825800Y-142476140D02*
X66825801Y-42196941D01*
D10*
X76592657Y-53988309D02*
X78497657Y-53353309D01*
X74687657Y-77483309D02*
X73417657Y-79388309D01*
X74687657Y-126378309D02*
X73417657Y-127648309D01*
X74687657Y-66688309D02*
X72782657Y-68593309D01*
X73417657Y-127648309D02*
X75322657Y-128918309D01*
X131837657Y-140983309D02*
X136282657Y-139713309D01*
D11*
X160805799Y-142476141D02*
G75*
G02*
X157046599Y-146235299I-3759199J41D01*
G01*
X157961000Y-44635341D02*
G75*
G02*
X154735200Y-44635341I-1612900J0D01*
G01*
X154735200Y-44635341D02*
G75*
G02*
X157961000Y-44635341I1612900J0D01*
G01*
D10*
X81037657Y-134633309D02*
X82942657Y-138443309D01*
X82942657Y-138443309D02*
X84847657Y-138443309D01*
X149617657Y-49543309D02*
X150252657Y-47003309D01*
X74687657Y-97168309D02*
X72782657Y-101613309D01*
X74687657Y-121298309D02*
X72782657Y-123838309D01*
X154697657Y-89548309D02*
X153427657Y-87008309D01*
X153427657Y-108598309D02*
X154697657Y-105423309D01*
X74687657Y-62878309D02*
X72782657Y-64783309D01*
X154697657Y-111138309D02*
X153427657Y-108598309D01*
X153427657Y-58433309D02*
X153427657Y-55893309D01*
X153427657Y-76848309D02*
X154697657Y-73038309D01*
D11*
X141112139Y-138893865D02*
G75*
G02*
X140546121Y-139123357I-566139J583565D01*
G01*
X75131601Y-54871541D02*
X75131600Y-127500000D01*
X157046599Y-146235341D02*
X122159700Y-146235340D01*
D10*
X77862657Y-51448309D02*
X76592657Y-49543309D01*
D11*
X140999567Y-70377685D02*
X86632033Y-70377685D01*
D10*
X72782657Y-95263309D02*
X74687657Y-97168309D01*
X84847657Y-138443309D02*
X85482657Y-140348309D01*
D11*
X149057946Y-42831941D02*
X150239400Y-43454314D01*
D10*
X143902657Y-137808309D02*
X146442657Y-137173309D01*
X145807657Y-135268309D02*
X149617657Y-133998309D01*
X120407657Y-141618309D02*
X124852657Y-139713309D01*
D11*
X72413800Y-128993660D02*
X85654100Y-141841141D01*
D10*
X152157657Y-129553309D02*
X154697657Y-128283309D01*
X136282657Y-139713309D02*
X140727657Y-140983309D01*
D11*
X77392200Y-45044784D02*
X72413800Y-58935152D01*
D10*
X72782657Y-64783309D02*
X74687657Y-66688309D01*
X85482657Y-140348309D02*
X89292657Y-139713309D01*
X75957657Y-52083309D02*
X77862657Y-51448309D01*
X152792657Y-53353309D02*
X150887657Y-52718309D01*
X74687657Y-92723309D02*
X72782657Y-95263309D01*
D11*
X87085479Y-139123340D02*
X140546121Y-139123340D01*
D10*
X73417657Y-114948309D02*
X74052657Y-116218309D01*
D11*
X78027200Y-40622141D02*
X75182400Y-42120741D01*
D10*
X154697657Y-105423309D02*
X153427657Y-102883309D01*
D11*
X105471900Y-146235340D02*
G75*
G02*
X105979860Y-146743340I-200J-508160D01*
G01*
X84923300Y-38437741D02*
X70585000Y-38437741D01*
D10*
X74687657Y-87643309D02*
X72782657Y-90818309D01*
D11*
X78612342Y-42831941D02*
X78612342Y-51823541D01*
D10*
X154697657Y-64783309D02*
X153427657Y-58433309D01*
D11*
X75131601Y-54871541D02*
G75*
G02*
X75944401Y-54058701I812799J41D01*
G01*
D10*
X78497657Y-53353309D02*
X78497657Y-52718309D01*
D11*
X75182400Y-42120741D02*
X75182400Y-44660741D01*
D10*
X154697657Y-99708309D02*
X153427657Y-97168309D01*
D11*
X150239400Y-43454314D02*
X150239400Y-45044784D01*
X152449200Y-44660741D02*
X157427600Y-58551109D01*
D10*
X74687657Y-71768309D02*
X72782657Y-74308309D01*
D11*
X70204000Y-129928541D02*
X84758201Y-144050941D01*
D10*
X78497657Y-133363309D02*
X81037657Y-134633309D01*
X151522657Y-50178309D02*
X149617657Y-49543309D01*
X150252657Y-47003309D02*
X149617657Y-45733309D01*
X72782657Y-101613309D02*
X74687657Y-103518309D01*
D11*
X75378382Y-128083325D02*
X86519461Y-138893865D01*
D10*
X149617657Y-53353309D02*
X148982657Y-52083309D01*
X154697657Y-122568309D02*
X153427657Y-119393309D01*
X72782657Y-90818309D02*
X74687657Y-92723309D01*
X153427657Y-87008309D02*
X154697657Y-84468309D01*
X74687657Y-53988309D02*
X75957657Y-52083309D01*
D11*
X70585000Y-146235340D02*
G75*
G02*
X66825760Y-142476140I-100J3759140D01*
G01*
X152500000Y-54871542D02*
X152499999Y-127500000D01*
D10*
X154697657Y-128283309D02*
X153427657Y-125108309D01*
X153427657Y-125108309D02*
X154697657Y-122568309D01*
X74687657Y-55258309D02*
X74687657Y-53988309D01*
X73417657Y-57163309D02*
X74687657Y-55258309D01*
D11*
X122159700Y-146235340D02*
X105471900Y-146235340D01*
D10*
X154697657Y-79388309D02*
X153427657Y-76848309D01*
X154697657Y-73038309D02*
X153427657Y-69228309D01*
X101357657Y-140983309D02*
X105167657Y-139713309D01*
X151522657Y-53988309D02*
X149617657Y-53353309D01*
D11*
X75378382Y-128083325D02*
G75*
G02*
X75131600Y-127500000I566018J583325D01*
G01*
D10*
X74687657Y-62878309D02*
X73417657Y-60973309D01*
X74687657Y-111138309D02*
X73417657Y-114948309D01*
X72782657Y-74308309D02*
X74687657Y-77483309D01*
X73417657Y-60973309D02*
X74687657Y-58433309D01*
D11*
X72896400Y-44635341D02*
G75*
G02*
X69670600Y-44635341I-1612900J0D01*
G01*
X69670600Y-44635341D02*
G75*
G02*
X72896400Y-44635341I1612900J0D01*
G01*
X87085479Y-139123341D02*
G75*
G02*
X86519443Y-138893883I21J812941D01*
G01*
D10*
X153427657Y-55893309D02*
X152792657Y-53353309D01*
D11*
X150239400Y-45044784D02*
X155217800Y-58935152D01*
D10*
X74687657Y-103518309D02*
X73417657Y-108598309D01*
D11*
X157427600Y-129928541D02*
X142873399Y-144050941D01*
X78573654Y-42831941D02*
X77392200Y-43454314D01*
D10*
X153427657Y-69228309D02*
X154697657Y-64783309D01*
X105167657Y-139713309D02*
X109612657Y-140983309D01*
X153427657Y-102883309D02*
X154697657Y-99708309D01*
X152157657Y-130823309D02*
X152157657Y-129553309D01*
X154697657Y-116218309D02*
X153427657Y-114313309D01*
X124852657Y-139713309D02*
X131837657Y-140983309D01*
X110131538Y-158464328D02*
X110750585Y-158464328D01*
X110750585Y-158464328D02*
X110417252Y-158845280D01*
X110417252Y-158845280D02*
X110560109Y-158845280D01*
X110560109Y-158845280D02*
X110655347Y-158892899D01*
X110655347Y-158892899D02*
X110702966Y-158940518D01*
X110702966Y-158940518D02*
X110750585Y-159035756D01*
X110750585Y-159035756D02*
X110750585Y-159273851D01*
X110750585Y-159273851D02*
X110702966Y-159369089D01*
X110702966Y-159369089D02*
X110655347Y-159416709D01*
X110655347Y-159416709D02*
X110560109Y-159464328D01*
X110560109Y-159464328D02*
X110274395Y-159464328D01*
X110274395Y-159464328D02*
X110179157Y-159416709D01*
X110179157Y-159416709D02*
X110131538Y-159369089D01*
X111179157Y-159369089D02*
X111226776Y-159416709D01*
X111226776Y-159416709D02*
X111179157Y-159464328D01*
X111179157Y-159464328D02*
X111131538Y-159416709D01*
X111131538Y-159416709D02*
X111179157Y-159369089D01*
X111179157Y-159369089D02*
X111179157Y-159464328D01*
X112179156Y-159464328D02*
X111607728Y-159464328D01*
X111893442Y-159464328D02*
X111893442Y-158464328D01*
X111893442Y-158464328D02*
X111798204Y-158607185D01*
X111798204Y-158607185D02*
X111702966Y-158702423D01*
X111702966Y-158702423D02*
X111607728Y-158750042D01*
X112512490Y-158464328D02*
X113179156Y-158464328D01*
X113179156Y-158464328D02*
X112750585Y-159464328D01*
X114036299Y-158464328D02*
X113560109Y-158464328D01*
X113560109Y-158464328D02*
X113512490Y-158940518D01*
X113512490Y-158940518D02*
X113560109Y-158892899D01*
X113560109Y-158892899D02*
X113655347Y-158845280D01*
X113655347Y-158845280D02*
X113893442Y-158845280D01*
X113893442Y-158845280D02*
X113988680Y-158892899D01*
X113988680Y-158892899D02*
X114036299Y-158940518D01*
X114036299Y-158940518D02*
X114083918Y-159035756D01*
X114083918Y-159035756D02*
X114083918Y-159273851D01*
X114083918Y-159273851D02*
X114036299Y-159369089D01*
X114036299Y-159369089D02*
X113988680Y-159416709D01*
X113988680Y-159416709D02*
X113893442Y-159464328D01*
X113893442Y-159464328D02*
X113655347Y-159464328D01*
X113655347Y-159464328D02*
X113560109Y-159416709D01*
X113560109Y-159416709D02*
X113512490Y-159369089D01*
X114702966Y-158464328D02*
X114798204Y-158464328D01*
X114798204Y-158464328D02*
X114893442Y-158511947D01*
X114893442Y-158511947D02*
X114941061Y-158559566D01*
X114941061Y-158559566D02*
X114988680Y-158654804D01*
X114988680Y-158654804D02*
X115036299Y-158845280D01*
X115036299Y-158845280D02*
X115036299Y-159083375D01*
X115036299Y-159083375D02*
X114988680Y-159273851D01*
X114988680Y-159273851D02*
X114941061Y-159369089D01*
X114941061Y-159369089D02*
X114893442Y-159416709D01*
X114893442Y-159416709D02*
X114798204Y-159464328D01*
X114798204Y-159464328D02*
X114702966Y-159464328D01*
X114702966Y-159464328D02*
X114607728Y-159416709D01*
X114607728Y-159416709D02*
X114560109Y-159369089D01*
X114560109Y-159369089D02*
X114512490Y-159273851D01*
X114512490Y-159273851D02*
X114464871Y-159083375D01*
X114464871Y-159083375D02*
X114464871Y-158845280D01*
X114464871Y-158845280D02*
X114512490Y-158654804D01*
X114512490Y-158654804D02*
X114560109Y-158559566D01*
X114560109Y-158559566D02*
X114607728Y-158511947D01*
X114607728Y-158511947D02*
X114702966Y-158464328D01*
X116226776Y-159464328D02*
X116226776Y-158797661D01*
X116226776Y-158464328D02*
X116179157Y-158511947D01*
X116179157Y-158511947D02*
X116226776Y-158559566D01*
X116226776Y-158559566D02*
X116274395Y-158511947D01*
X116274395Y-158511947D02*
X116226776Y-158464328D01*
X116226776Y-158464328D02*
X116226776Y-158559566D01*
X116702966Y-158797661D02*
X116702966Y-159464328D01*
X116702966Y-158892899D02*
X116750585Y-158845280D01*
X116750585Y-158845280D02*
X116845823Y-158797661D01*
X116845823Y-158797661D02*
X116988680Y-158797661D01*
X116988680Y-158797661D02*
X117083918Y-158845280D01*
X117083918Y-158845280D02*
X117131537Y-158940518D01*
X117131537Y-158940518D02*
X117131537Y-159464328D01*
X154001657Y-140093509D02*
X154001657Y-160745929D01*
X73356657Y-140093509D02*
X73356657Y-160745929D01*
X154001657Y-160159509D02*
X73356657Y-160159509D01*
X154001657Y-160159509D02*
X73356657Y-160159509D01*
X154001657Y-160159509D02*
X152875153Y-160745930D01*
X154001657Y-160159509D02*
X152875153Y-159573088D01*
X73356657Y-160159509D02*
X74483161Y-159573088D01*
X73356657Y-160159509D02*
X74483161Y-160745930D01*
X154001657Y-160159509D02*
X73356657Y-160159509D01*
X154001657Y-160159509D02*
X73356657Y-160159509D01*
X154001657Y-160159509D02*
X152875153Y-160745930D01*
X154001657Y-160159509D02*
X152875153Y-159573088D01*
X73356657Y-160159509D02*
X74483161Y-159573088D01*
X73356657Y-160159509D02*
X74483161Y-160745930D01*
X167638824Y-88669381D02*
X167639340Y-88859856D01*
X167639340Y-88859856D02*
X167687217Y-88954965D01*
X167687217Y-88954965D02*
X167734965Y-89002455D01*
X167734965Y-89002455D02*
X167878079Y-89097306D01*
X167878079Y-89097306D02*
X168068684Y-89144408D01*
X168068684Y-89144408D02*
X168449635Y-89143376D01*
X168449635Y-89143376D02*
X168544744Y-89095499D01*
X168544744Y-89095499D02*
X168592233Y-89047751D01*
X168592233Y-89047751D02*
X168639594Y-88952384D01*
X168639594Y-88952384D02*
X168639078Y-88761909D01*
X168639078Y-88761909D02*
X168591201Y-88666800D01*
X168591201Y-88666800D02*
X168543453Y-88619310D01*
X168543453Y-88619310D02*
X168448086Y-88571949D01*
X168448086Y-88571949D02*
X168209992Y-88572595D01*
X168209992Y-88572595D02*
X168114883Y-88620472D01*
X168114883Y-88620472D02*
X168067393Y-88668220D01*
X168067393Y-88668220D02*
X168020033Y-88763586D01*
X168020033Y-88763586D02*
X168020549Y-88954062D01*
X168020549Y-88954062D02*
X168068426Y-89049171D01*
X168068426Y-89049171D02*
X168116174Y-89096660D01*
X168116174Y-89096660D02*
X168211540Y-89144021D01*
X168641014Y-89476192D02*
X168642691Y-90095237D01*
X168642691Y-90095237D02*
X168260837Y-89762937D01*
X168260837Y-89762937D02*
X168261224Y-89905794D01*
X168261224Y-89905794D02*
X168213863Y-90001161D01*
X168213863Y-90001161D02*
X168166374Y-90048909D01*
X168166374Y-90048909D02*
X168071265Y-90096786D01*
X168071265Y-90096786D02*
X167833170Y-90097431D01*
X167833170Y-90097431D02*
X167737804Y-90050070D01*
X167737804Y-90050070D02*
X167690056Y-90002580D01*
X167690056Y-90002580D02*
X167642179Y-89907472D01*
X167642179Y-89907472D02*
X167641404Y-89621758D01*
X167641404Y-89621758D02*
X167688765Y-89526392D01*
X167688765Y-89526392D02*
X167736255Y-89478644D01*
X167739094Y-90526259D02*
X167691604Y-90574007D01*
X167691604Y-90574007D02*
X167643856Y-90526517D01*
X167643856Y-90526517D02*
X167691346Y-90478769D01*
X167691346Y-90478769D02*
X167739094Y-90526259D01*
X167739094Y-90526259D02*
X167643856Y-90526517D01*
X168644885Y-90904758D02*
X168646692Y-91571422D01*
X168646692Y-91571422D02*
X167645534Y-91145562D01*
X168552357Y-91905012D02*
X168600105Y-91952502D01*
X168600105Y-91952502D02*
X168647982Y-92047611D01*
X168647982Y-92047611D02*
X168648628Y-92285705D01*
X168648628Y-92285705D02*
X168601267Y-92381072D01*
X168601267Y-92381072D02*
X168553777Y-92428820D01*
X168553777Y-92428820D02*
X168458668Y-92476697D01*
X168458668Y-92476697D02*
X168363430Y-92476955D01*
X168363430Y-92476955D02*
X168220445Y-92429723D01*
X168220445Y-92429723D02*
X167647470Y-91859845D01*
X167647470Y-91859845D02*
X167649147Y-92478890D01*
X168651467Y-93333320D02*
X168650950Y-93142845D01*
X168650950Y-93142845D02*
X168603073Y-93047736D01*
X168603073Y-93047736D02*
X168555326Y-93000246D01*
X168555326Y-93000246D02*
X168412211Y-92905396D01*
X168412211Y-92905396D02*
X168221606Y-92858293D01*
X168221606Y-92858293D02*
X167840655Y-92859325D01*
X167840655Y-92859325D02*
X167745547Y-92907202D01*
X167745547Y-92907202D02*
X167698057Y-92954950D01*
X167698057Y-92954950D02*
X167650696Y-93050317D01*
X167650696Y-93050317D02*
X167651212Y-93240792D01*
X167651212Y-93240792D02*
X167699089Y-93335901D01*
X167699089Y-93335901D02*
X167746837Y-93383391D01*
X167746837Y-93383391D02*
X167842204Y-93430752D01*
X167842204Y-93430752D02*
X168080298Y-93430107D01*
X168080298Y-93430107D02*
X168175407Y-93382230D01*
X168175407Y-93382230D02*
X168222897Y-93334482D01*
X168222897Y-93334482D02*
X168270258Y-93239115D01*
X168270258Y-93239115D02*
X168269741Y-93048639D01*
X168269741Y-93048639D02*
X168221864Y-92953531D01*
X168221864Y-92953531D02*
X168174116Y-92906041D01*
X168174116Y-92906041D02*
X168078750Y-92858680D01*
X168652628Y-93761890D02*
X168654306Y-94380935D01*
X168654306Y-94380935D02*
X168272451Y-94048636D01*
X168272451Y-94048636D02*
X168272838Y-94191492D01*
X168272838Y-94191492D02*
X168225478Y-94286859D01*
X168225478Y-94286859D02*
X168177988Y-94334607D01*
X168177988Y-94334607D02*
X168082879Y-94382484D01*
X168082879Y-94382484D02*
X167844785Y-94383129D01*
X167844785Y-94383129D02*
X167749418Y-94335768D01*
X167749418Y-94335768D02*
X167701670Y-94288279D01*
X167701670Y-94288279D02*
X167653793Y-94193170D01*
X167653793Y-94193170D02*
X167653019Y-93907457D01*
X167653019Y-93907457D02*
X167700380Y-93812090D01*
X167700380Y-93812090D02*
X167747869Y-93764342D01*
X167657536Y-95574118D02*
X168324200Y-95572311D01*
X168228962Y-95572569D02*
X168276710Y-95620059D01*
X168276710Y-95620059D02*
X168324587Y-95715168D01*
X168324587Y-95715168D02*
X168324974Y-95858024D01*
X168324974Y-95858024D02*
X168277613Y-95953391D01*
X168277613Y-95953391D02*
X168182505Y-96001268D01*
X168182505Y-96001268D02*
X167658697Y-96002687D01*
X168182505Y-96001268D02*
X168277871Y-96048629D01*
X168277871Y-96048629D02*
X168325748Y-96143737D01*
X168325748Y-96143737D02*
X168326135Y-96286594D01*
X168326135Y-96286594D02*
X168278775Y-96381961D01*
X168278775Y-96381961D02*
X168183666Y-96429838D01*
X168183666Y-96429838D02*
X167659858Y-96431257D01*
X167661149Y-96907446D02*
X168327813Y-96905639D01*
X168232575Y-96905897D02*
X168280323Y-96953387D01*
X168280323Y-96953387D02*
X168328200Y-97048496D01*
X168328200Y-97048496D02*
X168328587Y-97191352D01*
X168328587Y-97191352D02*
X168281227Y-97286719D01*
X168281227Y-97286719D02*
X168186118Y-97334596D01*
X168186118Y-97334596D02*
X167662310Y-97336016D01*
X168186118Y-97334596D02*
X168281485Y-97381957D01*
X168281485Y-97381957D02*
X168329362Y-97477065D01*
X168329362Y-97477065D02*
X168329749Y-97619922D01*
X168329749Y-97619922D02*
X168282388Y-97715289D01*
X168282388Y-97715289D02*
X168187279Y-97763166D01*
X168187279Y-97763166D02*
X167663472Y-97764585D01*
X153747657Y-46367509D02*
X167415323Y-46330469D01*
X154001657Y-140093509D02*
X167669323Y-140056469D01*
X166828905Y-46332058D02*
X167082905Y-140058058D01*
X166828905Y-46332058D02*
X167082905Y-140058058D01*
X166828905Y-46332058D02*
X167418376Y-47456968D01*
X166828905Y-46332058D02*
X166245539Y-47460147D01*
X167082905Y-140058058D02*
X166493434Y-138933148D01*
X167082905Y-140058058D02*
X167666271Y-138929969D01*
X166828905Y-46332058D02*
X167082905Y-140058058D01*
X166828905Y-46332058D02*
X167082905Y-140058058D01*
X166828905Y-46332058D02*
X167418376Y-47456968D01*
X166828905Y-46332058D02*
X166245539Y-47460147D01*
X167082905Y-140058058D02*
X166493434Y-138933148D01*
X167082905Y-140058058D02*
X167666271Y-138929969D01*
X109250586Y-161940898D02*
X109155348Y-161893279D01*
X109155348Y-161893279D02*
X109107729Y-161845660D01*
X109107729Y-161845660D02*
X109060110Y-161750422D01*
X109060110Y-161750422D02*
X109060110Y-161702803D01*
X109060110Y-161702803D02*
X109107729Y-161607565D01*
X109107729Y-161607565D02*
X109155348Y-161559946D01*
X109155348Y-161559946D02*
X109250586Y-161512327D01*
X109250586Y-161512327D02*
X109441062Y-161512327D01*
X109441062Y-161512327D02*
X109536300Y-161559946D01*
X109536300Y-161559946D02*
X109583919Y-161607565D01*
X109583919Y-161607565D02*
X109631538Y-161702803D01*
X109631538Y-161702803D02*
X109631538Y-161750422D01*
X109631538Y-161750422D02*
X109583919Y-161845660D01*
X109583919Y-161845660D02*
X109536300Y-161893279D01*
X109536300Y-161893279D02*
X109441062Y-161940898D01*
X109441062Y-161940898D02*
X109250586Y-161940898D01*
X109250586Y-161940898D02*
X109155348Y-161988517D01*
X109155348Y-161988517D02*
X109107729Y-162036136D01*
X109107729Y-162036136D02*
X109060110Y-162131374D01*
X109060110Y-162131374D02*
X109060110Y-162321850D01*
X109060110Y-162321850D02*
X109107729Y-162417088D01*
X109107729Y-162417088D02*
X109155348Y-162464708D01*
X109155348Y-162464708D02*
X109250586Y-162512327D01*
X109250586Y-162512327D02*
X109441062Y-162512327D01*
X109441062Y-162512327D02*
X109536300Y-162464708D01*
X109536300Y-162464708D02*
X109583919Y-162417088D01*
X109583919Y-162417088D02*
X109631538Y-162321850D01*
X109631538Y-162321850D02*
X109631538Y-162131374D01*
X109631538Y-162131374D02*
X109583919Y-162036136D01*
X109583919Y-162036136D02*
X109536300Y-161988517D01*
X109536300Y-161988517D02*
X109441062Y-161940898D01*
X110250586Y-161512327D02*
X110345824Y-161512327D01*
X110345824Y-161512327D02*
X110441062Y-161559946D01*
X110441062Y-161559946D02*
X110488681Y-161607565D01*
X110488681Y-161607565D02*
X110536300Y-161702803D01*
X110536300Y-161702803D02*
X110583919Y-161893279D01*
X110583919Y-161893279D02*
X110583919Y-162131374D01*
X110583919Y-162131374D02*
X110536300Y-162321850D01*
X110536300Y-162321850D02*
X110488681Y-162417088D01*
X110488681Y-162417088D02*
X110441062Y-162464708D01*
X110441062Y-162464708D02*
X110345824Y-162512327D01*
X110345824Y-162512327D02*
X110250586Y-162512327D01*
X110250586Y-162512327D02*
X110155348Y-162464708D01*
X110155348Y-162464708D02*
X110107729Y-162417088D01*
X110107729Y-162417088D02*
X110060110Y-162321850D01*
X110060110Y-162321850D02*
X110012491Y-162131374D01*
X110012491Y-162131374D02*
X110012491Y-161893279D01*
X110012491Y-161893279D02*
X110060110Y-161702803D01*
X110060110Y-161702803D02*
X110107729Y-161607565D01*
X110107729Y-161607565D02*
X110155348Y-161559946D01*
X110155348Y-161559946D02*
X110250586Y-161512327D01*
X111012491Y-162417088D02*
X111060110Y-162464708D01*
X111060110Y-162464708D02*
X111012491Y-162512327D01*
X111012491Y-162512327D02*
X110964872Y-162464708D01*
X110964872Y-162464708D02*
X111012491Y-162417088D01*
X111012491Y-162417088D02*
X111012491Y-162512327D01*
X111917252Y-161512327D02*
X111726776Y-161512327D01*
X111726776Y-161512327D02*
X111631538Y-161559946D01*
X111631538Y-161559946D02*
X111583919Y-161607565D01*
X111583919Y-161607565D02*
X111488681Y-161750422D01*
X111488681Y-161750422D02*
X111441062Y-161940898D01*
X111441062Y-161940898D02*
X111441062Y-162321850D01*
X111441062Y-162321850D02*
X111488681Y-162417088D01*
X111488681Y-162417088D02*
X111536300Y-162464708D01*
X111536300Y-162464708D02*
X111631538Y-162512327D01*
X111631538Y-162512327D02*
X111822014Y-162512327D01*
X111822014Y-162512327D02*
X111917252Y-162464708D01*
X111917252Y-162464708D02*
X111964871Y-162417088D01*
X111964871Y-162417088D02*
X112012490Y-162321850D01*
X112012490Y-162321850D02*
X112012490Y-162083755D01*
X112012490Y-162083755D02*
X111964871Y-161988517D01*
X111964871Y-161988517D02*
X111917252Y-161940898D01*
X111917252Y-161940898D02*
X111822014Y-161893279D01*
X111822014Y-161893279D02*
X111631538Y-161893279D01*
X111631538Y-161893279D02*
X111536300Y-161940898D01*
X111536300Y-161940898D02*
X111488681Y-161988517D01*
X111488681Y-161988517D02*
X111441062Y-162083755D01*
X112869633Y-161845660D02*
X112869633Y-162512327D01*
X112631538Y-161464708D02*
X112393443Y-162178993D01*
X112393443Y-162178993D02*
X113012490Y-162178993D01*
X113869633Y-161512327D02*
X113393443Y-161512327D01*
X113393443Y-161512327D02*
X113345824Y-161988517D01*
X113345824Y-161988517D02*
X113393443Y-161940898D01*
X113393443Y-161940898D02*
X113488681Y-161893279D01*
X113488681Y-161893279D02*
X113726776Y-161893279D01*
X113726776Y-161893279D02*
X113822014Y-161940898D01*
X113822014Y-161940898D02*
X113869633Y-161988517D01*
X113869633Y-161988517D02*
X113917252Y-162083755D01*
X113917252Y-162083755D02*
X113917252Y-162321850D01*
X113917252Y-162321850D02*
X113869633Y-162417088D01*
X113869633Y-162417088D02*
X113822014Y-162464708D01*
X113822014Y-162464708D02*
X113726776Y-162512327D01*
X113726776Y-162512327D02*
X113488681Y-162512327D01*
X113488681Y-162512327D02*
X113393443Y-162464708D01*
X113393443Y-162464708D02*
X113345824Y-162417088D01*
X114536300Y-161512327D02*
X114631538Y-161512327D01*
X114631538Y-161512327D02*
X114726776Y-161559946D01*
X114726776Y-161559946D02*
X114774395Y-161607565D01*
X114774395Y-161607565D02*
X114822014Y-161702803D01*
X114822014Y-161702803D02*
X114869633Y-161893279D01*
X114869633Y-161893279D02*
X114869633Y-162131374D01*
X114869633Y-162131374D02*
X114822014Y-162321850D01*
X114822014Y-162321850D02*
X114774395Y-162417088D01*
X114774395Y-162417088D02*
X114726776Y-162464708D01*
X114726776Y-162464708D02*
X114631538Y-162512327D01*
X114631538Y-162512327D02*
X114536300Y-162512327D01*
X114536300Y-162512327D02*
X114441062Y-162464708D01*
X114441062Y-162464708D02*
X114393443Y-162417088D01*
X114393443Y-162417088D02*
X114345824Y-162321850D01*
X114345824Y-162321850D02*
X114298205Y-162131374D01*
X114298205Y-162131374D02*
X114298205Y-161893279D01*
X114298205Y-161893279D02*
X114345824Y-161702803D01*
X114345824Y-161702803D02*
X114393443Y-161607565D01*
X114393443Y-161607565D02*
X114441062Y-161559946D01*
X114441062Y-161559946D02*
X114536300Y-161512327D01*
X116060110Y-162512327D02*
X116060110Y-161845660D01*
X116060110Y-161940898D02*
X116107729Y-161893279D01*
X116107729Y-161893279D02*
X116202967Y-161845660D01*
X116202967Y-161845660D02*
X116345824Y-161845660D01*
X116345824Y-161845660D02*
X116441062Y-161893279D01*
X116441062Y-161893279D02*
X116488681Y-161988517D01*
X116488681Y-161988517D02*
X116488681Y-162512327D01*
X116488681Y-161988517D02*
X116536300Y-161893279D01*
X116536300Y-161893279D02*
X116631538Y-161845660D01*
X116631538Y-161845660D02*
X116774395Y-161845660D01*
X116774395Y-161845660D02*
X116869634Y-161893279D01*
X116869634Y-161893279D02*
X116917253Y-161988517D01*
X116917253Y-161988517D02*
X116917253Y-162512327D01*
X117393443Y-162512327D02*
X117393443Y-161845660D01*
X117393443Y-161940898D02*
X117441062Y-161893279D01*
X117441062Y-161893279D02*
X117536300Y-161845660D01*
X117536300Y-161845660D02*
X117679157Y-161845660D01*
X117679157Y-161845660D02*
X117774395Y-161893279D01*
X117774395Y-161893279D02*
X117822014Y-161988517D01*
X117822014Y-161988517D02*
X117822014Y-162512327D01*
X117822014Y-161988517D02*
X117869633Y-161893279D01*
X117869633Y-161893279D02*
X117964871Y-161845660D01*
X117964871Y-161845660D02*
X118107728Y-161845660D01*
X118107728Y-161845660D02*
X118202967Y-161893279D01*
X118202967Y-161893279D02*
X118250586Y-161988517D01*
X118250586Y-161988517D02*
X118250586Y-162512327D01*
X154001657Y-140093509D02*
X154001657Y-163793928D01*
X73356657Y-140093509D02*
X73356657Y-163793928D01*
X154001657Y-163207508D02*
X73356657Y-163207508D01*
X154001657Y-163207508D02*
X73356657Y-163207508D01*
X154001657Y-163207508D02*
X152875153Y-163793929D01*
X154001657Y-163207508D02*
X152875153Y-162621087D01*
X73356657Y-163207508D02*
X74483161Y-162621087D01*
X73356657Y-163207508D02*
X74483161Y-163793929D01*
X154001657Y-163207508D02*
X73356657Y-163207508D01*
X154001657Y-163207508D02*
X73356657Y-163207508D01*
X154001657Y-163207508D02*
X152875153Y-163793929D01*
X154001657Y-163207508D02*
X152875153Y-162621087D01*
X73356657Y-163207508D02*
X74483161Y-162621087D01*
X73356657Y-163207508D02*
X74483161Y-163793929D01*
D12*
X119361904Y-99871407D02*
X119361904Y-99471407D01*
X119590475Y-99871407D02*
X119419046Y-99642836D01*
X119590475Y-99471407D02*
X119361904Y-99699979D01*
X119761904Y-99661883D02*
X119895237Y-99661883D01*
X119952380Y-99871407D02*
X119761904Y-99871407D01*
X119761904Y-99871407D02*
X119761904Y-99471407D01*
X119761904Y-99471407D02*
X119952380Y-99471407D01*
X120123809Y-99661883D02*
X120257142Y-99661883D01*
X120314285Y-99871407D02*
X120123809Y-99871407D01*
X120123809Y-99871407D02*
X120123809Y-99471407D01*
X120123809Y-99471407D02*
X120314285Y-99471407D01*
X120485714Y-99871407D02*
X120485714Y-99471407D01*
X120485714Y-99471407D02*
X120638095Y-99471407D01*
X120638095Y-99471407D02*
X120676190Y-99490455D01*
X120676190Y-99490455D02*
X120695237Y-99509502D01*
X120695237Y-99509502D02*
X120714285Y-99547598D01*
X120714285Y-99547598D02*
X120714285Y-99604740D01*
X120714285Y-99604740D02*
X120695237Y-99642836D01*
X120695237Y-99642836D02*
X120676190Y-99661883D01*
X120676190Y-99661883D02*
X120638095Y-99680931D01*
X120638095Y-99680931D02*
X120485714Y-99680931D01*
X120961904Y-99471407D02*
X121038095Y-99471407D01*
X121038095Y-99471407D02*
X121076190Y-99490455D01*
X121076190Y-99490455D02*
X121114285Y-99528550D01*
X121114285Y-99528550D02*
X121133333Y-99604740D01*
X121133333Y-99604740D02*
X121133333Y-99738074D01*
X121133333Y-99738074D02*
X121114285Y-99814264D01*
X121114285Y-99814264D02*
X121076190Y-99852360D01*
X121076190Y-99852360D02*
X121038095Y-99871407D01*
X121038095Y-99871407D02*
X120961904Y-99871407D01*
X120961904Y-99871407D02*
X120923809Y-99852360D01*
X120923809Y-99852360D02*
X120885714Y-99814264D01*
X120885714Y-99814264D02*
X120866666Y-99738074D01*
X120866666Y-99738074D02*
X120866666Y-99604740D01*
X120866666Y-99604740D02*
X120885714Y-99528550D01*
X120885714Y-99528550D02*
X120923809Y-99490455D01*
X120923809Y-99490455D02*
X120961904Y-99471407D01*
X121304762Y-99471407D02*
X121304762Y-99795217D01*
X121304762Y-99795217D02*
X121323809Y-99833312D01*
X121323809Y-99833312D02*
X121342857Y-99852360D01*
X121342857Y-99852360D02*
X121380952Y-99871407D01*
X121380952Y-99871407D02*
X121457143Y-99871407D01*
X121457143Y-99871407D02*
X121495238Y-99852360D01*
X121495238Y-99852360D02*
X121514285Y-99833312D01*
X121514285Y-99833312D02*
X121533333Y-99795217D01*
X121533333Y-99795217D02*
X121533333Y-99471407D01*
X121666667Y-99471407D02*
X121895238Y-99471407D01*
X121780952Y-99871407D02*
X121780952Y-99471407D01*
D11*
%TO.C,J1*%
X73393657Y-59533009D02*
X73395257Y-128375851D01*
X73393657Y-59533009D02*
X78689557Y-46394509D01*
X78656857Y-42162709D02*
X78656857Y-54645709D01*
X78689557Y-46394509D02*
X148634957Y-46394509D01*
X85638253Y-140066909D02*
X73395257Y-128375851D01*
X85638253Y-140066909D02*
X141740261Y-140066909D01*
X148634957Y-46394509D02*
X153981657Y-59533009D01*
X148656857Y-42162709D02*
X78656857Y-42162709D01*
X148656857Y-42162709D02*
X148656857Y-54645709D01*
X153981657Y-59533009D02*
X153983257Y-128375851D01*
X153983257Y-128375851D02*
X141740261Y-140066909D01*
X80720057Y-73953810D02*
G75*
G02*
X77443457Y-73953810I-1638300J0D01*
G01*
X77443457Y-73953810D02*
G75*
G02*
X80720057Y-73953810I1638300J0D01*
G01*
D10*
X85254857Y-66285509D02*
G75*
G02*
X77431657Y-66285509I-3911600J0D01*
G01*
X77431657Y-66285509D02*
G75*
G02*
X85254857Y-66285509I3911600J0D01*
G01*
D11*
X83145758Y-66295709D02*
G75*
G02*
X79564358Y-66295709I-1790700J0D01*
G01*
X79564358Y-66295709D02*
G75*
G02*
X83145758Y-66295709I1790700J0D01*
G01*
X88644857Y-128563809D02*
G75*
G02*
X85063457Y-128563809I-1790700J0D01*
G01*
X85063457Y-128563809D02*
G75*
G02*
X88644857Y-128563809I1790700J0D01*
G01*
D10*
X90690457Y-128566309D02*
G75*
G02*
X83019657Y-128566309I-3835400J0D01*
G01*
X83019657Y-128566309D02*
G75*
G02*
X90690457Y-128566309I3835400J0D01*
G01*
D11*
X136879457Y-123864809D02*
G75*
G02*
X133602857Y-123864809I-1638300J0D01*
G01*
X133602857Y-123864809D02*
G75*
G02*
X136879457Y-123864809I1638300J0D01*
G01*
X142315057Y-128563809D02*
G75*
G02*
X138733657Y-128563809I-1790700J0D01*
G01*
X138733657Y-128563809D02*
G75*
G02*
X142315057Y-128563809I1790700J0D01*
G01*
D10*
X144436857Y-128566309D02*
G75*
G02*
X136613657Y-128566309I-3911600J0D01*
G01*
X136613657Y-128566309D02*
G75*
G02*
X144436857Y-128566309I3911600J0D01*
G01*
X150024857Y-66310909D02*
G75*
G02*
X141998457Y-66310909I-4013200J0D01*
G01*
X141998457Y-66310909D02*
G75*
G02*
X150024857Y-66310909I4013200J0D01*
G01*
D11*
X147814156Y-66295709D02*
G75*
G02*
X144232756Y-66295709I-1790700J0D01*
G01*
X144232756Y-66295709D02*
G75*
G02*
X147814156Y-66295709I1790700J0D01*
G01*
%TD*%
M02*
