%TF.GenerationSoftware,KiCad,Pcbnew,8.0.0~rc2*%
%TF.CreationDate,2024-03-12T18:06:46-03:00*%
%TF.ProjectId,hw_v1,68775f76-312e-46b6-9963-61645f706362,rev?*%
%TF.SameCoordinates,Original*%
%TF.FileFunction,Other,Comment*%
%FSLAX46Y46*%
G04 Gerber Fmt 4.6, Leading zero omitted, Abs format (unit mm)*
G04 Created by KiCad (PCBNEW 8.0.0~rc2) date 2024-03-12 18:06:46*
%MOMM*%
%LPD*%
G01*
G04 APERTURE LIST*
%ADD10C,0.070000*%
%ADD11C,0.150000*%
G04 APERTURE END LIST*
D10*
X138181407Y-106438095D02*
X137781407Y-106438095D01*
X138181407Y-106209524D02*
X137952836Y-106380953D01*
X137781407Y-106209524D02*
X138009979Y-106438095D01*
X137971883Y-106038095D02*
X137971883Y-105904762D01*
X138181407Y-105847619D02*
X138181407Y-106038095D01*
X138181407Y-106038095D02*
X137781407Y-106038095D01*
X137781407Y-106038095D02*
X137781407Y-105847619D01*
X137971883Y-105676190D02*
X137971883Y-105542857D01*
X138181407Y-105485714D02*
X138181407Y-105676190D01*
X138181407Y-105676190D02*
X137781407Y-105676190D01*
X137781407Y-105676190D02*
X137781407Y-105485714D01*
X138181407Y-105314285D02*
X137781407Y-105314285D01*
X137781407Y-105314285D02*
X137781407Y-105161904D01*
X137781407Y-105161904D02*
X137800455Y-105123809D01*
X137800455Y-105123809D02*
X137819502Y-105104762D01*
X137819502Y-105104762D02*
X137857598Y-105085714D01*
X137857598Y-105085714D02*
X137914740Y-105085714D01*
X137914740Y-105085714D02*
X137952836Y-105104762D01*
X137952836Y-105104762D02*
X137971883Y-105123809D01*
X137971883Y-105123809D02*
X137990931Y-105161904D01*
X137990931Y-105161904D02*
X137990931Y-105314285D01*
X137781407Y-104838095D02*
X137781407Y-104761904D01*
X137781407Y-104761904D02*
X137800455Y-104723809D01*
X137800455Y-104723809D02*
X137838550Y-104685714D01*
X137838550Y-104685714D02*
X137914740Y-104666666D01*
X137914740Y-104666666D02*
X138048074Y-104666666D01*
X138048074Y-104666666D02*
X138124264Y-104685714D01*
X138124264Y-104685714D02*
X138162360Y-104723809D01*
X138162360Y-104723809D02*
X138181407Y-104761904D01*
X138181407Y-104761904D02*
X138181407Y-104838095D01*
X138181407Y-104838095D02*
X138162360Y-104876190D01*
X138162360Y-104876190D02*
X138124264Y-104914285D01*
X138124264Y-104914285D02*
X138048074Y-104933333D01*
X138048074Y-104933333D02*
X137914740Y-104933333D01*
X137914740Y-104933333D02*
X137838550Y-104914285D01*
X137838550Y-104914285D02*
X137800455Y-104876190D01*
X137800455Y-104876190D02*
X137781407Y-104838095D01*
X137781407Y-104495237D02*
X138105217Y-104495237D01*
X138105217Y-104495237D02*
X138143312Y-104476190D01*
X138143312Y-104476190D02*
X138162360Y-104457142D01*
X138162360Y-104457142D02*
X138181407Y-104419047D01*
X138181407Y-104419047D02*
X138181407Y-104342856D01*
X138181407Y-104342856D02*
X138162360Y-104304761D01*
X138162360Y-104304761D02*
X138143312Y-104285714D01*
X138143312Y-104285714D02*
X138105217Y-104266666D01*
X138105217Y-104266666D02*
X137781407Y-104266666D01*
X137781407Y-104133332D02*
X137781407Y-103904761D01*
X138181407Y-104019047D02*
X137781407Y-104019047D01*
D11*
%TO.C,REF\u002A\u002A*%
X77323600Y-58801000D02*
G75*
G02*
X71823600Y-58801000I-2750000J0D01*
G01*
X71823600Y-58801000D02*
G75*
G02*
X77323600Y-58801000I2750000J0D01*
G01*
X160381600Y-145821000D02*
G75*
G02*
X154881600Y-145821000I-2750000J0D01*
G01*
X154881600Y-145821000D02*
G75*
G02*
X160381600Y-145821000I2750000J0D01*
G01*
X160381600Y-58821000D02*
G75*
G02*
X154881600Y-58821000I-2750000J0D01*
G01*
X154881600Y-58821000D02*
G75*
G02*
X160381600Y-58821000I2750000J0D01*
G01*
X77323600Y-145821000D02*
G75*
G02*
X71823600Y-145821000I-2750000J0D01*
G01*
X71823600Y-145821000D02*
G75*
G02*
X77323600Y-145821000I2750000J0D01*
G01*
%TD*%
M02*
