%TF.GenerationSoftware,KiCad,Pcbnew,8.0.0~rc2*%
%TF.CreationDate,2024-03-12T18:06:46-03:00*%
%TF.ProjectId,hw_v1,68775f76-312e-46b6-9963-61645f706362,rev?*%
%TF.SameCoordinates,Original*%
%TF.FileFunction,Legend,Bot*%
%TF.FilePolarity,Positive*%
%FSLAX46Y46*%
G04 Gerber Fmt 4.6, Leading zero omitted, Abs format (unit mm)*
G04 Created by KiCad (PCBNEW 8.0.0~rc2) date 2024-03-12 18:06:46*
%MOMM*%
%LPD*%
G01*
G04 APERTURE LIST*
G04 Aperture macros list*
%AMRoundRect*
0 Rectangle with rounded corners*
0 $1 Rounding radius*
0 $2 $3 $4 $5 $6 $7 $8 $9 X,Y pos of 4 corners*
0 Add a 4 corners polygon primitive as box body*
4,1,4,$2,$3,$4,$5,$6,$7,$8,$9,$2,$3,0*
0 Add four circle primitives for the rounded corners*
1,1,$1+$1,$2,$3*
1,1,$1+$1,$4,$5*
1,1,$1+$1,$6,$7*
1,1,$1+$1,$8,$9*
0 Add four rect primitives between the rounded corners*
20,1,$1+$1,$2,$3,$4,$5,0*
20,1,$1+$1,$4,$5,$6,$7,0*
20,1,$1+$1,$6,$7,$8,$9,0*
20,1,$1+$1,$8,$9,$2,$3,0*%
%AMHorizOval*
0 Thick line with rounded ends*
0 $1 width*
0 $2 $3 position (X,Y) of the first rounded end (center of the circle)*
0 $4 $5 position (X,Y) of the second rounded end (center of the circle)*
0 Add line between two ends*
20,1,$1,$2,$3,$4,$5,0*
0 Add two circle primitives to create the rounded ends*
1,1,$1,$2,$3*
1,1,$1,$4,$5*%
%AMRotRect*
0 Rectangle, with rotation*
0 The origin of the aperture is its center*
0 $1 length*
0 $2 width*
0 $3 Rotation angle, in degrees counterclockwise*
0 Add horizontal line*
21,1,$1,$2,0,0,$3*%
G04 Aperture macros list end*
%ADD10C,0.150000*%
%ADD11C,0.120000*%
%ADD12C,0.000000*%
%ADD13C,0.100000*%
%ADD14C,2.000000*%
%ADD15R,2.000000X2.000000*%
%ADD16O,1.600000X1.600000*%
%ADD17R,1.600000X1.600000*%
%ADD18R,1.000000X1.000000*%
%ADD19O,1.700000X1.700000*%
%ADD20R,1.700000X1.700000*%
%ADD21C,5.500000*%
%ADD22C,0.990600*%
%ADD23C,2.374900*%
%ADD24HorizOval,1.100000X-0.459619X-0.459619X0.459619X0.459619X0*%
%ADD25C,1.100000*%
%ADD26RotRect,1.100000X1.100000X315.000000*%
%ADD27O,2.000000X1.700000*%
%ADD28RoundRect,0.250000X0.750000X-0.600000X0.750000X0.600000X-0.750000X0.600000X-0.750000X-0.600000X0*%
%ADD29R,1.000000X1.500000*%
G04 APERTURE END LIST*
D10*
X145323220Y-141789819D02*
X145323220Y-140789819D01*
X145323220Y-140789819D02*
X145085125Y-140789819D01*
X145085125Y-140789819D02*
X144942268Y-140837438D01*
X144942268Y-140837438D02*
X144847030Y-140932676D01*
X144847030Y-140932676D02*
X144799411Y-141027914D01*
X144799411Y-141027914D02*
X144751792Y-141218390D01*
X144751792Y-141218390D02*
X144751792Y-141361247D01*
X144751792Y-141361247D02*
X144799411Y-141551723D01*
X144799411Y-141551723D02*
X144847030Y-141646961D01*
X144847030Y-141646961D02*
X144942268Y-141742200D01*
X144942268Y-141742200D02*
X145085125Y-141789819D01*
X145085125Y-141789819D02*
X145323220Y-141789819D01*
X144323220Y-141789819D02*
X144323220Y-141123152D01*
X144323220Y-140789819D02*
X144370839Y-140837438D01*
X144370839Y-140837438D02*
X144323220Y-140885057D01*
X144323220Y-140885057D02*
X144275601Y-140837438D01*
X144275601Y-140837438D02*
X144323220Y-140789819D01*
X144323220Y-140789819D02*
X144323220Y-140885057D01*
X143894649Y-141742200D02*
X143799411Y-141789819D01*
X143799411Y-141789819D02*
X143608935Y-141789819D01*
X143608935Y-141789819D02*
X143513697Y-141742200D01*
X143513697Y-141742200D02*
X143466078Y-141646961D01*
X143466078Y-141646961D02*
X143466078Y-141599342D01*
X143466078Y-141599342D02*
X143513697Y-141504104D01*
X143513697Y-141504104D02*
X143608935Y-141456485D01*
X143608935Y-141456485D02*
X143751792Y-141456485D01*
X143751792Y-141456485D02*
X143847030Y-141408866D01*
X143847030Y-141408866D02*
X143894649Y-141313628D01*
X143894649Y-141313628D02*
X143894649Y-141266009D01*
X143894649Y-141266009D02*
X143847030Y-141170771D01*
X143847030Y-141170771D02*
X143751792Y-141123152D01*
X143751792Y-141123152D02*
X143608935Y-141123152D01*
X143608935Y-141123152D02*
X143513697Y-141170771D01*
X142656554Y-141742200D02*
X142751792Y-141789819D01*
X142751792Y-141789819D02*
X142942268Y-141789819D01*
X142942268Y-141789819D02*
X143037506Y-141742200D01*
X143037506Y-141742200D02*
X143085125Y-141646961D01*
X143085125Y-141646961D02*
X143085125Y-141266009D01*
X143085125Y-141266009D02*
X143037506Y-141170771D01*
X143037506Y-141170771D02*
X142942268Y-141123152D01*
X142942268Y-141123152D02*
X142751792Y-141123152D01*
X142751792Y-141123152D02*
X142656554Y-141170771D01*
X142656554Y-141170771D02*
X142608935Y-141266009D01*
X142608935Y-141266009D02*
X142608935Y-141361247D01*
X142608935Y-141361247D02*
X143085125Y-141456485D01*
X142180363Y-141123152D02*
X142180363Y-141789819D01*
X142180363Y-141218390D02*
X142132744Y-141170771D01*
X142132744Y-141170771D02*
X142037506Y-141123152D01*
X142037506Y-141123152D02*
X141894649Y-141123152D01*
X141894649Y-141123152D02*
X141799411Y-141170771D01*
X141799411Y-141170771D02*
X141751792Y-141266009D01*
X141751792Y-141266009D02*
X141751792Y-141789819D01*
X142227982Y-140885057D02*
X142180363Y-140837438D01*
X142180363Y-140837438D02*
X142085125Y-140789819D01*
X142085125Y-140789819D02*
X141894649Y-140885057D01*
X141894649Y-140885057D02*
X141799411Y-140837438D01*
X141799411Y-140837438D02*
X141751792Y-140789819D01*
X140847030Y-141789819D02*
X140847030Y-141266009D01*
X140847030Y-141266009D02*
X140894649Y-141170771D01*
X140894649Y-141170771D02*
X140989887Y-141123152D01*
X140989887Y-141123152D02*
X141180363Y-141123152D01*
X141180363Y-141123152D02*
X141275601Y-141170771D01*
X140847030Y-141742200D02*
X140942268Y-141789819D01*
X140942268Y-141789819D02*
X141180363Y-141789819D01*
X141180363Y-141789819D02*
X141275601Y-141742200D01*
X141275601Y-141742200D02*
X141323220Y-141646961D01*
X141323220Y-141646961D02*
X141323220Y-141551723D01*
X141323220Y-141551723D02*
X141275601Y-141456485D01*
X141275601Y-141456485D02*
X141180363Y-141408866D01*
X141180363Y-141408866D02*
X140942268Y-141408866D01*
X140942268Y-141408866D02*
X140847030Y-141361247D01*
X139942268Y-141789819D02*
X139942268Y-140789819D01*
X139942268Y-141742200D02*
X140037506Y-141789819D01*
X140037506Y-141789819D02*
X140227982Y-141789819D01*
X140227982Y-141789819D02*
X140323220Y-141742200D01*
X140323220Y-141742200D02*
X140370839Y-141694580D01*
X140370839Y-141694580D02*
X140418458Y-141599342D01*
X140418458Y-141599342D02*
X140418458Y-141313628D01*
X140418458Y-141313628D02*
X140370839Y-141218390D01*
X140370839Y-141218390D02*
X140323220Y-141170771D01*
X140323220Y-141170771D02*
X140227982Y-141123152D01*
X140227982Y-141123152D02*
X140037506Y-141123152D01*
X140037506Y-141123152D02*
X139942268Y-141170771D01*
X139323220Y-141789819D02*
X139418458Y-141742200D01*
X139418458Y-141742200D02*
X139466077Y-141694580D01*
X139466077Y-141694580D02*
X139513696Y-141599342D01*
X139513696Y-141599342D02*
X139513696Y-141313628D01*
X139513696Y-141313628D02*
X139466077Y-141218390D01*
X139466077Y-141218390D02*
X139418458Y-141170771D01*
X139418458Y-141170771D02*
X139323220Y-141123152D01*
X139323220Y-141123152D02*
X139180363Y-141123152D01*
X139180363Y-141123152D02*
X139085125Y-141170771D01*
X139085125Y-141170771D02*
X139037506Y-141218390D01*
X139037506Y-141218390D02*
X138989887Y-141313628D01*
X138989887Y-141313628D02*
X138989887Y-141599342D01*
X138989887Y-141599342D02*
X139037506Y-141694580D01*
X139037506Y-141694580D02*
X139085125Y-141742200D01*
X139085125Y-141742200D02*
X139180363Y-141789819D01*
X139180363Y-141789819D02*
X139323220Y-141789819D01*
X137418458Y-141742200D02*
X137513696Y-141789819D01*
X137513696Y-141789819D02*
X137704172Y-141789819D01*
X137704172Y-141789819D02*
X137799410Y-141742200D01*
X137799410Y-141742200D02*
X137847029Y-141646961D01*
X137847029Y-141646961D02*
X137847029Y-141266009D01*
X137847029Y-141266009D02*
X137799410Y-141170771D01*
X137799410Y-141170771D02*
X137704172Y-141123152D01*
X137704172Y-141123152D02*
X137513696Y-141123152D01*
X137513696Y-141123152D02*
X137418458Y-141170771D01*
X137418458Y-141170771D02*
X137370839Y-141266009D01*
X137370839Y-141266009D02*
X137370839Y-141361247D01*
X137370839Y-141361247D02*
X137847029Y-141456485D01*
X136942267Y-141123152D02*
X136942267Y-141789819D01*
X136942267Y-141218390D02*
X136894648Y-141170771D01*
X136894648Y-141170771D02*
X136799410Y-141123152D01*
X136799410Y-141123152D02*
X136656553Y-141123152D01*
X136656553Y-141123152D02*
X136561315Y-141170771D01*
X136561315Y-141170771D02*
X136513696Y-141266009D01*
X136513696Y-141266009D02*
X136513696Y-141789819D01*
X135323219Y-141504104D02*
X134847029Y-141504104D01*
X135418457Y-141789819D02*
X135085124Y-140789819D01*
X135085124Y-140789819D02*
X134751791Y-141789819D01*
X134418457Y-141789819D02*
X134418457Y-141123152D01*
X134418457Y-141313628D02*
X134370838Y-141218390D01*
X134370838Y-141218390D02*
X134323219Y-141170771D01*
X134323219Y-141170771D02*
X134227981Y-141123152D01*
X134227981Y-141123152D02*
X134132743Y-141123152D01*
X133370838Y-141123152D02*
X133370838Y-141932676D01*
X133370838Y-141932676D02*
X133418457Y-142027914D01*
X133418457Y-142027914D02*
X133466076Y-142075533D01*
X133466076Y-142075533D02*
X133561314Y-142123152D01*
X133561314Y-142123152D02*
X133704171Y-142123152D01*
X133704171Y-142123152D02*
X133799409Y-142075533D01*
X133370838Y-141742200D02*
X133466076Y-141789819D01*
X133466076Y-141789819D02*
X133656552Y-141789819D01*
X133656552Y-141789819D02*
X133751790Y-141742200D01*
X133751790Y-141742200D02*
X133799409Y-141694580D01*
X133799409Y-141694580D02*
X133847028Y-141599342D01*
X133847028Y-141599342D02*
X133847028Y-141313628D01*
X133847028Y-141313628D02*
X133799409Y-141218390D01*
X133799409Y-141218390D02*
X133751790Y-141170771D01*
X133751790Y-141170771D02*
X133656552Y-141123152D01*
X133656552Y-141123152D02*
X133466076Y-141123152D01*
X133466076Y-141123152D02*
X133370838Y-141170771D01*
X132513695Y-141742200D02*
X132608933Y-141789819D01*
X132608933Y-141789819D02*
X132799409Y-141789819D01*
X132799409Y-141789819D02*
X132894647Y-141742200D01*
X132894647Y-141742200D02*
X132942266Y-141646961D01*
X132942266Y-141646961D02*
X132942266Y-141266009D01*
X132942266Y-141266009D02*
X132894647Y-141170771D01*
X132894647Y-141170771D02*
X132799409Y-141123152D01*
X132799409Y-141123152D02*
X132608933Y-141123152D01*
X132608933Y-141123152D02*
X132513695Y-141170771D01*
X132513695Y-141170771D02*
X132466076Y-141266009D01*
X132466076Y-141266009D02*
X132466076Y-141361247D01*
X132466076Y-141361247D02*
X132942266Y-141456485D01*
X132037504Y-141123152D02*
X132037504Y-141789819D01*
X132037504Y-141218390D02*
X131989885Y-141170771D01*
X131989885Y-141170771D02*
X131894647Y-141123152D01*
X131894647Y-141123152D02*
X131751790Y-141123152D01*
X131751790Y-141123152D02*
X131656552Y-141170771D01*
X131656552Y-141170771D02*
X131608933Y-141266009D01*
X131608933Y-141266009D02*
X131608933Y-141789819D01*
X131275599Y-141123152D02*
X130894647Y-141123152D01*
X131132742Y-140789819D02*
X131132742Y-141646961D01*
X131132742Y-141646961D02*
X131085123Y-141742200D01*
X131085123Y-141742200D02*
X130989885Y-141789819D01*
X130989885Y-141789819D02*
X130894647Y-141789819D01*
X130561313Y-141789819D02*
X130561313Y-141123152D01*
X130561313Y-140789819D02*
X130608932Y-140837438D01*
X130608932Y-140837438D02*
X130561313Y-140885057D01*
X130561313Y-140885057D02*
X130513694Y-140837438D01*
X130513694Y-140837438D02*
X130561313Y-140789819D01*
X130561313Y-140789819D02*
X130561313Y-140885057D01*
X130085123Y-141123152D02*
X130085123Y-141789819D01*
X130085123Y-141218390D02*
X130037504Y-141170771D01*
X130037504Y-141170771D02*
X129942266Y-141123152D01*
X129942266Y-141123152D02*
X129799409Y-141123152D01*
X129799409Y-141123152D02*
X129704171Y-141170771D01*
X129704171Y-141170771D02*
X129656552Y-141266009D01*
X129656552Y-141266009D02*
X129656552Y-141789819D01*
X128751790Y-141789819D02*
X128751790Y-141266009D01*
X128751790Y-141266009D02*
X128799409Y-141170771D01*
X128799409Y-141170771D02*
X128894647Y-141123152D01*
X128894647Y-141123152D02*
X129085123Y-141123152D01*
X129085123Y-141123152D02*
X129180361Y-141170771D01*
X128751790Y-141742200D02*
X128847028Y-141789819D01*
X128847028Y-141789819D02*
X129085123Y-141789819D01*
X129085123Y-141789819D02*
X129180361Y-141742200D01*
X129180361Y-141742200D02*
X129227980Y-141646961D01*
X129227980Y-141646961D02*
X129227980Y-141551723D01*
X129227980Y-141551723D02*
X129180361Y-141456485D01*
X129180361Y-141456485D02*
X129085123Y-141408866D01*
X129085123Y-141408866D02*
X128847028Y-141408866D01*
X128847028Y-141408866D02*
X128751790Y-141361247D01*
X118461904Y-67556819D02*
X117890476Y-67556819D01*
X118176190Y-68556819D02*
X118176190Y-67556819D01*
X117557142Y-68556819D02*
X117557142Y-67556819D01*
X117557142Y-67556819D02*
X117176190Y-67556819D01*
X117176190Y-67556819D02*
X117080952Y-67604438D01*
X117080952Y-67604438D02*
X117033333Y-67652057D01*
X117033333Y-67652057D02*
X116985714Y-67747295D01*
X116985714Y-67747295D02*
X116985714Y-67890152D01*
X116985714Y-67890152D02*
X117033333Y-67985390D01*
X117033333Y-67985390D02*
X117080952Y-68033009D01*
X117080952Y-68033009D02*
X117176190Y-68080628D01*
X117176190Y-68080628D02*
X117557142Y-68080628D01*
X116414285Y-67985390D02*
X116509523Y-67937771D01*
X116509523Y-67937771D02*
X116557142Y-67890152D01*
X116557142Y-67890152D02*
X116604761Y-67794914D01*
X116604761Y-67794914D02*
X116604761Y-67747295D01*
X116604761Y-67747295D02*
X116557142Y-67652057D01*
X116557142Y-67652057D02*
X116509523Y-67604438D01*
X116509523Y-67604438D02*
X116414285Y-67556819D01*
X116414285Y-67556819D02*
X116223809Y-67556819D01*
X116223809Y-67556819D02*
X116128571Y-67604438D01*
X116128571Y-67604438D02*
X116080952Y-67652057D01*
X116080952Y-67652057D02*
X116033333Y-67747295D01*
X116033333Y-67747295D02*
X116033333Y-67794914D01*
X116033333Y-67794914D02*
X116080952Y-67890152D01*
X116080952Y-67890152D02*
X116128571Y-67937771D01*
X116128571Y-67937771D02*
X116223809Y-67985390D01*
X116223809Y-67985390D02*
X116414285Y-67985390D01*
X116414285Y-67985390D02*
X116509523Y-68033009D01*
X116509523Y-68033009D02*
X116557142Y-68080628D01*
X116557142Y-68080628D02*
X116604761Y-68175866D01*
X116604761Y-68175866D02*
X116604761Y-68366342D01*
X116604761Y-68366342D02*
X116557142Y-68461580D01*
X116557142Y-68461580D02*
X116509523Y-68509200D01*
X116509523Y-68509200D02*
X116414285Y-68556819D01*
X116414285Y-68556819D02*
X116223809Y-68556819D01*
X116223809Y-68556819D02*
X116128571Y-68509200D01*
X116128571Y-68509200D02*
X116080952Y-68461580D01*
X116080952Y-68461580D02*
X116033333Y-68366342D01*
X116033333Y-68366342D02*
X116033333Y-68175866D01*
X116033333Y-68175866D02*
X116080952Y-68080628D01*
X116080952Y-68080628D02*
X116128571Y-68033009D01*
X116128571Y-68033009D02*
X116223809Y-67985390D01*
X158933331Y-140254819D02*
X158933331Y-140969104D01*
X158933331Y-140969104D02*
X158980950Y-141111961D01*
X158980950Y-141111961D02*
X159076188Y-141207200D01*
X159076188Y-141207200D02*
X159219045Y-141254819D01*
X159219045Y-141254819D02*
X159314283Y-141254819D01*
X158457140Y-141254819D02*
X158457140Y-140254819D01*
X158457140Y-140254819D02*
X158076188Y-140254819D01*
X158076188Y-140254819D02*
X157980950Y-140302438D01*
X157980950Y-140302438D02*
X157933331Y-140350057D01*
X157933331Y-140350057D02*
X157885712Y-140445295D01*
X157885712Y-140445295D02*
X157885712Y-140588152D01*
X157885712Y-140588152D02*
X157933331Y-140683390D01*
X157933331Y-140683390D02*
X157980950Y-140731009D01*
X157980950Y-140731009D02*
X158076188Y-140778628D01*
X158076188Y-140778628D02*
X158457140Y-140778628D01*
X157028569Y-140254819D02*
X157219045Y-140254819D01*
X157219045Y-140254819D02*
X157314283Y-140302438D01*
X157314283Y-140302438D02*
X157361902Y-140350057D01*
X157361902Y-140350057D02*
X157457140Y-140492914D01*
X157457140Y-140492914D02*
X157504759Y-140683390D01*
X157504759Y-140683390D02*
X157504759Y-141064342D01*
X157504759Y-141064342D02*
X157457140Y-141159580D01*
X157457140Y-141159580D02*
X157409521Y-141207200D01*
X157409521Y-141207200D02*
X157314283Y-141254819D01*
X157314283Y-141254819D02*
X157123807Y-141254819D01*
X157123807Y-141254819D02*
X157028569Y-141207200D01*
X157028569Y-141207200D02*
X156980950Y-141159580D01*
X156980950Y-141159580D02*
X156933331Y-141064342D01*
X156933331Y-141064342D02*
X156933331Y-140826247D01*
X156933331Y-140826247D02*
X156980950Y-140731009D01*
X156980950Y-140731009D02*
X157028569Y-140683390D01*
X157028569Y-140683390D02*
X157123807Y-140635771D01*
X157123807Y-140635771D02*
X157314283Y-140635771D01*
X157314283Y-140635771D02*
X157409521Y-140683390D01*
X157409521Y-140683390D02*
X157457140Y-140731009D01*
X157457140Y-140731009D02*
X157504759Y-140826247D01*
X144961904Y-87056819D02*
X144390476Y-87056819D01*
X144676190Y-88056819D02*
X144676190Y-87056819D01*
X144057142Y-88056819D02*
X144057142Y-87056819D01*
X144057142Y-87056819D02*
X143676190Y-87056819D01*
X143676190Y-87056819D02*
X143580952Y-87104438D01*
X143580952Y-87104438D02*
X143533333Y-87152057D01*
X143533333Y-87152057D02*
X143485714Y-87247295D01*
X143485714Y-87247295D02*
X143485714Y-87390152D01*
X143485714Y-87390152D02*
X143533333Y-87485390D01*
X143533333Y-87485390D02*
X143580952Y-87533009D01*
X143580952Y-87533009D02*
X143676190Y-87580628D01*
X143676190Y-87580628D02*
X144057142Y-87580628D01*
X143152380Y-87056819D02*
X142485714Y-87056819D01*
X142485714Y-87056819D02*
X142914285Y-88056819D01*
X158933331Y-136704819D02*
X158933331Y-137419104D01*
X158933331Y-137419104D02*
X158980950Y-137561961D01*
X158980950Y-137561961D02*
X159076188Y-137657200D01*
X159076188Y-137657200D02*
X159219045Y-137704819D01*
X159219045Y-137704819D02*
X159314283Y-137704819D01*
X158457140Y-137704819D02*
X158457140Y-136704819D01*
X158457140Y-136704819D02*
X158076188Y-136704819D01*
X158076188Y-136704819D02*
X157980950Y-136752438D01*
X157980950Y-136752438D02*
X157933331Y-136800057D01*
X157933331Y-136800057D02*
X157885712Y-136895295D01*
X157885712Y-136895295D02*
X157885712Y-137038152D01*
X157885712Y-137038152D02*
X157933331Y-137133390D01*
X157933331Y-137133390D02*
X157980950Y-137181009D01*
X157980950Y-137181009D02*
X158076188Y-137228628D01*
X158076188Y-137228628D02*
X158457140Y-137228628D01*
X157552378Y-136704819D02*
X156885712Y-136704819D01*
X156885712Y-136704819D02*
X157314283Y-137704819D01*
X145113094Y-65106818D02*
X144541666Y-65106818D01*
X144827380Y-66106818D02*
X144827380Y-65106818D01*
X144208332Y-66106818D02*
X144208332Y-65106818D01*
X144208332Y-65106818D02*
X143827380Y-65106818D01*
X143827380Y-65106818D02*
X143732142Y-65154437D01*
X143732142Y-65154437D02*
X143684523Y-65202056D01*
X143684523Y-65202056D02*
X143636904Y-65297294D01*
X143636904Y-65297294D02*
X143636904Y-65440151D01*
X143636904Y-65440151D02*
X143684523Y-65535389D01*
X143684523Y-65535389D02*
X143732142Y-65583008D01*
X143732142Y-65583008D02*
X143827380Y-65630627D01*
X143827380Y-65630627D02*
X144208332Y-65630627D01*
X142684523Y-66106818D02*
X143255951Y-66106818D01*
X142970237Y-66106818D02*
X142970237Y-65106818D01*
X142970237Y-65106818D02*
X143065475Y-65249675D01*
X143065475Y-65249675D02*
X143160713Y-65344913D01*
X143160713Y-65344913D02*
X143255951Y-65392532D01*
X142351189Y-65106818D02*
X141732142Y-65106818D01*
X141732142Y-65106818D02*
X142065475Y-65487770D01*
X142065475Y-65487770D02*
X141922618Y-65487770D01*
X141922618Y-65487770D02*
X141827380Y-65535389D01*
X141827380Y-65535389D02*
X141779761Y-65583008D01*
X141779761Y-65583008D02*
X141732142Y-65678246D01*
X141732142Y-65678246D02*
X141732142Y-65916341D01*
X141732142Y-65916341D02*
X141779761Y-66011579D01*
X141779761Y-66011579D02*
X141827380Y-66059199D01*
X141827380Y-66059199D02*
X141922618Y-66106818D01*
X141922618Y-66106818D02*
X142208332Y-66106818D01*
X142208332Y-66106818D02*
X142303570Y-66059199D01*
X142303570Y-66059199D02*
X142351189Y-66011579D01*
X107038094Y-114402820D02*
X106466666Y-114402820D01*
X106752380Y-115402820D02*
X106752380Y-114402820D01*
X106133332Y-115402820D02*
X106133332Y-114402820D01*
X106133332Y-114402820D02*
X105752380Y-114402820D01*
X105752380Y-114402820D02*
X105657142Y-114450439D01*
X105657142Y-114450439D02*
X105609523Y-114498058D01*
X105609523Y-114498058D02*
X105561904Y-114593296D01*
X105561904Y-114593296D02*
X105561904Y-114736153D01*
X105561904Y-114736153D02*
X105609523Y-114831391D01*
X105609523Y-114831391D02*
X105657142Y-114879010D01*
X105657142Y-114879010D02*
X105752380Y-114926629D01*
X105752380Y-114926629D02*
X106133332Y-114926629D01*
X104609523Y-115402820D02*
X105180951Y-115402820D01*
X104895237Y-115402820D02*
X104895237Y-114402820D01*
X104895237Y-114402820D02*
X104990475Y-114545677D01*
X104990475Y-114545677D02*
X105085713Y-114640915D01*
X105085713Y-114640915D02*
X105180951Y-114688534D01*
X104228570Y-114498058D02*
X104180951Y-114450439D01*
X104180951Y-114450439D02*
X104085713Y-114402820D01*
X104085713Y-114402820D02*
X103847618Y-114402820D01*
X103847618Y-114402820D02*
X103752380Y-114450439D01*
X103752380Y-114450439D02*
X103704761Y-114498058D01*
X103704761Y-114498058D02*
X103657142Y-114593296D01*
X103657142Y-114593296D02*
X103657142Y-114688534D01*
X103657142Y-114688534D02*
X103704761Y-114831391D01*
X103704761Y-114831391D02*
X104276189Y-115402820D01*
X104276189Y-115402820D02*
X103657142Y-115402820D01*
X158933331Y-133154819D02*
X158933331Y-133869104D01*
X158933331Y-133869104D02*
X158980950Y-134011961D01*
X158980950Y-134011961D02*
X159076188Y-134107200D01*
X159076188Y-134107200D02*
X159219045Y-134154819D01*
X159219045Y-134154819D02*
X159314283Y-134154819D01*
X158457140Y-134154819D02*
X158457140Y-133154819D01*
X158457140Y-133154819D02*
X158076188Y-133154819D01*
X158076188Y-133154819D02*
X157980950Y-133202438D01*
X157980950Y-133202438D02*
X157933331Y-133250057D01*
X157933331Y-133250057D02*
X157885712Y-133345295D01*
X157885712Y-133345295D02*
X157885712Y-133488152D01*
X157885712Y-133488152D02*
X157933331Y-133583390D01*
X157933331Y-133583390D02*
X157980950Y-133631009D01*
X157980950Y-133631009D02*
X158076188Y-133678628D01*
X158076188Y-133678628D02*
X158457140Y-133678628D01*
X157314283Y-133583390D02*
X157409521Y-133535771D01*
X157409521Y-133535771D02*
X157457140Y-133488152D01*
X157457140Y-133488152D02*
X157504759Y-133392914D01*
X157504759Y-133392914D02*
X157504759Y-133345295D01*
X157504759Y-133345295D02*
X157457140Y-133250057D01*
X157457140Y-133250057D02*
X157409521Y-133202438D01*
X157409521Y-133202438D02*
X157314283Y-133154819D01*
X157314283Y-133154819D02*
X157123807Y-133154819D01*
X157123807Y-133154819D02*
X157028569Y-133202438D01*
X157028569Y-133202438D02*
X156980950Y-133250057D01*
X156980950Y-133250057D02*
X156933331Y-133345295D01*
X156933331Y-133345295D02*
X156933331Y-133392914D01*
X156933331Y-133392914D02*
X156980950Y-133488152D01*
X156980950Y-133488152D02*
X157028569Y-133535771D01*
X157028569Y-133535771D02*
X157123807Y-133583390D01*
X157123807Y-133583390D02*
X157314283Y-133583390D01*
X157314283Y-133583390D02*
X157409521Y-133631009D01*
X157409521Y-133631009D02*
X157457140Y-133678628D01*
X157457140Y-133678628D02*
X157504759Y-133773866D01*
X157504759Y-133773866D02*
X157504759Y-133964342D01*
X157504759Y-133964342D02*
X157457140Y-134059580D01*
X157457140Y-134059580D02*
X157409521Y-134107200D01*
X157409521Y-134107200D02*
X157314283Y-134154819D01*
X157314283Y-134154819D02*
X157123807Y-134154819D01*
X157123807Y-134154819D02*
X157028569Y-134107200D01*
X157028569Y-134107200D02*
X156980950Y-134059580D01*
X156980950Y-134059580D02*
X156933331Y-133964342D01*
X156933331Y-133964342D02*
X156933331Y-133773866D01*
X156933331Y-133773866D02*
X156980950Y-133678628D01*
X156980950Y-133678628D02*
X157028569Y-133631009D01*
X157028569Y-133631009D02*
X157123807Y-133583390D01*
D11*
%TO.C,TP8*%
X118400000Y-70100000D02*
G75*
G02*
X116000000Y-70100000I-1200000J0D01*
G01*
X116000000Y-70100000D02*
G75*
G02*
X118400000Y-70100000I1200000J0D01*
G01*
%TO.C,JP6*%
X159499998Y-140000000D02*
X156699998Y-140000000D01*
X159499998Y-138000000D02*
X159499998Y-140000000D01*
X156699998Y-140000000D02*
X156699998Y-138000000D01*
X156699998Y-138000000D02*
X159499998Y-138000000D01*
D12*
%TO.C,G\u002A\u002A\u002A*%
G36*
X140499677Y-136122955D02*
G01*
X140491835Y-136194093D01*
X140487679Y-136243359D01*
X140488024Y-136263490D01*
X140488100Y-136263547D01*
X140498019Y-136249345D01*
X140520349Y-136208289D01*
X140551599Y-136147053D01*
X140574639Y-136147053D01*
X140576840Y-136168880D01*
X140582372Y-136171758D01*
X140589102Y-136156619D01*
X140587775Y-136146882D01*
X140576840Y-136144357D01*
X140574639Y-136147053D01*
X140551599Y-136147053D01*
X140551847Y-136146567D01*
X140569492Y-136110637D01*
X140589102Y-136110637D01*
X140598298Y-136119834D01*
X140607494Y-136110637D01*
X140598298Y-136101441D01*
X140589102Y-136110637D01*
X140569492Y-136110637D01*
X140589267Y-136070369D01*
X140591443Y-136065874D01*
X140628619Y-135991945D01*
X140660100Y-135934498D01*
X140682622Y-135899162D01*
X140692923Y-135891565D01*
X140693132Y-135892350D01*
X140688858Y-135918856D01*
X140673599Y-135971720D01*
X140649627Y-136043665D01*
X140625310Y-136110637D01*
X140619219Y-136127412D01*
X140608280Y-136156619D01*
X140591627Y-136201080D01*
X140568586Y-136265124D01*
X140557198Y-136302725D01*
X140556579Y-136318246D01*
X140565843Y-136316052D01*
X140584105Y-136300504D01*
X140594154Y-136290257D01*
X140631964Y-136239410D01*
X140661878Y-136184207D01*
X140681064Y-136184207D01*
X140690261Y-136193404D01*
X140699457Y-136184207D01*
X140690261Y-136175011D01*
X140681064Y-136184207D01*
X140661878Y-136184207D01*
X140663727Y-136180794D01*
X140672494Y-136162582D01*
X140707139Y-136109438D01*
X140743559Y-136073392D01*
X140778038Y-136043369D01*
X140801138Y-136007834D01*
X140801178Y-136007707D01*
X140818735Y-135978774D01*
X140837712Y-135975072D01*
X140846597Y-135998872D01*
X140840273Y-136020394D01*
X140817406Y-136057592D01*
X140786340Y-136095136D01*
X140756132Y-136122405D01*
X140735836Y-136128779D01*
X140728152Y-136126773D01*
X140707082Y-136140768D01*
X140702442Y-136151372D01*
X140715007Y-136149179D01*
X140724055Y-136144427D01*
X140736242Y-136144812D01*
X140735957Y-136147791D01*
X140725368Y-136180054D01*
X140723575Y-136184207D01*
X140703695Y-136230259D01*
X140676684Y-136286367D01*
X140650082Y-136336338D01*
X140629637Y-136368132D01*
X140623798Y-136376999D01*
X140636554Y-136369205D01*
X140669994Y-136341304D01*
X140720100Y-136296814D01*
X140754634Y-136296814D01*
X140754936Y-136300042D01*
X140766919Y-136300166D01*
X140793765Y-136271572D01*
X140804040Y-136258245D01*
X140808607Y-136248721D01*
X140786821Y-136264627D01*
X140767203Y-136281461D01*
X140754634Y-136296814D01*
X140720100Y-136296814D01*
X140720670Y-136296308D01*
X140785133Y-136237228D01*
X140859936Y-136167073D01*
X140899799Y-136130521D01*
X140942615Y-136096052D01*
X140962937Y-136086815D01*
X140961336Y-136100912D01*
X140938384Y-136136445D01*
X140894651Y-136191518D01*
X140844347Y-136248721D01*
X140830707Y-136264231D01*
X140829585Y-136265461D01*
X140771872Y-136329651D01*
X140724652Y-136383962D01*
X140692769Y-136422700D01*
X140681064Y-136440169D01*
X140681317Y-136441951D01*
X140697190Y-136442444D01*
X140732524Y-136423891D01*
X140780011Y-136390769D01*
X140781699Y-136389375D01*
X140828204Y-136389375D01*
X140829119Y-136394108D01*
X140843322Y-136389091D01*
X140875933Y-136354338D01*
X140910970Y-136312955D01*
X140869587Y-136347992D01*
X140840608Y-136374354D01*
X140828204Y-136389375D01*
X140781699Y-136389375D01*
X140832338Y-136347552D01*
X140854507Y-136329188D01*
X140907519Y-136293751D01*
X140951890Y-136274166D01*
X140992417Y-136259706D01*
X141035232Y-136233962D01*
X141058309Y-136218867D01*
X141079236Y-136217595D01*
X141082808Y-136225537D01*
X141071228Y-136252075D01*
X141038436Y-136282982D01*
X140992523Y-136309666D01*
X140986987Y-136312955D01*
X140956298Y-136331187D01*
X140903344Y-136370588D01*
X140847285Y-136418215D01*
X140751759Y-136505083D01*
X140849757Y-136470861D01*
X140882373Y-136459260D01*
X140966921Y-136427989D01*
X141044996Y-136397787D01*
X141085184Y-136382259D01*
X141145711Y-136362129D01*
X141176781Y-136356816D01*
X141180299Y-136364414D01*
X141158169Y-136383017D01*
X141112297Y-136410722D01*
X141044590Y-136445623D01*
X140956951Y-136485815D01*
X140884979Y-136517508D01*
X140808444Y-136552841D01*
X140763380Y-136576568D01*
X140748148Y-136589772D01*
X140761107Y-136593535D01*
X140800615Y-136588938D01*
X140812022Y-136586960D01*
X140882718Y-136571100D01*
X140951905Y-136551147D01*
X140969036Y-136546040D01*
X141031512Y-136535026D01*
X141083004Y-136535884D01*
X141128441Y-136537662D01*
X141175414Y-136525671D01*
X141201036Y-136515755D01*
X141214446Y-136520142D01*
X141206002Y-136543161D01*
X141175516Y-136566210D01*
X141171781Y-136569034D01*
X141123403Y-136579379D01*
X141114386Y-136579775D01*
X141068346Y-136587565D01*
X141008394Y-136602875D01*
X140994186Y-136607234D01*
X140944467Y-136622488D01*
X140886501Y-136643185D01*
X140844434Y-136661749D01*
X140828204Y-136674962D01*
X140840841Y-136680181D01*
X140883523Y-136685268D01*
X140949224Y-136688725D01*
X141030521Y-136690000D01*
X141088656Y-136690601D01*
X141165624Y-136694021D01*
X141215251Y-136700094D01*
X141232838Y-136708393D01*
X141226578Y-136713574D01*
X141189700Y-136720861D01*
X141124181Y-136725865D01*
X141035119Y-136728078D01*
X140972254Y-136729183D01*
X140894073Y-136732612D01*
X140833697Y-136737679D01*
X140800615Y-136743749D01*
X140782184Y-136751202D01*
X140774272Y-136759852D01*
X140800629Y-136769829D01*
X140819133Y-136774399D01*
X140871595Y-136783265D01*
X140934570Y-136790779D01*
X140968036Y-136795131D01*
X141034571Y-136809551D01*
X141034977Y-136809639D01*
X141085382Y-136827780D01*
X141095002Y-136831642D01*
X141133717Y-136847185D01*
X141176748Y-136855532D01*
X141199025Y-136859577D01*
X141214446Y-136876317D01*
X141212153Y-136882525D01*
X141185610Y-136889329D01*
X141127082Y-136883995D01*
X141121942Y-136883230D01*
X141057590Y-136874457D01*
X140983745Y-136865455D01*
X140909604Y-136857205D01*
X140844363Y-136850685D01*
X140797218Y-136846875D01*
X140777364Y-136846754D01*
X140785987Y-136852343D01*
X140821892Y-136870096D01*
X140879482Y-136896874D01*
X140952092Y-136929518D01*
X141032660Y-136966454D01*
X141107137Y-137003832D01*
X141156206Y-137032683D01*
X141176964Y-137051268D01*
X141166505Y-137057850D01*
X141146169Y-137052780D01*
X141097810Y-137036933D01*
X141029707Y-137012880D01*
X140949521Y-136983257D01*
X140928030Y-136975232D01*
X140837750Y-136943573D01*
X140773378Y-136924581D01*
X140736610Y-136918336D01*
X140729142Y-136924913D01*
X140752671Y-136944391D01*
X140808894Y-136976847D01*
X140850098Y-137000856D01*
X140922471Y-137050346D01*
X140981952Y-137099233D01*
X140998219Y-137113995D01*
X141011859Y-137126373D01*
X141049272Y-137156492D01*
X141070233Y-137168204D01*
X141074486Y-137168964D01*
X141085699Y-137187836D01*
X141075837Y-137198798D01*
X141045319Y-137194789D01*
X141004312Y-137176045D01*
X140963303Y-137146139D01*
X140962635Y-137145536D01*
X140925635Y-137118837D01*
X140867924Y-137084050D01*
X140801698Y-137048540D01*
X140761756Y-137028444D01*
X140828204Y-137028444D01*
X140830680Y-137031803D01*
X140855098Y-137049521D01*
X140897176Y-137074909D01*
X140966148Y-137113995D01*
X140914543Y-137067530D01*
X140913485Y-137066580D01*
X140871142Y-137034060D01*
X140840198Y-137020208D01*
X140828204Y-137028444D01*
X140761756Y-137028444D01*
X140679723Y-136987171D01*
X140830037Y-137151820D01*
X140838450Y-137161260D01*
X140874419Y-137201617D01*
X140925302Y-137263100D01*
X140955639Y-137305727D01*
X140964850Y-137327600D01*
X140952357Y-137326821D01*
X140917578Y-137301491D01*
X140859936Y-137249713D01*
X140808688Y-137201426D01*
X140741128Y-137138351D01*
X140715013Y-137114232D01*
X140754774Y-137114232D01*
X140770681Y-137136018D01*
X140776414Y-137143139D01*
X140800865Y-137166766D01*
X140809812Y-137161260D01*
X140803098Y-137151762D01*
X140777625Y-137129073D01*
X140764298Y-137118799D01*
X140754774Y-137114232D01*
X140715013Y-137114232D01*
X140683641Y-137085258D01*
X140603452Y-137011868D01*
X140640914Y-137086669D01*
X140650784Y-137105294D01*
X140682347Y-137155224D01*
X140710283Y-137187827D01*
X140726210Y-137205900D01*
X140755716Y-137252503D01*
X140771951Y-137284831D01*
X140784965Y-137310746D01*
X140791707Y-137324540D01*
X140805021Y-137351778D01*
X140829917Y-137391820D01*
X140847450Y-137407307D01*
X140854220Y-137408770D01*
X140855762Y-137425749D01*
X140841543Y-137435155D01*
X140810691Y-137425878D01*
X140775141Y-137394571D01*
X140743122Y-137346986D01*
X140735513Y-137333157D01*
X140729809Y-137324540D01*
X140754634Y-137324540D01*
X140763830Y-137333737D01*
X140773027Y-137324540D01*
X140763830Y-137315344D01*
X140754634Y-137324540D01*
X140729809Y-137324540D01*
X140698615Y-137277413D01*
X140655567Y-137223217D01*
X140641731Y-137207359D01*
X140616966Y-137177401D01*
X140653476Y-137177401D01*
X140699457Y-137232578D01*
X140708187Y-137243092D01*
X140736374Y-137277651D01*
X140750036Y-137295419D01*
X140751308Y-137296824D01*
X140754634Y-137284831D01*
X140754173Y-137281964D01*
X140737421Y-137255968D01*
X140704055Y-137221990D01*
X140653476Y-137177401D01*
X140616966Y-137177401D01*
X140599072Y-137155754D01*
X140566628Y-137112862D01*
X140555530Y-137096963D01*
X140544133Y-137083148D01*
X140547188Y-137096561D01*
X140564425Y-137140616D01*
X140567069Y-137147240D01*
X140599032Y-137230752D01*
X140609950Y-137261252D01*
X140626022Y-137306148D01*
X140629618Y-137316192D01*
X140656476Y-137396301D01*
X140677255Y-137463823D01*
X140689606Y-137511498D01*
X140691179Y-137532070D01*
X140689860Y-137532070D01*
X140675576Y-137513261D01*
X140649658Y-137468269D01*
X140615303Y-137402881D01*
X140575705Y-137322887D01*
X140567484Y-137306148D01*
X140589102Y-137306148D01*
X140598298Y-137315344D01*
X140607494Y-137306148D01*
X140598298Y-137296952D01*
X140589102Y-137306148D01*
X140567484Y-137306148D01*
X140532578Y-137235075D01*
X140530435Y-137231029D01*
X140562406Y-137231029D01*
X140563692Y-137250015D01*
X140569628Y-137263385D01*
X140583191Y-137277964D01*
X140589102Y-137261252D01*
X140588448Y-137256257D01*
X140570920Y-137232708D01*
X140562406Y-137231029D01*
X140530435Y-137231029D01*
X140501639Y-137176670D01*
X140481325Y-137145576D01*
X140469540Y-137138592D01*
X140464190Y-137152515D01*
X140463650Y-137159823D01*
X140469516Y-137212427D01*
X140486905Y-137269714D01*
X140494897Y-137292643D01*
X140507592Y-137352129D01*
X140509673Y-137361879D01*
X140515532Y-137433463D01*
X140516938Y-137468238D01*
X140524919Y-137520669D01*
X140537603Y-137550768D01*
X140546771Y-137562963D01*
X140541282Y-137572839D01*
X140514088Y-137563236D01*
X140488145Y-137524591D01*
X140477940Y-137463404D01*
X140477532Y-137453327D01*
X140467522Y-137389018D01*
X140448551Y-137324540D01*
X140445315Y-137315970D01*
X140436370Y-137287756D01*
X140461929Y-137287756D01*
X140467039Y-137314011D01*
X140478366Y-137342575D01*
X140489861Y-137359081D01*
X140495565Y-137352129D01*
X140493997Y-137336215D01*
X140478747Y-137296952D01*
X140468672Y-137284448D01*
X140461929Y-137287756D01*
X140436370Y-137287756D01*
X140422987Y-137245547D01*
X140406845Y-137177401D01*
X140401620Y-137156401D01*
X140396269Y-137158125D01*
X140390999Y-137188824D01*
X140385386Y-137251093D01*
X140382960Y-137287756D01*
X140379005Y-137347531D01*
X140377633Y-137369320D01*
X140370960Y-137456276D01*
X140363651Y-137526749D01*
X140356502Y-137573985D01*
X140350309Y-137591231D01*
X140349005Y-137590261D01*
X140342594Y-137565469D01*
X140335500Y-137512247D01*
X140328497Y-137437350D01*
X140322359Y-137347531D01*
X140318789Y-137287756D01*
X140331607Y-137287756D01*
X140340804Y-137296952D01*
X140350000Y-137287756D01*
X140340804Y-137278559D01*
X140331607Y-137287756D01*
X140318789Y-137287756D01*
X140316806Y-137254546D01*
X140311878Y-137188136D01*
X140307064Y-137150427D01*
X140301495Y-137137289D01*
X140294301Y-137144592D01*
X140284613Y-137168204D01*
X140284294Y-137169073D01*
X140267299Y-137234695D01*
X140259437Y-137302141D01*
X140259352Y-137305184D01*
X140255360Y-137333737D01*
X140249929Y-137372590D01*
X140230449Y-137437732D01*
X140226815Y-137446731D01*
X140209785Y-137498903D01*
X140202860Y-137538300D01*
X140199384Y-137557559D01*
X140182536Y-137572839D01*
X140179813Y-137572434D01*
X140169937Y-137550243D01*
X140173658Y-137494671D01*
X140176845Y-137472673D01*
X140189611Y-137379579D01*
X140197144Y-137319276D01*
X140224106Y-137319276D01*
X140226967Y-137365924D01*
X140228686Y-137371142D01*
X140233460Y-137367198D01*
X140235378Y-137333737D01*
X140235200Y-137321258D01*
X140232298Y-137295826D01*
X140226967Y-137301550D01*
X140224106Y-137319276D01*
X140197144Y-137319276D01*
X140200323Y-137293831D01*
X140208164Y-137222692D01*
X140212320Y-137173426D01*
X140211975Y-137153296D01*
X140211954Y-137153274D01*
X140202404Y-137166834D01*
X140180508Y-137207407D01*
X140153844Y-137260167D01*
X140149502Y-137268759D01*
X140131334Y-137306148D01*
X140112622Y-137344657D01*
X140112104Y-137345741D01*
X140074946Y-137421098D01*
X140043078Y-137481311D01*
X140019876Y-137520294D01*
X140008715Y-137531964D01*
X140007901Y-137527936D01*
X140013737Y-137496669D01*
X140029235Y-137441751D01*
X140051839Y-137370973D01*
X140074166Y-137306148D01*
X140092505Y-137306148D01*
X140101702Y-137315344D01*
X140110898Y-137306148D01*
X140101702Y-137296952D01*
X140092505Y-137306148D01*
X140074166Y-137306148D01*
X140078995Y-137292126D01*
X140094296Y-137250601D01*
X140114827Y-137250601D01*
X140117029Y-137272428D01*
X140122561Y-137275306D01*
X140129290Y-137260167D01*
X140127963Y-137250430D01*
X140117029Y-137247905D01*
X140114827Y-137250601D01*
X140094296Y-137250601D01*
X140108151Y-137213000D01*
X140136751Y-137141388D01*
X140167396Y-137068589D01*
X140118538Y-137113799D01*
X140108334Y-137124131D01*
X140068832Y-137176510D01*
X140038141Y-137232578D01*
X140036273Y-137235991D01*
X140027506Y-137254203D01*
X139992861Y-137307348D01*
X139956441Y-137343393D01*
X139921962Y-137373417D01*
X139898862Y-137408952D01*
X139898822Y-137409078D01*
X139881265Y-137438012D01*
X139862287Y-137441713D01*
X139853403Y-137417914D01*
X139859727Y-137396392D01*
X139882594Y-137359194D01*
X139913660Y-137321650D01*
X139943868Y-137294380D01*
X139964164Y-137288006D01*
X139971848Y-137290013D01*
X139992918Y-137276018D01*
X139997558Y-137265414D01*
X139984992Y-137267607D01*
X139975944Y-137272359D01*
X139963758Y-137271973D01*
X139964043Y-137268995D01*
X139974632Y-137236731D01*
X139976425Y-137232578D01*
X140000543Y-137232578D01*
X140009739Y-137241774D01*
X140018935Y-137232578D01*
X140009739Y-137223382D01*
X140000543Y-137232578D01*
X139976425Y-137232578D01*
X139996305Y-137186526D01*
X140023316Y-137130418D01*
X140049917Y-137080448D01*
X140070362Y-137048653D01*
X140076202Y-137039786D01*
X140063446Y-137047581D01*
X140030006Y-137075481D01*
X139987563Y-137113167D01*
X139979330Y-137120477D01*
X139914867Y-137179558D01*
X139840064Y-137249713D01*
X139800200Y-137286264D01*
X139757385Y-137320734D01*
X139737063Y-137329971D01*
X139738664Y-137315874D01*
X139761616Y-137280340D01*
X139805349Y-137225268D01*
X139861636Y-137161260D01*
X139890188Y-137161260D01*
X139890490Y-137164488D01*
X139902473Y-137164612D01*
X139929319Y-137136018D01*
X139939594Y-137122691D01*
X139944161Y-137113167D01*
X139922375Y-137129073D01*
X139902757Y-137145907D01*
X139890188Y-137161260D01*
X139861636Y-137161260D01*
X139869292Y-137152554D01*
X139870415Y-137151324D01*
X139928127Y-137087134D01*
X139975347Y-137032823D01*
X140007231Y-136994086D01*
X140018935Y-136976616D01*
X140018682Y-136974834D01*
X140002810Y-136974342D01*
X139967475Y-136992894D01*
X139940273Y-137011868D01*
X139919989Y-137026017D01*
X139867661Y-137069233D01*
X139845492Y-137087597D01*
X139792480Y-137123035D01*
X139748110Y-137142619D01*
X139707583Y-137157079D01*
X139664768Y-137182824D01*
X139641691Y-137197919D01*
X139620764Y-137199190D01*
X139617192Y-137191248D01*
X139628771Y-137164711D01*
X139661564Y-137133803D01*
X139707476Y-137107119D01*
X139739171Y-137088289D01*
X139798226Y-137088289D01*
X139799141Y-137093022D01*
X139813344Y-137088005D01*
X139845954Y-137053252D01*
X139880992Y-137011868D01*
X139839609Y-137046906D01*
X139810629Y-137073268D01*
X139798226Y-137088289D01*
X139739171Y-137088289D01*
X139743701Y-137085598D01*
X139796656Y-137046198D01*
X139852715Y-136998570D01*
X139948240Y-136911702D01*
X139850243Y-136945924D01*
X139817627Y-136957525D01*
X139733079Y-136988797D01*
X139655003Y-137018998D01*
X139614816Y-137034527D01*
X139554288Y-137054656D01*
X139523218Y-137059970D01*
X139519701Y-137052372D01*
X139541831Y-137033768D01*
X139587702Y-137006063D01*
X139655410Y-136971162D01*
X139743048Y-136930970D01*
X139815020Y-136899278D01*
X139891556Y-136863945D01*
X139936620Y-136840217D01*
X139951852Y-136827013D01*
X139938893Y-136823251D01*
X139899384Y-136827848D01*
X139887978Y-136829825D01*
X139883917Y-136830736D01*
X139817282Y-136845686D01*
X139748094Y-136865638D01*
X139730964Y-136870745D01*
X139668487Y-136881759D01*
X139616996Y-136880901D01*
X139571559Y-136879123D01*
X139524586Y-136891115D01*
X139498964Y-136901030D01*
X139485554Y-136896643D01*
X139493997Y-136873625D01*
X139524383Y-136850652D01*
X139669317Y-136850652D01*
X139675996Y-136856280D01*
X139702552Y-136854510D01*
X139735522Y-136847224D01*
X139761441Y-136836300D01*
X139768892Y-136830736D01*
X139767677Y-136824379D01*
X139733852Y-136829972D01*
X139733792Y-136829986D01*
X139692609Y-136840637D01*
X139671011Y-136848924D01*
X139669317Y-136850652D01*
X139524383Y-136850652D01*
X139528219Y-136847752D01*
X139576597Y-136837406D01*
X139585613Y-136837011D01*
X139631654Y-136829220D01*
X139691606Y-136813910D01*
X139705815Y-136809551D01*
X139835011Y-136809551D01*
X139844207Y-136818748D01*
X139853403Y-136809551D01*
X139844207Y-136800355D01*
X139835011Y-136809551D01*
X139705815Y-136809551D01*
X139755533Y-136794298D01*
X139813499Y-136773601D01*
X139855565Y-136755037D01*
X139871796Y-136741823D01*
X139859159Y-136736605D01*
X139816477Y-136731517D01*
X139750776Y-136728060D01*
X139669479Y-136726785D01*
X139611344Y-136726184D01*
X139534376Y-136722765D01*
X139484748Y-136716692D01*
X139467161Y-136708393D01*
X139472178Y-136703667D01*
X139506869Y-136696069D01*
X139569878Y-136690705D01*
X139655684Y-136688167D01*
X139708548Y-136687177D01*
X139788544Y-136683855D01*
X139852558Y-136678987D01*
X139870225Y-136676286D01*
X140021950Y-136676286D01*
X140028696Y-136775289D01*
X140041148Y-136809551D01*
X140062993Y-136869655D01*
X140122917Y-136951668D01*
X140206545Y-137013616D01*
X140228036Y-137022021D01*
X140287171Y-137034507D01*
X140353685Y-137039388D01*
X140372423Y-137039014D01*
X140466664Y-137022198D01*
X140546171Y-136977270D01*
X140619158Y-136899913D01*
X140640099Y-136870519D01*
X140660385Y-136829185D01*
X140660619Y-136827944D01*
X140736242Y-136827944D01*
X140745438Y-136837140D01*
X140754634Y-136827944D01*
X140828204Y-136827944D01*
X140837400Y-136837140D01*
X140846113Y-136828428D01*
X140929871Y-136828428D01*
X140941984Y-136832150D01*
X140988659Y-136838039D01*
X141010764Y-136840043D01*
X141044535Y-136839127D01*
X141050773Y-136831642D01*
X141049531Y-136830568D01*
X141019703Y-136822317D01*
X140973084Y-136822464D01*
X140950333Y-136824885D01*
X140932666Y-136827944D01*
X140929871Y-136828428D01*
X140846113Y-136828428D01*
X140846597Y-136827944D01*
X140837400Y-136818748D01*
X140828204Y-136827944D01*
X140754634Y-136827944D01*
X140745438Y-136818748D01*
X140736242Y-136827944D01*
X140660619Y-136827944D01*
X140664081Y-136809551D01*
X140773027Y-136809551D01*
X140782223Y-136818748D01*
X140791419Y-136809551D01*
X140864989Y-136809551D01*
X140874185Y-136818748D01*
X140883381Y-136809551D01*
X140874185Y-136800355D01*
X140864989Y-136809551D01*
X140791419Y-136809551D01*
X140782223Y-136800355D01*
X140773027Y-136809551D01*
X140664081Y-136809551D01*
X140669656Y-136779932D01*
X140671868Y-136708393D01*
X140671033Y-136658664D01*
X140665145Y-136607234D01*
X140846597Y-136607234D01*
X140855793Y-136616430D01*
X140864989Y-136607234D01*
X140855793Y-136598038D01*
X140846597Y-136607234D01*
X140665145Y-136607234D01*
X140664687Y-136603233D01*
X140661177Y-136593900D01*
X140924305Y-136593900D01*
X140944378Y-136593328D01*
X140993736Y-136579645D01*
X141011468Y-136573668D01*
X141023752Y-136566210D01*
X141002933Y-136563368D01*
X140980250Y-136565093D01*
X140938559Y-136579645D01*
X140935955Y-136581363D01*
X140924305Y-136593900D01*
X140661177Y-136593900D01*
X140648713Y-136560758D01*
X140619158Y-136516872D01*
X140602070Y-136495423D01*
X140529415Y-136426775D01*
X140448400Y-136389014D01*
X140350000Y-136377466D01*
X140329408Y-136377869D01*
X140233976Y-136394445D01*
X140154546Y-136438647D01*
X140082245Y-136515033D01*
X140044676Y-136580356D01*
X140042666Y-136588842D01*
X140038309Y-136607234D01*
X140021950Y-136676286D01*
X139870225Y-136676286D01*
X139890188Y-136673234D01*
X139936169Y-136660134D01*
X139880992Y-136645818D01*
X139868845Y-136642894D01*
X139808847Y-136631495D01*
X139743519Y-136622304D01*
X139725913Y-136619919D01*
X139668490Y-136607234D01*
X139816618Y-136607234D01*
X139825814Y-136616430D01*
X139835011Y-136607234D01*
X139908581Y-136607234D01*
X139917777Y-136616430D01*
X139926973Y-136607234D01*
X139917777Y-136598038D01*
X139908581Y-136607234D01*
X139835011Y-136607234D01*
X139825814Y-136598038D01*
X139816618Y-136607234D01*
X139668490Y-136607234D01*
X139661759Y-136605747D01*
X139611087Y-136587180D01*
X139602886Y-136583905D01*
X139644522Y-136583905D01*
X139652860Y-136588827D01*
X139685397Y-136595252D01*
X139727633Y-136598238D01*
X139764226Y-136597004D01*
X139779833Y-136590774D01*
X139778214Y-136589089D01*
X139777262Y-136588842D01*
X139853403Y-136588842D01*
X139855335Y-136590774D01*
X139862599Y-136598038D01*
X139871796Y-136588842D01*
X139945366Y-136588842D01*
X139954562Y-136598038D01*
X139963758Y-136588842D01*
X139954562Y-136579645D01*
X139945366Y-136588842D01*
X139871796Y-136588842D01*
X139862599Y-136579645D01*
X139853403Y-136588842D01*
X139777262Y-136588842D01*
X139753286Y-136582619D01*
X139707811Y-136576641D01*
X139691293Y-136575431D01*
X139654864Y-136576607D01*
X139644522Y-136583905D01*
X139602886Y-136583905D01*
X139567140Y-136569630D01*
X139523252Y-136561253D01*
X139500975Y-136557209D01*
X139485554Y-136540469D01*
X139487847Y-136534260D01*
X139514389Y-136527456D01*
X139572918Y-136532791D01*
X139573828Y-136532927D01*
X139639889Y-136542036D01*
X139714937Y-136551217D01*
X139789877Y-136559513D01*
X139855616Y-136565971D01*
X139903060Y-136569636D01*
X139923114Y-136569554D01*
X139914642Y-136563903D01*
X139878810Y-136546307D01*
X139821167Y-136519912D01*
X139748385Y-136487838D01*
X139659252Y-136447456D01*
X139588497Y-136411774D01*
X139541696Y-136383773D01*
X139522233Y-136365484D01*
X139533495Y-136358936D01*
X139553831Y-136364006D01*
X139602189Y-136379853D01*
X139670293Y-136403905D01*
X139750479Y-136433529D01*
X139771970Y-136441553D01*
X139862249Y-136473213D01*
X139926622Y-136492204D01*
X139963390Y-136498450D01*
X139970858Y-136491872D01*
X139947329Y-136472394D01*
X139891105Y-136439938D01*
X139849901Y-136415930D01*
X139777529Y-136366440D01*
X139718048Y-136317553D01*
X139701781Y-136302791D01*
X139733852Y-136302791D01*
X139785457Y-136349256D01*
X139793647Y-136356442D01*
X139830522Y-136384397D01*
X139854429Y-136395721D01*
X139858883Y-136395610D01*
X139870516Y-136389381D01*
X139852478Y-136372146D01*
X139802824Y-136341876D01*
X139733852Y-136302791D01*
X139701781Y-136302791D01*
X139688141Y-136290413D01*
X139650727Y-136260294D01*
X139629767Y-136248581D01*
X139625514Y-136247822D01*
X139614301Y-136228949D01*
X139624163Y-136217988D01*
X139654681Y-136221997D01*
X139695688Y-136240741D01*
X139736697Y-136270646D01*
X139737364Y-136271250D01*
X139774365Y-136297948D01*
X139832076Y-136332735D01*
X139898302Y-136368246D01*
X139940309Y-136389381D01*
X140020277Y-136429615D01*
X139869963Y-136264966D01*
X139856433Y-136249786D01*
X139890328Y-136249786D01*
X139906235Y-136271572D01*
X139911968Y-136278693D01*
X139936419Y-136302320D01*
X139945366Y-136296814D01*
X139938652Y-136287316D01*
X139913179Y-136264627D01*
X139899852Y-136254353D01*
X139890328Y-136249786D01*
X139856433Y-136249786D01*
X139825580Y-136215169D01*
X139774698Y-136153685D01*
X139744361Y-136111058D01*
X139735150Y-136089185D01*
X139747643Y-136089965D01*
X139782421Y-136115295D01*
X139840064Y-136167073D01*
X139891311Y-136215359D01*
X139958871Y-136278435D01*
X139978772Y-136296814D01*
X140016359Y-136331527D01*
X140096548Y-136404917D01*
X140059086Y-136330117D01*
X140049216Y-136311492D01*
X140017653Y-136261562D01*
X139989717Y-136228958D01*
X139973790Y-136210885D01*
X139944283Y-136164282D01*
X139929471Y-136134787D01*
X139945811Y-136134787D01*
X139959477Y-136156248D01*
X139990741Y-136189363D01*
X140043361Y-136239385D01*
X139998961Y-136182033D01*
X139989197Y-136169843D01*
X139961483Y-136140271D01*
X139946341Y-136132011D01*
X139945811Y-136134787D01*
X139929471Y-136134787D01*
X139915035Y-136106039D01*
X139908293Y-136092245D01*
X139926973Y-136092245D01*
X139936169Y-136101441D01*
X139945366Y-136092245D01*
X139936169Y-136083049D01*
X139926973Y-136092245D01*
X139908293Y-136092245D01*
X139894979Y-136065007D01*
X139870083Y-136024965D01*
X139852550Y-136009479D01*
X139845780Y-136008015D01*
X139844238Y-135991037D01*
X139858457Y-135981630D01*
X139889309Y-135990907D01*
X139924858Y-136022215D01*
X139956878Y-136069800D01*
X139964487Y-136083628D01*
X139970191Y-136092245D01*
X140001385Y-136139373D01*
X140044432Y-136193569D01*
X140058269Y-136209427D01*
X140083034Y-136239385D01*
X140100928Y-136261032D01*
X140133372Y-136303924D01*
X140144469Y-136319822D01*
X140155867Y-136333637D01*
X140152812Y-136320224D01*
X140135574Y-136276170D01*
X140132931Y-136269545D01*
X140100967Y-136186034D01*
X140090144Y-136155801D01*
X140112480Y-136155801D01*
X140127008Y-136179916D01*
X140129430Y-136182292D01*
X140142904Y-136191107D01*
X140137304Y-136169620D01*
X140128132Y-136152455D01*
X140114450Y-136146936D01*
X140112480Y-136155801D01*
X140090144Y-136155801D01*
X140073977Y-136110637D01*
X140092505Y-136110637D01*
X140101702Y-136119834D01*
X140110898Y-136110637D01*
X140101702Y-136101441D01*
X140092505Y-136110637D01*
X140073977Y-136110637D01*
X140070382Y-136100594D01*
X140043524Y-136020484D01*
X140022745Y-135952962D01*
X140010393Y-135905287D01*
X140008820Y-135884716D01*
X140010140Y-135884715D01*
X140024424Y-135903524D01*
X140050342Y-135948517D01*
X140084697Y-136013904D01*
X140124295Y-136093899D01*
X140132516Y-136110637D01*
X140167422Y-136181711D01*
X140172399Y-136191107D01*
X140198361Y-136240115D01*
X140218675Y-136271209D01*
X140230459Y-136278194D01*
X140235809Y-136264271D01*
X140236350Y-136256963D01*
X140230484Y-136204358D01*
X140213095Y-136147072D01*
X140205103Y-136124143D01*
X140192408Y-136064656D01*
X140204434Y-136064656D01*
X140206003Y-136080571D01*
X140221253Y-136119834D01*
X140226477Y-136127273D01*
X140236787Y-136132966D01*
X140235045Y-136112847D01*
X140221253Y-136073853D01*
X140209686Y-136053658D01*
X140204434Y-136064656D01*
X140192408Y-136064656D01*
X140190327Y-136054906D01*
X140184468Y-135983323D01*
X140183061Y-135948548D01*
X140175081Y-135896116D01*
X140162397Y-135866018D01*
X140153229Y-135853823D01*
X140158718Y-135843947D01*
X140185912Y-135853549D01*
X140211855Y-135892195D01*
X140222060Y-135953382D01*
X140222468Y-135963459D01*
X140232477Y-136027768D01*
X140251449Y-136092245D01*
X140254684Y-136100816D01*
X140264878Y-136132966D01*
X140277013Y-136171238D01*
X140293155Y-136239385D01*
X140298379Y-136260384D01*
X140303731Y-136258660D01*
X140309001Y-136227962D01*
X140314614Y-136165692D01*
X140317040Y-136129030D01*
X140350000Y-136129030D01*
X140359196Y-136138226D01*
X140368392Y-136129030D01*
X140359196Y-136119834D01*
X140350000Y-136129030D01*
X140317040Y-136129030D01*
X140320995Y-136069254D01*
X140322366Y-136047466D01*
X140329040Y-135960509D01*
X140336348Y-135890036D01*
X140343497Y-135842800D01*
X140349691Y-135825554D01*
X140350995Y-135826525D01*
X140357405Y-135851316D01*
X140364499Y-135904538D01*
X140371503Y-135979436D01*
X140377641Y-136069254D01*
X140381211Y-136129030D01*
X140383194Y-136162239D01*
X140388122Y-136228650D01*
X140392936Y-136266359D01*
X140398505Y-136279496D01*
X140405698Y-136272193D01*
X140415387Y-136248581D01*
X140415705Y-136247712D01*
X140432701Y-136182091D01*
X140440563Y-136114645D01*
X140440648Y-136111601D01*
X140446661Y-136068588D01*
X140463208Y-136068588D01*
X140466069Y-136115236D01*
X140467788Y-136120454D01*
X140472562Y-136116511D01*
X140474480Y-136083049D01*
X140474302Y-136070570D01*
X140471400Y-136045138D01*
X140466069Y-136050862D01*
X140463208Y-136068588D01*
X140446661Y-136068588D01*
X140450071Y-136044195D01*
X140469551Y-135979053D01*
X140473185Y-135970055D01*
X140490215Y-135917882D01*
X140497140Y-135878485D01*
X140500616Y-135859227D01*
X140517464Y-135843947D01*
X140520187Y-135844352D01*
X140530062Y-135866543D01*
X140526342Y-135922115D01*
X140523155Y-135944113D01*
X140510388Y-136037207D01*
X140504662Y-136083049D01*
X140499677Y-136122955D01*
G37*
G36*
X140561070Y-136634791D02*
G01*
X140542645Y-136667010D01*
X140511864Y-136693934D01*
X140466560Y-136708110D01*
X140423868Y-136703208D01*
X140397516Y-136678172D01*
X140393666Y-136667175D01*
X140393233Y-136644759D01*
X140414207Y-136630070D01*
X140430142Y-136625627D01*
X140533925Y-136625627D01*
X140543121Y-136634823D01*
X140552317Y-136625627D01*
X140543121Y-136616430D01*
X140533925Y-136625627D01*
X140430142Y-136625627D01*
X140464019Y-136616181D01*
X140524728Y-136601803D01*
X140467205Y-136599921D01*
X140453052Y-136599923D01*
X140401361Y-136613978D01*
X140376841Y-136652254D01*
X140378510Y-136716034D01*
X140380893Y-136727257D01*
X140393697Y-136762454D01*
X140407194Y-136771520D01*
X140412685Y-136769259D01*
X140423570Y-136780877D01*
X140420002Y-136786594D01*
X140390617Y-136796474D01*
X140340804Y-136800355D01*
X140316088Y-136799658D01*
X140274482Y-136794219D01*
X140258038Y-136785148D01*
X140258058Y-136784734D01*
X140274749Y-136776724D01*
X140313215Y-136778039D01*
X140337961Y-136780647D01*
X140362559Y-136773962D01*
X140368392Y-136747265D01*
X140364469Y-136717484D01*
X140348397Y-136712085D01*
X140318826Y-136740580D01*
X140305955Y-136756006D01*
X140301054Y-136757588D01*
X140314093Y-136729057D01*
X140324374Y-136700062D01*
X140321290Y-136648217D01*
X140290043Y-136612425D01*
X140235441Y-136600543D01*
X140203729Y-136602401D01*
X140195900Y-136605689D01*
X140221253Y-136611501D01*
X140266291Y-136625627D01*
X140275020Y-136628365D01*
X140300742Y-136653462D01*
X140292797Y-136683244D01*
X140288089Y-136688309D01*
X140246256Y-136706979D01*
X140197934Y-136699653D01*
X140158294Y-136668047D01*
X140145724Y-136648669D01*
X140141047Y-136625627D01*
X140147683Y-136625627D01*
X140156879Y-136634823D01*
X140166075Y-136625627D01*
X140156879Y-136616430D01*
X140147683Y-136625627D01*
X140141047Y-136625627D01*
X140140436Y-136622616D01*
X140160102Y-136594477D01*
X140203800Y-136566871D01*
X140259304Y-136565889D01*
X140310260Y-136595083D01*
X140333604Y-136615898D01*
X140354521Y-136617452D01*
X140385867Y-136595083D01*
X140422739Y-136571589D01*
X140477198Y-136564547D01*
X140532454Y-136593440D01*
X140553598Y-136612404D01*
X140558011Y-136625627D01*
X140561070Y-136634791D01*
G37*
G36*
X140387603Y-136830781D02*
G01*
X140416290Y-136850218D01*
X140414134Y-136885863D01*
X140406163Y-136906818D01*
X140401236Y-136930635D01*
X140387197Y-136938164D01*
X140350000Y-136941364D01*
X140313262Y-136938260D01*
X140298764Y-136930635D01*
X140297438Y-136919335D01*
X140286274Y-136886926D01*
X140278373Y-136857815D01*
X140292686Y-136838682D01*
X140337828Y-136829180D01*
X140387603Y-136830781D01*
G37*
G36*
X145352751Y-138805134D02*
G01*
X145352751Y-139835113D01*
X140350000Y-139835113D01*
X135347248Y-139835113D01*
X135347248Y-138805134D01*
X135347248Y-137775156D01*
X140350000Y-137775156D01*
X145352751Y-137775156D01*
X145352751Y-138805134D01*
G37*
G36*
X145352751Y-134602455D02*
G01*
X145352751Y-135641630D01*
X140350000Y-135641630D01*
X135347248Y-135641630D01*
X135347248Y-134602455D01*
X135347248Y-133563281D01*
X140350000Y-133563281D01*
X145352751Y-133563281D01*
X145352751Y-134602455D01*
G37*
D11*
%TO.C,TP1*%
X78800000Y-96900000D02*
X77400000Y-96900000D01*
X78800000Y-95500000D02*
X78800000Y-96900000D01*
X77400000Y-96900000D02*
X77400000Y-95500000D01*
X77400000Y-95500000D02*
X78800000Y-95500000D01*
%TO.C,TP7*%
X144900000Y-89600000D02*
G75*
G02*
X142500000Y-89600000I-1200000J0D01*
G01*
X142500000Y-89600000D02*
G75*
G02*
X144900000Y-89600000I1200000J0D01*
G01*
%TO.C,JP7*%
X159499998Y-136450000D02*
X156699998Y-136450000D01*
X159499998Y-134450000D02*
X159499998Y-136450000D01*
X156699998Y-136450000D02*
X156699998Y-134450000D01*
X156699998Y-134450000D02*
X159499998Y-134450000D01*
%TO.C,TP5*%
X106700000Y-107800000D02*
X105300000Y-107800000D01*
X106700000Y-106400000D02*
X106700000Y-107800000D01*
X105300000Y-107800000D02*
X105300000Y-106400000D01*
X105300000Y-106400000D02*
X106700000Y-106400000D01*
%TO.C,TP13*%
X144075000Y-67800000D02*
X142675000Y-67800000D01*
X144075000Y-66400000D02*
X144075000Y-67800000D01*
X142675000Y-67800000D02*
X142675000Y-66400000D01*
X142675000Y-66400000D02*
X144075000Y-66400000D01*
%TO.C,TP6*%
X101200000Y-106700000D02*
X99800000Y-106700000D01*
X101200000Y-105300000D02*
X101200000Y-106700000D01*
X99800000Y-106700000D02*
X99800000Y-105300000D01*
X99800000Y-105300000D02*
X101200000Y-105300000D01*
%TO.C,TP12*%
X106000000Y-114200000D02*
X104600000Y-114200000D01*
X106000000Y-112800000D02*
X106000000Y-114200000D01*
X104600000Y-114200000D02*
X104600000Y-112800000D01*
X104600000Y-112800000D02*
X106000000Y-112800000D01*
%TO.C,TP4*%
X107500000Y-104200000D02*
X106100000Y-104200000D01*
X107500000Y-102800000D02*
X107500000Y-104200000D01*
X106100000Y-104200000D02*
X106100000Y-102800000D01*
X106100000Y-102800000D02*
X107500000Y-102800000D01*
%TO.C,JP8*%
X159499998Y-132900000D02*
X156699998Y-132900000D01*
X159499998Y-130900000D02*
X159499998Y-132900000D01*
X156699998Y-132900000D02*
X156699998Y-130900000D01*
X156699998Y-130900000D02*
X159499998Y-130900000D01*
D12*
%TO.C,G\u002A\u002A\u002A*%
G36*
X99448889Y-77681111D02*
G01*
X99448889Y-79092223D01*
X100860000Y-79092223D01*
X100860000Y-80503334D01*
X102271111Y-80503334D01*
X102271111Y-81914445D01*
X105093333Y-81914445D01*
X105093333Y-83325556D01*
X100860000Y-83325556D01*
X100860000Y-81914445D01*
X96626667Y-81914445D01*
X96626667Y-80503334D01*
X92393333Y-80503334D01*
X92393333Y-79092223D01*
X88160000Y-79092223D01*
X88160000Y-81914445D01*
X86748889Y-81914445D01*
X86748889Y-79092223D01*
X82515555Y-79092223D01*
X82515555Y-80503334D01*
X81104444Y-80503334D01*
X81104444Y-81914445D01*
X82515555Y-81914445D01*
X82515555Y-84736667D01*
X81104444Y-84736667D01*
X81104444Y-83325556D01*
X75460000Y-83325556D01*
X75460000Y-81914445D01*
X79693333Y-81914445D01*
X79693333Y-80503334D01*
X78282222Y-80503334D01*
X78282222Y-79092223D01*
X79693333Y-79092223D01*
X79693333Y-77681111D01*
X81104444Y-77681111D01*
X83926667Y-77681111D01*
X90982222Y-77681111D01*
X93804444Y-77681111D01*
X93804444Y-74858889D01*
X90982222Y-74858889D01*
X90982222Y-77681111D01*
X83926667Y-77681111D01*
X83926667Y-74858889D01*
X81104444Y-74858889D01*
X81104444Y-77681111D01*
X79693333Y-77681111D01*
X78282222Y-77681111D01*
X78282222Y-79092223D01*
X76871111Y-79092223D01*
X76871111Y-77681111D01*
X78282222Y-77681111D01*
X78282222Y-73447778D01*
X79693333Y-73447778D01*
X79693333Y-72036667D01*
X92393333Y-72036667D01*
X92393333Y-73447778D01*
X95215555Y-73447778D01*
X95215555Y-74858889D01*
X96626667Y-74858889D01*
X96626667Y-76270000D01*
X98037778Y-76270000D01*
X98037778Y-77681111D01*
X99448889Y-77681111D01*
G37*
G36*
X127671111Y-83325556D02*
G01*
X126260000Y-83325556D01*
X126260000Y-84736667D01*
X124848889Y-84736667D01*
X124848889Y-83325556D01*
X123437778Y-83325556D01*
X123437778Y-86147778D01*
X122026667Y-86147778D01*
X122026667Y-84736667D01*
X119204444Y-84736667D01*
X119204444Y-86147778D01*
X117793333Y-86147778D01*
X117793333Y-84736667D01*
X114971111Y-84736667D01*
X114971111Y-86147778D01*
X113560000Y-86147778D01*
X113560000Y-84736667D01*
X109326667Y-84736667D01*
X109326667Y-86147778D01*
X107915555Y-86147778D01*
X107915555Y-84736667D01*
X105093333Y-84736667D01*
X105093333Y-83325556D01*
X122026667Y-83325556D01*
X122026667Y-81914445D01*
X127671111Y-81914445D01*
X127671111Y-83325556D01*
G37*
G36*
X106504444Y-57925556D02*
G01*
X106504444Y-56514445D01*
X107915555Y-56514445D01*
X107915555Y-57925556D01*
X110737778Y-57925556D01*
X110737778Y-59336667D01*
X105093333Y-59336667D01*
X105093333Y-57925556D01*
X106504444Y-57925556D01*
G37*
G36*
X105093333Y-55103334D02*
G01*
X102271111Y-55103334D01*
X102271111Y-56514445D01*
X105093333Y-56514445D01*
X105093333Y-55103334D01*
X106504444Y-55103334D01*
X106504444Y-56514445D01*
X105093333Y-56514445D01*
X105093333Y-57925556D01*
X96626667Y-57925556D01*
X96626667Y-56514445D01*
X100860000Y-56514445D01*
X100860000Y-55103334D01*
X102271111Y-55103334D01*
X102271111Y-53692223D01*
X105093333Y-53692223D01*
X105093333Y-55103334D01*
G37*
G36*
X116382222Y-60747778D02*
G01*
X116382222Y-57925556D01*
X117793333Y-57925556D01*
X117793333Y-60747778D01*
X117793333Y-63570000D01*
X116382222Y-63570000D01*
X116382222Y-62158889D01*
X114971111Y-62158889D01*
X114971111Y-60747778D01*
X116382222Y-60747778D01*
G37*
G36*
X116382222Y-57925556D02*
G01*
X113560000Y-57925556D01*
X113560000Y-59336667D01*
X114971111Y-59336667D01*
X114971111Y-60747778D01*
X110737778Y-60747778D01*
X110737778Y-59336667D01*
X112148889Y-59336667D01*
X112148889Y-57925556D01*
X113560000Y-57925556D01*
X113560000Y-56514445D01*
X116382222Y-56514445D01*
X116382222Y-57925556D01*
G37*
G36*
X120615555Y-73730000D02*
G01*
X117793333Y-73730000D01*
X117793333Y-76552222D01*
X119204444Y-76552222D01*
X119204444Y-75141111D01*
X120615555Y-75141111D01*
X120615555Y-76552222D01*
X119204444Y-76552222D01*
X119204444Y-77963333D01*
X117793333Y-77963333D01*
X117793333Y-76552222D01*
X116382222Y-76552222D01*
X116382222Y-73730000D01*
X117793333Y-73730000D01*
X117793333Y-72318889D01*
X120615555Y-72318889D01*
X120615555Y-73730000D01*
G37*
G36*
X122026667Y-73730000D02*
G01*
X122026667Y-75141111D01*
X120615555Y-75141111D01*
X120615555Y-73730000D01*
X122026667Y-73730000D01*
G37*
G36*
X112713333Y-70907778D02*
G01*
X109891111Y-70907778D01*
X109891111Y-73730000D01*
X111302222Y-73730000D01*
X111302222Y-72318889D01*
X112713333Y-72318889D01*
X112713333Y-73730000D01*
X111302222Y-73730000D01*
X111302222Y-75141111D01*
X109891111Y-75141111D01*
X109891111Y-73730000D01*
X108480000Y-73730000D01*
X108480000Y-70907778D01*
X109891111Y-70907778D01*
X109891111Y-69496666D01*
X112713333Y-69496666D01*
X112713333Y-70907778D01*
G37*
G36*
X114124444Y-70907778D02*
G01*
X114124444Y-72318889D01*
X112713333Y-72318889D01*
X112713333Y-70907778D01*
X114124444Y-70907778D01*
G37*
G36*
X102553333Y-66110000D02*
G01*
X99731111Y-66110000D01*
X99731111Y-68932222D01*
X101142222Y-68932222D01*
X101142222Y-67521111D01*
X102553333Y-67521111D01*
X102553333Y-68932222D01*
X101142222Y-68932222D01*
X101142222Y-70343333D01*
X99731111Y-70343333D01*
X99731111Y-68932222D01*
X98320000Y-68932222D01*
X98320000Y-66110000D01*
X99731111Y-66110000D01*
X99731111Y-64698889D01*
X102553333Y-64698889D01*
X102553333Y-66110000D01*
G37*
G36*
X103964444Y-66110000D02*
G01*
X103964444Y-67521111D01*
X102553333Y-67521111D01*
X102553333Y-66110000D01*
X103964444Y-66110000D01*
G37*
G36*
X110737778Y-88970000D02*
G01*
X112148889Y-88970000D01*
X112148889Y-91792223D01*
X110737778Y-91792223D01*
X110737778Y-90381111D01*
X109326667Y-90381111D01*
X109326667Y-94614445D01*
X107915555Y-94614445D01*
X107915555Y-88970000D01*
X109326667Y-88970000D01*
X109326667Y-86147778D01*
X110737778Y-86147778D01*
X110737778Y-88970000D01*
G37*
G36*
X116382222Y-88970000D02*
G01*
X119204444Y-88970000D01*
X119204444Y-90381111D01*
X116382222Y-90381111D01*
X116382222Y-96025556D01*
X114971111Y-96025556D01*
X114971111Y-86147778D01*
X116382222Y-86147778D01*
X116382222Y-88970000D01*
G37*
G36*
X102271111Y-94614445D02*
G01*
X93804444Y-94614445D01*
X93804444Y-96025556D01*
X92393333Y-96025556D01*
X92393333Y-94614445D01*
X90982222Y-94614445D01*
X90982222Y-93203334D01*
X102271111Y-93203334D01*
X102271111Y-94614445D01*
G37*
G36*
X81104444Y-93203334D02*
G01*
X74048889Y-93203334D01*
X74048889Y-94614445D01*
X72637778Y-94614445D01*
X72637778Y-93203334D01*
X69815555Y-93203334D01*
X69815555Y-91792223D01*
X81104444Y-91792223D01*
X81104444Y-93203334D01*
G37*
G36*
X130493333Y-81914445D02*
G01*
X127671111Y-81914445D01*
X127671111Y-80503334D01*
X129082222Y-80503334D01*
X129082222Y-77681111D01*
X130493333Y-77681111D01*
X130493333Y-81914445D01*
G37*
G36*
X129082222Y-87558889D02*
G01*
X127671111Y-87558889D01*
X127671111Y-86147778D01*
X126260000Y-86147778D01*
X126260000Y-84736667D01*
X129082222Y-84736667D01*
X129082222Y-87558889D01*
G37*
G36*
X126260000Y-87558889D02*
G01*
X124848889Y-87558889D01*
X124848889Y-94614445D01*
X123437778Y-94614445D01*
X123437778Y-86147778D01*
X126260000Y-86147778D01*
X126260000Y-87558889D01*
G37*
G36*
X89571111Y-88970000D02*
G01*
X88160000Y-88970000D01*
X88160000Y-91792223D01*
X86748889Y-91792223D01*
X86748889Y-87558889D01*
X89571111Y-87558889D01*
X89571111Y-88970000D01*
G37*
G36*
X133315555Y-90381111D02*
G01*
X131904444Y-90381111D01*
X131904444Y-83325556D01*
X133315555Y-83325556D01*
X133315555Y-90381111D01*
G37*
G36*
X131904444Y-91792223D02*
G01*
X130493333Y-91792223D01*
X130493333Y-90381111D01*
X131904444Y-90381111D01*
X131904444Y-91792223D01*
G37*
G36*
X131904444Y-83325556D02*
G01*
X130493333Y-83325556D01*
X130493333Y-81914445D01*
X131904444Y-81914445D01*
X131904444Y-83325556D01*
G37*
G36*
X130493333Y-90381111D02*
G01*
X129082222Y-90381111D01*
X129082222Y-87558889D01*
X130493333Y-87558889D01*
X130493333Y-90381111D01*
G37*
G36*
X129082222Y-77681111D02*
G01*
X126260000Y-77681111D01*
X126260000Y-76270000D01*
X129082222Y-76270000D01*
X129082222Y-77681111D01*
G37*
G36*
X126260000Y-76270000D02*
G01*
X124848889Y-76270000D01*
X124848889Y-73447778D01*
X126260000Y-73447778D01*
X126260000Y-76270000D01*
G37*
G36*
X124848889Y-73447778D02*
G01*
X123437778Y-73447778D01*
X123437778Y-69214445D01*
X124848889Y-69214445D01*
X124848889Y-73447778D01*
G37*
G36*
X124848889Y-67803334D02*
G01*
X123437778Y-67803334D01*
X123437778Y-64981111D01*
X124848889Y-64981111D01*
X124848889Y-67803334D01*
G37*
G36*
X123437778Y-96025556D02*
G01*
X122026667Y-96025556D01*
X122026667Y-94614445D01*
X123437778Y-94614445D01*
X123437778Y-96025556D01*
G37*
G36*
X123437778Y-79092223D02*
G01*
X122026667Y-79092223D01*
X122026667Y-77681111D01*
X123437778Y-77681111D01*
X123437778Y-79092223D01*
G37*
G36*
X123437778Y-69214445D02*
G01*
X122026667Y-69214445D01*
X122026667Y-67803334D01*
X123437778Y-67803334D01*
X123437778Y-69214445D01*
G37*
G36*
X122026667Y-94614445D02*
G01*
X120615555Y-94614445D01*
X120615555Y-88970000D01*
X122026667Y-88970000D01*
X122026667Y-94614445D01*
G37*
G36*
X122026667Y-67803334D02*
G01*
X120615555Y-67803334D01*
X120615555Y-66392223D01*
X122026667Y-66392223D01*
X122026667Y-67803334D01*
G37*
G36*
X123437778Y-64981111D02*
G01*
X120615555Y-64981111D01*
X120615555Y-63570000D01*
X123437778Y-63570000D01*
X123437778Y-64981111D01*
G37*
G36*
X120615555Y-88970000D02*
G01*
X119204444Y-88970000D01*
X119204444Y-86147778D01*
X120615555Y-86147778D01*
X120615555Y-88970000D01*
G37*
G36*
X120615555Y-66392223D02*
G01*
X119204444Y-66392223D01*
X119204444Y-64981111D01*
X120615555Y-64981111D01*
X120615555Y-66392223D01*
G37*
G36*
X119204444Y-64981111D02*
G01*
X117793333Y-64981111D01*
X117793333Y-63570000D01*
X119204444Y-63570000D01*
X119204444Y-64981111D01*
G37*
G36*
X114971111Y-97436667D02*
G01*
X113560000Y-97436667D01*
X113560000Y-96025556D01*
X114971111Y-96025556D01*
X114971111Y-97436667D01*
G37*
G36*
X113560000Y-96025556D02*
G01*
X112148889Y-96025556D01*
X112148889Y-91792223D01*
X113560000Y-91792223D01*
X113560000Y-96025556D01*
G37*
G36*
X122026667Y-80503334D02*
G01*
X109326667Y-80503334D01*
X109326667Y-79092223D01*
X122026667Y-79092223D01*
X122026667Y-80503334D01*
G37*
G36*
X107915555Y-96025556D02*
G01*
X106504444Y-96025556D01*
X106504444Y-94614445D01*
X107915555Y-94614445D01*
X107915555Y-96025556D01*
G37*
G36*
X107915555Y-88970000D02*
G01*
X106504444Y-88970000D01*
X106504444Y-87558889D01*
X107915555Y-87558889D01*
X107915555Y-88970000D01*
G37*
G36*
X109326667Y-79092223D02*
G01*
X106504444Y-79092223D01*
X106504444Y-77681111D01*
X109326667Y-77681111D01*
X109326667Y-79092223D01*
G37*
G36*
X106504444Y-91792223D02*
G01*
X105093333Y-91792223D01*
X105093333Y-90381111D01*
X106504444Y-90381111D01*
X106504444Y-91792223D01*
G37*
G36*
X106504444Y-87558889D02*
G01*
X105093333Y-87558889D01*
X105093333Y-86147778D01*
X106504444Y-86147778D01*
X106504444Y-87558889D01*
G37*
G36*
X106504444Y-97436667D02*
G01*
X103682222Y-97436667D01*
X103682222Y-96025556D01*
X106504444Y-96025556D01*
X106504444Y-97436667D01*
G37*
G36*
X106504444Y-77681111D02*
G01*
X103682222Y-77681111D01*
X103682222Y-76270000D01*
X106504444Y-76270000D01*
X106504444Y-77681111D01*
G37*
G36*
X105093333Y-93203334D02*
G01*
X102271111Y-93203334D01*
X102271111Y-91792223D01*
X105093333Y-91792223D01*
X105093333Y-93203334D01*
G37*
G36*
X103682222Y-76270000D02*
G01*
X102271111Y-76270000D01*
X102271111Y-74858889D01*
X103682222Y-74858889D01*
X103682222Y-76270000D01*
G37*
G36*
X102271111Y-74858889D02*
G01*
X100860000Y-74858889D01*
X100860000Y-73447778D01*
X102271111Y-73447778D01*
X102271111Y-74858889D01*
G37*
G36*
X103682222Y-60747778D02*
G01*
X99448889Y-60747778D01*
X99448889Y-59336667D01*
X103682222Y-59336667D01*
X103682222Y-60747778D01*
G37*
G36*
X100860000Y-73447778D02*
G01*
X98037778Y-73447778D01*
X98037778Y-72036667D01*
X100860000Y-72036667D01*
X100860000Y-73447778D01*
G37*
G36*
X99448889Y-62158889D02*
G01*
X96626667Y-62158889D01*
X96626667Y-60747778D01*
X99448889Y-60747778D01*
X99448889Y-62158889D01*
G37*
G36*
X103682222Y-98847778D02*
G01*
X95215555Y-98847778D01*
X95215555Y-97436667D01*
X103682222Y-97436667D01*
X103682222Y-98847778D01*
G37*
G36*
X98037778Y-72036667D02*
G01*
X95215555Y-72036667D01*
X95215555Y-70625556D01*
X98037778Y-70625556D01*
X98037778Y-72036667D01*
G37*
G36*
X96626667Y-63570000D02*
G01*
X95215555Y-63570000D01*
X95215555Y-62158889D01*
X96626667Y-62158889D01*
X96626667Y-63570000D01*
G37*
G36*
X95215555Y-97436667D02*
G01*
X93804444Y-97436667D01*
X93804444Y-96025556D01*
X95215555Y-96025556D01*
X95215555Y-97436667D01*
G37*
G36*
X105093333Y-86147778D02*
G01*
X93804444Y-86147778D01*
X93804444Y-84736667D01*
X105093333Y-84736667D01*
X105093333Y-86147778D01*
G37*
G36*
X95215555Y-64981111D02*
G01*
X93804444Y-64981111D01*
X93804444Y-63570000D01*
X95215555Y-63570000D01*
X95215555Y-64981111D01*
G37*
G36*
X93804444Y-87558889D02*
G01*
X92393333Y-87558889D01*
X92393333Y-86147778D01*
X93804444Y-86147778D01*
X93804444Y-87558889D01*
G37*
G36*
X95215555Y-70625556D02*
G01*
X92393333Y-70625556D01*
X92393333Y-69214445D01*
X95215555Y-69214445D01*
X95215555Y-70625556D01*
G37*
G36*
X93804444Y-67803334D02*
G01*
X92393333Y-67803334D01*
X92393333Y-64981111D01*
X93804444Y-64981111D01*
X93804444Y-67803334D01*
G37*
G36*
X96626667Y-59336667D02*
G01*
X92393333Y-59336667D01*
X92393333Y-57925556D01*
X96626667Y-57925556D01*
X96626667Y-59336667D01*
G37*
G36*
X92393333Y-88970000D02*
G01*
X90982222Y-88970000D01*
X90982222Y-87558889D01*
X92393333Y-87558889D01*
X92393333Y-88970000D01*
G37*
G36*
X92393333Y-86147778D02*
G01*
X90982222Y-86147778D01*
X90982222Y-84736667D01*
X92393333Y-84736667D01*
X92393333Y-86147778D01*
G37*
G36*
X90982222Y-93203334D02*
G01*
X89571111Y-93203334D01*
X89571111Y-88970000D01*
X90982222Y-88970000D01*
X90982222Y-93203334D01*
G37*
G36*
X90982222Y-84736667D02*
G01*
X89571111Y-84736667D01*
X89571111Y-83325556D01*
X90982222Y-83325556D01*
X90982222Y-84736667D01*
G37*
G36*
X92393333Y-60747778D02*
G01*
X89571111Y-60747778D01*
X89571111Y-59336667D01*
X92393333Y-59336667D01*
X92393333Y-60747778D01*
G37*
G36*
X89571111Y-83325556D02*
G01*
X88160000Y-83325556D01*
X88160000Y-81914445D01*
X89571111Y-81914445D01*
X89571111Y-83325556D01*
G37*
G36*
X89571111Y-62158889D02*
G01*
X88160000Y-62158889D01*
X88160000Y-60747778D01*
X89571111Y-60747778D01*
X89571111Y-62158889D01*
G37*
G36*
X88160000Y-63570000D02*
G01*
X86748889Y-63570000D01*
X86748889Y-62158889D01*
X88160000Y-62158889D01*
X88160000Y-63570000D01*
G37*
G36*
X89571111Y-58986711D02*
G01*
X86748889Y-58986711D01*
X86748889Y-57575600D01*
X89571111Y-57575600D01*
X89571111Y-58986711D01*
G37*
G36*
X86748889Y-93203334D02*
G01*
X85337778Y-93203334D01*
X85337778Y-91792223D01*
X86748889Y-91792223D01*
X86748889Y-93203334D01*
G37*
G36*
X92393333Y-69214445D02*
G01*
X85337778Y-69214445D01*
X85337778Y-67803334D01*
X92393333Y-67803334D01*
X92393333Y-69214445D01*
G37*
G36*
X86748889Y-62158889D02*
G01*
X85337778Y-62158889D01*
X85337778Y-59336667D01*
X86748889Y-59336667D01*
X86748889Y-62158889D01*
G37*
G36*
X85337778Y-94614445D02*
G01*
X83926667Y-94614445D01*
X83926667Y-93203334D01*
X85337778Y-93203334D01*
X85337778Y-94614445D01*
G37*
G36*
X85337778Y-90381111D02*
G01*
X83926667Y-90381111D01*
X83926667Y-88970000D01*
X85337778Y-88970000D01*
X85337778Y-90381111D01*
G37*
G36*
X86748889Y-87558889D02*
G01*
X83926667Y-87558889D01*
X83926667Y-86147778D01*
X86748889Y-86147778D01*
X86748889Y-87558889D01*
G37*
G36*
X86748889Y-64981111D02*
G01*
X83926667Y-64981111D01*
X83926667Y-63570000D01*
X86748889Y-63570000D01*
X86748889Y-64981111D01*
G37*
G36*
X83926667Y-86147778D02*
G01*
X82515555Y-86147778D01*
X82515555Y-84736667D01*
X83926667Y-84736667D01*
X83926667Y-86147778D01*
G37*
G36*
X83926667Y-91792223D02*
G01*
X81104444Y-91792223D01*
X81104444Y-90381111D01*
X83926667Y-90381111D01*
X83926667Y-91792223D01*
G37*
G36*
X83926667Y-66392223D02*
G01*
X81104444Y-66392223D01*
X81104444Y-64981111D01*
X83926667Y-64981111D01*
X83926667Y-66392223D01*
G37*
G36*
X85337778Y-70625556D02*
G01*
X78282222Y-70625556D01*
X78282222Y-69214445D01*
X85337778Y-69214445D01*
X85337778Y-70625556D01*
G37*
G36*
X78282222Y-72036667D02*
G01*
X76871111Y-72036667D01*
X76871111Y-70625556D01*
X78282222Y-70625556D01*
X78282222Y-72036667D01*
G37*
G36*
X81104444Y-67803334D02*
G01*
X76871111Y-67803334D01*
X76871111Y-66392223D01*
X81104444Y-66392223D01*
X81104444Y-67803334D01*
G37*
G36*
X76871111Y-77681111D02*
G01*
X75460000Y-77681111D01*
X75460000Y-76270000D01*
X76871111Y-76270000D01*
X76871111Y-77681111D01*
G37*
G36*
X76871111Y-69214445D02*
G01*
X75460000Y-69214445D01*
X75460000Y-67803334D01*
X76871111Y-67803334D01*
X76871111Y-69214445D01*
G37*
G36*
X83926667Y-96025556D02*
G01*
X74048889Y-96025556D01*
X74048889Y-94614445D01*
X83926667Y-94614445D01*
X83926667Y-96025556D01*
G37*
G36*
X75460000Y-76270000D02*
G01*
X74048889Y-76270000D01*
X74048889Y-74858889D01*
X75460000Y-74858889D01*
X75460000Y-76270000D01*
G37*
G36*
X75460000Y-70625556D02*
G01*
X74048889Y-70625556D01*
X74048889Y-69214445D01*
X75460000Y-69214445D01*
X75460000Y-70625556D01*
G37*
G36*
X74048889Y-74858889D02*
G01*
X72637778Y-74858889D01*
X72637778Y-70625556D01*
X74048889Y-70625556D01*
X74048889Y-74858889D01*
G37*
G36*
X75460000Y-84736667D02*
G01*
X71226667Y-84736667D01*
X71226667Y-83325556D01*
X75460000Y-83325556D01*
X75460000Y-84736667D01*
G37*
G36*
X71226667Y-86147778D02*
G01*
X69815555Y-86147778D01*
X69815555Y-84736667D01*
X71226667Y-84736667D01*
X71226667Y-86147778D01*
G37*
G36*
X69815555Y-91792223D02*
G01*
X68404444Y-91792223D01*
X68404444Y-86147778D01*
X69815555Y-86147778D01*
X69815555Y-91792223D01*
G37*
D13*
X89588045Y-59426978D02*
X90999156Y-59426978D01*
X90999156Y-58185200D01*
X89588045Y-58185200D01*
X89588045Y-59426978D01*
G36*
X89588045Y-59426978D02*
G01*
X90999156Y-59426978D01*
X90999156Y-58185200D01*
X89588045Y-58185200D01*
X89588045Y-59426978D01*
G37*
X85326489Y-59364889D02*
X86737600Y-59364889D01*
X86737600Y-58123111D01*
X85326489Y-58123111D01*
X85326489Y-59364889D01*
G36*
X85326489Y-59364889D02*
G01*
X86737600Y-59364889D01*
X86737600Y-58123111D01*
X85326489Y-58123111D01*
X85326489Y-59364889D01*
G37*
D11*
%TO.C,TP2*%
X111900000Y-104100000D02*
X110500000Y-104100000D01*
X111900000Y-102700000D02*
X111900000Y-104100000D01*
X110500000Y-104100000D02*
X110500000Y-102700000D01*
X110500000Y-102700000D02*
X111900000Y-102700000D01*
%TO.C,TP3*%
X106000000Y-99400000D02*
X104600000Y-99400000D01*
X106000000Y-98000000D02*
X106000000Y-99400000D01*
X104600000Y-99400000D02*
X104600000Y-98000000D01*
X104600000Y-98000000D02*
X106000000Y-98000000D01*
%TD*%
%LPC*%
D14*
%TO.C,J13*%
X57467600Y-62836000D03*
X57467600Y-66986000D03*
X57467600Y-70316000D03*
X57467600Y-73646000D03*
X57467600Y-76976000D03*
X57467600Y-80306000D03*
X57467600Y-83636000D03*
X57467600Y-87786000D03*
X61667600Y-62836000D03*
X61667600Y-66986000D03*
X61667600Y-70316000D03*
X61667600Y-73646000D03*
X61667600Y-76976000D03*
X61667600Y-80306000D03*
X61667600Y-83636000D03*
X61667600Y-87786000D03*
X65867600Y-62836000D03*
X65867600Y-66986000D03*
X65867600Y-70316000D03*
X65867600Y-73646000D03*
X65867600Y-76976000D03*
X65867600Y-80306000D03*
X65867600Y-83636000D03*
X65867600Y-87786000D03*
%TD*%
D15*
%TO.C,J11*%
X89150000Y-115925000D03*
%TD*%
D16*
%TO.C,A1*%
X163505600Y-130683000D03*
X163505600Y-133223000D03*
X163505600Y-135763000D03*
X163505600Y-138303000D03*
X163505600Y-140843000D03*
X163505600Y-143383000D03*
X163505600Y-145923000D03*
X163505600Y-148463000D03*
X150805600Y-148463000D03*
X150805600Y-145923000D03*
X150805600Y-143383000D03*
X150805600Y-140843000D03*
X150805600Y-138303000D03*
X150805600Y-135763000D03*
X150805600Y-133223000D03*
D17*
X150805600Y-130683000D03*
%TD*%
D18*
%TO.C,TP17*%
X106400000Y-78800000D03*
%TD*%
D19*
%TO.C,J2*%
X129885000Y-147500000D03*
X127345000Y-147500000D03*
X124804999Y-147500000D03*
X122265000Y-147500000D03*
D20*
X119725000Y-147500000D03*
%TD*%
D19*
%TO.C,J14*%
X130140001Y-108100000D03*
X127600000Y-108100000D03*
X125060001Y-108100000D03*
D20*
X122520001Y-108100000D03*
%TD*%
D18*
%TO.C,TP10*%
X79400000Y-70500000D03*
%TD*%
D21*
%TO.C,REF\u002A\u002A*%
X74573600Y-58801000D03*
%TD*%
D18*
%TO.C,TP20*%
X53300000Y-96800000D03*
%TD*%
D22*
%TO.C,J9*%
X139016000Y-102660000D03*
X136984000Y-102660000D03*
D23*
X140540000Y-104565000D03*
X135460000Y-104565000D03*
X140540000Y-107740000D03*
D22*
X138000000Y-107740000D03*
D23*
X135460000Y-107740000D03*
%TD*%
D19*
%TO.C,J4*%
X132420000Y-112530000D03*
X129880000Y-112530000D03*
X127339999Y-112530000D03*
X124800000Y-112530000D03*
D20*
X122260000Y-112530000D03*
%TD*%
D18*
%TO.C,TP14*%
X79350800Y-78654400D03*
%TD*%
D21*
%TO.C,REF\u002A\u002A*%
X157631600Y-145821000D03*
%TD*%
%TO.C,REF\u002A\u002A*%
X157631600Y-58821000D03*
%TD*%
D19*
%TO.C,J3*%
X53840000Y-100700000D03*
X56380000Y-100700000D03*
X58920001Y-100700000D03*
X61460000Y-100700000D03*
D20*
X64000000Y-100700000D03*
%TD*%
D24*
%TO.C,J8*%
X131226650Y-98645583D03*
X126064771Y-93483704D03*
D25*
X129158363Y-97814733D03*
X129830114Y-96011610D03*
X128026992Y-96683362D03*
X128698743Y-94880240D03*
D26*
X126895621Y-95551991D03*
%TD*%
D19*
%TO.C,J15*%
X138779999Y-147500000D03*
X136240000Y-147500000D03*
D20*
X133700000Y-147500000D03*
%TD*%
D18*
%TO.C,TP15*%
X88369000Y-78696750D03*
%TD*%
%TO.C,TP9*%
X97400000Y-70500000D03*
%TD*%
%TO.C,TP11*%
X88400000Y-70500000D03*
%TD*%
%TO.C,TP16*%
X97322000Y-78714050D03*
%TD*%
%TO.C,TP18*%
X106400000Y-70500000D03*
%TD*%
D15*
%TO.C,J10*%
X93700000Y-116100000D03*
%TD*%
D19*
%TO.C,J5*%
X136029999Y-116200000D03*
X133490000Y-116200000D03*
D20*
X130950000Y-116200000D03*
%TD*%
D14*
%TO.C,J12*%
X57467600Y-116176000D03*
X57467600Y-120326000D03*
X57467600Y-123656000D03*
X57467600Y-126986000D03*
X57467600Y-130316000D03*
X57467600Y-133646000D03*
X57467600Y-136976000D03*
X57467600Y-141126000D03*
X61667600Y-116176000D03*
X61667600Y-120326000D03*
X61667600Y-123656000D03*
X61667600Y-126986000D03*
X61667600Y-130316000D03*
X61667600Y-133646000D03*
X61667600Y-136976000D03*
X61667600Y-141126000D03*
X65867600Y-116176000D03*
X65867600Y-120326000D03*
X65867600Y-123656000D03*
X65867600Y-126986000D03*
X65867600Y-130316000D03*
X65867600Y-133646000D03*
X65867600Y-136976000D03*
X65867600Y-141126000D03*
%TD*%
D18*
%TO.C,TP19*%
X53400000Y-93500000D03*
%TD*%
D27*
%TO.C,BT1*%
X150374369Y-65379130D03*
D28*
X150374369Y-67879130D03*
%TD*%
D21*
%TO.C,REF\u002A\u002A*%
X74573600Y-145821000D03*
%TD*%
D19*
%TO.C,J6*%
X127345000Y-116200000D03*
X124804999Y-116200000D03*
X122265000Y-116200000D03*
D20*
X119725000Y-116200000D03*
%TD*%
D14*
%TO.C,TP8*%
X117200000Y-70100000D03*
%TD*%
D29*
%TO.C,JP6*%
X158749997Y-139000000D03*
X157449999Y-139000000D03*
%TD*%
D18*
%TO.C,TP1*%
X78100000Y-96200000D03*
%TD*%
D14*
%TO.C,TP7*%
X143700000Y-89600000D03*
%TD*%
D29*
%TO.C,JP7*%
X158749997Y-135450000D03*
X157449999Y-135450000D03*
%TD*%
D18*
%TO.C,TP5*%
X106000000Y-107100000D03*
%TD*%
%TO.C,TP13*%
X143375000Y-67100000D03*
%TD*%
%TO.C,TP6*%
X100500000Y-106000000D03*
%TD*%
%TO.C,TP12*%
X105300000Y-113500000D03*
%TD*%
%TO.C,TP4*%
X106800000Y-103500000D03*
%TD*%
D29*
%TO.C,JP8*%
X158749997Y-131900000D03*
X157449999Y-131900000D03*
%TD*%
D18*
%TO.C,TP2*%
X111200000Y-103400000D03*
%TD*%
%TO.C,TP3*%
X105300000Y-98700000D03*
%TD*%
%LPD*%
M02*
