%TF.GenerationSoftware,KiCad,Pcbnew,8.99.0-unknown-1.20241217gite6b7397.fc40*%
%TF.CreationDate,2024-12-24T22:56:10-03:00*%
%TF.ProjectId,hw_v1,68775f76-312e-46b6-9963-61645f706362,rev?*%
%TF.SameCoordinates,Original*%
%TF.FileFunction,Paste,Top*%
%TF.FilePolarity,Positive*%
%FSLAX46Y46*%
G04 Gerber Fmt 4.6, Leading zero omitted, Abs format (unit mm)*
G04 Created by KiCad (PCBNEW 8.99.0-unknown-1.20241217gite6b7397.fc40) date 2024-12-24 22:56:10*
%MOMM*%
%LPD*%
G01*
G04 APERTURE LIST*
G04 Aperture macros list*
%AMRoundRect*
0 Rectangle with rounded corners*
0 $1 Rounding radius*
0 $2 $3 $4 $5 $6 $7 $8 $9 X,Y pos of 4 corners*
0 Add a 4 corners polygon primitive as box body*
4,1,4,$2,$3,$4,$5,$6,$7,$8,$9,$2,$3,0*
0 Add four circle primitives for the rounded corners*
1,1,$1+$1,$2,$3*
1,1,$1+$1,$4,$5*
1,1,$1+$1,$6,$7*
1,1,$1+$1,$8,$9*
0 Add four rect primitives between the rounded corners*
20,1,$1+$1,$2,$3,$4,$5,0*
20,1,$1+$1,$4,$5,$6,$7,0*
20,1,$1+$1,$6,$7,$8,$9,0*
20,1,$1+$1,$8,$9,$2,$3,0*%
%AMRotRect*
0 Rectangle, with rotation*
0 The origin of the aperture is its center*
0 $1 length*
0 $2 width*
0 $3 Rotation angle, in degrees counterclockwise*
0 Add horizontal line*
21,1,$1,$2,0,0,$3*%
G04 Aperture macros list end*
%ADD10RoundRect,0.250000X0.353553X0.000000X0.000000X0.353553X-0.353553X0.000000X0.000000X-0.353553X0*%
%ADD11RoundRect,0.035000X-0.105000X0.700000X-0.105000X-0.700000X0.105000X-0.700000X0.105000X0.700000X0*%
%ADD12RoundRect,0.250000X0.159099X-0.512652X0.512652X-0.159099X-0.159099X0.512652X-0.512652X0.159099X0*%
%ADD13RoundRect,0.225000X0.225000X0.250000X-0.225000X0.250000X-0.225000X-0.250000X0.225000X-0.250000X0*%
%ADD14RoundRect,0.200000X-0.200000X-0.275000X0.200000X-0.275000X0.200000X0.275000X-0.200000X0.275000X0*%
%ADD15RoundRect,0.243750X-0.456250X0.243750X-0.456250X-0.243750X0.456250X-0.243750X0.456250X0.243750X0*%
%ADD16RoundRect,0.140000X-0.170000X0.140000X-0.170000X-0.140000X0.170000X-0.140000X0.170000X0.140000X0*%
%ADD17RoundRect,0.243750X0.456250X-0.243750X0.456250X0.243750X-0.456250X0.243750X-0.456250X-0.243750X0*%
%ADD18RoundRect,0.250000X-0.159099X0.512652X-0.512652X0.159099X0.159099X-0.512652X0.512652X-0.159099X0*%
%ADD19RoundRect,0.250000X-0.250000X-0.475000X0.250000X-0.475000X0.250000X0.475000X-0.250000X0.475000X0*%
%ADD20RoundRect,0.250000X-0.475000X0.250000X-0.475000X-0.250000X0.475000X-0.250000X0.475000X0.250000X0*%
%ADD21RotRect,1.400000X1.200000X225.000000*%
%ADD22RoundRect,0.200000X0.200000X0.275000X-0.200000X0.275000X-0.200000X-0.275000X0.200000X-0.275000X0*%
%ADD23RoundRect,0.250000X-0.512652X-0.159099X-0.159099X-0.512652X0.512652X0.159099X0.159099X0.512652X0*%
%ADD24RoundRect,0.250000X-0.850000X-0.350000X0.850000X-0.350000X0.850000X0.350000X-0.850000X0.350000X0*%
%ADD25RoundRect,0.250000X-1.275000X-1.125000X1.275000X-1.125000X1.275000X1.125000X-1.275000X1.125000X0*%
%ADD26RoundRect,0.250000X0.475000X-0.250000X0.475000X0.250000X-0.475000X0.250000X-0.475000X-0.250000X0*%
%ADD27RoundRect,0.250000X0.512652X0.159099X0.159099X0.512652X-0.512652X-0.159099X-0.159099X-0.512652X0*%
%ADD28R,0.800000X0.500000*%
%ADD29R,0.800000X0.400000*%
%ADD30RoundRect,0.200000X0.275000X-0.200000X0.275000X0.200000X-0.275000X0.200000X-0.275000X-0.200000X0*%
%ADD31RoundRect,0.200000X-0.275000X0.200000X-0.275000X-0.200000X0.275000X-0.200000X0.275000X0.200000X0*%
%ADD32RoundRect,0.200000X0.053033X-0.335876X0.335876X-0.053033X-0.053033X0.335876X-0.335876X0.053033X0*%
%ADD33RoundRect,0.375000X-0.375000X0.625000X-0.375000X-0.625000X0.375000X-0.625000X0.375000X0.625000X0*%
%ADD34RoundRect,0.500000X-1.400000X0.500000X-1.400000X-0.500000X1.400000X-0.500000X1.400000X0.500000X0*%
%ADD35RoundRect,0.218750X-0.218750X-0.256250X0.218750X-0.256250X0.218750X0.256250X-0.218750X0.256250X0*%
%ADD36RoundRect,0.075000X-0.565685X0.459619X0.459619X-0.565685X0.565685X-0.459619X-0.459619X0.565685X0*%
%ADD37RoundRect,0.075000X-0.565685X-0.459619X-0.459619X-0.565685X0.565685X0.459619X0.459619X0.565685X0*%
%ADD38RoundRect,0.150000X0.150000X-0.825000X0.150000X0.825000X-0.150000X0.825000X-0.150000X-0.825000X0*%
%ADD39R,0.500000X0.800000*%
%ADD40R,0.400000X0.800000*%
%ADD41RoundRect,0.150000X0.650000X0.150000X-0.650000X0.150000X-0.650000X-0.150000X0.650000X-0.150000X0*%
%ADD42RoundRect,0.250000X0.250000X0.475000X-0.250000X0.475000X-0.250000X-0.475000X0.250000X-0.475000X0*%
%ADD43RoundRect,0.250000X-0.350000X0.850000X-0.350000X-0.850000X0.350000X-0.850000X0.350000X0.850000X0*%
%ADD44RoundRect,0.250000X-1.125000X1.275000X-1.125000X-1.275000X1.125000X-1.275000X1.125000X1.275000X0*%
%ADD45RoundRect,0.250000X-0.550000X1.500000X-0.550000X-1.500000X0.550000X-1.500000X0.550000X1.500000X0*%
%ADD46RoundRect,0.150000X0.521491X-0.309359X-0.309359X0.521491X-0.521491X0.309359X0.309359X-0.521491X0*%
%ADD47RoundRect,0.150000X0.256326X0.468458X-0.468458X-0.256326X-0.256326X-0.468458X0.468458X0.256326X0*%
%ADD48R,0.500000X0.350000*%
%ADD49RoundRect,0.218750X0.218750X0.256250X-0.218750X0.256250X-0.218750X-0.256250X0.218750X-0.256250X0*%
%ADD50RoundRect,0.112500X0.112500X-0.187500X0.112500X0.187500X-0.112500X0.187500X-0.112500X-0.187500X0*%
%ADD51RoundRect,0.225000X0.250000X-0.225000X0.250000X0.225000X-0.250000X0.225000X-0.250000X-0.225000X0*%
%ADD52RoundRect,0.250000X-1.000000X-0.650000X1.000000X-0.650000X1.000000X0.650000X-1.000000X0.650000X0*%
%ADD53RoundRect,0.100000X-0.100000X0.225000X-0.100000X-0.225000X0.100000X-0.225000X0.100000X0.225000X0*%
%ADD54R,1.500000X1.500000*%
%ADD55RoundRect,0.225000X-0.250000X0.225000X-0.250000X-0.225000X0.250000X-0.225000X0.250000X0.225000X0*%
%ADD56RoundRect,0.150000X-0.325000X-0.150000X0.325000X-0.150000X0.325000X0.150000X-0.325000X0.150000X0*%
%ADD57RoundRect,0.150000X-0.150000X-0.325000X0.150000X-0.325000X0.150000X0.325000X-0.150000X0.325000X0*%
%ADD58RoundRect,0.100000X-0.637500X-0.100000X0.637500X-0.100000X0.637500X0.100000X-0.637500X0.100000X0*%
%ADD59RoundRect,0.150000X0.825000X0.150000X-0.825000X0.150000X-0.825000X-0.150000X0.825000X-0.150000X0*%
%ADD60R,0.800000X1.500000*%
%ADD61R,1.300000X1.400000*%
%ADD62R,1.400000X1.900000*%
%ADD63R,0.950000X1.000000*%
%ADD64RoundRect,0.150000X0.150000X-0.725000X0.150000X0.725000X-0.150000X0.725000X-0.150000X-0.725000X0*%
%ADD65RoundRect,0.250000X-0.312500X-0.625000X0.312500X-0.625000X0.312500X0.625000X-0.312500X0.625000X0*%
%ADD66RoundRect,0.250000X0.550000X-1.500000X0.550000X1.500000X-0.550000X1.500000X-0.550000X-1.500000X0*%
%ADD67RoundRect,0.250000X-1.000000X1.400000X-1.000000X-1.400000X1.000000X-1.400000X1.000000X1.400000X0*%
G04 APERTURE END LIST*
D10*
%TO.C,D19*%
X114373883Y-118693883D03*
X112606117Y-116926117D03*
%TD*%
D11*
%TO.C,U1*%
X123900000Y-66530000D03*
X123400000Y-66530000D03*
X122900000Y-66529999D03*
X122400000Y-66530000D03*
X121900000Y-66530000D03*
X121900000Y-70830000D03*
X122400000Y-70830000D03*
X122900000Y-70830001D03*
X123400000Y-70830000D03*
X123900000Y-70830000D03*
%TD*%
D12*
%TO.C,C33*%
X105828249Y-98471751D03*
X107171751Y-97128249D03*
%TD*%
D13*
%TO.C,C3*%
X127115001Y-73130001D03*
X125565001Y-73130001D03*
%TD*%
D14*
%TO.C,R15*%
X140975000Y-76000000D03*
X142625000Y-76000000D03*
%TD*%
D15*
%TO.C,D7*%
X135875000Y-96662500D03*
X135875000Y-98537500D03*
%TD*%
D16*
%TO.C,C19*%
X103300000Y-70120000D03*
X103300000Y-71080000D03*
%TD*%
D17*
%TO.C,D4*%
X146905000Y-98537500D03*
X146905000Y-96662500D03*
%TD*%
D18*
%TO.C,C45*%
X92148327Y-109478385D03*
X90804825Y-110821887D03*
%TD*%
D19*
%TO.C,C39*%
X124470001Y-125220000D03*
X126369999Y-125220000D03*
%TD*%
D20*
%TO.C,C14*%
X86630000Y-82940001D03*
X86630000Y-84839999D03*
%TD*%
D21*
%TO.C,Y2*%
X96066777Y-99651142D03*
X94511142Y-101206777D03*
X95713223Y-102408858D03*
X97268858Y-100853223D03*
%TD*%
D17*
%TO.C,D9*%
X144835000Y-98537500D03*
X144835000Y-96662500D03*
%TD*%
%TO.C,D1*%
X148980000Y-98537500D03*
X148980000Y-96662500D03*
%TD*%
D22*
%TO.C,R10*%
X96600000Y-117625000D03*
X94950000Y-117625000D03*
%TD*%
D20*
%TO.C,C5*%
X125850000Y-69550001D03*
X125850000Y-71449999D03*
%TD*%
D23*
%TO.C,C42*%
X97488062Y-98102578D03*
X98831564Y-99446080D03*
%TD*%
%TO.C,C26*%
X101428249Y-120528249D03*
X102771751Y-121871751D03*
%TD*%
D24*
%TO.C,U19*%
X77825000Y-87520000D03*
D25*
X82450000Y-88275000D03*
X82450000Y-91325000D03*
X85800000Y-88275000D03*
X85800000Y-91325000D03*
D24*
X77825000Y-92080000D03*
%TD*%
D26*
%TO.C,C6*%
X139940000Y-107699999D03*
X139940000Y-105800001D03*
%TD*%
D27*
%TO.C,C43*%
X94313151Y-103950351D03*
X92969649Y-102606849D03*
%TD*%
D28*
%TO.C,RN5*%
X130920000Y-75500000D03*
D29*
X130920000Y-74700000D03*
X130920000Y-73900000D03*
D28*
X130920000Y-73100000D03*
X129120000Y-73100000D03*
D29*
X129120000Y-73900000D03*
X129120000Y-74700000D03*
D28*
X129120000Y-75500000D03*
%TD*%
D30*
%TO.C,R102*%
X117800000Y-71945000D03*
X117800000Y-70295000D03*
%TD*%
D19*
%TO.C,C35*%
X104950001Y-121800000D03*
X106849999Y-121800000D03*
%TD*%
D31*
%TO.C,R55*%
X103750000Y-86325000D03*
X103750000Y-87975000D03*
%TD*%
D32*
%TO.C,R27*%
X110016637Y-100683363D03*
X111183363Y-99516637D03*
%TD*%
D33*
%TO.C,U8*%
X82400000Y-96780000D03*
X80100000Y-96780000D03*
D34*
X80100000Y-103080000D03*
D33*
X77800000Y-96780000D03*
%TD*%
D14*
%TO.C,R13*%
X140975000Y-79100000D03*
X142625000Y-79100000D03*
%TD*%
D35*
%TO.C,D15*%
X126340993Y-98601238D03*
X127915995Y-98601238D03*
%TD*%
D13*
%TO.C,C4*%
X127135001Y-74730001D03*
X125585001Y-74730001D03*
%TD*%
D15*
%TO.C,D2*%
X140050000Y-96662500D03*
X140050000Y-98537500D03*
%TD*%
%TO.C,D26*%
X88875000Y-118787499D03*
X88875000Y-120662501D03*
%TD*%
D30*
%TO.C,R57*%
X99100000Y-87975000D03*
X99100000Y-86325000D03*
%TD*%
D36*
%TO.C,U22*%
X103865596Y-100330315D03*
X103512043Y-100683868D03*
X103158489Y-101037422D03*
X102804936Y-101390975D03*
X102451383Y-101744528D03*
X102097829Y-102098082D03*
X101744276Y-102451635D03*
X101390722Y-102805189D03*
X101037169Y-103158742D03*
X100683616Y-103512295D03*
X100330062Y-103865849D03*
X99976509Y-104219402D03*
X99622955Y-104572955D03*
X99269402Y-104926509D03*
X98915849Y-105280062D03*
X98562295Y-105633616D03*
X98208742Y-105987169D03*
X97855189Y-106340722D03*
X97501635Y-106694276D03*
X97148082Y-107047829D03*
X96794528Y-107401383D03*
X96440975Y-107754936D03*
X96087422Y-108108489D03*
X95733868Y-108462043D03*
X95380315Y-108815596D03*
D37*
X95380315Y-111184404D03*
X95733868Y-111537957D03*
X96087422Y-111891511D03*
X96440975Y-112245064D03*
X96794528Y-112598617D03*
X97148082Y-112952171D03*
X97501635Y-113305724D03*
X97855189Y-113659278D03*
X98208742Y-114012831D03*
X98562295Y-114366384D03*
X98915849Y-114719938D03*
X99269402Y-115073491D03*
X99622955Y-115427045D03*
X99976509Y-115780598D03*
X100330062Y-116134151D03*
X100683616Y-116487705D03*
X101037169Y-116841258D03*
X101390722Y-117194811D03*
X101744276Y-117548365D03*
X102097829Y-117901918D03*
X102451383Y-118255472D03*
X102804936Y-118609025D03*
X103158489Y-118962578D03*
X103512043Y-119316132D03*
X103865596Y-119669685D03*
D36*
X106234404Y-119669685D03*
X106587957Y-119316132D03*
X106941511Y-118962578D03*
X107295064Y-118609025D03*
X107648617Y-118255472D03*
X108002171Y-117901918D03*
X108355724Y-117548365D03*
X108709278Y-117194811D03*
X109062831Y-116841258D03*
X109416384Y-116487705D03*
X109769938Y-116134151D03*
X110123491Y-115780598D03*
X110477045Y-115427045D03*
X110830598Y-115073491D03*
X111184151Y-114719938D03*
X111537705Y-114366384D03*
X111891258Y-114012831D03*
X112244811Y-113659278D03*
X112598365Y-113305724D03*
X112951918Y-112952171D03*
X113305472Y-112598617D03*
X113659025Y-112245064D03*
X114012578Y-111891511D03*
X114366132Y-111537957D03*
X114719685Y-111184404D03*
D37*
X114719685Y-108815596D03*
X114366132Y-108462043D03*
X114012578Y-108108489D03*
X113659025Y-107754936D03*
X113305472Y-107401383D03*
X112951918Y-107047829D03*
X112598365Y-106694276D03*
X112244811Y-106340722D03*
X111891258Y-105987169D03*
X111537705Y-105633616D03*
X111184151Y-105280062D03*
X110830598Y-104926509D03*
X110477045Y-104572955D03*
X110123491Y-104219402D03*
X109769938Y-103865849D03*
X109416384Y-103512295D03*
X109062831Y-103158742D03*
X108709278Y-102805189D03*
X108355724Y-102451635D03*
X108002171Y-102098082D03*
X107648617Y-101744528D03*
X107295064Y-101390975D03*
X106941511Y-101037422D03*
X106587957Y-100683868D03*
X106234404Y-100330315D03*
%TD*%
D38*
%TO.C,U2*%
X129445000Y-70125000D03*
X130715000Y-70125000D03*
X131985000Y-70125000D03*
X133255000Y-70125000D03*
X133255000Y-65175000D03*
X131985000Y-65175000D03*
X130715000Y-65175000D03*
X129445000Y-65175000D03*
%TD*%
D39*
%TO.C,RN7*%
X100137500Y-84750000D03*
D40*
X100937500Y-84750000D03*
X101737500Y-84750000D03*
D39*
X102537500Y-84750000D03*
X102537500Y-82950000D03*
D40*
X101737500Y-82950000D03*
X100937500Y-82950000D03*
D39*
X100137500Y-82950000D03*
%TD*%
D38*
%TO.C,U14*%
X105085000Y-78950000D03*
X106355000Y-78950000D03*
X107625000Y-78950000D03*
X108895000Y-78950000D03*
X108895000Y-74000000D03*
X107625000Y-74000000D03*
X106355000Y-74000000D03*
X105085000Y-74000000D03*
%TD*%
D41*
%TO.C,U15*%
X131985000Y-123110000D03*
X131985000Y-121840000D03*
X131985000Y-120570000D03*
X131985000Y-119300000D03*
X124785000Y-119300000D03*
X124785000Y-120570000D03*
X124785000Y-121840000D03*
X124785000Y-123110000D03*
%TD*%
D42*
%TO.C,C50*%
X133889999Y-112590000D03*
X131990001Y-112590000D03*
%TD*%
D14*
%TO.C,R6*%
X144025000Y-76000000D03*
X145675000Y-76000000D03*
%TD*%
D30*
%TO.C,R11*%
X120240000Y-71985000D03*
X120240000Y-70335000D03*
%TD*%
D43*
%TO.C,U11*%
X93480000Y-83500000D03*
D44*
X92725000Y-88125000D03*
X89675000Y-88125000D03*
X92725000Y-91475000D03*
X89675000Y-91475000D03*
D43*
X88920000Y-83500000D03*
%TD*%
D12*
%TO.C,C31*%
X117928249Y-111971751D03*
X119271751Y-110628249D03*
%TD*%
D31*
%TO.C,R99*%
X109560000Y-64735000D03*
X109560000Y-66385000D03*
%TD*%
D45*
%TO.C,C69*%
X80450000Y-77990000D03*
X80450000Y-83390000D03*
%TD*%
D12*
%TO.C,C29*%
X116528249Y-110571751D03*
X117871751Y-109228249D03*
%TD*%
D18*
%TO.C,C36*%
X93598327Y-110888385D03*
X92254825Y-112231887D03*
%TD*%
D46*
%TO.C,U16*%
X90093033Y-104962792D03*
X91436536Y-103619289D03*
X89438959Y-102965215D03*
%TD*%
D47*
%TO.C,U17*%
X116826085Y-114917417D03*
X116154334Y-114245666D03*
X115482583Y-113573915D03*
X113873915Y-115182583D03*
X114545666Y-115854334D03*
X115217417Y-116526085D03*
%TD*%
D48*
%TO.C,U10*%
X132120000Y-110785001D03*
X132120000Y-110135000D03*
X132120000Y-109485000D03*
X132120000Y-108834999D03*
X133720000Y-108834999D03*
X133720000Y-109485000D03*
X133720000Y-110135000D03*
X133720000Y-110785001D03*
%TD*%
D30*
%TO.C,R42*%
X84700000Y-117300000D03*
X84700000Y-115650000D03*
%TD*%
D20*
%TO.C,C30*%
X139940000Y-109500001D03*
X139940000Y-111399999D03*
%TD*%
D39*
%TO.C,RN2*%
X135910000Y-101650000D03*
D40*
X135110000Y-101650000D03*
X134310000Y-101650000D03*
D39*
X133510000Y-101650000D03*
X133510000Y-103450000D03*
D40*
X134310000Y-103450000D03*
X135110000Y-103450000D03*
D39*
X135910000Y-103450000D03*
%TD*%
D49*
%TO.C,D13*%
X131345994Y-98631238D03*
X129770992Y-98631238D03*
%TD*%
D17*
%TO.C,D22*%
X83680000Y-107267501D03*
X83680000Y-105392499D03*
%TD*%
%TO.C,D12*%
X142735000Y-98537500D03*
X142735000Y-96662500D03*
%TD*%
D31*
%TO.C,R58*%
X102200000Y-86325000D03*
X102200000Y-87975000D03*
%TD*%
D50*
%TO.C,D18*%
X93975000Y-96100000D03*
X93975000Y-94000000D03*
%TD*%
D51*
%TO.C,C63*%
X111080000Y-66335000D03*
X111080000Y-64785000D03*
%TD*%
D18*
%TO.C,C46*%
X90671751Y-108008249D03*
X89328249Y-109351751D03*
%TD*%
D16*
%TO.C,C58*%
X105471204Y-70067731D03*
X105471204Y-71027731D03*
%TD*%
D31*
%TO.C,R106*%
X116250000Y-70295000D03*
X116250000Y-71945000D03*
%TD*%
D52*
%TO.C,D17*%
X89075000Y-72700000D03*
X93075000Y-72700000D03*
%TD*%
D15*
%TO.C,D24*%
X84675000Y-118812499D03*
X84675000Y-120687501D03*
%TD*%
D13*
%TO.C,C15*%
X78605000Y-85340000D03*
X77055000Y-85340000D03*
%TD*%
D53*
%TO.C,U7*%
X130490000Y-77000000D03*
X129840000Y-77000001D03*
X129190000Y-77000000D03*
X129190000Y-78900000D03*
X129840000Y-78899999D03*
X130490000Y-78900000D03*
%TD*%
D14*
%TO.C,R9*%
X144025000Y-79100000D03*
X145675000Y-79100000D03*
%TD*%
D19*
%TO.C,C9*%
X81460001Y-94330000D03*
X83359999Y-94330000D03*
%TD*%
D16*
%TO.C,C60*%
X106484509Y-70089001D03*
X106484509Y-71049001D03*
%TD*%
D22*
%TO.C,R4*%
X127983493Y-96911239D03*
X126333493Y-96911239D03*
%TD*%
D19*
%TO.C,C49*%
X77820001Y-94350000D03*
X79719999Y-94350000D03*
%TD*%
D54*
%TO.C,SW2*%
X149949999Y-110800000D03*
X142150001Y-110800000D03*
%TD*%
D17*
%TO.C,D23*%
X81530000Y-107257502D03*
X81530000Y-105382500D03*
%TD*%
D55*
%TO.C,C48*%
X84830000Y-82455000D03*
X84830000Y-84005000D03*
%TD*%
D30*
%TO.C,R43*%
X86800000Y-117275000D03*
X86800000Y-115625000D03*
%TD*%
D56*
%TO.C,U21*%
X126507500Y-108192500D03*
X126507500Y-108992500D03*
X126507500Y-109792500D03*
X126507500Y-110592500D03*
X126507500Y-111392500D03*
X126507500Y-112192500D03*
D57*
X127507500Y-112192501D03*
D56*
X128507500Y-112192500D03*
X128507500Y-111392500D03*
X128507500Y-110592500D03*
X128507500Y-109792500D03*
X128507500Y-108992500D03*
X128507500Y-108192500D03*
D57*
X127507500Y-108192499D03*
%TD*%
D58*
%TO.C,U23*%
X102000000Y-64806965D03*
X102000000Y-65456965D03*
X102000000Y-66106965D03*
X102000000Y-66756965D03*
X102000000Y-67406965D03*
X102000000Y-68056965D03*
X102000000Y-68706965D03*
X107725000Y-68706965D03*
X107725000Y-68056965D03*
X107725000Y-67406965D03*
X107725000Y-66756965D03*
X107725000Y-66106965D03*
X107725000Y-65456965D03*
X107725000Y-64806965D03*
%TD*%
D14*
%TO.C,R14*%
X140975000Y-74450000D03*
X142625000Y-74450000D03*
%TD*%
D31*
%TO.C,R38*%
X81460000Y-108815000D03*
X81460000Y-110465000D03*
%TD*%
D22*
%TO.C,R1*%
X131383492Y-96921240D03*
X129733492Y-96921240D03*
%TD*%
D14*
%TO.C,R12*%
X140975000Y-77570000D03*
X142625000Y-77570000D03*
%TD*%
D15*
%TO.C,D25*%
X86775000Y-118787499D03*
X86775000Y-120662501D03*
%TD*%
D26*
%TO.C,C47*%
X124610000Y-111279999D03*
X124610000Y-109380001D03*
%TD*%
D31*
%TO.C,R108*%
X114670000Y-70305000D03*
X114670000Y-71955000D03*
%TD*%
D14*
%TO.C,R8*%
X144025000Y-77570000D03*
X145675000Y-77570000D03*
%TD*%
D59*
%TO.C,U6*%
X115950000Y-77390000D03*
X115950000Y-76120000D03*
X115950000Y-74850000D03*
X115950000Y-73580000D03*
X111000000Y-73580000D03*
X111000000Y-74850000D03*
X111000000Y-76120000D03*
X111000000Y-77390000D03*
%TD*%
D12*
%TO.C,C44*%
X91546138Y-106426503D03*
X92889640Y-105083001D03*
%TD*%
D60*
%TO.C,J16*%
X98032266Y-126395713D03*
X99132266Y-126795713D03*
X100232266Y-126395713D03*
X101332266Y-126195713D03*
X102432266Y-126395713D03*
X103532266Y-126195713D03*
X104632266Y-126395713D03*
X105732266Y-126395713D03*
D61*
X104922266Y-137255713D03*
X99222266Y-137255713D03*
D62*
X106522266Y-124105713D03*
X93372266Y-123105713D03*
D63*
X103532266Y-137455713D03*
%TD*%
D64*
%TO.C,U5*%
X99345000Y-79825000D03*
X100615000Y-79825000D03*
X101885000Y-79825000D03*
X103155000Y-79825000D03*
X103155000Y-74675000D03*
X101885000Y-74675000D03*
X100615000Y-74675000D03*
X99345000Y-74675000D03*
%TD*%
D65*
%TO.C,R31*%
X110587500Y-79450000D03*
X113512500Y-79450000D03*
%TD*%
D66*
%TO.C,C10*%
X129000000Y-93100000D03*
X129000000Y-87700000D03*
%TD*%
D58*
%TO.C,U24*%
X112867500Y-64790000D03*
X112867500Y-65440000D03*
X112867500Y-66090000D03*
X112867500Y-66740000D03*
X112867500Y-67390000D03*
X112867500Y-68040000D03*
X112867500Y-68690000D03*
X118592500Y-68690000D03*
X118592500Y-68040000D03*
X118592500Y-67390000D03*
X118592500Y-66740000D03*
X118592500Y-66090000D03*
X118592500Y-65440000D03*
X118592500Y-64790000D03*
%TD*%
D15*
%TO.C,D5*%
X137975000Y-96662500D03*
X137975000Y-98537500D03*
%TD*%
D39*
%TO.C,RN1*%
X139250000Y-73750000D03*
D40*
X138450000Y-73750000D03*
X137650000Y-73750000D03*
D39*
X136850000Y-73750000D03*
X136850000Y-75550000D03*
D40*
X137650000Y-75550000D03*
X138450000Y-75550000D03*
D39*
X139250000Y-75550000D03*
%TD*%
D31*
%TO.C,R37*%
X83680000Y-108815000D03*
X83680000Y-110465000D03*
%TD*%
D16*
%TO.C,C25*%
X102272546Y-70124184D03*
X102272546Y-71084184D03*
%TD*%
D38*
%TO.C,U3*%
X136395000Y-70125000D03*
X137665000Y-70125000D03*
X138935000Y-70125000D03*
X140205000Y-70125000D03*
X140205000Y-65175000D03*
X138935000Y-65175000D03*
X137665000Y-65175000D03*
X136395000Y-65175000D03*
%TD*%
D30*
%TO.C,R56*%
X100650000Y-87975000D03*
X100650000Y-86325000D03*
%TD*%
D67*
%TO.C,D37*%
X93125000Y-78175000D03*
X86325000Y-78175000D03*
%TD*%
D30*
%TO.C,R104*%
X113120000Y-71945000D03*
X113120000Y-70295000D03*
%TD*%
D14*
%TO.C,R5*%
X144015000Y-74450000D03*
X145665000Y-74450000D03*
%TD*%
D15*
%TO.C,D10*%
X133790000Y-96662500D03*
X133790000Y-98537500D03*
%TD*%
D30*
%TO.C,R44*%
X88850000Y-117300000D03*
X88850000Y-115650000D03*
%TD*%
D54*
%TO.C,SW1*%
X142150001Y-106450000D03*
X149949999Y-106450000D03*
%TD*%
M02*
