M48
; DRILL file {KiCad 8.99.0-unknown-1.20241209git10cd458.fc40} date 2024-12-12T00:34:18-0300
; FORMAT={-:-/ absolute / inch / decimal}
; #@! TF.CreationDate,2024-12-12T00:34:18-03:00
; #@! TF.GenerationSoftware,Kicad,Pcbnew,8.99.0-unknown-1.20241209git10cd458.fc40
; #@! TF.FileFunction,Plated,1,4,PTH
FMAT,2
INCH
; #@! TA.AperFunction,Plated,PTH,ViaDrill
T1C0.0118
; #@! TA.AperFunction,Plated,PTH,ComponentDrill
T2C0.0276
; #@! TA.AperFunction,Plated,PTH,ComponentDrill
T3C0.0300
; #@! TA.AperFunction,Plated,PTH,ComponentDrill
T4C0.0315
; #@! TA.AperFunction,Plated,PTH,ComponentDrill
T5C0.0394
; #@! TA.AperFunction,Plated,PTH,ComponentDrill
T6C0.0453
; #@! TA.AperFunction,Plated,PTH,ViaDrill
T7C0.0467
; #@! TA.AperFunction,Plated,PTH,ComponentDrill
T8C0.0866
; #@! TA.AperFunction,Plated,PTH,ComponentDrill
T9C0.1575
%
G90
G05
T1
X3.5Y-3.2185
X3.9612Y-2.8923
X3.9764Y-2.628
X4.0612Y-2.8955
X4.0768Y-2.622
X4.2943Y-2.7165
X4.2972Y-2.7539
X4.2992Y-2.626
X4.3268Y-2.5512
X4.4163Y-2.6063
X4.436Y-2.7156
X4.4598Y-2.6654
X4.4764Y-2.5778
T2
X4.4127Y-5.178
X4.4442Y-5.2469
X4.4757Y-5.178
X4.5072Y-5.2469
X4.5387Y-5.178
T3
X3.8189Y-2.9266
X3.8189Y-3.0266
X3.8189Y-3.1266
X3.8189Y-3.2266
X3.8189Y-3.3266
X3.8189Y-3.4266
X3.8189Y-3.5266
X3.8189Y-3.6266
X4.8189Y-2.9266
X4.8189Y-3.0266
X4.8189Y-3.1266
X4.8189Y-3.2266
X4.8189Y-3.3266
X4.8189Y-3.4266
X4.8189Y-3.5266
X4.8189Y-3.6266
T4
X5.3016Y-2.9374
X5.3016Y-3.0374
X5.3016Y-3.1374
X5.3016Y-3.2374
X5.3016Y-3.3374
X5.3016Y-3.4374
X5.3016Y-3.5374
X5.3016Y-3.6374
X5.8016Y-2.9374
X5.8016Y-3.0374
X5.8016Y-3.1374
X5.8016Y-3.2374
X5.8016Y-3.3374
X5.8016Y-3.4374
X5.8016Y-3.5374
X5.8016Y-3.6374
T5
X7.1063Y-1.063
X7.2047Y-1.063
X8.4825Y-3.0825
X8.4825Y-3.1825
X8.4825Y-3.2825
X8.4825Y-3.3825
T6
X3.89Y-2.1088
X3.89Y-2.2072
X3.89Y-2.3056
X3.89Y-2.404
X4.0357Y-2.1088
X4.0357Y-2.2072
X4.0357Y-2.3056
X4.0357Y-2.404
X4.1735Y-2.1088
X4.1735Y-2.2072
X4.1735Y-2.3056
X4.1735Y-2.404
X4.2719Y-2.1088
X4.2719Y-2.2072
X4.2719Y-2.3056
X4.2719Y-2.404
X4.3703Y-2.1088
X4.3703Y-2.2072
X4.3703Y-2.3056
X4.3703Y-2.404
X4.4688Y-2.1088
X4.4688Y-2.2072
X4.4688Y-2.3056
X4.4688Y-2.404
X4.5672Y-2.1088
X4.5672Y-2.2072
X4.5672Y-2.3056
X4.5672Y-2.404
X4.6656Y-2.1088
X4.6656Y-2.2072
X4.6656Y-2.3056
X4.6656Y-2.404
X4.764Y-2.1088
X4.764Y-2.2072
X4.764Y-2.3056
X4.764Y-2.404
X4.8625Y-2.1088
X4.8625Y-2.2072
X4.8625Y-2.3056
X4.8625Y-2.404
X4.9609Y-2.1088
X4.9609Y-2.2072
X4.9609Y-2.3056
X4.9609Y-2.404
X5.0593Y-2.1088
X5.0593Y-2.2072
X5.0593Y-2.3056
X5.0593Y-2.404
T7
X3.1841Y-3.2923
X3.312Y-3.5354
X3.3986Y-3.0778
X3.5906Y-3.5354
T8
X3.6361Y-2.4474
X5.3133Y-2.4474
T9
X3.4747Y-2.2958
X5.4747Y-2.2958
T2
G00X4.332Y-5.238
M15
G01X4.332Y-5.1868
M16
G05
G00X4.6194Y-5.238
M15
G01X4.6194Y-5.1868
M16
G05
M30
