%TF.GenerationSoftware,KiCad,Pcbnew,8.99.0-unknown-1.20241209git10cd458.fc40*%
%TF.CreationDate,2024-12-12T00:34:18-03:00*%
%TF.ProjectId,hw_v1,68775f76-312e-46b6-9963-61645f706362,rev?*%
%TF.SameCoordinates,Original*%
%TF.FileFunction,Paste,Top*%
%TF.FilePolarity,Positive*%
%FSLAX46Y46*%
G04 Gerber Fmt 4.6, Leading zero omitted, Abs format (unit mm)*
G04 Created by KiCad (PCBNEW 8.99.0-unknown-1.20241209git10cd458.fc40) date 2024-12-12 00:34:18*
%MOMM*%
%LPD*%
G01*
G04 APERTURE LIST*
G04 Aperture macros list*
%AMRoundRect*
0 Rectangle with rounded corners*
0 $1 Rounding radius*
0 $2 $3 $4 $5 $6 $7 $8 $9 X,Y pos of 4 corners*
0 Add a 4 corners polygon primitive as box body*
4,1,4,$2,$3,$4,$5,$6,$7,$8,$9,$2,$3,0*
0 Add four circle primitives for the rounded corners*
1,1,$1+$1,$2,$3*
1,1,$1+$1,$4,$5*
1,1,$1+$1,$6,$7*
1,1,$1+$1,$8,$9*
0 Add four rect primitives between the rounded corners*
20,1,$1+$1,$2,$3,$4,$5,0*
20,1,$1+$1,$4,$5,$6,$7,0*
20,1,$1+$1,$6,$7,$8,$9,0*
20,1,$1+$1,$8,$9,$2,$3,0*%
G04 Aperture macros list end*
%ADD10RoundRect,0.150000X0.150000X-0.825000X0.150000X0.825000X-0.150000X0.825000X-0.150000X-0.825000X0*%
%ADD11RoundRect,0.250000X-1.000000X1.400000X-1.000000X-1.400000X1.000000X-1.400000X1.000000X1.400000X0*%
%ADD12RoundRect,0.250000X-0.250000X-0.250000X0.250000X-0.250000X0.250000X0.250000X-0.250000X0.250000X0*%
%ADD13RoundRect,0.087500X-0.725000X-0.087500X0.725000X-0.087500X0.725000X0.087500X-0.725000X0.087500X0*%
%ADD14RoundRect,0.243750X-0.243750X-0.456250X0.243750X-0.456250X0.243750X0.456250X-0.243750X0.456250X0*%
%ADD15RoundRect,0.200000X-0.200000X-0.275000X0.200000X-0.275000X0.200000X0.275000X-0.200000X0.275000X0*%
%ADD16RoundRect,0.140000X-0.170000X0.140000X-0.170000X-0.140000X0.170000X-0.140000X0.170000X0.140000X0*%
%ADD17RoundRect,0.250000X-0.250000X-0.475000X0.250000X-0.475000X0.250000X0.475000X-0.250000X0.475000X0*%
%ADD18RoundRect,0.225000X-0.225000X-0.250000X0.225000X-0.250000X0.225000X0.250000X-0.225000X0.250000X0*%
%ADD19R,0.800000X0.500000*%
%ADD20R,0.800000X0.400000*%
%ADD21RoundRect,0.150000X-0.587500X-0.150000X0.587500X-0.150000X0.587500X0.150000X-0.587500X0.150000X0*%
%ADD22R,0.500000X0.800000*%
%ADD23R,0.400000X0.800000*%
%ADD24RoundRect,0.150000X-0.150000X0.512500X-0.150000X-0.512500X0.150000X-0.512500X0.150000X0.512500X0*%
%ADD25RoundRect,0.250000X-0.850000X-0.350000X0.850000X-0.350000X0.850000X0.350000X-0.850000X0.350000X0*%
%ADD26RoundRect,0.250000X-1.275000X-1.125000X1.275000X-1.125000X1.275000X1.125000X-1.275000X1.125000X0*%
%ADD27RoundRect,0.100000X-0.637500X-0.100000X0.637500X-0.100000X0.637500X0.100000X-0.637500X0.100000X0*%
%ADD28RoundRect,0.200000X-0.275000X0.200000X-0.275000X-0.200000X0.275000X-0.200000X0.275000X0.200000X0*%
%ADD29RoundRect,0.375000X-0.375000X0.625000X-0.375000X-0.625000X0.375000X-0.625000X0.375000X0.625000X0*%
%ADD30RoundRect,0.500000X-1.400000X0.500000X-1.400000X-0.500000X1.400000X-0.500000X1.400000X0.500000X0*%
%ADD31RoundRect,0.200000X0.275000X-0.200000X0.275000X0.200000X-0.275000X0.200000X-0.275000X-0.200000X0*%
%ADD32RoundRect,0.218750X-0.218750X-0.256250X0.218750X-0.256250X0.218750X0.256250X-0.218750X0.256250X0*%
%ADD33RoundRect,0.150000X0.512500X0.150000X-0.512500X0.150000X-0.512500X-0.150000X0.512500X-0.150000X0*%
%ADD34RoundRect,0.250000X-0.300000X-0.300000X0.300000X-0.300000X0.300000X0.300000X-0.300000X0.300000X0*%
%ADD35RoundRect,0.150000X-0.675000X-0.150000X0.675000X-0.150000X0.675000X0.150000X-0.675000X0.150000X0*%
%ADD36RoundRect,0.150000X-0.650000X-0.150000X0.650000X-0.150000X0.650000X0.150000X-0.650000X0.150000X0*%
%ADD37R,0.600000X1.100000*%
%ADD38RoundRect,0.250000X-0.350000X0.850000X-0.350000X-0.850000X0.350000X-0.850000X0.350000X0.850000X0*%
%ADD39RoundRect,0.250000X-1.125000X1.275000X-1.125000X-1.275000X1.125000X-1.275000X1.125000X1.275000X0*%
%ADD40RoundRect,0.250000X-0.550000X1.500000X-0.550000X-1.500000X0.550000X-1.500000X0.550000X1.500000X0*%
%ADD41RoundRect,0.150000X-0.512500X-0.150000X0.512500X-0.150000X0.512500X0.150000X-0.512500X0.150000X0*%
%ADD42RoundRect,0.250000X-0.262500X-0.450000X0.262500X-0.450000X0.262500X0.450000X-0.262500X0.450000X0*%
%ADD43R,0.350000X0.500000*%
%ADD44RoundRect,0.100000X-0.225000X-0.100000X0.225000X-0.100000X0.225000X0.100000X-0.225000X0.100000X0*%
%ADD45RoundRect,0.225000X0.225000X0.250000X-0.225000X0.250000X-0.225000X-0.250000X0.225000X-0.250000X0*%
%ADD46RoundRect,0.250000X-1.000000X-0.650000X1.000000X-0.650000X1.000000X0.650000X-1.000000X0.650000X0*%
%ADD47RoundRect,0.150000X-0.325000X-0.150000X0.325000X-0.150000X0.325000X0.150000X-0.325000X0.150000X0*%
%ADD48RoundRect,0.150000X-0.150000X-0.325000X0.150000X-0.325000X0.150000X0.325000X-0.150000X0.325000X0*%
%ADD49RoundRect,0.225000X-0.250000X0.225000X-0.250000X-0.225000X0.250000X-0.225000X0.250000X0.225000X0*%
%ADD50RoundRect,0.075000X-0.565685X0.459619X0.459619X-0.565685X0.565685X-0.459619X-0.459619X0.565685X0*%
%ADD51RoundRect,0.075000X-0.565685X-0.459619X-0.459619X-0.565685X0.565685X0.459619X0.459619X0.565685X0*%
%ADD52RoundRect,0.150000X0.150000X-0.675000X0.150000X0.675000X-0.150000X0.675000X-0.150000X-0.675000X0*%
%ADD53R,0.800000X1.500000*%
%ADD54R,1.300000X1.400000*%
%ADD55R,1.400000X1.900000*%
%ADD56R,0.950000X1.000000*%
%ADD57R,1.400000X1.200000*%
%ADD58RoundRect,0.250000X-0.312500X-0.625000X0.312500X-0.625000X0.312500X0.625000X-0.312500X0.625000X0*%
%ADD59RoundRect,0.250000X0.550000X-1.500000X0.550000X1.500000X-0.550000X1.500000X-0.550000X-1.500000X0*%
%ADD60R,1.500000X1.500000*%
G04 APERTURE END LIST*
D10*
%TO.C,U2*%
X129463029Y-65465554D03*
X130733029Y-65465554D03*
X132003029Y-65465554D03*
X133273029Y-65465554D03*
X133273029Y-70415554D03*
X132003029Y-70415554D03*
X130733029Y-70415554D03*
X129463029Y-70415554D03*
%TD*%
D11*
%TO.C,D37*%
X86325000Y-78175000D03*
X93125000Y-78175000D03*
%TD*%
D12*
%TO.C,D19*%
X189705000Y-90075000D03*
X192205000Y-90075000D03*
%TD*%
D13*
%TO.C,U1*%
X206917500Y-107575000D03*
X206917500Y-108075000D03*
X206917500Y-108575000D03*
X206917500Y-109075000D03*
X206917500Y-109575000D03*
X211142500Y-109575000D03*
X211142500Y-109075000D03*
X211142500Y-108575000D03*
X211142500Y-108075000D03*
X211142500Y-107575000D03*
%TD*%
D14*
%TO.C,D24*%
X178182500Y-73980000D03*
X180057500Y-73980000D03*
%TD*%
D15*
%TO.C,R42*%
X182505000Y-74105000D03*
X184155000Y-74105000D03*
%TD*%
D16*
%TO.C,C64*%
X172615000Y-84692500D03*
X172615000Y-85652500D03*
%TD*%
D17*
%TO.C,C33*%
X191060000Y-64815000D03*
X192960000Y-64815000D03*
%TD*%
D14*
%TO.C,D23*%
X178182500Y-70940000D03*
X180057500Y-70940000D03*
%TD*%
D18*
%TO.C,C3*%
X198095000Y-95305000D03*
X199645000Y-95305000D03*
%TD*%
D19*
%TO.C,RN2*%
X240950000Y-95425000D03*
D20*
X240950000Y-96225000D03*
X240950000Y-97025000D03*
D19*
X240950000Y-97825000D03*
X242750000Y-97825000D03*
D20*
X242750000Y-97025000D03*
X242750000Y-96225000D03*
D19*
X242750000Y-95425000D03*
%TD*%
D21*
%TO.C,U16*%
X204642500Y-70820000D03*
X204642500Y-72720000D03*
X206517500Y-71770000D03*
%TD*%
D14*
%TO.C,D7*%
X232482500Y-96130000D03*
X234357500Y-96130000D03*
%TD*%
D16*
%TO.C,C66*%
X170645000Y-84692500D03*
X170645000Y-85652500D03*
%TD*%
D14*
%TO.C,D25*%
X178182500Y-77020000D03*
X180057500Y-77020000D03*
%TD*%
D17*
%TO.C,C34*%
X191060000Y-67825000D03*
X192960000Y-67825000D03*
%TD*%
D16*
%TO.C,C19*%
X113177885Y-66732868D03*
X113177885Y-67692868D03*
%TD*%
D10*
%TO.C,U3*%
X136420000Y-70225000D03*
X137690000Y-70225000D03*
X138960000Y-70225000D03*
X140230000Y-70225000D03*
X140230000Y-65275000D03*
X138960000Y-65275000D03*
X137690000Y-65275000D03*
X136420000Y-65275000D03*
%TD*%
D14*
%TO.C,D4*%
X232482500Y-90050000D03*
X234357500Y-90050000D03*
%TD*%
D17*
%TO.C,C46*%
X199960000Y-73845000D03*
X201860000Y-73845000D03*
%TD*%
D12*
%TO.C,D18*%
X189705000Y-87125000D03*
X192205000Y-87125000D03*
%TD*%
D22*
%TO.C,RN4*%
X112948793Y-63720123D03*
D23*
X112148793Y-63720123D03*
X111348793Y-63720123D03*
D22*
X110548793Y-63720123D03*
X110548793Y-65520123D03*
D23*
X111348793Y-65520123D03*
X112148793Y-65520123D03*
D22*
X112948793Y-65520123D03*
%TD*%
D14*
%TO.C,D9*%
X232482500Y-99170000D03*
X234357500Y-99170000D03*
%TD*%
D24*
%TO.C,D16*%
X159950000Y-70325000D03*
X159000000Y-70325000D03*
X158050000Y-70325000D03*
X158050000Y-72600000D03*
X159000000Y-72600000D03*
X159950000Y-72600000D03*
%TD*%
D17*
%TO.C,C39*%
X195510000Y-67825000D03*
X197410000Y-67825000D03*
%TD*%
D14*
%TO.C,D1*%
X232482500Y-83970000D03*
X234357500Y-83970000D03*
%TD*%
D12*
%TO.C,D11*%
X236945000Y-92775000D03*
X239445000Y-92775000D03*
%TD*%
D15*
%TO.C,R38*%
X182505000Y-71595000D03*
X184155000Y-71595000D03*
%TD*%
D17*
%TO.C,C5*%
X202150000Y-101575000D03*
X204050000Y-101575000D03*
%TD*%
%TO.C,C26*%
X186610000Y-64815000D03*
X188510000Y-64815000D03*
%TD*%
D15*
%TO.C,R3*%
X198045000Y-105345000D03*
X199695000Y-105345000D03*
%TD*%
D25*
%TO.C,U19*%
X77825000Y-87520000D03*
D26*
X82450000Y-88275000D03*
X82450000Y-91325000D03*
X85800000Y-88275000D03*
X85800000Y-91325000D03*
D25*
X77825000Y-92080000D03*
%TD*%
D17*
%TO.C,C30*%
X186610000Y-70835000D03*
X188510000Y-70835000D03*
%TD*%
D15*
%TO.C,R5*%
X182505000Y-108465000D03*
X184155000Y-108465000D03*
%TD*%
D27*
%TO.C,U5*%
X209537500Y-119535000D03*
X209537500Y-120185000D03*
X209537500Y-120835000D03*
X209537500Y-121485000D03*
X209537500Y-122135000D03*
X209537500Y-122785000D03*
X209537500Y-123435000D03*
X209537500Y-124085000D03*
X215262500Y-124085000D03*
X215262500Y-123435000D03*
X215262500Y-122785000D03*
X215262500Y-122135000D03*
X215262500Y-121485000D03*
X215262500Y-120835000D03*
X215262500Y-120185000D03*
X215262500Y-119535000D03*
%TD*%
D17*
%TO.C,C49*%
X219055000Y-83495000D03*
X220955000Y-83495000D03*
%TD*%
%TO.C,C32*%
X191060000Y-61805000D03*
X192960000Y-61805000D03*
%TD*%
D18*
%TO.C,C54*%
X210350000Y-89775000D03*
X211900000Y-89775000D03*
%TD*%
D19*
%TO.C,RN5*%
X212150000Y-112025000D03*
D20*
X212150000Y-112825000D03*
X212150000Y-113625000D03*
D19*
X212150000Y-114425000D03*
X213950000Y-114425000D03*
D20*
X213950000Y-113625000D03*
X213950000Y-112825000D03*
D19*
X213950000Y-112025000D03*
%TD*%
D28*
%TO.C,R102*%
X162305000Y-66057500D03*
X162305000Y-67707500D03*
%TD*%
D17*
%TO.C,C35*%
X191060000Y-70835000D03*
X192960000Y-70835000D03*
%TD*%
D15*
%TO.C,R27*%
X182505000Y-61555000D03*
X184155000Y-61555000D03*
%TD*%
%TO.C,R58*%
X222300000Y-127300000D03*
X223950000Y-127300000D03*
%TD*%
D29*
%TO.C,U8*%
X82387500Y-94675000D03*
X80087500Y-94675000D03*
D30*
X80087500Y-100975000D03*
D29*
X77787500Y-94675000D03*
%TD*%
D31*
%TO.C,R81*%
X106550000Y-72025000D03*
X106550000Y-70375000D03*
%TD*%
D18*
%TO.C,C53*%
X210350000Y-87265000D03*
X211900000Y-87265000D03*
%TD*%
D31*
%TO.C,R79*%
X103450000Y-72025000D03*
X103450000Y-70375000D03*
%TD*%
D32*
%TO.C,D15*%
X202132500Y-112985000D03*
X203707500Y-112985000D03*
%TD*%
D18*
%TO.C,C4*%
X198095000Y-97815000D03*
X199645000Y-97815000D03*
%TD*%
D33*
%TO.C,D14*%
X112750000Y-70900000D03*
X112750000Y-69950000D03*
X112750000Y-69000000D03*
X110475000Y-69000000D03*
X110475000Y-69950000D03*
X110475000Y-70900000D03*
%TD*%
D10*
%TO.C,U12*%
X136015000Y-102800000D03*
X137285000Y-102800000D03*
X138555000Y-102800000D03*
X139825000Y-102800000D03*
X139825000Y-97850000D03*
X138555000Y-97850000D03*
X137285000Y-97850000D03*
X136015000Y-97850000D03*
%TD*%
D28*
%TO.C,R99*%
X169835000Y-66057500D03*
X169835000Y-67707500D03*
%TD*%
D17*
%TO.C,C45*%
X199960000Y-70835000D03*
X201860000Y-70835000D03*
%TD*%
D14*
%TO.C,D2*%
X232482500Y-87010000D03*
X234357500Y-87010000D03*
%TD*%
D17*
%TO.C,C44*%
X199960000Y-67825000D03*
X201860000Y-67825000D03*
%TD*%
D15*
%TO.C,R2*%
X198045000Y-102835000D03*
X199695000Y-102835000D03*
%TD*%
D28*
%TO.C,R101*%
X164815000Y-66057500D03*
X164815000Y-67707500D03*
%TD*%
D34*
%TO.C,D30*%
X219470000Y-115390000D03*
X222270000Y-115390000D03*
%TD*%
D18*
%TO.C,C52*%
X210350000Y-84755000D03*
X211900000Y-84755000D03*
%TD*%
D17*
%TO.C,C43*%
X199960000Y-64815000D03*
X201860000Y-64815000D03*
%TD*%
%TO.C,C7*%
X202150000Y-104585000D03*
X204050000Y-104585000D03*
%TD*%
D19*
%TO.C,RN7*%
X218955000Y-86175000D03*
D20*
X218955000Y-86975000D03*
X218955000Y-87775000D03*
D19*
X218955000Y-88575000D03*
X220755000Y-88575000D03*
D20*
X220755000Y-87775000D03*
X220755000Y-86975000D03*
D19*
X220755000Y-86175000D03*
%TD*%
D17*
%TO.C,C8*%
X202150000Y-107595000D03*
X204050000Y-107595000D03*
%TD*%
D14*
%TO.C,D26*%
X178182500Y-80060000D03*
X180057500Y-80060000D03*
%TD*%
D35*
%TO.C,U14*%
X197785000Y-83630000D03*
X197785000Y-84900000D03*
X197785000Y-86170000D03*
X197785000Y-87440000D03*
X203035000Y-87440000D03*
X203035000Y-86170000D03*
X203035000Y-84900000D03*
X203035000Y-83630000D03*
%TD*%
D36*
%TO.C,U15*%
X197760000Y-76860000D03*
X197760000Y-78130000D03*
X197760000Y-79400000D03*
X197760000Y-80670000D03*
X204960000Y-80670000D03*
X204960000Y-79400000D03*
X204960000Y-78130000D03*
X204960000Y-76860000D03*
%TD*%
D17*
%TO.C,C40*%
X195510000Y-70835000D03*
X197410000Y-70835000D03*
%TD*%
D10*
%TO.C,U20*%
X142595000Y-102800000D03*
X143865000Y-102800000D03*
X145135000Y-102800000D03*
X146405000Y-102800000D03*
X146405000Y-97850000D03*
X145135000Y-97850000D03*
X143865000Y-97850000D03*
X142595000Y-97850000D03*
%TD*%
D12*
%TO.C,D8*%
X236945000Y-89825000D03*
X239445000Y-89825000D03*
%TD*%
D37*
%TO.C,Y1*%
X182450000Y-81805000D03*
X183850000Y-81805000D03*
%TD*%
D15*
%TO.C,R11*%
X198045000Y-110365000D03*
X199695000Y-110365000D03*
%TD*%
D12*
%TO.C,D3*%
X236945000Y-83925000D03*
X239445000Y-83925000D03*
%TD*%
D17*
%TO.C,C2*%
X202150000Y-98565000D03*
X204050000Y-98565000D03*
%TD*%
%TO.C,C37*%
X195510000Y-61805000D03*
X197410000Y-61805000D03*
%TD*%
D38*
%TO.C,U11*%
X93480000Y-83500000D03*
D39*
X92725000Y-88125000D03*
X89675000Y-88125000D03*
X92725000Y-91475000D03*
X89675000Y-91475000D03*
D38*
X88920000Y-83500000D03*
%TD*%
D15*
%TO.C,R43*%
X182505000Y-76615000D03*
X184155000Y-76615000D03*
%TD*%
D10*
%TO.C,U18*%
X99345000Y-80225000D03*
X100615000Y-80225000D03*
X101885000Y-80225000D03*
X103155000Y-80225000D03*
X103155000Y-75275000D03*
X101885000Y-75275000D03*
X100615000Y-75275000D03*
X99345000Y-75275000D03*
%TD*%
D17*
%TO.C,C31*%
X186610000Y-73845000D03*
X188510000Y-73845000D03*
%TD*%
D31*
%TO.C,R82*%
X108100000Y-72025000D03*
X108100000Y-70375000D03*
%TD*%
D15*
%TO.C,R55*%
X222300000Y-119770000D03*
X223950000Y-119770000D03*
%TD*%
%TO.C,R44*%
X182505000Y-79125000D03*
X184155000Y-79125000D03*
%TD*%
D40*
%TO.C,C69*%
X80875000Y-78225000D03*
X80875000Y-83625000D03*
%TD*%
D17*
%TO.C,C29*%
X186610000Y-67825000D03*
X188510000Y-67825000D03*
%TD*%
%TO.C,C38*%
X195510000Y-64815000D03*
X197410000Y-64815000D03*
%TD*%
%TO.C,C36*%
X191060000Y-73845000D03*
X192960000Y-73845000D03*
%TD*%
%TO.C,C1*%
X202150000Y-95555000D03*
X204050000Y-95555000D03*
%TD*%
D41*
%TO.C,U17*%
X204572500Y-66200000D03*
X204572500Y-67150000D03*
X204572500Y-68100000D03*
X206847500Y-68100000D03*
X206847500Y-67150000D03*
X206847500Y-66200000D03*
%TD*%
D42*
%TO.C,R7*%
X214027500Y-107725000D03*
X215852500Y-107725000D03*
%TD*%
D43*
%TO.C,U10*%
X189615000Y-136180000D03*
X190265000Y-136180000D03*
X190915000Y-136180000D03*
X191565000Y-136180000D03*
X191565000Y-137780000D03*
X190915000Y-137780000D03*
X190265000Y-137780000D03*
X189615000Y-137780000D03*
%TD*%
D15*
%TO.C,R9*%
X182505000Y-115995000D03*
X184155000Y-115995000D03*
%TD*%
D28*
%TO.C,R100*%
X167325000Y-66057500D03*
X167325000Y-67707500D03*
%TD*%
%TO.C,R75*%
X115975000Y-63725000D03*
X115975000Y-65375000D03*
%TD*%
D18*
%TO.C,C48*%
X210350000Y-79735000D03*
X211900000Y-79735000D03*
%TD*%
D22*
%TO.C,RN6*%
X165855000Y-84612500D03*
D23*
X165055000Y-84612500D03*
X164255000Y-84612500D03*
D22*
X163455000Y-84612500D03*
X163455000Y-86412500D03*
D23*
X164255000Y-86412500D03*
X165055000Y-86412500D03*
D22*
X165855000Y-86412500D03*
%TD*%
D32*
%TO.C,D13*%
X202132500Y-110395000D03*
X203707500Y-110395000D03*
%TD*%
D14*
%TO.C,D22*%
X147600000Y-124800000D03*
X149475000Y-124800000D03*
%TD*%
D44*
%TO.C,U26*%
X220745000Y-104055000D03*
X220745000Y-104705000D03*
X220745000Y-105355000D03*
X222645000Y-105355000D03*
X222645000Y-104705000D03*
X222645000Y-104055000D03*
%TD*%
D14*
%TO.C,D12*%
X232482500Y-105250000D03*
X234357500Y-105250000D03*
%TD*%
D45*
%TO.C,C63*%
X116925000Y-79650000D03*
X115375000Y-79650000D03*
%TD*%
D44*
%TO.C,U25*%
X220745000Y-100130000D03*
X220745000Y-100780000D03*
X220745000Y-101430000D03*
X222645000Y-101430000D03*
X222645000Y-100780000D03*
X222645000Y-100130000D03*
%TD*%
D16*
%TO.C,C58*%
X111231997Y-66726965D03*
X111231997Y-67686965D03*
%TD*%
D15*
%TO.C,R37*%
X182505000Y-69085000D03*
X184155000Y-69085000D03*
%TD*%
D12*
%TO.C,D6*%
X236945000Y-86875000D03*
X239445000Y-86875000D03*
%TD*%
D28*
%TO.C,R106*%
X157285000Y-66057500D03*
X157285000Y-67707500D03*
%TD*%
D44*
%TO.C,U9*%
X213900000Y-99325000D03*
X213900000Y-99975000D03*
X213900000Y-100625000D03*
X215800000Y-100625000D03*
X215800000Y-99975000D03*
X215800000Y-99325000D03*
%TD*%
D46*
%TO.C,D17*%
X89075000Y-72700000D03*
X93075000Y-72700000D03*
%TD*%
D44*
%TO.C,U7*%
X213900000Y-95400000D03*
X213900000Y-96050000D03*
X213900000Y-96700000D03*
X215800000Y-96700000D03*
X215800000Y-96050000D03*
X215800000Y-95400000D03*
%TD*%
D17*
%TO.C,C42*%
X199960000Y-61805000D03*
X201860000Y-61805000D03*
%TD*%
D15*
%TO.C,R8*%
X182505000Y-113485000D03*
X184155000Y-113485000D03*
%TD*%
D17*
%TO.C,C9*%
X219055000Y-77475000D03*
X220955000Y-77475000D03*
%TD*%
%TO.C,C50*%
X200285000Y-135815000D03*
X202185000Y-135815000D03*
%TD*%
D22*
%TO.C,RN8*%
X107482024Y-73596556D03*
D23*
X106682024Y-73596556D03*
X105882024Y-73596556D03*
D22*
X105082024Y-73596556D03*
X105082024Y-75396556D03*
D23*
X105882024Y-75396556D03*
X106682024Y-75396556D03*
D22*
X107482024Y-75396556D03*
%TD*%
D16*
%TO.C,C60*%
X110235736Y-66726965D03*
X110235736Y-67686965D03*
%TD*%
D15*
%TO.C,R4*%
X198045000Y-107855000D03*
X199695000Y-107855000D03*
%TD*%
D34*
%TO.C,D29*%
X219470000Y-112040000D03*
X222270000Y-112040000D03*
%TD*%
D17*
%TO.C,C47*%
X200285000Y-132805000D03*
X202185000Y-132805000D03*
%TD*%
D31*
%TO.C,R80*%
X105000000Y-72025000D03*
X105000000Y-70375000D03*
%TD*%
D47*
%TO.C,U21*%
X195740000Y-132660000D03*
X195740000Y-133460000D03*
X195740000Y-134260000D03*
X195740000Y-135060000D03*
X195740000Y-135860000D03*
X195740000Y-136660000D03*
D48*
X196740000Y-136660000D03*
D47*
X197740000Y-136660000D03*
X197740000Y-135860000D03*
X197740000Y-135060000D03*
X197740000Y-134260000D03*
X197740000Y-133460000D03*
X197740000Y-132660000D03*
D48*
X196740000Y-132660000D03*
%TD*%
D17*
%TO.C,C6*%
X186610000Y-61805000D03*
X188510000Y-61805000D03*
%TD*%
D49*
%TO.C,C68*%
X172345000Y-66107500D03*
X172345000Y-67657500D03*
%TD*%
D27*
%TO.C,U23*%
X102010736Y-64806965D03*
X102010736Y-65456965D03*
X102010736Y-66106965D03*
X102010736Y-66756965D03*
X102010736Y-67406965D03*
X102010736Y-68056965D03*
X102010736Y-68706965D03*
X107735736Y-68706965D03*
X107735736Y-68056965D03*
X107735736Y-67406965D03*
X107735736Y-66756965D03*
X107735736Y-66106965D03*
X107735736Y-65456965D03*
X107735736Y-64806965D03*
%TD*%
D50*
%TO.C,U13*%
X103847862Y-100330315D03*
X103494309Y-100683868D03*
X103140755Y-101037422D03*
X102787202Y-101390975D03*
X102433649Y-101744528D03*
X102080095Y-102098082D03*
X101726542Y-102451635D03*
X101372988Y-102805189D03*
X101019435Y-103158742D03*
X100665882Y-103512295D03*
X100312328Y-103865849D03*
X99958775Y-104219402D03*
X99605221Y-104572955D03*
X99251668Y-104926509D03*
X98898115Y-105280062D03*
X98544561Y-105633616D03*
X98191008Y-105987169D03*
X97837455Y-106340722D03*
X97483901Y-106694276D03*
X97130348Y-107047829D03*
X96776794Y-107401383D03*
X96423241Y-107754936D03*
X96069688Y-108108489D03*
X95716134Y-108462043D03*
X95362581Y-108815596D03*
D51*
X95362581Y-111184404D03*
X95716134Y-111537957D03*
X96069688Y-111891511D03*
X96423241Y-112245064D03*
X96776794Y-112598617D03*
X97130348Y-112952171D03*
X97483901Y-113305724D03*
X97837455Y-113659278D03*
X98191008Y-114012831D03*
X98544561Y-114366384D03*
X98898115Y-114719938D03*
X99251668Y-115073491D03*
X99605221Y-115427045D03*
X99958775Y-115780598D03*
X100312328Y-116134151D03*
X100665882Y-116487705D03*
X101019435Y-116841258D03*
X101372988Y-117194811D03*
X101726542Y-117548365D03*
X102080095Y-117901918D03*
X102433649Y-118255472D03*
X102787202Y-118609025D03*
X103140755Y-118962578D03*
X103494309Y-119316132D03*
X103847862Y-119669685D03*
D50*
X106216670Y-119669685D03*
X106570223Y-119316132D03*
X106923777Y-118962578D03*
X107277330Y-118609025D03*
X107630883Y-118255472D03*
X107984437Y-117901918D03*
X108337990Y-117548365D03*
X108691544Y-117194811D03*
X109045097Y-116841258D03*
X109398650Y-116487705D03*
X109752204Y-116134151D03*
X110105757Y-115780598D03*
X110459311Y-115427045D03*
X110812864Y-115073491D03*
X111166417Y-114719938D03*
X111519971Y-114366384D03*
X111873524Y-114012831D03*
X112227077Y-113659278D03*
X112580631Y-113305724D03*
X112934184Y-112952171D03*
X113287738Y-112598617D03*
X113641291Y-112245064D03*
X113994844Y-111891511D03*
X114348398Y-111537957D03*
X114701951Y-111184404D03*
D51*
X114701951Y-108815596D03*
X114348398Y-108462043D03*
X113994844Y-108108489D03*
X113641291Y-107754936D03*
X113287738Y-107401383D03*
X112934184Y-107047829D03*
X112580631Y-106694276D03*
X112227077Y-106340722D03*
X111873524Y-105987169D03*
X111519971Y-105633616D03*
X111166417Y-105280062D03*
X110812864Y-104926509D03*
X110459311Y-104572955D03*
X110105757Y-104219402D03*
X109752204Y-103865849D03*
X109398650Y-103512295D03*
X109045097Y-103158742D03*
X108691544Y-102805189D03*
X108337990Y-102451635D03*
X107984437Y-102098082D03*
X107630883Y-101744528D03*
X107277330Y-101390975D03*
X106923777Y-101037422D03*
X106570223Y-100683868D03*
X106216670Y-100330315D03*
%TD*%
D17*
%TO.C,C14*%
X219055000Y-80485000D03*
X220955000Y-80485000D03*
%TD*%
D15*
%TO.C,R56*%
X222300000Y-122280000D03*
X223950000Y-122280000D03*
%TD*%
%TO.C,R1*%
X198045000Y-100325000D03*
X199695000Y-100325000D03*
%TD*%
D28*
%TO.C,R108*%
X154775000Y-66057500D03*
X154775000Y-67707500D03*
%TD*%
D52*
%TO.C,U6*%
X127200000Y-79600000D03*
X128470000Y-79600000D03*
X129740000Y-79600000D03*
X131010000Y-79600000D03*
X131010000Y-74350000D03*
X129740000Y-74350000D03*
X128470000Y-74350000D03*
X127200000Y-74350000D03*
%TD*%
D53*
%TO.C,J16*%
X98032266Y-126395713D03*
X99132266Y-126795713D03*
X100232266Y-126395713D03*
X101332266Y-126195713D03*
X102432266Y-126395713D03*
X103532266Y-126195713D03*
X104632266Y-126395713D03*
X105732266Y-126395713D03*
D54*
X104922266Y-137255713D03*
X99222266Y-137255713D03*
D55*
X106522266Y-124105713D03*
X93372266Y-123105713D03*
D56*
X103532266Y-137455713D03*
%TD*%
D15*
%TO.C,R6*%
X182505000Y-110975000D03*
X184155000Y-110975000D03*
%TD*%
%TO.C,R57*%
X222300000Y-124790000D03*
X223950000Y-124790000D03*
%TD*%
D57*
%TO.C,Y2*%
X204660000Y-63375000D03*
X206860000Y-63375000D03*
X206860000Y-61675000D03*
X204660000Y-61675000D03*
%TD*%
D58*
%TO.C,R31*%
X197527500Y-90405000D03*
X200452500Y-90405000D03*
%TD*%
D28*
%TO.C,R16*%
X114425000Y-63725000D03*
X114425000Y-65375000D03*
%TD*%
D59*
%TO.C,C10*%
X129000000Y-93100000D03*
X129000000Y-87700000D03*
%TD*%
D14*
%TO.C,D5*%
X232482500Y-93090000D03*
X234357500Y-93090000D03*
%TD*%
D22*
%TO.C,RN1*%
X141825000Y-75575000D03*
D23*
X141025000Y-75575000D03*
X140225000Y-75575000D03*
D22*
X139425000Y-75575000D03*
X139425000Y-77375000D03*
D23*
X140225000Y-77375000D03*
X141025000Y-77375000D03*
D22*
X141825000Y-77375000D03*
%TD*%
D19*
%TO.C,RN3*%
X178050000Y-82755000D03*
D20*
X178050000Y-83555000D03*
X178050000Y-84355000D03*
D19*
X178050000Y-85155000D03*
X179850000Y-85155000D03*
D20*
X179850000Y-84355000D03*
X179850000Y-83555000D03*
D19*
X179850000Y-82755000D03*
%TD*%
D16*
%TO.C,C25*%
X112210074Y-66726965D03*
X112210074Y-67686965D03*
%TD*%
D18*
%TO.C,C51*%
X210350000Y-82245000D03*
X211900000Y-82245000D03*
%TD*%
D17*
%TO.C,C41*%
X195510000Y-73845000D03*
X197410000Y-73845000D03*
%TD*%
D18*
%TO.C,C15*%
X210350000Y-77225000D03*
X211900000Y-77225000D03*
%TD*%
D28*
%TO.C,R104*%
X159795000Y-66057500D03*
X159795000Y-67707500D03*
%TD*%
D14*
%TO.C,D10*%
X232482500Y-102210000D03*
X234357500Y-102210000D03*
%TD*%
D60*
%TO.C,SW1*%
X128325000Y-110525000D03*
X136125000Y-110525000D03*
%TD*%
M02*
