%TF.GenerationSoftware,KiCad,Pcbnew,8.99.0-unknown-1.20241209git10cd458.fc40*%
%TF.CreationDate,2024-12-12T00:34:18-03:00*%
%TF.ProjectId,hw_v1,68775f76-312e-46b6-9963-61645f706362,rev?*%
%TF.SameCoordinates,Original*%
%TF.FileFunction,Copper,L4,Bot*%
%TF.FilePolarity,Positive*%
%FSLAX46Y46*%
G04 Gerber Fmt 4.6, Leading zero omitted, Abs format (unit mm)*
G04 Created by KiCad (PCBNEW 8.99.0-unknown-1.20241209git10cd458.fc40) date 2024-12-12 00:34:18*
%MOMM*%
%LPD*%
G01*
G04 APERTURE LIST*
G04 Aperture macros list*
%AMRoundRect*
0 Rectangle with rounded corners*
0 $1 Rounding radius*
0 $2 $3 $4 $5 $6 $7 $8 $9 X,Y pos of 4 corners*
0 Add a 4 corners polygon primitive as box body*
4,1,4,$2,$3,$4,$5,$6,$7,$8,$9,$2,$3,0*
0 Add four circle primitives for the rounded corners*
1,1,$1+$1,$2,$3*
1,1,$1+$1,$4,$5*
1,1,$1+$1,$6,$7*
1,1,$1+$1,$8,$9*
0 Add four rect primitives between the rounded corners*
20,1,$1+$1,$2,$3,$4,$5,0*
20,1,$1+$1,$4,$5,$6,$7,0*
20,1,$1+$1,$6,$7,$8,$9,0*
20,1,$1+$1,$8,$9,$2,$3,0*%
%AMFreePoly0*
4,1,23,0.000000,0.745722,0.065263,0.745722,0.191342,0.711940,0.304381,0.646677,0.396677,0.554381,0.461940,0.441342,0.495722,0.315263,0.495722,0.250000,0.500000,0.250000,0.500000,-0.250000,0.495722,-0.250000,0.495722,-0.315263,0.461940,-0.441342,0.396677,-0.554381,0.304381,-0.646677,0.191342,-0.711940,0.065263,-0.745722,0.000000,-0.745722,0.000000,-0.750000,-0.500000,-0.750000,
-0.500000,0.750000,0.000000,0.750000,0.000000,0.745722,0.000000,0.745722,$1*%
%AMFreePoly1*
4,1,23,0.500000,-0.750000,0.000000,-0.750000,0.000000,-0.745722,-0.065263,-0.745722,-0.191342,-0.711940,-0.304381,-0.646677,-0.396677,-0.554381,-0.461940,-0.441342,-0.495722,-0.315263,-0.495722,-0.250000,-0.500000,-0.250000,-0.500000,0.250000,-0.495722,0.250000,-0.495722,0.315263,-0.461940,0.441342,-0.396677,0.554381,-0.304381,0.646677,-0.191342,0.711940,-0.065263,0.745722,0.000000,0.745722,
0.000000,0.750000,0.500000,0.750000,0.500000,-0.750000,0.500000,-0.750000,$1*%
G04 Aperture macros list end*
%ADD10C,0.300000*%
%TA.AperFunction,NonConductor*%
%ADD11C,0.300000*%
%TD*%
%TA.AperFunction,EtchedComponent*%
%ADD12C,0.000000*%
%TD*%
%TA.AperFunction,SMDPad,CuDef*%
%ADD13R,1.000000X1.000000*%
%TD*%
%TA.AperFunction,SMDPad,CuDef*%
%ADD14FreePoly0,180.000000*%
%TD*%
%TA.AperFunction,SMDPad,CuDef*%
%ADD15FreePoly1,180.000000*%
%TD*%
%TA.AperFunction,SMDPad,CuDef*%
%ADD16C,2.000000*%
%TD*%
%TA.AperFunction,SMDPad,CuDef*%
%ADD17R,1.000000X1.500000*%
%TD*%
%TA.AperFunction,ComponentPad*%
%ADD18R,1.600000X1.600000*%
%TD*%
%TA.AperFunction,ComponentPad*%
%ADD19O,1.600000X1.600000*%
%TD*%
%TA.AperFunction,ComponentPad*%
%ADD20R,1.100000X1.100000*%
%TD*%
%TA.AperFunction,ComponentPad*%
%ADD21C,1.100000*%
%TD*%
%TA.AperFunction,ComponentPad*%
%ADD22O,1.100000X2.400000*%
%TD*%
%TA.AperFunction,ComponentPad*%
%ADD23RoundRect,0.250000X-0.600000X-0.750000X0.600000X-0.750000X0.600000X0.750000X-0.600000X0.750000X0*%
%TD*%
%TA.AperFunction,ComponentPad*%
%ADD24O,1.700000X2.000000*%
%TD*%
%TA.AperFunction,ComponentPad*%
%ADD25C,1.524000*%
%TD*%
%TA.AperFunction,SMDPad,CuDef*%
%ADD26R,1.500000X1.500000*%
%TD*%
%TA.AperFunction,ComponentPad*%
%ADD27C,4.000000*%
%TD*%
%TA.AperFunction,ComponentPad*%
%ADD28C,2.200000*%
%TD*%
%TA.AperFunction,ComponentPad*%
%ADD29C,1.600000*%
%TD*%
%TA.AperFunction,SMDPad,CuDef*%
%ADD30RoundRect,0.100000X-0.100000X0.637500X-0.100000X-0.637500X0.100000X-0.637500X0.100000X0.637500X0*%
%TD*%
%TA.AperFunction,ComponentPad*%
%ADD31R,1.700000X1.700000*%
%TD*%
%TA.AperFunction,ComponentPad*%
%ADD32O,1.700000X1.700000*%
%TD*%
%TA.AperFunction,ViaPad*%
%ADD33C,0.600000*%
%TD*%
%TA.AperFunction,ViaPad*%
%ADD34C,1.541780*%
%TD*%
%TA.AperFunction,Conductor*%
%ADD35C,0.203200*%
%TD*%
%TA.AperFunction,Conductor*%
%ADD36C,0.600000*%
%TD*%
%TA.AperFunction,Conductor*%
%ADD37C,1.000000*%
%TD*%
G04 APERTURE END LIST*
D10*
D11*
X82072918Y-134189690D02*
X82173917Y-134187928D01*
X82173917Y-134187928D02*
X82326299Y-134235783D01*
X82326299Y-134235783D02*
X82583206Y-134483875D01*
X82583206Y-134483875D02*
X82636350Y-134634494D01*
X82636350Y-134634494D02*
X82638113Y-134735494D01*
X82638113Y-134735494D02*
X82590258Y-134887875D01*
X82590258Y-134887875D02*
X82491021Y-134990638D01*
X82491021Y-134990638D02*
X82290784Y-135095163D01*
X82290784Y-135095163D02*
X81078786Y-135116319D01*
X81078786Y-135116319D02*
X81746744Y-135761359D01*
D12*
%TA.AperFunction,EtchedComponent*%
%TO.C,JP13*%
G36*
X50600000Y-88200000D02*
G01*
X50100000Y-88200000D01*
X50100000Y-87800000D01*
X50600000Y-87800000D01*
X50600000Y-88200000D01*
G37*
%TD.AperFunction*%
%TA.AperFunction,EtchedComponent*%
G36*
X50600000Y-87400000D02*
G01*
X50100000Y-87400000D01*
X50100000Y-87000000D01*
X50600000Y-87000000D01*
X50600000Y-87400000D01*
G37*
%TD.AperFunction*%
%TA.AperFunction,EtchedComponent*%
%TO.C,JP9*%
G36*
X51400000Y-77965000D02*
G01*
X50900000Y-77965000D01*
X50900000Y-77565000D01*
X51400000Y-77565000D01*
X51400000Y-77965000D01*
G37*
%TD.AperFunction*%
%TA.AperFunction,EtchedComponent*%
G36*
X51400000Y-77165000D02*
G01*
X50900000Y-77165000D01*
X50900000Y-76765000D01*
X51400000Y-76765000D01*
X51400000Y-77165000D01*
G37*
%TD.AperFunction*%
%TA.AperFunction,EtchedComponent*%
%TO.C,JP10*%
G36*
X51400000Y-81800000D02*
G01*
X50900000Y-81800000D01*
X50900000Y-81400000D01*
X51400000Y-81400000D01*
X51400000Y-81800000D01*
G37*
%TD.AperFunction*%
%TA.AperFunction,EtchedComponent*%
G36*
X51400000Y-81000000D02*
G01*
X50900000Y-81000000D01*
X50900000Y-80600000D01*
X51400000Y-80600000D01*
X51400000Y-81000000D01*
G37*
%TD.AperFunction*%
%TA.AperFunction,EtchedComponent*%
%TO.C,JP2*%
G36*
X51200000Y-85300000D02*
G01*
X50700000Y-85300000D01*
X50700000Y-84700000D01*
X51200000Y-84700000D01*
X51200000Y-85300000D01*
G37*
%TD.AperFunction*%
%TA.AperFunction,EtchedComponent*%
%TO.C,JP5*%
G36*
X49850000Y-93000000D02*
G01*
X49350000Y-93000000D01*
X49350000Y-92600000D01*
X49850000Y-92600000D01*
X49850000Y-93000000D01*
G37*
%TD.AperFunction*%
%TA.AperFunction,EtchedComponent*%
G36*
X49850000Y-92200000D02*
G01*
X49350000Y-92200000D01*
X49350000Y-91800000D01*
X49850000Y-91800000D01*
X49850000Y-92200000D01*
G37*
%TD.AperFunction*%
%TD*%
D13*
%TO.P,TP16,1,1*%
%TO.N,/O2*%
X33485000Y-79575000D03*
%TD*%
D14*
%TO.P,JP12,2,B*%
%TO.N,Net-(JP12-B)*%
X42300000Y-80600000D03*
D15*
%TO.P,JP12,1,A*%
%TO.N,GND*%
X43600000Y-80600000D03*
%TD*%
D16*
%TO.P,TP7,1,1*%
%TO.N,Net-(U13-BOOT0)*%
X48800000Y-69150000D03*
%TD*%
D17*
%TO.P,JP13,3,B*%
%TO.N,HEATER+*%
X48400000Y-87600000D03*
%TO.P,JP13,2,C*%
%TO.N,IGN_V+*%
X49700000Y-87600000D03*
%TO.P,JP13,1,A*%
%TO.N,+5V*%
X51000000Y-87600000D03*
%TD*%
D13*
%TO.P,TP17,1,1*%
%TO.N,ACCL_CS*%
X58360000Y-73250000D03*
%TD*%
D17*
%TO.P,JP7,2,B*%
%TO.N,Net-(A1-M1)*%
X42100000Y-88650000D03*
%TO.P,JP7,1,A*%
%TO.N,+3V3*%
X43400000Y-88650000D03*
%TD*%
D14*
%TO.P,JP3,2,B*%
%TO.N,Net-(JP3-B)*%
X42300000Y-73500000D03*
D15*
%TO.P,JP3,1,A*%
%TO.N,/CKP_CMP_Sensors/IN2+*%
X43600000Y-73500000D03*
%TD*%
D13*
%TO.P,TP13,1,1*%
%TO.N,VDDA*%
X55200000Y-80400000D03*
%TD*%
%TO.P,TP18,1,1*%
%TO.N,BARO_CS*%
X58360000Y-76300000D03*
%TD*%
D17*
%TO.P,JP9,3,B*%
%TO.N,USART_2_RX*%
X49200000Y-77365000D03*
%TO.P,JP9,2,C*%
%TO.N,Net-(J14-Pin_4)*%
X50500000Y-77365000D03*
%TO.P,JP9,1,A*%
%TO.N,USART_2_TX*%
X51800000Y-77365000D03*
%TD*%
%TO.P,JP8,2,B*%
%TO.N,Net-(A1-M2)*%
X42100000Y-92200000D03*
%TO.P,JP8,1,A*%
%TO.N,+3V3*%
X43400000Y-92200000D03*
%TD*%
%TO.P,JP6,2,B*%
%TO.N,Net-(A1-M0)*%
X42100000Y-85100000D03*
%TO.P,JP6,1,A*%
%TO.N,+3V3*%
X43400000Y-85100000D03*
%TD*%
D16*
%TO.P,TP8,1,1*%
%TO.N,Net-(U13-PB2)*%
X48800000Y-73200000D03*
%TD*%
D13*
%TO.P,TP15,1,1*%
%TO.N,/VBATT*%
X33525000Y-88375000D03*
%TD*%
D17*
%TO.P,JP10,3,B*%
%TO.N,USART_2_TX*%
X49200000Y-81200000D03*
%TO.P,JP10,2,C*%
%TO.N,Net-(J14-Pin_3)*%
X50500000Y-81200000D03*
%TO.P,JP10,1,A*%
%TO.N,USART_2_RX*%
X51800000Y-81200000D03*
%TD*%
D14*
%TO.P,JP11,2,B*%
%TO.N,Net-(JP11-B)*%
X42300000Y-77050000D03*
D15*
%TO.P,JP11,1,A*%
%TO.N,GND*%
X43600000Y-77050000D03*
%TD*%
D17*
%TO.P,JP2,3,B*%
%TO.N,Net-(JP2-B)*%
X49000000Y-85000000D03*
%TO.P,JP2,2,C*%
%TO.N,CRANK+*%
X50300000Y-85000000D03*
%TO.P,JP2,1,A*%
%TO.N,/CKP_CMP_Sensors/CKP_VR*%
X51600000Y-85000000D03*
%TD*%
D13*
%TO.P,TP14,1,1*%
%TO.N,/MAP*%
X52550000Y-73450000D03*
%TD*%
%TO.P,TP10,1,1*%
%TO.N,/IAT*%
X55600000Y-73450000D03*
%TD*%
%TO.P,TP12,1,1*%
%TO.N,/MEMORY_CS*%
X55200000Y-77350000D03*
%TD*%
D17*
%TO.P,JP5,2,B*%
%TO.N,Net-(JP5-B)*%
X48950000Y-92400000D03*
%TO.P,JP5,1,A*%
%TO.N,CAN-*%
X50250000Y-92400000D03*
%TD*%
D13*
%TO.P,TP9,1,1*%
%TO.N,/CLT*%
X55600000Y-70400000D03*
%TD*%
%TO.P,TP11,1,1*%
%TO.N,/TPS*%
X52550000Y-70400000D03*
%TD*%
D18*
%TO.P,A1,1,GND*%
%TO.N,GND*%
X134660000Y-74610000D03*
D19*
%TO.P,A1,2,~{FLT}*%
%TO.N,/MTR_FAULT*%
X134660000Y-77150000D03*
%TO.P,A1,3,A2*%
%TO.N,STEPPER-A2*%
X134660000Y-79690000D03*
%TO.P,A1,4,A1*%
%TO.N,STEPPER-A1*%
X134660000Y-82230000D03*
%TO.P,A1,5,B1*%
%TO.N,STEPPER-B1*%
X134660000Y-84770000D03*
%TO.P,A1,6,B2*%
%TO.N,STEPPER-B2*%
X134660000Y-87310000D03*
%TO.P,A1,7,GND*%
%TO.N,GND*%
X134660000Y-89850000D03*
%TO.P,A1,8,VMOT*%
%TO.N,HEATER+*%
X134660000Y-92390000D03*
%TO.P,A1,9,~{EN}*%
%TO.N,/MTR_ENABLE*%
X147360000Y-92390000D03*
%TO.P,A1,10,M0*%
%TO.N,Net-(A1-M0)*%
X147360000Y-89850000D03*
%TO.P,A1,11,M1*%
%TO.N,Net-(A1-M1)*%
X147360000Y-87310000D03*
%TO.P,A1,12,M2*%
%TO.N,Net-(A1-M2)*%
X147360000Y-84770000D03*
%TO.P,A1,13,~{RST}*%
%TO.N,+3V3*%
X147360000Y-82230000D03*
%TO.P,A1,14,~{SLP}*%
X147360000Y-79690000D03*
%TO.P,A1,15,STEP*%
%TO.N,/MTR_STEP*%
X147360000Y-77150000D03*
%TO.P,A1,16,DIR*%
%TO.N,/MTR_DIR*%
X147360000Y-74610000D03*
%TD*%
D20*
%TO.P,J8,1,VBUS*%
%TO.N,VBUS*%
X115282266Y-131520713D03*
D21*
%TO.P,J8,2,D-*%
%TO.N,USB_D-*%
X114482266Y-133270713D03*
%TO.P,J8,3,D+*%
%TO.N,USB_D+*%
X113682266Y-131520713D03*
%TO.P,J8,4,GND*%
%TO.N,GND*%
X112882266Y-133270713D03*
%TO.P,J8,5,Shield*%
X112082266Y-131520713D03*
D22*
%TO.P,J8,6*%
%TO.N,N/C*%
X117332266Y-132395713D03*
X110032266Y-132395713D03*
%TD*%
D23*
%TO.P,BT1,1,+*%
%TO.N,Net-(BT1-+)*%
X180500000Y-27000000D03*
D24*
%TO.P,BT1,2,-*%
%TO.N,GND*%
X183000000Y-27000000D03*
%TD*%
D25*
%TO.P,U4,1,5V*%
%TO.N,+5V*%
X122400000Y-92115000D03*
%TO.P,U4,2,GND*%
%TO.N,GND*%
X122400000Y-89575000D03*
%TO.P,U4,3,SEL_1*%
%TO.N,Net-(U4-SEL_1)*%
X122400000Y-87035000D03*
%TO.P,U4,4,SEL_2*%
%TO.N,Net-(U4-SEL_2)*%
X122400000Y-84495000D03*
%TO.P,U4,5,CAN_RX*%
%TO.N,/Sensors/CAN_RX*%
X122400000Y-81955000D03*
%TO.P,U4,6,CAN_TX*%
%TO.N,/Sensors/CAN_TX*%
X122400000Y-79415000D03*
%TO.P,U4,7,VBatt_Sense*%
%TO.N,HEATER+*%
X122400000Y-76875000D03*
%TO.P,U4,8,Boot0*%
%TO.N,Net-(U4-Boot0)*%
X122400000Y-74335000D03*
%TO.P,U4,9,HEAT_GND*%
%TO.N,GND*%
X97000000Y-92115000D03*
%TO.P,U4,10,HEAT_GND2*%
X97000000Y-89575000D03*
%TO.P,U4,11,HEATER-*%
%TO.N,HEATER-*%
X97000000Y-87035000D03*
%TO.P,U4,12,HEATER-*%
X97000000Y-84495000D03*
%TO.P,U4,13,LSU_ip*%
%TO.N,LSU_ip*%
X97000000Y-81955000D03*
%TO.P,U4,14,LSU_vm*%
%TO.N,LSU_vm*%
X97000000Y-79415000D03*
%TO.P,U4,15,LSU_rtrim*%
%TO.N,LSU_rtrim*%
X97000000Y-76875000D03*
%TO.P,U4,16,LSU_un*%
%TO.N,LSU_un*%
X97000000Y-74335000D03*
%TD*%
D26*
%TO.P,SW2,1,1*%
%TO.N,/NRST*%
X120100000Y-112525000D03*
%TO.P,SW2,2,2*%
%TO.N,GND*%
X112300000Y-112525000D03*
%TD*%
D27*
%TO.P,J1,*%
%TO.N,*%
X88256857Y-58312709D03*
D28*
X92356857Y-62162709D03*
X134956857Y-62162709D03*
D27*
X139056857Y-58312709D03*
D29*
%TO.P,J1,1,Pin_1*%
%TO.N,+12VA*%
X98806857Y-53562709D03*
%TO.P,J1,2,Pin_2*%
%TO.N,HEATER+*%
X98806857Y-56062709D03*
%TO.P,J1,3,Pin_3*%
%TO.N,HEATER-*%
X98806857Y-58562709D03*
%TO.P,J1,4,Pin_4*%
%TO.N,IDLE-OUT*%
X98806857Y-61062709D03*
%TO.P,J1,5,Pin_5*%
%TO.N,+5C*%
X102506857Y-53562709D03*
%TO.P,J1,6,Pin_6*%
%TO.N,GND*%
X102506857Y-56062709D03*
%TO.P,J1,7,Pin_7*%
X102506857Y-58562709D03*
%TO.P,J1,8,Pin_8*%
%TO.N,BOOST-OUT*%
X102506857Y-61062709D03*
%TO.P,J1,9,Pin_9*%
%TO.N,SW_USER*%
X106006857Y-53562709D03*
%TO.P,J1,10,Pin_10*%
%TO.N,SW_TABLE*%
X106006857Y-56062709D03*
%TO.P,J1,11,Pin_11*%
%TO.N,SW_SHIFT*%
X106006857Y-58562709D03*
%TO.P,J1,12,Pin_12*%
%TO.N,SW_AC*%
X106006857Y-61062709D03*
%TO.P,J1,13,Pin_13*%
%TO.N,CAN-*%
X108506857Y-53562709D03*
%TO.P,J1,14,Pin_14*%
%TO.N,CAN+*%
X108506857Y-56062709D03*
%TO.P,J1,15,Pin_15*%
%TO.N,USB_D-*%
X108506857Y-58562709D03*
%TO.P,J1,16,Pin_16*%
%TO.N,USB_D+*%
X108506857Y-61062709D03*
%TO.P,J1,17,Pin_17*%
%TO.N,CLT_Sensor*%
X111006857Y-53562709D03*
%TO.P,J1,18,Pin_18*%
%TO.N,IAT_Sensor*%
X111006857Y-56062709D03*
%TO.P,J1,19,Pin_19*%
%TO.N,MAP_Sensor*%
X111006857Y-58562709D03*
%TO.P,J1,20,Pin_20*%
%TO.N,TPS_Sensor*%
X111006857Y-61062709D03*
%TO.P,J1,21,Pin_21*%
%TO.N,O2_Sensor*%
X113506857Y-53562709D03*
%TO.P,J1,22,Pin_22*%
%TO.N,GNDREF*%
X113506857Y-56062709D03*
%TO.P,J1,23,Pin_23*%
%TO.N,LSU_ip*%
X113506857Y-58562709D03*
%TO.P,J1,24,Pin_24*%
%TO.N,LSU_vm*%
X113506857Y-61062709D03*
%TO.P,J1,25,Pin_25*%
%TO.N,LSU_rtrim*%
X116006857Y-53562709D03*
%TO.P,J1,26,Pin_26*%
%TO.N,LSU_un*%
X116006857Y-56062709D03*
%TO.P,J1,27,Pin_27*%
%TO.N,SPARE2_out*%
X116006857Y-58562709D03*
%TO.P,J1,28,Pin_28*%
%TO.N,SPARE1_out*%
X116006857Y-61062709D03*
%TO.P,J1,29,Pin_29*%
%TO.N,CEL-OUT*%
X118506857Y-53562709D03*
%TO.P,J1,30,Pin_30*%
%TO.N,FAN-OUT*%
X118506857Y-56062709D03*
%TO.P,J1,31,Pin_31*%
%TO.N,FUELPUMP-OUT*%
X118506857Y-58562709D03*
%TO.P,J1,32,Pin_32*%
%TO.N,TACHO-OUT*%
X118506857Y-61062709D03*
%TO.P,J1,33,Pin_33*%
%TO.N,CAM+*%
X121006857Y-53562709D03*
%TO.P,J1,34,Pin_34*%
%TO.N,unconnected-(J1-Pin_34-Pad34)*%
X121006857Y-56062709D03*
%TO.P,J1,35,Pin_35*%
%TO.N,CRANK+*%
X121006857Y-58562709D03*
%TO.P,J1,36,Pin_36*%
%TO.N,CRANK-*%
X121006857Y-61062709D03*
%TO.P,J1,37,Pin_37*%
%TO.N,STEP-B2*%
X123506857Y-53562709D03*
%TO.P,J1,38,Pin_38*%
%TO.N,STEP-B1*%
X123506857Y-56062709D03*
%TO.P,J1,39,Pin_39*%
%TO.N,STEP-A1*%
X123506857Y-58562709D03*
%TO.P,J1,40,Pin_40*%
%TO.N,STEP-A2*%
X123506857Y-61062709D03*
%TO.P,J1,41,Pin_41*%
%TO.N,INJ-1-OUT*%
X126006857Y-53562709D03*
%TO.P,J1,42,Pin_42*%
%TO.N,INJ-2-OUT*%
X126006857Y-56062709D03*
%TO.P,J1,43,Pin_43*%
%TO.N,INJ-3-OUT*%
X126006857Y-58562709D03*
%TO.P,J1,44,Pin_44*%
%TO.N,INJ-4-OUT*%
X126006857Y-61062709D03*
%TO.P,J1,45,Pin_45*%
%TO.N,IGN-4-OUT*%
X128506857Y-53562709D03*
%TO.P,J1,46,Pin_46*%
%TO.N,IGN-3-OUT*%
X128506857Y-56062709D03*
%TO.P,J1,47,Pin_47*%
%TO.N,IGN-2-OUT*%
X128506857Y-58562709D03*
%TO.P,J1,48,Pin_48*%
%TO.N,IGN-1-OUT*%
X128506857Y-61062709D03*
%TD*%
D30*
%TO.P,U24,1*%
%TO.N,N/C*%
X115950000Y-100662500D03*
%TO.P,U24,2*%
X116600000Y-100662500D03*
%TO.P,U24,3*%
X117250000Y-100662500D03*
%TO.P,U24,4,V+*%
%TO.N,+5C*%
X117900000Y-100662500D03*
%TO.P,U24,5,+*%
%TO.N,Net-(RN6-R3.2)*%
X118550000Y-100662500D03*
%TO.P,U24,6,-*%
%TO.N,Net-(U24B--)*%
X119200000Y-100662500D03*
%TO.P,U24,7*%
X119850000Y-100662500D03*
%TO.P,U24,8*%
%TO.N,N/C*%
X119850000Y-106387500D03*
%TO.P,U24,9*%
X119200000Y-106387500D03*
%TO.P,U24,10*%
X118550000Y-106387500D03*
%TO.P,U24,11,V-*%
%TO.N,GND*%
X117900000Y-106387500D03*
%TO.P,U24,12,+*%
%TO.N,Net-(RN6-R1.2)*%
X117250000Y-106387500D03*
%TO.P,U24,13,-*%
%TO.N,Net-(U24D--)*%
X116600000Y-106387500D03*
%TO.P,U24,14*%
X115950000Y-106387500D03*
%TD*%
D31*
%TO.P,J14,1,Pin_1*%
%TO.N,+5V*%
X215455000Y-78295000D03*
D32*
%TO.P,J14,2,Pin_2*%
%TO.N,GND*%
X215455000Y-80835000D03*
%TO.P,J14,3,Pin_3*%
%TO.N,Net-(J14-Pin_3)*%
X215455000Y-83375000D03*
%TO.P,J14,4,Pin_4*%
%TO.N,Net-(J14-Pin_4)*%
X215455000Y-85915000D03*
%TD*%
D13*
%TO.P,TP3,1,1*%
%TO.N,Net-(U4-SEL_2)*%
X125800000Y-81800000D03*
%TD*%
%TO.P,TP2,1,1*%
%TO.N,Net-(U4-SEL_1)*%
X126400000Y-85400000D03*
%TD*%
%TO.P,TP6,1,1*%
%TO.N,Net-(U4-Boot0)*%
X119600000Y-74400000D03*
%TD*%
D33*
%TO.N,+5C*%
X113700000Y-65475000D03*
X109150000Y-69950000D03*
%TO.N,Net-(RN4-R3.2)*%
X109900000Y-64800000D03*
X112675000Y-68975000D03*
%TO.N,Net-(RN4-R2.2)*%
X112175000Y-66200000D03*
X109075000Y-69000000D03*
X103550000Y-66600000D03*
%TO.N,GND*%
X109200000Y-66700000D03*
%TO.N,+5C*%
X101000000Y-66750000D03*
X88900000Y-81750000D03*
%TO.N,GND*%
X103155000Y-73545000D03*
X100615000Y-73465000D03*
D34*
X84125000Y-89800000D03*
X80875000Y-83625000D03*
X86325000Y-78175000D03*
D33*
X113279000Y-67700000D03*
D34*
X91200000Y-89800000D03*
%TD*%
D35*
%TO.N,+5C*%
X109150000Y-69950000D02*
X113850000Y-69950000D01*
X114025000Y-65800000D02*
X113700000Y-65475000D01*
X113850000Y-69950000D02*
X114025000Y-69775000D01*
X114025000Y-69775000D02*
X114025000Y-65800000D01*
%TO.N,Net-(RN4-R3.2)*%
X109900000Y-64800000D02*
X112000000Y-64800000D01*
X112725000Y-65965111D02*
X112730000Y-65970111D01*
X112730000Y-65970111D02*
X112730000Y-66429889D01*
X112725000Y-66434889D02*
X112725000Y-68925000D01*
X112000000Y-64800000D02*
X112725000Y-65525000D01*
X112725000Y-65525000D02*
X112725000Y-65965111D01*
X112730000Y-66429889D02*
X112725000Y-66434889D01*
X112725000Y-68925000D02*
X112675000Y-68975000D01*
%TO.N,+5C*%
X101000000Y-66750000D02*
X102425000Y-66750000D01*
X102425000Y-66750000D02*
X105625000Y-69950000D01*
X105625000Y-69950000D02*
X109150000Y-69950000D01*
%TO.N,Net-(RN4-R2.2)*%
X111450000Y-66200000D02*
X112175000Y-66200000D01*
X108650000Y-69000000D02*
X111450000Y-66200000D01*
X105950000Y-69000000D02*
X108650000Y-69000000D01*
X108650000Y-69000000D02*
X109075000Y-69000000D01*
X103550000Y-66600000D02*
X105950000Y-69000000D01*
%TO.N,+5C*%
X101000000Y-66750000D02*
X100750000Y-66500000D01*
X100750000Y-66500000D02*
X100750000Y-55319566D01*
X100750000Y-55319566D02*
X102506857Y-53562709D01*
D36*
X88900000Y-81750000D02*
X93400000Y-81750000D01*
X94150000Y-81000000D02*
X94150000Y-52200000D01*
X93400000Y-81750000D02*
X94150000Y-81000000D01*
X94150000Y-52200000D02*
X94900000Y-51450000D01*
X102506857Y-51856857D02*
X102506857Y-53562709D01*
X94900000Y-51450000D02*
X102100000Y-51450000D01*
X102100000Y-51450000D02*
X102506857Y-51856857D01*
D37*
%TO.N,HEATER-*%
X98806857Y-58562709D02*
X97587291Y-58562709D01*
X97587291Y-58562709D02*
X95141500Y-61008500D01*
X95141500Y-61008500D02*
X95141500Y-82636500D01*
X95141500Y-82636500D02*
X97000000Y-84495000D01*
%TD*%
M02*
