%TF.GenerationSoftware,KiCad,Pcbnew,8.99.0-unknown-1.20241209git10cd458.fc40*%
%TF.CreationDate,2024-12-12T00:34:18-03:00*%
%TF.ProjectId,hw_v1,68775f76-312e-46b6-9963-61645f706362,rev?*%
%TF.SameCoordinates,Original*%
%TF.FileFunction,Legend,Top*%
%TF.FilePolarity,Positive*%
%FSLAX46Y46*%
G04 Gerber Fmt 4.6, Leading zero omitted, Abs format (unit mm)*
G04 Created by KiCad (PCBNEW 8.99.0-unknown-1.20241209git10cd458.fc40) date 2024-12-12 00:34:18*
%MOMM*%
%LPD*%
G01*
G04 APERTURE LIST*
G04 Aperture macros list*
%AMRoundRect*
0 Rectangle with rounded corners*
0 $1 Rounding radius*
0 $2 $3 $4 $5 $6 $7 $8 $9 X,Y pos of 4 corners*
0 Add a 4 corners polygon primitive as box body*
4,1,4,$2,$3,$4,$5,$6,$7,$8,$9,$2,$3,0*
0 Add four circle primitives for the rounded corners*
1,1,$1+$1,$2,$3*
1,1,$1+$1,$4,$5*
1,1,$1+$1,$6,$7*
1,1,$1+$1,$8,$9*
0 Add four rect primitives between the rounded corners*
20,1,$1+$1,$2,$3,$4,$5,0*
20,1,$1+$1,$4,$5,$6,$7,0*
20,1,$1+$1,$6,$7,$8,$9,0*
20,1,$1+$1,$8,$9,$2,$3,0*%
G04 Aperture macros list end*
%ADD10C,0.250000*%
%ADD11C,0.203200*%
%ADD12C,0.130000*%
%ADD13C,0.150000*%
%ADD14C,0.100000*%
%ADD15C,0.120000*%
%ADD16C,0.127000*%
%ADD17C,0.300000*%
%ADD18C,4.000000*%
%ADD19C,2.200000*%
%ADD20C,1.000000*%
%ADD21RoundRect,0.150038X0.150038X-0.825038X0.150038X0.825038X-0.150038X0.825038X-0.150038X-0.825038X0*%
%ADD22RoundRect,0.250015X-1.000061X1.400061X-1.000061X-1.400061X1.000061X-1.400061X1.000061X1.400061X0*%
%ADD23RoundRect,0.250038X-0.250038X-0.250038X0.250038X-0.250038X0.250038X0.250038X-0.250038X0.250038X0*%
%ADD24RoundRect,0.000076X-0.500000X-0.500000X0.500000X-0.500000X0.500000X0.500000X-0.500000X0.500000X0*%
%ADD25RoundRect,0.087538X-0.725038X-0.087538X0.725038X-0.087538X0.725038X0.087538X-0.725038X0.087538X0*%
%ADD26RoundRect,0.243788X-0.243788X-0.456288X0.243788X-0.456288X0.243788X0.456288X-0.243788X0.456288X0*%
%ADD27RoundRect,0.200038X-0.200038X-0.275038X0.200038X-0.275038X0.200038X0.275038X-0.200038X0.275038X0*%
%ADD28RoundRect,0.140038X-0.170038X0.140038X-0.170038X-0.140038X0.170038X-0.140038X0.170038X0.140038X0*%
%ADD29RoundRect,0.250038X-0.250038X-0.475038X0.250038X-0.475038X0.250038X0.475038X-0.250038X0.475038X0*%
%ADD30RoundRect,0.000076X-0.800000X-0.800000X0.800000X-0.800000X0.800000X0.800000X-0.800000X0.800000X0*%
%ADD31O,1.600152X1.600152*%
%ADD32RoundRect,0.225038X-0.225038X-0.250038X0.225038X-0.250038X0.225038X0.250038X-0.225038X0.250038X0*%
%ADD33RoundRect,0.000076X-0.400000X-0.250000X0.400000X-0.250000X0.400000X0.250000X-0.400000X0.250000X0*%
%ADD34RoundRect,0.000076X-0.400000X-0.200000X0.400000X-0.200000X0.400000X0.200000X-0.400000X0.200000X0*%
%ADD35RoundRect,0.150038X-0.587538X-0.150038X0.587538X-0.150038X0.587538X0.150038X-0.587538X0.150038X0*%
%ADD36RoundRect,0.000076X-0.250000X0.400000X-0.250000X-0.400000X0.250000X-0.400000X0.250000X0.400000X0*%
%ADD37RoundRect,0.000076X-0.200000X0.400000X-0.200000X-0.400000X0.200000X-0.400000X0.200000X0.400000X0*%
%ADD38RoundRect,0.150038X-0.150038X0.512538X-0.150038X-0.512538X0.150038X-0.512538X0.150038X0.512538X0*%
%ADD39RoundRect,0.250031X-0.850045X-0.350045X0.850045X-0.350045X0.850045X0.350045X-0.850045X0.350045X0*%
%ADD40RoundRect,0.250004X-2.950072X-2.650072X2.950072X-2.650072X2.950072X2.650072X-2.950072X2.650072X0*%
%ADD41RoundRect,0.100038X-0.637538X-0.100038X0.637538X-0.100038X0.637538X0.100038X-0.637538X0.100038X0*%
%ADD42RoundRect,0.200038X-0.275038X0.200038X-0.275038X-0.200038X0.275038X-0.200038X0.275038X0.200038X0*%
%ADD43RoundRect,0.375038X-0.375038X0.625038X-0.375038X-0.625038X0.375038X-0.625038X0.375038X0.625038X0*%
%ADD44RoundRect,0.500038X-1.400038X0.500038X-1.400038X-0.500038X1.400038X-0.500038X1.400038X0.500038X0*%
%ADD45RoundRect,0.200038X0.275038X-0.200038X0.275038X0.200038X-0.275038X0.200038X-0.275038X-0.200038X0*%
%ADD46RoundRect,0.218788X-0.218788X-0.256288X0.218788X-0.256288X0.218788X0.256288X-0.218788X0.256288X0*%
%ADD47RoundRect,0.150038X0.512538X0.150038X-0.512538X0.150038X-0.512538X-0.150038X0.512538X-0.150038X0*%
%ADD48RoundRect,0.250035X-0.300041X-0.300041X0.300041X-0.300041X0.300041X0.300041X-0.300041X0.300041X0*%
%ADD49RoundRect,0.150038X-0.675038X-0.150038X0.675038X-0.150038X0.675038X0.150038X-0.675038X0.150038X0*%
%ADD50RoundRect,0.150038X-0.650038X-0.150038X0.650038X-0.150038X0.650038X0.150038X-0.650038X0.150038X0*%
%ADD51C,2.375052*%
%ADD52C,0.990752*%
%ADD53C,0.787552*%
%ADD54RoundRect,0.000076X-0.300000X-0.550000X0.300000X-0.550000X0.300000X0.550000X-0.300000X0.550000X0*%
%ADD55RoundRect,0.250031X-0.350045X0.850045X-0.350045X-0.850045X0.350045X-0.850045X0.350045X0.850045X0*%
%ADD56RoundRect,0.250004X-2.650072X2.950072X-2.650072X-2.950072X2.650072X-2.950072X2.650072X2.950072X0*%
%ADD57RoundRect,0.250024X-0.550052X1.500052X-0.550052X-1.500052X0.550052X-1.500052X0.550052X1.500052X0*%
%ADD58RoundRect,0.150038X-0.512538X-0.150038X0.512538X-0.150038X0.512538X0.150038X-0.512538X0.150038X0*%
%ADD59RoundRect,0.250037X-0.262539X-0.450039X0.262539X-0.450039X0.262539X0.450039X-0.262539X0.450039X0*%
%ADD60RoundRect,0.000076X0.175000X-0.250000X0.175000X0.250000X-0.175000X0.250000X-0.175000X-0.250000X0*%
%ADD61RoundRect,0.000076X0.550000X0.550000X-0.550000X0.550000X-0.550000X-0.550000X0.550000X-0.550000X0*%
%ADD62C,1.100152*%
%ADD63O,1.100152X2.400152*%
%ADD64RoundRect,0.100038X-0.225038X-0.100038X0.225038X-0.100038X0.225038X0.100038X-0.225038X0.100038X0*%
%ADD65RoundRect,0.225038X0.225038X0.250038X-0.225038X0.250038X-0.225038X-0.250038X0.225038X-0.250038X0*%
%ADD66RoundRect,0.250023X-0.600053X-0.750053X0.600053X-0.750053X0.600053X0.750053X-0.600053X0.750053X0*%
%ADD67O,1.700152X2.000152*%
%ADD68C,1.524152*%
%ADD69RoundRect,0.250021X-1.000055X-0.650055X1.000055X-0.650055X1.000055X0.650055X-1.000055X0.650055X0*%
%ADD70RoundRect,0.150038X-0.325038X-0.150038X0.325038X-0.150038X0.325038X0.150038X-0.325038X0.150038X0*%
%ADD71RoundRect,0.150038X-0.150038X-0.325038X0.150038X-0.325038X0.150038X0.325038X-0.150038X0.325038X0*%
%ADD72RoundRect,0.225038X-0.250038X0.225038X-0.250038X-0.225038X0.250038X-0.225038X0.250038X0.225038X0*%
%ADD73RoundRect,0.075038X-0.565739X0.459619X0.459619X-0.565739X0.565739X-0.459619X-0.459619X0.565739X0*%
%ADD74RoundRect,0.075038X-0.565739X-0.459619X-0.459619X-0.565739X0.565739X0.459619X0.459619X0.565739X0*%
%ADD75RoundRect,0.150038X0.150038X-0.675038X0.150038X0.675038X-0.150038X0.675038X-0.150038X-0.675038X0*%
%ADD76RoundRect,0.076200X-0.400000X0.750000X-0.400000X-0.750000X0.400000X-0.750000X0.400000X0.750000X0*%
%ADD77RoundRect,0.076200X-0.650000X-0.700000X0.650000X-0.700000X0.650000X0.700000X-0.650000X0.700000X0*%
%ADD78RoundRect,0.076200X-0.700000X0.950000X-0.700000X-0.950000X0.700000X-0.950000X0.700000X0.950000X0*%
%ADD79RoundRect,0.076200X0.475000X-0.500000X0.475000X0.500000X-0.475000X0.500000X-0.475000X-0.500000X0*%
%ADD80RoundRect,0.000076X-0.700000X-0.600000X0.700000X-0.600000X0.700000X0.600000X-0.700000X0.600000X0*%
%ADD81RoundRect,0.250034X-0.312542X-0.625042X0.312542X-0.625042X0.312542X0.625042X-0.312542X0.625042X0*%
%ADD82RoundRect,0.250024X0.550052X-1.500052X0.550052X1.500052X-0.550052X1.500052X-0.550052X-1.500052X0*%
%ADD83C,4.000152*%
%ADD84C,2.200152*%
%ADD85C,1.600152*%
%ADD86RoundRect,0.000076X-0.850000X-0.850000X0.850000X-0.850000X0.850000X0.850000X-0.850000X0.850000X0*%
%ADD87O,1.700152X1.700152*%
%ADD88RoundRect,0.000076X-0.750000X-0.750000X0.750000X-0.750000X0.750000X0.750000X-0.750000X0.750000X0*%
G04 APERTURE END LIST*
D10*
X146624657Y-46923509D02*
X127320657Y-46923509D01*
X99668558Y-118059809D02*
G75*
G02*
X98576062Y-118059809I-546248J0D01*
G01*
X98576062Y-118059809D02*
G75*
G02*
X99668558Y-118059809I546248J0D01*
G01*
X127320657Y-50987509D02*
X146624657Y-50987509D01*
X146624657Y-50987509D02*
X146624657Y-46923509D01*
X127320657Y-46923509D02*
X127320657Y-50987509D01*
X99668558Y-118059809D02*
G75*
G02*
X98576062Y-118059809I-546248J0D01*
G01*
X98576062Y-118059809D02*
G75*
G02*
X99668558Y-118059809I546248J0D01*
G01*
X129007715Y-84432366D02*
G75*
G02*
X127809599Y-84432366I-599058J0D01*
G01*
X127809599Y-84432366D02*
G75*
G02*
X129007715Y-84432366I599058J0D01*
G01*
D11*
X129933228Y-48633973D02*
X129933228Y-49722544D01*
X129933228Y-49722544D02*
X129860657Y-49940259D01*
X129860657Y-49940259D02*
X129715514Y-50085402D01*
X129715514Y-50085402D02*
X129497800Y-50157973D01*
X129497800Y-50157973D02*
X129352657Y-50157973D01*
X131384657Y-50157973D02*
X130658943Y-50157973D01*
X130658943Y-50157973D02*
X130658943Y-48633973D01*
X132763514Y-50012830D02*
X132690942Y-50085402D01*
X132690942Y-50085402D02*
X132473228Y-50157973D01*
X132473228Y-50157973D02*
X132328085Y-50157973D01*
X132328085Y-50157973D02*
X132110371Y-50085402D01*
X132110371Y-50085402D02*
X131965228Y-49940259D01*
X131965228Y-49940259D02*
X131892657Y-49795116D01*
X131892657Y-49795116D02*
X131820085Y-49504830D01*
X131820085Y-49504830D02*
X131820085Y-49287116D01*
X131820085Y-49287116D02*
X131892657Y-48996830D01*
X131892657Y-48996830D02*
X131965228Y-48851687D01*
X131965228Y-48851687D02*
X132110371Y-48706544D01*
X132110371Y-48706544D02*
X132328085Y-48633973D01*
X132328085Y-48633973D02*
X132473228Y-48633973D01*
X132473228Y-48633973D02*
X132690942Y-48706544D01*
X132690942Y-48706544D02*
X132763514Y-48779116D01*
X133852085Y-48633973D02*
X133852085Y-49722544D01*
X133852085Y-49722544D02*
X133779514Y-49940259D01*
X133779514Y-49940259D02*
X133634371Y-50085402D01*
X133634371Y-50085402D02*
X133416657Y-50157973D01*
X133416657Y-50157973D02*
X133271514Y-50157973D01*
X135303514Y-50157973D02*
X134577800Y-50157973D01*
X134577800Y-50157973D02*
X134577800Y-48633973D01*
X136682371Y-50012830D02*
X136609799Y-50085402D01*
X136609799Y-50085402D02*
X136392085Y-50157973D01*
X136392085Y-50157973D02*
X136246942Y-50157973D01*
X136246942Y-50157973D02*
X136029228Y-50085402D01*
X136029228Y-50085402D02*
X135884085Y-49940259D01*
X135884085Y-49940259D02*
X135811514Y-49795116D01*
X135811514Y-49795116D02*
X135738942Y-49504830D01*
X135738942Y-49504830D02*
X135738942Y-49287116D01*
X135738942Y-49287116D02*
X135811514Y-48996830D01*
X135811514Y-48996830D02*
X135884085Y-48851687D01*
X135884085Y-48851687D02*
X136029228Y-48706544D01*
X136029228Y-48706544D02*
X136246942Y-48633973D01*
X136246942Y-48633973D02*
X136392085Y-48633973D01*
X136392085Y-48633973D02*
X136609799Y-48706544D01*
X136609799Y-48706544D02*
X136682371Y-48779116D01*
X137770942Y-48633973D02*
X137770942Y-49722544D01*
X137770942Y-49722544D02*
X137698371Y-49940259D01*
X137698371Y-49940259D02*
X137553228Y-50085402D01*
X137553228Y-50085402D02*
X137335514Y-50157973D01*
X137335514Y-50157973D02*
X137190371Y-50157973D01*
X139222371Y-50157973D02*
X138496657Y-50157973D01*
X138496657Y-50157973D02*
X138496657Y-48633973D01*
X140601228Y-50012830D02*
X140528656Y-50085402D01*
X140528656Y-50085402D02*
X140310942Y-50157973D01*
X140310942Y-50157973D02*
X140165799Y-50157973D01*
X140165799Y-50157973D02*
X139948085Y-50085402D01*
X139948085Y-50085402D02*
X139802942Y-49940259D01*
X139802942Y-49940259D02*
X139730371Y-49795116D01*
X139730371Y-49795116D02*
X139657799Y-49504830D01*
X139657799Y-49504830D02*
X139657799Y-49287116D01*
X139657799Y-49287116D02*
X139730371Y-48996830D01*
X139730371Y-48996830D02*
X139802942Y-48851687D01*
X139802942Y-48851687D02*
X139948085Y-48706544D01*
X139948085Y-48706544D02*
X140165799Y-48633973D01*
X140165799Y-48633973D02*
X140310942Y-48633973D01*
X140310942Y-48633973D02*
X140528656Y-48706544D01*
X140528656Y-48706544D02*
X140601228Y-48779116D01*
X141689799Y-48633973D02*
X141689799Y-49722544D01*
X141689799Y-49722544D02*
X141617228Y-49940259D01*
X141617228Y-49940259D02*
X141472085Y-50085402D01*
X141472085Y-50085402D02*
X141254371Y-50157973D01*
X141254371Y-50157973D02*
X141109228Y-50157973D01*
X143141228Y-50157973D02*
X142415514Y-50157973D01*
X142415514Y-50157973D02*
X142415514Y-48633973D01*
X144520085Y-50012830D02*
X144447513Y-50085402D01*
X144447513Y-50085402D02*
X144229799Y-50157973D01*
X144229799Y-50157973D02*
X144084656Y-50157973D01*
X144084656Y-50157973D02*
X143866942Y-50085402D01*
X143866942Y-50085402D02*
X143721799Y-49940259D01*
X143721799Y-49940259D02*
X143649228Y-49795116D01*
X143649228Y-49795116D02*
X143576656Y-49504830D01*
X143576656Y-49504830D02*
X143576656Y-49287116D01*
X143576656Y-49287116D02*
X143649228Y-48996830D01*
X143649228Y-48996830D02*
X143721799Y-48851687D01*
X143721799Y-48851687D02*
X143866942Y-48706544D01*
X143866942Y-48706544D02*
X144084656Y-48633973D01*
X144084656Y-48633973D02*
X144229799Y-48633973D01*
X144229799Y-48633973D02*
X144447513Y-48706544D01*
X144447513Y-48706544D02*
X144520085Y-48779116D01*
D12*
X132186943Y-47148713D02*
X132186943Y-47684427D01*
X132186943Y-47684427D02*
X132151228Y-47791570D01*
X132151228Y-47791570D02*
X132079800Y-47862999D01*
X132079800Y-47862999D02*
X131972657Y-47898713D01*
X131972657Y-47898713D02*
X131901228Y-47898713D01*
X132901229Y-47898713D02*
X132544086Y-47898713D01*
X132544086Y-47898713D02*
X132544086Y-47148713D01*
X133579800Y-47827284D02*
X133544086Y-47862999D01*
X133544086Y-47862999D02*
X133436943Y-47898713D01*
X133436943Y-47898713D02*
X133365515Y-47898713D01*
X133365515Y-47898713D02*
X133258372Y-47862999D01*
X133258372Y-47862999D02*
X133186943Y-47791570D01*
X133186943Y-47791570D02*
X133151229Y-47720141D01*
X133151229Y-47720141D02*
X133115515Y-47577284D01*
X133115515Y-47577284D02*
X133115515Y-47470141D01*
X133115515Y-47470141D02*
X133151229Y-47327284D01*
X133151229Y-47327284D02*
X133186943Y-47255856D01*
X133186943Y-47255856D02*
X133258372Y-47184427D01*
X133258372Y-47184427D02*
X133365515Y-47148713D01*
X133365515Y-47148713D02*
X133436943Y-47148713D01*
X133436943Y-47148713D02*
X133544086Y-47184427D01*
X133544086Y-47184427D02*
X133579800Y-47220141D01*
X134615515Y-47148713D02*
X134758372Y-47148713D01*
X134758372Y-47148713D02*
X134829801Y-47184427D01*
X134829801Y-47184427D02*
X134901229Y-47255856D01*
X134901229Y-47255856D02*
X134936944Y-47398713D01*
X134936944Y-47398713D02*
X134936944Y-47648713D01*
X134936944Y-47648713D02*
X134901229Y-47791570D01*
X134901229Y-47791570D02*
X134829801Y-47862999D01*
X134829801Y-47862999D02*
X134758372Y-47898713D01*
X134758372Y-47898713D02*
X134615515Y-47898713D01*
X134615515Y-47898713D02*
X134544087Y-47862999D01*
X134544087Y-47862999D02*
X134472658Y-47791570D01*
X134472658Y-47791570D02*
X134436944Y-47648713D01*
X134436944Y-47648713D02*
X134436944Y-47398713D01*
X134436944Y-47398713D02*
X134472658Y-47255856D01*
X134472658Y-47255856D02*
X134544087Y-47184427D01*
X134544087Y-47184427D02*
X134615515Y-47148713D01*
X135258372Y-47898713D02*
X135258372Y-47398713D01*
X135258372Y-47541570D02*
X135294086Y-47470141D01*
X135294086Y-47470141D02*
X135329801Y-47434427D01*
X135329801Y-47434427D02*
X135401229Y-47398713D01*
X135401229Y-47398713D02*
X135472658Y-47398713D01*
X136044087Y-47898713D02*
X136044087Y-47148713D01*
X136044087Y-47862999D02*
X135972658Y-47898713D01*
X135972658Y-47898713D02*
X135829801Y-47898713D01*
X135829801Y-47898713D02*
X135758372Y-47862999D01*
X135758372Y-47862999D02*
X135722658Y-47827284D01*
X135722658Y-47827284D02*
X135686944Y-47755856D01*
X135686944Y-47755856D02*
X135686944Y-47541570D01*
X135686944Y-47541570D02*
X135722658Y-47470141D01*
X135722658Y-47470141D02*
X135758372Y-47434427D01*
X135758372Y-47434427D02*
X135829801Y-47398713D01*
X135829801Y-47398713D02*
X135972658Y-47398713D01*
X135972658Y-47398713D02*
X136044087Y-47434427D01*
X136686943Y-47862999D02*
X136615515Y-47898713D01*
X136615515Y-47898713D02*
X136472658Y-47898713D01*
X136472658Y-47898713D02*
X136401229Y-47862999D01*
X136401229Y-47862999D02*
X136365515Y-47791570D01*
X136365515Y-47791570D02*
X136365515Y-47505856D01*
X136365515Y-47505856D02*
X136401229Y-47434427D01*
X136401229Y-47434427D02*
X136472658Y-47398713D01*
X136472658Y-47398713D02*
X136615515Y-47398713D01*
X136615515Y-47398713D02*
X136686943Y-47434427D01*
X136686943Y-47434427D02*
X136722658Y-47505856D01*
X136722658Y-47505856D02*
X136722658Y-47577284D01*
X136722658Y-47577284D02*
X136365515Y-47648713D01*
X137044086Y-47898713D02*
X137044086Y-47398713D01*
X137044086Y-47541570D02*
X137079800Y-47470141D01*
X137079800Y-47470141D02*
X137115515Y-47434427D01*
X137115515Y-47434427D02*
X137186943Y-47398713D01*
X137186943Y-47398713D02*
X137258372Y-47398713D01*
X138079801Y-47898713D02*
X138079801Y-47148713D01*
X138079801Y-47148713D02*
X138508372Y-47898713D01*
X138508372Y-47898713D02*
X138508372Y-47148713D01*
X139186944Y-47398713D02*
X139186944Y-47898713D01*
X138865515Y-47398713D02*
X138865515Y-47791570D01*
X138865515Y-47791570D02*
X138901229Y-47862999D01*
X138901229Y-47862999D02*
X138972658Y-47898713D01*
X138972658Y-47898713D02*
X139079801Y-47898713D01*
X139079801Y-47898713D02*
X139151229Y-47862999D01*
X139151229Y-47862999D02*
X139186944Y-47827284D01*
X139544086Y-47898713D02*
X139544086Y-47398713D01*
X139544086Y-47470141D02*
X139579800Y-47434427D01*
X139579800Y-47434427D02*
X139651229Y-47398713D01*
X139651229Y-47398713D02*
X139758372Y-47398713D01*
X139758372Y-47398713D02*
X139829800Y-47434427D01*
X139829800Y-47434427D02*
X139865515Y-47505856D01*
X139865515Y-47505856D02*
X139865515Y-47898713D01*
X139865515Y-47505856D02*
X139901229Y-47434427D01*
X139901229Y-47434427D02*
X139972657Y-47398713D01*
X139972657Y-47398713D02*
X140079800Y-47398713D01*
X140079800Y-47398713D02*
X140151229Y-47434427D01*
X140151229Y-47434427D02*
X140186943Y-47505856D01*
X140186943Y-47505856D02*
X140186943Y-47898713D01*
X140544086Y-47898713D02*
X140544086Y-47148713D01*
X140544086Y-47434427D02*
X140615515Y-47398713D01*
X140615515Y-47398713D02*
X140758372Y-47398713D01*
X140758372Y-47398713D02*
X140829800Y-47434427D01*
X140829800Y-47434427D02*
X140865515Y-47470141D01*
X140865515Y-47470141D02*
X140901229Y-47541570D01*
X140901229Y-47541570D02*
X140901229Y-47755856D01*
X140901229Y-47755856D02*
X140865515Y-47827284D01*
X140865515Y-47827284D02*
X140829800Y-47862999D01*
X140829800Y-47862999D02*
X140758372Y-47898713D01*
X140758372Y-47898713D02*
X140615515Y-47898713D01*
X140615515Y-47898713D02*
X140544086Y-47862999D01*
X141508371Y-47862999D02*
X141436943Y-47898713D01*
X141436943Y-47898713D02*
X141294086Y-47898713D01*
X141294086Y-47898713D02*
X141222657Y-47862999D01*
X141222657Y-47862999D02*
X141186943Y-47791570D01*
X141186943Y-47791570D02*
X141186943Y-47505856D01*
X141186943Y-47505856D02*
X141222657Y-47434427D01*
X141222657Y-47434427D02*
X141294086Y-47398713D01*
X141294086Y-47398713D02*
X141436943Y-47398713D01*
X141436943Y-47398713D02*
X141508371Y-47434427D01*
X141508371Y-47434427D02*
X141544086Y-47505856D01*
X141544086Y-47505856D02*
X141544086Y-47577284D01*
X141544086Y-47577284D02*
X141186943Y-47648713D01*
X141865514Y-47898713D02*
X141865514Y-47398713D01*
X141865514Y-47541570D02*
X141901228Y-47470141D01*
X141901228Y-47470141D02*
X141936943Y-47434427D01*
X141936943Y-47434427D02*
X142008371Y-47398713D01*
X142008371Y-47398713D02*
X142079800Y-47398713D01*
D13*
X127422848Y-68702458D02*
X128232371Y-68702458D01*
X128232371Y-68702458D02*
X128327609Y-68654839D01*
X128327609Y-68654839D02*
X128375229Y-68607220D01*
X128375229Y-68607220D02*
X128422848Y-68511982D01*
X128422848Y-68511982D02*
X128422848Y-68321506D01*
X128422848Y-68321506D02*
X128375229Y-68226268D01*
X128375229Y-68226268D02*
X128327609Y-68178649D01*
X128327609Y-68178649D02*
X128232371Y-68131030D01*
X128232371Y-68131030D02*
X127422848Y-68131030D01*
X127518086Y-67702458D02*
X127470467Y-67654839D01*
X127470467Y-67654839D02*
X127422848Y-67559601D01*
X127422848Y-67559601D02*
X127422848Y-67321506D01*
X127422848Y-67321506D02*
X127470467Y-67226268D01*
X127470467Y-67226268D02*
X127518086Y-67178649D01*
X127518086Y-67178649D02*
X127613324Y-67131030D01*
X127613324Y-67131030D02*
X127708562Y-67131030D01*
X127708562Y-67131030D02*
X127851419Y-67178649D01*
X127851419Y-67178649D02*
X128422848Y-67750077D01*
X128422848Y-67750077D02*
X128422848Y-67131030D01*
X88635714Y-78854819D02*
X88635714Y-77854819D01*
X88635714Y-77854819D02*
X88873809Y-77854819D01*
X88873809Y-77854819D02*
X89016666Y-77902438D01*
X89016666Y-77902438D02*
X89111904Y-77997676D01*
X89111904Y-77997676D02*
X89159523Y-78092914D01*
X89159523Y-78092914D02*
X89207142Y-78283390D01*
X89207142Y-78283390D02*
X89207142Y-78426247D01*
X89207142Y-78426247D02*
X89159523Y-78616723D01*
X89159523Y-78616723D02*
X89111904Y-78711961D01*
X89111904Y-78711961D02*
X89016666Y-78807200D01*
X89016666Y-78807200D02*
X88873809Y-78854819D01*
X88873809Y-78854819D02*
X88635714Y-78854819D01*
X89540476Y-77854819D02*
X90159523Y-77854819D01*
X90159523Y-77854819D02*
X89826190Y-78235771D01*
X89826190Y-78235771D02*
X89969047Y-78235771D01*
X89969047Y-78235771D02*
X90064285Y-78283390D01*
X90064285Y-78283390D02*
X90111904Y-78331009D01*
X90111904Y-78331009D02*
X90159523Y-78426247D01*
X90159523Y-78426247D02*
X90159523Y-78664342D01*
X90159523Y-78664342D02*
X90111904Y-78759580D01*
X90111904Y-78759580D02*
X90064285Y-78807200D01*
X90064285Y-78807200D02*
X89969047Y-78854819D01*
X89969047Y-78854819D02*
X89683333Y-78854819D01*
X89683333Y-78854819D02*
X89588095Y-78807200D01*
X89588095Y-78807200D02*
X89540476Y-78759580D01*
X90492857Y-77854819D02*
X91159523Y-77854819D01*
X91159523Y-77854819D02*
X90730952Y-78854819D01*
X140295714Y-72239104D02*
X140771904Y-72239104D01*
X140200476Y-72524819D02*
X140533809Y-71524819D01*
X140533809Y-71524819D02*
X140867142Y-72524819D01*
X141724285Y-72524819D02*
X141152857Y-72524819D01*
X141438571Y-72524819D02*
X141438571Y-71524819D01*
X141438571Y-71524819D02*
X141343333Y-71667676D01*
X141343333Y-71667676D02*
X141248095Y-71762914D01*
X141248095Y-71762914D02*
X141152857Y-71810533D01*
X241159523Y-94279819D02*
X240826190Y-93803628D01*
X240588095Y-94279819D02*
X240588095Y-93279819D01*
X240588095Y-93279819D02*
X240969047Y-93279819D01*
X240969047Y-93279819D02*
X241064285Y-93327438D01*
X241064285Y-93327438D02*
X241111904Y-93375057D01*
X241111904Y-93375057D02*
X241159523Y-93470295D01*
X241159523Y-93470295D02*
X241159523Y-93613152D01*
X241159523Y-93613152D02*
X241111904Y-93708390D01*
X241111904Y-93708390D02*
X241064285Y-93756009D01*
X241064285Y-93756009D02*
X240969047Y-93803628D01*
X240969047Y-93803628D02*
X240588095Y-93803628D01*
X241588095Y-94279819D02*
X241588095Y-93279819D01*
X241588095Y-93279819D02*
X242159523Y-94279819D01*
X242159523Y-94279819D02*
X242159523Y-93279819D01*
X242588095Y-93375057D02*
X242635714Y-93327438D01*
X242635714Y-93327438D02*
X242730952Y-93279819D01*
X242730952Y-93279819D02*
X242969047Y-93279819D01*
X242969047Y-93279819D02*
X243064285Y-93327438D01*
X243064285Y-93327438D02*
X243111904Y-93375057D01*
X243111904Y-93375057D02*
X243159523Y-93470295D01*
X243159523Y-93470295D02*
X243159523Y-93565533D01*
X243159523Y-93565533D02*
X243111904Y-93708390D01*
X243111904Y-93708390D02*
X242540476Y-94279819D01*
X242540476Y-94279819D02*
X243159523Y-94279819D01*
X232681905Y-94934819D02*
X232681905Y-93934819D01*
X232681905Y-93934819D02*
X232920000Y-93934819D01*
X232920000Y-93934819D02*
X233062857Y-93982438D01*
X233062857Y-93982438D02*
X233158095Y-94077676D01*
X233158095Y-94077676D02*
X233205714Y-94172914D01*
X233205714Y-94172914D02*
X233253333Y-94363390D01*
X233253333Y-94363390D02*
X233253333Y-94506247D01*
X233253333Y-94506247D02*
X233205714Y-94696723D01*
X233205714Y-94696723D02*
X233158095Y-94791961D01*
X233158095Y-94791961D02*
X233062857Y-94887200D01*
X233062857Y-94887200D02*
X232920000Y-94934819D01*
X232920000Y-94934819D02*
X232681905Y-94934819D01*
X233586667Y-93934819D02*
X234253333Y-93934819D01*
X234253333Y-93934819D02*
X233824762Y-94934819D01*
X134379819Y-68511904D02*
X135189342Y-68511904D01*
X135189342Y-68511904D02*
X135284580Y-68464285D01*
X135284580Y-68464285D02*
X135332200Y-68416666D01*
X135332200Y-68416666D02*
X135379819Y-68321428D01*
X135379819Y-68321428D02*
X135379819Y-68130952D01*
X135379819Y-68130952D02*
X135332200Y-68035714D01*
X135332200Y-68035714D02*
X135284580Y-67988095D01*
X135284580Y-67988095D02*
X135189342Y-67940476D01*
X135189342Y-67940476D02*
X134379819Y-67940476D01*
X134379819Y-67559523D02*
X134379819Y-66940476D01*
X134379819Y-66940476D02*
X134760771Y-67273809D01*
X134760771Y-67273809D02*
X134760771Y-67130952D01*
X134760771Y-67130952D02*
X134808390Y-67035714D01*
X134808390Y-67035714D02*
X134856009Y-66988095D01*
X134856009Y-66988095D02*
X134951247Y-66940476D01*
X134951247Y-66940476D02*
X135189342Y-66940476D01*
X135189342Y-66940476D02*
X135284580Y-66988095D01*
X135284580Y-66988095D02*
X135332200Y-67035714D01*
X135332200Y-67035714D02*
X135379819Y-67130952D01*
X135379819Y-67130952D02*
X135379819Y-67416666D01*
X135379819Y-67416666D02*
X135332200Y-67511904D01*
X135332200Y-67511904D02*
X135284580Y-67559523D01*
X232681905Y-88854819D02*
X232681905Y-87854819D01*
X232681905Y-87854819D02*
X232920000Y-87854819D01*
X232920000Y-87854819D02*
X233062857Y-87902438D01*
X233062857Y-87902438D02*
X233158095Y-87997676D01*
X233158095Y-87997676D02*
X233205714Y-88092914D01*
X233205714Y-88092914D02*
X233253333Y-88283390D01*
X233253333Y-88283390D02*
X233253333Y-88426247D01*
X233253333Y-88426247D02*
X233205714Y-88616723D01*
X233205714Y-88616723D02*
X233158095Y-88711961D01*
X233158095Y-88711961D02*
X233062857Y-88807200D01*
X233062857Y-88807200D02*
X232920000Y-88854819D01*
X232920000Y-88854819D02*
X232681905Y-88854819D01*
X234110476Y-88188152D02*
X234110476Y-88854819D01*
X233872381Y-87807200D02*
X233634286Y-88521485D01*
X233634286Y-88521485D02*
X234253333Y-88521485D01*
X232681905Y-97974819D02*
X232681905Y-96974819D01*
X232681905Y-96974819D02*
X232920000Y-96974819D01*
X232920000Y-96974819D02*
X233062857Y-97022438D01*
X233062857Y-97022438D02*
X233158095Y-97117676D01*
X233158095Y-97117676D02*
X233205714Y-97212914D01*
X233205714Y-97212914D02*
X233253333Y-97403390D01*
X233253333Y-97403390D02*
X233253333Y-97546247D01*
X233253333Y-97546247D02*
X233205714Y-97736723D01*
X233205714Y-97736723D02*
X233158095Y-97831961D01*
X233158095Y-97831961D02*
X233062857Y-97927200D01*
X233062857Y-97927200D02*
X232920000Y-97974819D01*
X232920000Y-97974819D02*
X232681905Y-97974819D01*
X233729524Y-97974819D02*
X233920000Y-97974819D01*
X233920000Y-97974819D02*
X234015238Y-97927200D01*
X234015238Y-97927200D02*
X234062857Y-97879580D01*
X234062857Y-97879580D02*
X234158095Y-97736723D01*
X234158095Y-97736723D02*
X234205714Y-97546247D01*
X234205714Y-97546247D02*
X234205714Y-97165295D01*
X234205714Y-97165295D02*
X234158095Y-97070057D01*
X234158095Y-97070057D02*
X234110476Y-97022438D01*
X234110476Y-97022438D02*
X234015238Y-96974819D01*
X234015238Y-96974819D02*
X233824762Y-96974819D01*
X233824762Y-96974819D02*
X233729524Y-97022438D01*
X233729524Y-97022438D02*
X233681905Y-97070057D01*
X233681905Y-97070057D02*
X233634286Y-97165295D01*
X233634286Y-97165295D02*
X233634286Y-97403390D01*
X233634286Y-97403390D02*
X233681905Y-97498628D01*
X233681905Y-97498628D02*
X233729524Y-97546247D01*
X233729524Y-97546247D02*
X233824762Y-97593866D01*
X233824762Y-97593866D02*
X234015238Y-97593866D01*
X234015238Y-97593866D02*
X234110476Y-97546247D01*
X234110476Y-97546247D02*
X234158095Y-97498628D01*
X234158095Y-97498628D02*
X234205714Y-97403390D01*
X232681905Y-82774819D02*
X232681905Y-81774819D01*
X232681905Y-81774819D02*
X232920000Y-81774819D01*
X232920000Y-81774819D02*
X233062857Y-81822438D01*
X233062857Y-81822438D02*
X233158095Y-81917676D01*
X233158095Y-81917676D02*
X233205714Y-82012914D01*
X233205714Y-82012914D02*
X233253333Y-82203390D01*
X233253333Y-82203390D02*
X233253333Y-82346247D01*
X233253333Y-82346247D02*
X233205714Y-82536723D01*
X233205714Y-82536723D02*
X233158095Y-82631961D01*
X233158095Y-82631961D02*
X233062857Y-82727200D01*
X233062857Y-82727200D02*
X232920000Y-82774819D01*
X232920000Y-82774819D02*
X232681905Y-82774819D01*
X234205714Y-82774819D02*
X233634286Y-82774819D01*
X233920000Y-82774819D02*
X233920000Y-81774819D01*
X233920000Y-81774819D02*
X233824762Y-81917676D01*
X233824762Y-81917676D02*
X233729524Y-82012914D01*
X233729524Y-82012914D02*
X233634286Y-82060533D01*
X236980714Y-91379819D02*
X236980714Y-90379819D01*
X236980714Y-90379819D02*
X237218809Y-90379819D01*
X237218809Y-90379819D02*
X237361666Y-90427438D01*
X237361666Y-90427438D02*
X237456904Y-90522676D01*
X237456904Y-90522676D02*
X237504523Y-90617914D01*
X237504523Y-90617914D02*
X237552142Y-90808390D01*
X237552142Y-90808390D02*
X237552142Y-90951247D01*
X237552142Y-90951247D02*
X237504523Y-91141723D01*
X237504523Y-91141723D02*
X237456904Y-91236961D01*
X237456904Y-91236961D02*
X237361666Y-91332200D01*
X237361666Y-91332200D02*
X237218809Y-91379819D01*
X237218809Y-91379819D02*
X236980714Y-91379819D01*
X238504523Y-91379819D02*
X237933095Y-91379819D01*
X238218809Y-91379819D02*
X238218809Y-90379819D01*
X238218809Y-90379819D02*
X238123571Y-90522676D01*
X238123571Y-90522676D02*
X238028333Y-90617914D01*
X238028333Y-90617914D02*
X237933095Y-90665533D01*
X239456904Y-91379819D02*
X238885476Y-91379819D01*
X239171190Y-91379819D02*
X239171190Y-90379819D01*
X239171190Y-90379819D02*
X239075952Y-90522676D01*
X239075952Y-90522676D02*
X238980714Y-90617914D01*
X238980714Y-90617914D02*
X238885476Y-90665533D01*
X81626905Y-84754819D02*
X81626905Y-85564342D01*
X81626905Y-85564342D02*
X81674524Y-85659580D01*
X81674524Y-85659580D02*
X81722143Y-85707200D01*
X81722143Y-85707200D02*
X81817381Y-85754819D01*
X81817381Y-85754819D02*
X82007857Y-85754819D01*
X82007857Y-85754819D02*
X82103095Y-85707200D01*
X82103095Y-85707200D02*
X82150714Y-85659580D01*
X82150714Y-85659580D02*
X82198333Y-85564342D01*
X82198333Y-85564342D02*
X82198333Y-84754819D01*
X83198333Y-85754819D02*
X82626905Y-85754819D01*
X82912619Y-85754819D02*
X82912619Y-84754819D01*
X82912619Y-84754819D02*
X82817381Y-84897676D01*
X82817381Y-84897676D02*
X82722143Y-84992914D01*
X82722143Y-84992914D02*
X82626905Y-85040533D01*
X83674524Y-85754819D02*
X83865000Y-85754819D01*
X83865000Y-85754819D02*
X83960238Y-85707200D01*
X83960238Y-85707200D02*
X84007857Y-85659580D01*
X84007857Y-85659580D02*
X84103095Y-85516723D01*
X84103095Y-85516723D02*
X84150714Y-85326247D01*
X84150714Y-85326247D02*
X84150714Y-84945295D01*
X84150714Y-84945295D02*
X84103095Y-84850057D01*
X84103095Y-84850057D02*
X84055476Y-84802438D01*
X84055476Y-84802438D02*
X83960238Y-84754819D01*
X83960238Y-84754819D02*
X83769762Y-84754819D01*
X83769762Y-84754819D02*
X83674524Y-84802438D01*
X83674524Y-84802438D02*
X83626905Y-84850057D01*
X83626905Y-84850057D02*
X83579286Y-84945295D01*
X83579286Y-84945295D02*
X83579286Y-85183390D01*
X83579286Y-85183390D02*
X83626905Y-85278628D01*
X83626905Y-85278628D02*
X83674524Y-85326247D01*
X83674524Y-85326247D02*
X83769762Y-85373866D01*
X83769762Y-85373866D02*
X83960238Y-85373866D01*
X83960238Y-85373866D02*
X84055476Y-85326247D01*
X84055476Y-85326247D02*
X84103095Y-85278628D01*
X84103095Y-85278628D02*
X84150714Y-85183390D01*
X232681905Y-85814819D02*
X232681905Y-84814819D01*
X232681905Y-84814819D02*
X232920000Y-84814819D01*
X232920000Y-84814819D02*
X233062857Y-84862438D01*
X233062857Y-84862438D02*
X233158095Y-84957676D01*
X233158095Y-84957676D02*
X233205714Y-85052914D01*
X233205714Y-85052914D02*
X233253333Y-85243390D01*
X233253333Y-85243390D02*
X233253333Y-85386247D01*
X233253333Y-85386247D02*
X233205714Y-85576723D01*
X233205714Y-85576723D02*
X233158095Y-85671961D01*
X233158095Y-85671961D02*
X233062857Y-85767200D01*
X233062857Y-85767200D02*
X232920000Y-85814819D01*
X232920000Y-85814819D02*
X232681905Y-85814819D01*
X233634286Y-84910057D02*
X233681905Y-84862438D01*
X233681905Y-84862438D02*
X233777143Y-84814819D01*
X233777143Y-84814819D02*
X234015238Y-84814819D01*
X234015238Y-84814819D02*
X234110476Y-84862438D01*
X234110476Y-84862438D02*
X234158095Y-84910057D01*
X234158095Y-84910057D02*
X234205714Y-85005295D01*
X234205714Y-85005295D02*
X234205714Y-85100533D01*
X234205714Y-85100533D02*
X234158095Y-85243390D01*
X234158095Y-85243390D02*
X233586667Y-85814819D01*
X233586667Y-85814819D02*
X234205714Y-85814819D01*
X121454819Y-132833333D02*
X122169104Y-132833333D01*
X122169104Y-132833333D02*
X122311961Y-132880952D01*
X122311961Y-132880952D02*
X122407200Y-132976190D01*
X122407200Y-132976190D02*
X122454819Y-133119047D01*
X122454819Y-133119047D02*
X122454819Y-133214285D01*
X122454819Y-132309523D02*
X122454819Y-132119047D01*
X122454819Y-132119047D02*
X122407200Y-132023809D01*
X122407200Y-132023809D02*
X122359580Y-131976190D01*
X122359580Y-131976190D02*
X122216723Y-131880952D01*
X122216723Y-131880952D02*
X122026247Y-131833333D01*
X122026247Y-131833333D02*
X121645295Y-131833333D01*
X121645295Y-131833333D02*
X121550057Y-131880952D01*
X121550057Y-131880952D02*
X121502438Y-131928571D01*
X121502438Y-131928571D02*
X121454819Y-132023809D01*
X121454819Y-132023809D02*
X121454819Y-132214285D01*
X121454819Y-132214285D02*
X121502438Y-132309523D01*
X121502438Y-132309523D02*
X121550057Y-132357142D01*
X121550057Y-132357142D02*
X121645295Y-132404761D01*
X121645295Y-132404761D02*
X121883390Y-132404761D01*
X121883390Y-132404761D02*
X121978628Y-132357142D01*
X121978628Y-132357142D02*
X122026247Y-132309523D01*
X122026247Y-132309523D02*
X122073866Y-132214285D01*
X122073866Y-132214285D02*
X122073866Y-132023809D01*
X122073866Y-132023809D02*
X122026247Y-131928571D01*
X122026247Y-131928571D02*
X121978628Y-131880952D01*
X121978628Y-131880952D02*
X121883390Y-131833333D01*
X237456905Y-88429819D02*
X237456905Y-87429819D01*
X237456905Y-87429819D02*
X237695000Y-87429819D01*
X237695000Y-87429819D02*
X237837857Y-87477438D01*
X237837857Y-87477438D02*
X237933095Y-87572676D01*
X237933095Y-87572676D02*
X237980714Y-87667914D01*
X237980714Y-87667914D02*
X238028333Y-87858390D01*
X238028333Y-87858390D02*
X238028333Y-88001247D01*
X238028333Y-88001247D02*
X237980714Y-88191723D01*
X237980714Y-88191723D02*
X237933095Y-88286961D01*
X237933095Y-88286961D02*
X237837857Y-88382200D01*
X237837857Y-88382200D02*
X237695000Y-88429819D01*
X237695000Y-88429819D02*
X237456905Y-88429819D01*
X238599762Y-87858390D02*
X238504524Y-87810771D01*
X238504524Y-87810771D02*
X238456905Y-87763152D01*
X238456905Y-87763152D02*
X238409286Y-87667914D01*
X238409286Y-87667914D02*
X238409286Y-87620295D01*
X238409286Y-87620295D02*
X238456905Y-87525057D01*
X238456905Y-87525057D02*
X238504524Y-87477438D01*
X238504524Y-87477438D02*
X238599762Y-87429819D01*
X238599762Y-87429819D02*
X238790238Y-87429819D01*
X238790238Y-87429819D02*
X238885476Y-87477438D01*
X238885476Y-87477438D02*
X238933095Y-87525057D01*
X238933095Y-87525057D02*
X238980714Y-87620295D01*
X238980714Y-87620295D02*
X238980714Y-87667914D01*
X238980714Y-87667914D02*
X238933095Y-87763152D01*
X238933095Y-87763152D02*
X238885476Y-87810771D01*
X238885476Y-87810771D02*
X238790238Y-87858390D01*
X238790238Y-87858390D02*
X238599762Y-87858390D01*
X238599762Y-87858390D02*
X238504524Y-87906009D01*
X238504524Y-87906009D02*
X238456905Y-87953628D01*
X238456905Y-87953628D02*
X238409286Y-88048866D01*
X238409286Y-88048866D02*
X238409286Y-88239342D01*
X238409286Y-88239342D02*
X238456905Y-88334580D01*
X238456905Y-88334580D02*
X238504524Y-88382200D01*
X238504524Y-88382200D02*
X238599762Y-88429819D01*
X238599762Y-88429819D02*
X238790238Y-88429819D01*
X238790238Y-88429819D02*
X238885476Y-88382200D01*
X238885476Y-88382200D02*
X238933095Y-88334580D01*
X238933095Y-88334580D02*
X238980714Y-88239342D01*
X238980714Y-88239342D02*
X238980714Y-88048866D01*
X238980714Y-88048866D02*
X238933095Y-87953628D01*
X238933095Y-87953628D02*
X238885476Y-87906009D01*
X238885476Y-87906009D02*
X238790238Y-87858390D01*
X237456905Y-82529819D02*
X237456905Y-81529819D01*
X237456905Y-81529819D02*
X237695000Y-81529819D01*
X237695000Y-81529819D02*
X237837857Y-81577438D01*
X237837857Y-81577438D02*
X237933095Y-81672676D01*
X237933095Y-81672676D02*
X237980714Y-81767914D01*
X237980714Y-81767914D02*
X238028333Y-81958390D01*
X238028333Y-81958390D02*
X238028333Y-82101247D01*
X238028333Y-82101247D02*
X237980714Y-82291723D01*
X237980714Y-82291723D02*
X237933095Y-82386961D01*
X237933095Y-82386961D02*
X237837857Y-82482200D01*
X237837857Y-82482200D02*
X237695000Y-82529819D01*
X237695000Y-82529819D02*
X237456905Y-82529819D01*
X238361667Y-81529819D02*
X238980714Y-81529819D01*
X238980714Y-81529819D02*
X238647381Y-81910771D01*
X238647381Y-81910771D02*
X238790238Y-81910771D01*
X238790238Y-81910771D02*
X238885476Y-81958390D01*
X238885476Y-81958390D02*
X238933095Y-82006009D01*
X238933095Y-82006009D02*
X238980714Y-82101247D01*
X238980714Y-82101247D02*
X238980714Y-82339342D01*
X238980714Y-82339342D02*
X238933095Y-82434580D01*
X238933095Y-82434580D02*
X238885476Y-82482200D01*
X238885476Y-82482200D02*
X238790238Y-82529819D01*
X238790238Y-82529819D02*
X238504524Y-82529819D01*
X238504524Y-82529819D02*
X238409286Y-82482200D01*
X238409286Y-82482200D02*
X238361667Y-82434580D01*
X95154819Y-89778094D02*
X95964342Y-89778094D01*
X95964342Y-89778094D02*
X96059580Y-89730475D01*
X96059580Y-89730475D02*
X96107200Y-89682856D01*
X96107200Y-89682856D02*
X96154819Y-89587618D01*
X96154819Y-89587618D02*
X96154819Y-89397142D01*
X96154819Y-89397142D02*
X96107200Y-89301904D01*
X96107200Y-89301904D02*
X96059580Y-89254285D01*
X96059580Y-89254285D02*
X95964342Y-89206666D01*
X95964342Y-89206666D02*
X95154819Y-89206666D01*
X96154819Y-88206666D02*
X96154819Y-88778094D01*
X96154819Y-88492380D02*
X95154819Y-88492380D01*
X95154819Y-88492380D02*
X95297676Y-88587618D01*
X95297676Y-88587618D02*
X95392914Y-88682856D01*
X95392914Y-88682856D02*
X95440533Y-88778094D01*
X96154819Y-87254285D02*
X96154819Y-87825713D01*
X96154819Y-87539999D02*
X95154819Y-87539999D01*
X95154819Y-87539999D02*
X95297676Y-87635237D01*
X95297676Y-87635237D02*
X95392914Y-87730475D01*
X95392914Y-87730475D02*
X95440533Y-87825713D01*
X83082142Y-85934580D02*
X83034523Y-85982200D01*
X83034523Y-85982200D02*
X82891666Y-86029819D01*
X82891666Y-86029819D02*
X82796428Y-86029819D01*
X82796428Y-86029819D02*
X82653571Y-85982200D01*
X82653571Y-85982200D02*
X82558333Y-85886961D01*
X82558333Y-85886961D02*
X82510714Y-85791723D01*
X82510714Y-85791723D02*
X82463095Y-85601247D01*
X82463095Y-85601247D02*
X82463095Y-85458390D01*
X82463095Y-85458390D02*
X82510714Y-85267914D01*
X82510714Y-85267914D02*
X82558333Y-85172676D01*
X82558333Y-85172676D02*
X82653571Y-85077438D01*
X82653571Y-85077438D02*
X82796428Y-85029819D01*
X82796428Y-85029819D02*
X82891666Y-85029819D01*
X82891666Y-85029819D02*
X83034523Y-85077438D01*
X83034523Y-85077438D02*
X83082142Y-85125057D01*
X83939285Y-85029819D02*
X83748809Y-85029819D01*
X83748809Y-85029819D02*
X83653571Y-85077438D01*
X83653571Y-85077438D02*
X83605952Y-85125057D01*
X83605952Y-85125057D02*
X83510714Y-85267914D01*
X83510714Y-85267914D02*
X83463095Y-85458390D01*
X83463095Y-85458390D02*
X83463095Y-85839342D01*
X83463095Y-85839342D02*
X83510714Y-85934580D01*
X83510714Y-85934580D02*
X83558333Y-85982200D01*
X83558333Y-85982200D02*
X83653571Y-86029819D01*
X83653571Y-86029819D02*
X83844047Y-86029819D01*
X83844047Y-86029819D02*
X83939285Y-85982200D01*
X83939285Y-85982200D02*
X83986904Y-85934580D01*
X83986904Y-85934580D02*
X84034523Y-85839342D01*
X84034523Y-85839342D02*
X84034523Y-85601247D01*
X84034523Y-85601247D02*
X83986904Y-85506009D01*
X83986904Y-85506009D02*
X83939285Y-85458390D01*
X83939285Y-85458390D02*
X83844047Y-85410771D01*
X83844047Y-85410771D02*
X83653571Y-85410771D01*
X83653571Y-85410771D02*
X83558333Y-85458390D01*
X83558333Y-85458390D02*
X83510714Y-85506009D01*
X83510714Y-85506009D02*
X83463095Y-85601247D01*
X84510714Y-86029819D02*
X84701190Y-86029819D01*
X84701190Y-86029819D02*
X84796428Y-85982200D01*
X84796428Y-85982200D02*
X84844047Y-85934580D01*
X84844047Y-85934580D02*
X84939285Y-85791723D01*
X84939285Y-85791723D02*
X84986904Y-85601247D01*
X84986904Y-85601247D02*
X84986904Y-85220295D01*
X84986904Y-85220295D02*
X84939285Y-85125057D01*
X84939285Y-85125057D02*
X84891666Y-85077438D01*
X84891666Y-85077438D02*
X84796428Y-85029819D01*
X84796428Y-85029819D02*
X84605952Y-85029819D01*
X84605952Y-85029819D02*
X84510714Y-85077438D01*
X84510714Y-85077438D02*
X84463095Y-85125057D01*
X84463095Y-85125057D02*
X84415476Y-85220295D01*
X84415476Y-85220295D02*
X84415476Y-85458390D01*
X84415476Y-85458390D02*
X84463095Y-85553628D01*
X84463095Y-85553628D02*
X84510714Y-85601247D01*
X84510714Y-85601247D02*
X84605952Y-85648866D01*
X84605952Y-85648866D02*
X84796428Y-85648866D01*
X84796428Y-85648866D02*
X84891666Y-85601247D01*
X84891666Y-85601247D02*
X84939285Y-85553628D01*
X84939285Y-85553628D02*
X84986904Y-85458390D01*
X113348932Y-134675532D02*
X113348932Y-135389817D01*
X113348932Y-135389817D02*
X113301313Y-135532674D01*
X113301313Y-135532674D02*
X113206075Y-135627913D01*
X113206075Y-135627913D02*
X113063218Y-135675532D01*
X113063218Y-135675532D02*
X112967980Y-135675532D01*
X113967980Y-135104103D02*
X113872742Y-135056484D01*
X113872742Y-135056484D02*
X113825123Y-135008865D01*
X113825123Y-135008865D02*
X113777504Y-134913627D01*
X113777504Y-134913627D02*
X113777504Y-134866008D01*
X113777504Y-134866008D02*
X113825123Y-134770770D01*
X113825123Y-134770770D02*
X113872742Y-134723151D01*
X113872742Y-134723151D02*
X113967980Y-134675532D01*
X113967980Y-134675532D02*
X114158456Y-134675532D01*
X114158456Y-134675532D02*
X114253694Y-134723151D01*
X114253694Y-134723151D02*
X114301313Y-134770770D01*
X114301313Y-134770770D02*
X114348932Y-134866008D01*
X114348932Y-134866008D02*
X114348932Y-134913627D01*
X114348932Y-134913627D02*
X114301313Y-135008865D01*
X114301313Y-135008865D02*
X114253694Y-135056484D01*
X114253694Y-135056484D02*
X114158456Y-135104103D01*
X114158456Y-135104103D02*
X113967980Y-135104103D01*
X113967980Y-135104103D02*
X113872742Y-135151722D01*
X113872742Y-135151722D02*
X113825123Y-135199341D01*
X113825123Y-135199341D02*
X113777504Y-135294579D01*
X113777504Y-135294579D02*
X113777504Y-135485055D01*
X113777504Y-135485055D02*
X113825123Y-135580293D01*
X113825123Y-135580293D02*
X113872742Y-135627913D01*
X113872742Y-135627913D02*
X113967980Y-135675532D01*
X113967980Y-135675532D02*
X114158456Y-135675532D01*
X114158456Y-135675532D02*
X114253694Y-135627913D01*
X114253694Y-135627913D02*
X114301313Y-135580293D01*
X114301313Y-135580293D02*
X114348932Y-135485055D01*
X114348932Y-135485055D02*
X114348932Y-135294579D01*
X114348932Y-135294579D02*
X114301313Y-135199341D01*
X114301313Y-135199341D02*
X114253694Y-135151722D01*
X114253694Y-135151722D02*
X114158456Y-135104103D01*
X147323214Y-123604819D02*
X147323214Y-122604819D01*
X147323214Y-122604819D02*
X147561309Y-122604819D01*
X147561309Y-122604819D02*
X147704166Y-122652438D01*
X147704166Y-122652438D02*
X147799404Y-122747676D01*
X147799404Y-122747676D02*
X147847023Y-122842914D01*
X147847023Y-122842914D02*
X147894642Y-123033390D01*
X147894642Y-123033390D02*
X147894642Y-123176247D01*
X147894642Y-123176247D02*
X147847023Y-123366723D01*
X147847023Y-123366723D02*
X147799404Y-123461961D01*
X147799404Y-123461961D02*
X147704166Y-123557200D01*
X147704166Y-123557200D02*
X147561309Y-123604819D01*
X147561309Y-123604819D02*
X147323214Y-123604819D01*
X148275595Y-122700057D02*
X148323214Y-122652438D01*
X148323214Y-122652438D02*
X148418452Y-122604819D01*
X148418452Y-122604819D02*
X148656547Y-122604819D01*
X148656547Y-122604819D02*
X148751785Y-122652438D01*
X148751785Y-122652438D02*
X148799404Y-122700057D01*
X148799404Y-122700057D02*
X148847023Y-122795295D01*
X148847023Y-122795295D02*
X148847023Y-122890533D01*
X148847023Y-122890533D02*
X148799404Y-123033390D01*
X148799404Y-123033390D02*
X148227976Y-123604819D01*
X148227976Y-123604819D02*
X148847023Y-123604819D01*
X149227976Y-122700057D02*
X149275595Y-122652438D01*
X149275595Y-122652438D02*
X149370833Y-122604819D01*
X149370833Y-122604819D02*
X149608928Y-122604819D01*
X149608928Y-122604819D02*
X149704166Y-122652438D01*
X149704166Y-122652438D02*
X149751785Y-122700057D01*
X149751785Y-122700057D02*
X149799404Y-122795295D01*
X149799404Y-122795295D02*
X149799404Y-122890533D01*
X149799404Y-122890533D02*
X149751785Y-123033390D01*
X149751785Y-123033390D02*
X149180357Y-123604819D01*
X149180357Y-123604819D02*
X149799404Y-123604819D01*
X232205714Y-104054819D02*
X232205714Y-103054819D01*
X232205714Y-103054819D02*
X232443809Y-103054819D01*
X232443809Y-103054819D02*
X232586666Y-103102438D01*
X232586666Y-103102438D02*
X232681904Y-103197676D01*
X232681904Y-103197676D02*
X232729523Y-103292914D01*
X232729523Y-103292914D02*
X232777142Y-103483390D01*
X232777142Y-103483390D02*
X232777142Y-103626247D01*
X232777142Y-103626247D02*
X232729523Y-103816723D01*
X232729523Y-103816723D02*
X232681904Y-103911961D01*
X232681904Y-103911961D02*
X232586666Y-104007200D01*
X232586666Y-104007200D02*
X232443809Y-104054819D01*
X232443809Y-104054819D02*
X232205714Y-104054819D01*
X233729523Y-104054819D02*
X233158095Y-104054819D01*
X233443809Y-104054819D02*
X233443809Y-103054819D01*
X233443809Y-103054819D02*
X233348571Y-103197676D01*
X233348571Y-103197676D02*
X233253333Y-103292914D01*
X233253333Y-103292914D02*
X233158095Y-103340533D01*
X234110476Y-103150057D02*
X234158095Y-103102438D01*
X234158095Y-103102438D02*
X234253333Y-103054819D01*
X234253333Y-103054819D02*
X234491428Y-103054819D01*
X234491428Y-103054819D02*
X234586666Y-103102438D01*
X234586666Y-103102438D02*
X234634285Y-103150057D01*
X234634285Y-103150057D02*
X234681904Y-103245295D01*
X234681904Y-103245295D02*
X234681904Y-103340533D01*
X234681904Y-103340533D02*
X234634285Y-103483390D01*
X234634285Y-103483390D02*
X234062857Y-104054819D01*
X234062857Y-104054819D02*
X234681904Y-104054819D01*
X180964285Y-24131009D02*
X181107142Y-24178628D01*
X181107142Y-24178628D02*
X181154761Y-24226247D01*
X181154761Y-24226247D02*
X181202380Y-24321485D01*
X181202380Y-24321485D02*
X181202380Y-24464342D01*
X181202380Y-24464342D02*
X181154761Y-24559580D01*
X181154761Y-24559580D02*
X181107142Y-24607200D01*
X181107142Y-24607200D02*
X181011904Y-24654819D01*
X181011904Y-24654819D02*
X180630952Y-24654819D01*
X180630952Y-24654819D02*
X180630952Y-23654819D01*
X180630952Y-23654819D02*
X180964285Y-23654819D01*
X180964285Y-23654819D02*
X181059523Y-23702438D01*
X181059523Y-23702438D02*
X181107142Y-23750057D01*
X181107142Y-23750057D02*
X181154761Y-23845295D01*
X181154761Y-23845295D02*
X181154761Y-23940533D01*
X181154761Y-23940533D02*
X181107142Y-24035771D01*
X181107142Y-24035771D02*
X181059523Y-24083390D01*
X181059523Y-24083390D02*
X180964285Y-24131009D01*
X180964285Y-24131009D02*
X180630952Y-24131009D01*
X181488095Y-23654819D02*
X182059523Y-23654819D01*
X181773809Y-24654819D02*
X181773809Y-23654819D01*
X182916666Y-24654819D02*
X182345238Y-24654819D01*
X182630952Y-24654819D02*
X182630952Y-23654819D01*
X182630952Y-23654819D02*
X182535714Y-23797676D01*
X182535714Y-23797676D02*
X182440476Y-23892914D01*
X182440476Y-23892914D02*
X182345238Y-23940533D01*
X237456905Y-85479819D02*
X237456905Y-84479819D01*
X237456905Y-84479819D02*
X237695000Y-84479819D01*
X237695000Y-84479819D02*
X237837857Y-84527438D01*
X237837857Y-84527438D02*
X237933095Y-84622676D01*
X237933095Y-84622676D02*
X237980714Y-84717914D01*
X237980714Y-84717914D02*
X238028333Y-84908390D01*
X238028333Y-84908390D02*
X238028333Y-85051247D01*
X238028333Y-85051247D02*
X237980714Y-85241723D01*
X237980714Y-85241723D02*
X237933095Y-85336961D01*
X237933095Y-85336961D02*
X237837857Y-85432200D01*
X237837857Y-85432200D02*
X237695000Y-85479819D01*
X237695000Y-85479819D02*
X237456905Y-85479819D01*
X238885476Y-84479819D02*
X238695000Y-84479819D01*
X238695000Y-84479819D02*
X238599762Y-84527438D01*
X238599762Y-84527438D02*
X238552143Y-84575057D01*
X238552143Y-84575057D02*
X238456905Y-84717914D01*
X238456905Y-84717914D02*
X238409286Y-84908390D01*
X238409286Y-84908390D02*
X238409286Y-85289342D01*
X238409286Y-85289342D02*
X238456905Y-85384580D01*
X238456905Y-85384580D02*
X238504524Y-85432200D01*
X238504524Y-85432200D02*
X238599762Y-85479819D01*
X238599762Y-85479819D02*
X238790238Y-85479819D01*
X238790238Y-85479819D02*
X238885476Y-85432200D01*
X238885476Y-85432200D02*
X238933095Y-85384580D01*
X238933095Y-85384580D02*
X238980714Y-85289342D01*
X238980714Y-85289342D02*
X238980714Y-85051247D01*
X238980714Y-85051247D02*
X238933095Y-84956009D01*
X238933095Y-84956009D02*
X238885476Y-84908390D01*
X238885476Y-84908390D02*
X238790238Y-84860771D01*
X238790238Y-84860771D02*
X238599762Y-84860771D01*
X238599762Y-84860771D02*
X238504524Y-84908390D01*
X238504524Y-84908390D02*
X238456905Y-84956009D01*
X238456905Y-84956009D02*
X238409286Y-85051247D01*
D14*
X110761904Y-82417580D02*
X110761904Y-81608057D01*
X110761904Y-81608057D02*
X110714285Y-81512819D01*
X110714285Y-81512819D02*
X110666666Y-81465200D01*
X110666666Y-81465200D02*
X110571428Y-81417580D01*
X110571428Y-81417580D02*
X110380952Y-81417580D01*
X110380952Y-81417580D02*
X110285714Y-81465200D01*
X110285714Y-81465200D02*
X110238095Y-81512819D01*
X110238095Y-81512819D02*
X110190476Y-81608057D01*
X110190476Y-81608057D02*
X110190476Y-82417580D01*
X109285714Y-82084247D02*
X109285714Y-81417580D01*
X109523809Y-82465200D02*
X109761904Y-81750914D01*
X109761904Y-81750914D02*
X109142857Y-81750914D01*
D13*
X87004819Y-73689285D02*
X86004819Y-73689285D01*
X86004819Y-73689285D02*
X86004819Y-73451190D01*
X86004819Y-73451190D02*
X86052438Y-73308333D01*
X86052438Y-73308333D02*
X86147676Y-73213095D01*
X86147676Y-73213095D02*
X86242914Y-73165476D01*
X86242914Y-73165476D02*
X86433390Y-73117857D01*
X86433390Y-73117857D02*
X86576247Y-73117857D01*
X86576247Y-73117857D02*
X86766723Y-73165476D01*
X86766723Y-73165476D02*
X86861961Y-73213095D01*
X86861961Y-73213095D02*
X86957200Y-73308333D01*
X86957200Y-73308333D02*
X87004819Y-73451190D01*
X87004819Y-73451190D02*
X87004819Y-73689285D01*
X87004819Y-72165476D02*
X87004819Y-72736904D01*
X87004819Y-72451190D02*
X86004819Y-72451190D01*
X86004819Y-72451190D02*
X86147676Y-72546428D01*
X86147676Y-72546428D02*
X86242914Y-72641666D01*
X86242914Y-72641666D02*
X86290533Y-72736904D01*
X86004819Y-71832142D02*
X86004819Y-71165476D01*
X86004819Y-71165476D02*
X87004819Y-71594047D01*
X124204819Y-78211904D02*
X125014342Y-78211904D01*
X125014342Y-78211904D02*
X125109580Y-78164285D01*
X125109580Y-78164285D02*
X125157200Y-78116666D01*
X125157200Y-78116666D02*
X125204819Y-78021428D01*
X125204819Y-78021428D02*
X125204819Y-77830952D01*
X125204819Y-77830952D02*
X125157200Y-77735714D01*
X125157200Y-77735714D02*
X125109580Y-77688095D01*
X125109580Y-77688095D02*
X125014342Y-77640476D01*
X125014342Y-77640476D02*
X124204819Y-77640476D01*
X124204819Y-76735714D02*
X124204819Y-76926190D01*
X124204819Y-76926190D02*
X124252438Y-77021428D01*
X124252438Y-77021428D02*
X124300057Y-77069047D01*
X124300057Y-77069047D02*
X124442914Y-77164285D01*
X124442914Y-77164285D02*
X124633390Y-77211904D01*
X124633390Y-77211904D02*
X125014342Y-77211904D01*
X125014342Y-77211904D02*
X125109580Y-77164285D01*
X125109580Y-77164285D02*
X125157200Y-77116666D01*
X125157200Y-77116666D02*
X125204819Y-77021428D01*
X125204819Y-77021428D02*
X125204819Y-76830952D01*
X125204819Y-76830952D02*
X125157200Y-76735714D01*
X125157200Y-76735714D02*
X125109580Y-76688095D01*
X125109580Y-76688095D02*
X125014342Y-76640476D01*
X125014342Y-76640476D02*
X124776247Y-76640476D01*
X124776247Y-76640476D02*
X124681009Y-76688095D01*
X124681009Y-76688095D02*
X124633390Y-76735714D01*
X124633390Y-76735714D02*
X124585771Y-76830952D01*
X124585771Y-76830952D02*
X124585771Y-77021428D01*
X124585771Y-77021428D02*
X124633390Y-77116666D01*
X124633390Y-77116666D02*
X124681009Y-77164285D01*
X124681009Y-77164285D02*
X124776247Y-77211904D01*
X130557142Y-85159580D02*
X130509523Y-85207200D01*
X130509523Y-85207200D02*
X130366666Y-85254819D01*
X130366666Y-85254819D02*
X130271428Y-85254819D01*
X130271428Y-85254819D02*
X130128571Y-85207200D01*
X130128571Y-85207200D02*
X130033333Y-85111961D01*
X130033333Y-85111961D02*
X129985714Y-85016723D01*
X129985714Y-85016723D02*
X129938095Y-84826247D01*
X129938095Y-84826247D02*
X129938095Y-84683390D01*
X129938095Y-84683390D02*
X129985714Y-84492914D01*
X129985714Y-84492914D02*
X130033333Y-84397676D01*
X130033333Y-84397676D02*
X130128571Y-84302438D01*
X130128571Y-84302438D02*
X130271428Y-84254819D01*
X130271428Y-84254819D02*
X130366666Y-84254819D01*
X130366666Y-84254819D02*
X130509523Y-84302438D01*
X130509523Y-84302438D02*
X130557142Y-84350057D01*
X131509523Y-85254819D02*
X130938095Y-85254819D01*
X131223809Y-85254819D02*
X131223809Y-84254819D01*
X131223809Y-84254819D02*
X131128571Y-84397676D01*
X131128571Y-84397676D02*
X131033333Y-84492914D01*
X131033333Y-84492914D02*
X130938095Y-84540533D01*
X132128571Y-84254819D02*
X132223809Y-84254819D01*
X132223809Y-84254819D02*
X132319047Y-84302438D01*
X132319047Y-84302438D02*
X132366666Y-84350057D01*
X132366666Y-84350057D02*
X132414285Y-84445295D01*
X132414285Y-84445295D02*
X132461904Y-84635771D01*
X132461904Y-84635771D02*
X132461904Y-84873866D01*
X132461904Y-84873866D02*
X132414285Y-85064342D01*
X132414285Y-85064342D02*
X132366666Y-85159580D01*
X132366666Y-85159580D02*
X132319047Y-85207200D01*
X132319047Y-85207200D02*
X132223809Y-85254819D01*
X132223809Y-85254819D02*
X132128571Y-85254819D01*
X132128571Y-85254819D02*
X132033333Y-85207200D01*
X132033333Y-85207200D02*
X131985714Y-85159580D01*
X131985714Y-85159580D02*
X131938095Y-85064342D01*
X131938095Y-85064342D02*
X131890476Y-84873866D01*
X131890476Y-84873866D02*
X131890476Y-84635771D01*
X131890476Y-84635771D02*
X131938095Y-84445295D01*
X131938095Y-84445295D02*
X131985714Y-84350057D01*
X131985714Y-84350057D02*
X132033333Y-84302438D01*
X132033333Y-84302438D02*
X132128571Y-84254819D01*
D12*
X97230943Y-62178510D02*
X97230943Y-62711844D01*
X97088085Y-61873749D02*
X96945228Y-62445177D01*
X96945228Y-62445177D02*
X97316657Y-62445177D01*
X129584228Y-52145510D02*
X129584228Y-52678844D01*
X129441370Y-51840749D02*
X129298513Y-52412177D01*
X129298513Y-52412177D02*
X129669942Y-52412177D01*
X130184228Y-51878844D02*
X129898514Y-51878844D01*
X129898514Y-51878844D02*
X129869942Y-52259796D01*
X129869942Y-52259796D02*
X129898514Y-52221701D01*
X129898514Y-52221701D02*
X129955657Y-52183606D01*
X129955657Y-52183606D02*
X130098514Y-52183606D01*
X130098514Y-52183606D02*
X130155657Y-52221701D01*
X130155657Y-52221701D02*
X130184228Y-52259796D01*
X130184228Y-52259796D02*
X130212799Y-52335987D01*
X130212799Y-52335987D02*
X130212799Y-52526463D01*
X130212799Y-52526463D02*
X130184228Y-52602653D01*
X130184228Y-52602653D02*
X130155657Y-52640749D01*
X130155657Y-52640749D02*
X130098514Y-52678844D01*
X130098514Y-52678844D02*
X129955657Y-52678844D01*
X129955657Y-52678844D02*
X129898514Y-52640749D01*
X129898514Y-52640749D02*
X129869942Y-52602653D01*
X104368370Y-62711844D02*
X104025513Y-62711844D01*
X104196942Y-62711844D02*
X104196942Y-61911844D01*
X104196942Y-61911844D02*
X104139799Y-62026129D01*
X104139799Y-62026129D02*
X104082656Y-62102320D01*
X104082656Y-62102320D02*
X104025513Y-62140415D01*
X104596942Y-61988034D02*
X104625514Y-61949939D01*
X104625514Y-61949939D02*
X104682657Y-61911844D01*
X104682657Y-61911844D02*
X104825514Y-61911844D01*
X104825514Y-61911844D02*
X104882657Y-61949939D01*
X104882657Y-61949939D02*
X104911228Y-61988034D01*
X104911228Y-61988034D02*
X104939799Y-62064225D01*
X104939799Y-62064225D02*
X104939799Y-62140415D01*
X104939799Y-62140415D02*
X104911228Y-62254701D01*
X104911228Y-62254701D02*
X104568371Y-62711844D01*
X104568371Y-62711844D02*
X104939799Y-62711844D01*
X97034085Y-53059844D02*
X96691228Y-53059844D01*
X96862657Y-53059844D02*
X96862657Y-52259844D01*
X96862657Y-52259844D02*
X96805514Y-52374129D01*
X96805514Y-52374129D02*
X96748371Y-52450320D01*
X96748371Y-52450320D02*
X96691228Y-52488415D01*
D13*
X232681905Y-91894819D02*
X232681905Y-90894819D01*
X232681905Y-90894819D02*
X232920000Y-90894819D01*
X232920000Y-90894819D02*
X233062857Y-90942438D01*
X233062857Y-90942438D02*
X233158095Y-91037676D01*
X233158095Y-91037676D02*
X233205714Y-91132914D01*
X233205714Y-91132914D02*
X233253333Y-91323390D01*
X233253333Y-91323390D02*
X233253333Y-91466247D01*
X233253333Y-91466247D02*
X233205714Y-91656723D01*
X233205714Y-91656723D02*
X233158095Y-91751961D01*
X233158095Y-91751961D02*
X233062857Y-91847200D01*
X233062857Y-91847200D02*
X232920000Y-91894819D01*
X232920000Y-91894819D02*
X232681905Y-91894819D01*
X234158095Y-90894819D02*
X233681905Y-90894819D01*
X233681905Y-90894819D02*
X233634286Y-91371009D01*
X233634286Y-91371009D02*
X233681905Y-91323390D01*
X233681905Y-91323390D02*
X233777143Y-91275771D01*
X233777143Y-91275771D02*
X234015238Y-91275771D01*
X234015238Y-91275771D02*
X234110476Y-91323390D01*
X234110476Y-91323390D02*
X234158095Y-91371009D01*
X234158095Y-91371009D02*
X234205714Y-91466247D01*
X234205714Y-91466247D02*
X234205714Y-91704342D01*
X234205714Y-91704342D02*
X234158095Y-91799580D01*
X234158095Y-91799580D02*
X234110476Y-91847200D01*
X234110476Y-91847200D02*
X234015238Y-91894819D01*
X234015238Y-91894819D02*
X233777143Y-91894819D01*
X233777143Y-91894819D02*
X233681905Y-91847200D01*
X233681905Y-91847200D02*
X233634286Y-91799580D01*
X143879819Y-77165476D02*
X143403628Y-77498809D01*
X143879819Y-77736904D02*
X142879819Y-77736904D01*
X142879819Y-77736904D02*
X142879819Y-77355952D01*
X142879819Y-77355952D02*
X142927438Y-77260714D01*
X142927438Y-77260714D02*
X142975057Y-77213095D01*
X142975057Y-77213095D02*
X143070295Y-77165476D01*
X143070295Y-77165476D02*
X143213152Y-77165476D01*
X143213152Y-77165476D02*
X143308390Y-77213095D01*
X143308390Y-77213095D02*
X143356009Y-77260714D01*
X143356009Y-77260714D02*
X143403628Y-77355952D01*
X143403628Y-77355952D02*
X143403628Y-77736904D01*
X143879819Y-76736904D02*
X142879819Y-76736904D01*
X142879819Y-76736904D02*
X143879819Y-76165476D01*
X143879819Y-76165476D02*
X142879819Y-76165476D01*
X143879819Y-75165476D02*
X143879819Y-75736904D01*
X143879819Y-75451190D02*
X142879819Y-75451190D01*
X142879819Y-75451190D02*
X143022676Y-75546428D01*
X143022676Y-75546428D02*
X143117914Y-75641666D01*
X143117914Y-75641666D02*
X143165533Y-75736904D01*
X232205714Y-101014819D02*
X232205714Y-100014819D01*
X232205714Y-100014819D02*
X232443809Y-100014819D01*
X232443809Y-100014819D02*
X232586666Y-100062438D01*
X232586666Y-100062438D02*
X232681904Y-100157676D01*
X232681904Y-100157676D02*
X232729523Y-100252914D01*
X232729523Y-100252914D02*
X232777142Y-100443390D01*
X232777142Y-100443390D02*
X232777142Y-100586247D01*
X232777142Y-100586247D02*
X232729523Y-100776723D01*
X232729523Y-100776723D02*
X232681904Y-100871961D01*
X232681904Y-100871961D02*
X232586666Y-100967200D01*
X232586666Y-100967200D02*
X232443809Y-101014819D01*
X232443809Y-101014819D02*
X232205714Y-101014819D01*
X233729523Y-101014819D02*
X233158095Y-101014819D01*
X233443809Y-101014819D02*
X233443809Y-100014819D01*
X233443809Y-100014819D02*
X233348571Y-100157676D01*
X233348571Y-100157676D02*
X233253333Y-100252914D01*
X233253333Y-100252914D02*
X233158095Y-100300533D01*
X234348571Y-100014819D02*
X234443809Y-100014819D01*
X234443809Y-100014819D02*
X234539047Y-100062438D01*
X234539047Y-100062438D02*
X234586666Y-100110057D01*
X234586666Y-100110057D02*
X234634285Y-100205295D01*
X234634285Y-100205295D02*
X234681904Y-100395771D01*
X234681904Y-100395771D02*
X234681904Y-100633866D01*
X234681904Y-100633866D02*
X234634285Y-100824342D01*
X234634285Y-100824342D02*
X234586666Y-100919580D01*
X234586666Y-100919580D02*
X234539047Y-100967200D01*
X234539047Y-100967200D02*
X234443809Y-101014819D01*
X234443809Y-101014819D02*
X234348571Y-101014819D01*
X234348571Y-101014819D02*
X234253333Y-100967200D01*
X234253333Y-100967200D02*
X234205714Y-100919580D01*
X234205714Y-100919580D02*
X234158095Y-100824342D01*
X234158095Y-100824342D02*
X234110476Y-100633866D01*
X234110476Y-100633866D02*
X234110476Y-100395771D01*
X234110476Y-100395771D02*
X234158095Y-100205295D01*
X234158095Y-100205295D02*
X234205714Y-100110057D01*
X234205714Y-100110057D02*
X234253333Y-100062438D01*
X234253333Y-100062438D02*
X234348571Y-100014819D01*
D15*
%TO.C,U2*%
X133928028Y-67940554D02*
X133928029Y-69890554D01*
X133928028Y-67940554D02*
X133928029Y-65990554D01*
X128808030Y-67940554D02*
X128808029Y-71390554D01*
X128808030Y-67940554D02*
X128808029Y-65990554D01*
%TO.C,D37*%
X94635000Y-81425000D02*
X86125000Y-81425000D01*
X94635000Y-74925000D02*
X94635000Y-81425000D01*
X94635000Y-74925000D02*
X86125000Y-74925000D01*
%TO.C,D19*%
X188945000Y-89225000D02*
X188945000Y-90925000D01*
X188945000Y-89225000D02*
X192205000Y-89225000D01*
X188945000Y-90925000D02*
X192205000Y-90925000D01*
%TO.C,TP5*%
X206150000Y-100975000D02*
X207550000Y-100975000D01*
X206150000Y-102375000D02*
X206150000Y-100975000D01*
X207550000Y-100975000D02*
X207550000Y-102375000D01*
X207550000Y-102375000D02*
X206150000Y-102375000D01*
%TO.C,U1*%
X209030000Y-106965000D02*
X207530000Y-106965000D01*
X209030000Y-106965000D02*
X210530000Y-106965000D01*
X209030000Y-110185000D02*
X207530000Y-110185000D01*
X209030000Y-110185000D02*
X210530000Y-110185000D01*
X206817500Y-107140000D02*
X206577500Y-106810000D01*
X207057500Y-106810000D01*
X206817500Y-107140000D01*
G36*
X206817500Y-107140000D02*
G01*
X206577500Y-106810000D01*
X207057500Y-106810000D01*
X206817500Y-107140000D01*
G37*
%TO.C,D24*%
X177435000Y-73020000D02*
X177435000Y-74940000D01*
X177435000Y-74940000D02*
X180120000Y-74940000D01*
X180120000Y-73020000D02*
X177435000Y-73020000D01*
%TO.C,R42*%
X183092742Y-73582500D02*
X183567258Y-73582500D01*
X183092742Y-74627500D02*
X183567258Y-74627500D01*
%TO.C,C64*%
X172975000Y-85064664D02*
X172975000Y-85280336D01*
X172255000Y-85064664D02*
X172255000Y-85280336D01*
%TO.C,C33*%
X191748748Y-64080000D02*
X192271252Y-64080000D01*
X191748748Y-65550000D02*
X192271252Y-65550000D01*
%TO.C,D23*%
X177435000Y-69980000D02*
X177435000Y-71900000D01*
X177435000Y-71900000D02*
X180120000Y-71900000D01*
X180120000Y-69980000D02*
X177435000Y-69980000D01*
%TO.C,A1*%
X133260000Y-73210000D02*
X133260000Y-74610000D01*
X133260000Y-75880000D02*
X133260000Y-93790000D01*
X133260000Y-93790000D02*
X148760000Y-93790000D01*
X134660000Y-73210000D02*
X133260000Y-73210000D01*
X135930000Y-73210000D02*
X135930000Y-75880000D01*
X135930000Y-75880000D02*
X133260000Y-75880000D01*
X135930000Y-75880000D02*
X135930000Y-93790000D01*
X146090000Y-73210000D02*
X146090000Y-93790000D01*
X148760000Y-73210000D02*
X135930000Y-73210000D01*
X148760000Y-93790000D02*
X148760000Y-73210000D01*
%TO.C,C3*%
X198729420Y-94795000D02*
X199010580Y-94795000D01*
X198729420Y-95815000D02*
X199010580Y-95815000D01*
%TO.C,RN2*%
X242350000Y-94945000D02*
X241350000Y-94945000D01*
X242350000Y-98305000D02*
X241350000Y-98305000D01*
%TO.C,U16*%
X205580000Y-70210000D02*
X204930000Y-70210000D01*
X205580000Y-70210000D02*
X206230000Y-70210000D01*
X205580000Y-73330000D02*
X204930000Y-73330000D01*
X205580000Y-73330000D02*
X206230000Y-73330000D01*
X204417500Y-70260000D02*
X204177500Y-69930000D01*
X204657500Y-69930000D01*
X204417500Y-70260000D01*
G36*
X204417500Y-70260000D02*
G01*
X204177500Y-69930000D01*
X204657500Y-69930000D01*
X204417500Y-70260000D01*
G37*
%TO.C,D7*%
X231735000Y-95170000D02*
X231735000Y-97090000D01*
X231735000Y-97090000D02*
X234420000Y-97090000D01*
X234420000Y-95170000D02*
X231735000Y-95170000D01*
%TO.C,C66*%
X171005000Y-85064664D02*
X171005000Y-85280336D01*
X170285000Y-85064664D02*
X170285000Y-85280336D01*
%TO.C,D25*%
X177435000Y-76060000D02*
X177435000Y-77980000D01*
X177435000Y-77980000D02*
X180120000Y-77980000D01*
X180120000Y-76060000D02*
X177435000Y-76060000D01*
%TO.C,C34*%
X191748748Y-67090000D02*
X192271252Y-67090000D01*
X191748748Y-68560000D02*
X192271252Y-68560000D01*
%TO.C,C19*%
X112817885Y-67105032D02*
X112817885Y-67320704D01*
X113537885Y-67105032D02*
X113537885Y-67320704D01*
%TO.C,U3*%
X135765001Y-67750000D02*
X135765000Y-65800000D01*
X135765001Y-67750000D02*
X135765000Y-71200000D01*
X140884999Y-67750000D02*
X140885000Y-65800000D01*
X140884999Y-67750000D02*
X140885000Y-69700000D01*
%TO.C,D4*%
X231735000Y-89090000D02*
X231735000Y-91010000D01*
X231735000Y-91010000D02*
X234420000Y-91010000D01*
X234420000Y-89090000D02*
X231735000Y-89090000D01*
%TO.C,C46*%
X200648748Y-73110000D02*
X201171252Y-73110000D01*
X200648748Y-74580000D02*
X201171252Y-74580000D01*
%TO.C,D18*%
X188945000Y-86275000D02*
X188945000Y-87975000D01*
X188945000Y-86275000D02*
X192205000Y-86275000D01*
X188945000Y-87975000D02*
X192205000Y-87975000D01*
%TO.C,RN4*%
X110068793Y-65120123D02*
X110068793Y-64120123D01*
X113428793Y-65120123D02*
X113428793Y-64120123D01*
%TO.C,D9*%
X231735000Y-98210000D02*
X231735000Y-100130000D01*
X231735000Y-100130000D02*
X234420000Y-100130000D01*
X234420000Y-98210000D02*
X231735000Y-98210000D01*
%TO.C,D16*%
X160560000Y-71462500D02*
X160560000Y-70662500D01*
X160560000Y-71462500D02*
X160560000Y-72262500D01*
X157440000Y-71462500D02*
X157440000Y-70662500D01*
X157440000Y-71462500D02*
X157440000Y-72262500D01*
X160840000Y-70402500D02*
X160510000Y-70162500D01*
X160840000Y-69922500D01*
X160840000Y-70402500D01*
G36*
X160840000Y-70402500D02*
G01*
X160510000Y-70162500D01*
X160840000Y-69922500D01*
X160840000Y-70402500D01*
G37*
%TO.C,C39*%
X196198748Y-67090000D02*
X196721252Y-67090000D01*
X196198748Y-68560000D02*
X196721252Y-68560000D01*
%TO.C,D1*%
X231735000Y-83010000D02*
X231735000Y-84930000D01*
X231735000Y-84930000D02*
X234420000Y-84930000D01*
X234420000Y-83010000D02*
X231735000Y-83010000D01*
%TO.C,D11*%
X236185000Y-91925000D02*
X236185000Y-93625000D01*
X236185000Y-91925000D02*
X239445000Y-91925000D01*
X236185000Y-93625000D02*
X239445000Y-93625000D01*
%TO.C,R38*%
X183092742Y-71072500D02*
X183567258Y-71072500D01*
X183092742Y-72117500D02*
X183567258Y-72117500D01*
%TO.C,C5*%
X202838748Y-100840000D02*
X203361252Y-100840000D01*
X202838748Y-102310000D02*
X203361252Y-102310000D01*
%TO.C,C26*%
X187298748Y-64080000D02*
X187821252Y-64080000D01*
X187298748Y-65550000D02*
X187821252Y-65550000D01*
%TO.C,R3*%
X198632742Y-104822500D02*
X199107258Y-104822500D01*
X198632742Y-105867500D02*
X199107258Y-105867500D01*
%TO.C,U19*%
X79555000Y-86350000D02*
X79555000Y-86620000D01*
X79555000Y-93250000D02*
X79555000Y-92980000D01*
X85975000Y-86350000D02*
X79555000Y-86350000D01*
X85975000Y-93250000D02*
X79555000Y-93250000D01*
X77825000Y-86660000D02*
X77485000Y-86190000D01*
X78165000Y-86190000D01*
X77825000Y-86660000D01*
G36*
X77825000Y-86660000D02*
G01*
X77485000Y-86190000D01*
X78165000Y-86190000D01*
X77825000Y-86660000D01*
G37*
%TO.C,C30*%
X187298748Y-70100000D02*
X187821252Y-70100000D01*
X187298748Y-71570000D02*
X187821252Y-71570000D01*
%TO.C,R5*%
X183092742Y-107942500D02*
X183567258Y-107942500D01*
X183092742Y-108987500D02*
X183567258Y-108987500D01*
%TO.C,U5*%
X212400000Y-119075000D02*
X210200000Y-119075000D01*
X212400000Y-119075000D02*
X214600000Y-119075000D01*
X212400000Y-124545000D02*
X210200000Y-124545000D01*
X212400000Y-124545000D02*
X214600000Y-124545000D01*
X208540000Y-119535000D02*
X208210000Y-119775000D01*
X208210000Y-119295000D01*
X208540000Y-119535000D01*
G36*
X208540000Y-119535000D02*
G01*
X208210000Y-119775000D01*
X208210000Y-119295000D01*
X208540000Y-119535000D01*
G37*
%TO.C,C49*%
X219743748Y-82760000D02*
X220266252Y-82760000D01*
X219743748Y-84230000D02*
X220266252Y-84230000D01*
%TO.C,C32*%
X191748748Y-61070000D02*
X192271252Y-61070000D01*
X191748748Y-62540000D02*
X192271252Y-62540000D01*
%TO.C,TP19*%
X206150000Y-104025000D02*
X207550000Y-104025000D01*
X206150000Y-105425000D02*
X206150000Y-104025000D01*
X207550000Y-104025000D02*
X207550000Y-105425000D01*
X207550000Y-105425000D02*
X206150000Y-105425000D01*
%TO.C,C54*%
X210984420Y-89265000D02*
X211265580Y-89265000D01*
X210984420Y-90285000D02*
X211265580Y-90285000D01*
%TO.C,RN5*%
X213550000Y-111545000D02*
X212550000Y-111545000D01*
X213550000Y-114905000D02*
X212550000Y-114905000D01*
%TO.C,R102*%
X162827500Y-66645242D02*
X162827500Y-67119758D01*
X161782500Y-66645242D02*
X161782500Y-67119758D01*
%TO.C,C35*%
X191748748Y-70100000D02*
X192271252Y-70100000D01*
X191748748Y-71570000D02*
X192271252Y-71570000D01*
%TO.C,R27*%
X183092742Y-61032500D02*
X183567258Y-61032500D01*
X183092742Y-62077500D02*
X183567258Y-62077500D01*
%TO.C,R58*%
X222887742Y-126777500D02*
X223362258Y-126777500D01*
X222887742Y-127822500D02*
X223362258Y-127822500D01*
%TO.C,U8*%
X83497500Y-95975000D02*
X83497500Y-99735000D01*
X76677500Y-95975000D02*
X76677500Y-99735000D01*
X83497500Y-99735000D02*
X82237500Y-99735000D01*
X76677500Y-99735000D02*
X77937500Y-99735000D01*
X83727500Y-94935000D02*
X83397500Y-94695000D01*
X83727500Y-94455000D01*
X83727500Y-94935000D01*
G36*
X83727500Y-94935000D02*
G01*
X83397500Y-94695000D01*
X83727500Y-94455000D01*
X83727500Y-94935000D01*
G37*
%TO.C,R81*%
X107072500Y-71437258D02*
X107072500Y-70962742D01*
X106027500Y-71437258D02*
X106027500Y-70962742D01*
%TO.C,C53*%
X210984420Y-86755000D02*
X211265580Y-86755000D01*
X210984420Y-87775000D02*
X211265580Y-87775000D01*
%TO.C,R79*%
X103972500Y-71437258D02*
X103972500Y-70962742D01*
X102927500Y-71437258D02*
X102927500Y-70962742D01*
%TO.C,D15*%
X201435000Y-112250000D02*
X201435000Y-113720000D01*
X201435000Y-113720000D02*
X203720000Y-113720000D01*
X203720000Y-112250000D02*
X201435000Y-112250000D01*
%TO.C,C4*%
X198729420Y-97305000D02*
X199010580Y-97305000D01*
X198729420Y-98325000D02*
X199010580Y-98325000D01*
%TO.C,D14*%
X111612500Y-68390000D02*
X110812500Y-68390000D01*
X111612500Y-68390000D02*
X112412500Y-68390000D01*
X111612500Y-71510000D02*
X110812500Y-71510000D01*
X111612500Y-71510000D02*
X112412500Y-71510000D01*
X113152500Y-71790000D02*
X112672500Y-71790000D01*
X112912500Y-71460000D01*
X113152500Y-71790000D01*
G36*
X113152500Y-71790000D02*
G01*
X112672500Y-71790000D01*
X112912500Y-71460000D01*
X113152500Y-71790000D01*
G37*
%TO.C,U12*%
X135360000Y-100325000D02*
X135360000Y-102275000D01*
X135360000Y-100325000D02*
X135360000Y-98375000D01*
X140480000Y-100325000D02*
X140480000Y-102275000D01*
X140480000Y-100325000D02*
X140480000Y-98375000D01*
X135455000Y-103025000D02*
X135125000Y-103265000D01*
X135125000Y-102785000D01*
X135455000Y-103025000D01*
G36*
X135455000Y-103025000D02*
G01*
X135125000Y-103265000D01*
X135125000Y-102785000D01*
X135455000Y-103025000D01*
G37*
%TO.C,R99*%
X170357500Y-66645242D02*
X170357500Y-67119758D01*
X169312500Y-66645242D02*
X169312500Y-67119758D01*
%TO.C,C45*%
X200648748Y-70100000D02*
X201171252Y-70100000D01*
X200648748Y-71570000D02*
X201171252Y-71570000D01*
%TO.C,D2*%
X231735000Y-86050000D02*
X231735000Y-87970000D01*
X231735000Y-87970000D02*
X234420000Y-87970000D01*
X234420000Y-86050000D02*
X231735000Y-86050000D01*
%TO.C,C44*%
X200648748Y-67090000D02*
X201171252Y-67090000D01*
X200648748Y-68560000D02*
X201171252Y-68560000D01*
%TO.C,R2*%
X198632742Y-102312500D02*
X199107258Y-102312500D01*
X198632742Y-103357500D02*
X199107258Y-103357500D01*
%TO.C,R101*%
X165337500Y-66645242D02*
X165337500Y-67119758D01*
X164292500Y-66645242D02*
X164292500Y-67119758D01*
%TO.C,D30*%
X218660000Y-114390000D02*
X218660000Y-116390000D01*
X218660000Y-114390000D02*
X222520000Y-114390000D01*
X218660000Y-116390000D02*
X222520000Y-116390000D01*
%TO.C,C52*%
X210984420Y-84245000D02*
X211265580Y-84245000D01*
X210984420Y-85265000D02*
X211265580Y-85265000D01*
%TO.C,C43*%
X200648748Y-64080000D02*
X201171252Y-64080000D01*
X200648748Y-65550000D02*
X201171252Y-65550000D01*
%TO.C,C7*%
X202838748Y-103850000D02*
X203361252Y-103850000D01*
X202838748Y-105320000D02*
X203361252Y-105320000D01*
%TO.C,RN7*%
X220355000Y-85695000D02*
X219355000Y-85695000D01*
X220355000Y-89055000D02*
X219355000Y-89055000D01*
%TO.C,C8*%
X202838748Y-106860000D02*
X203361252Y-106860000D01*
X202838748Y-108330000D02*
X203361252Y-108330000D01*
%TO.C,D26*%
X177435000Y-79100000D02*
X177435000Y-81020000D01*
X177435000Y-81020000D02*
X180120000Y-81020000D01*
X180120000Y-79100000D02*
X177435000Y-79100000D01*
%TO.C,U14*%
X200410000Y-82975000D02*
X198460000Y-82975000D01*
X200410000Y-82975000D02*
X202360000Y-82975000D01*
X200410000Y-88095000D02*
X198460000Y-88095000D01*
X200410000Y-88095000D02*
X202360000Y-88095000D01*
X197710000Y-83070000D02*
X197470000Y-82740000D01*
X197950000Y-82740000D01*
X197710000Y-83070000D01*
G36*
X197710000Y-83070000D02*
G01*
X197470000Y-82740000D01*
X197950000Y-82740000D01*
X197710000Y-83070000D01*
G37*
%TO.C,U15*%
X198612500Y-76017500D02*
X198612500Y-76300000D01*
X198612500Y-81512500D02*
X198612500Y-81230000D01*
X201360000Y-76017500D02*
X198612500Y-76017500D01*
X201360000Y-76017500D02*
X204107500Y-76017500D01*
X201360000Y-81512500D02*
X198612500Y-81512500D01*
X201360000Y-81512500D02*
X204107500Y-81512500D01*
X204107500Y-76017500D02*
X204107500Y-76300000D01*
X204107500Y-81512500D02*
X204107500Y-81230000D01*
X197841250Y-76300000D02*
X197601250Y-75970000D01*
X198081250Y-75970000D01*
X197841250Y-76300000D01*
G36*
X197841250Y-76300000D02*
G01*
X197601250Y-75970000D01*
X198081250Y-75970000D01*
X197841250Y-76300000D01*
G37*
%TO.C,J9*%
X125730000Y-130595000D02*
X126365000Y-130595000D01*
X125730000Y-131230000D02*
X125730000Y-130595000D01*
%TO.C,C40*%
X196198748Y-70100000D02*
X196721252Y-70100000D01*
X196198748Y-71570000D02*
X196721252Y-71570000D01*
%TO.C,U20*%
X141940000Y-100325000D02*
X141940000Y-102275000D01*
X141940000Y-100325000D02*
X141940000Y-98375000D01*
X147060000Y-100325000D02*
X147060000Y-102275000D01*
X147060000Y-100325000D02*
X147060000Y-98375000D01*
X142035000Y-103025000D02*
X141705000Y-103265000D01*
X141705000Y-102785000D01*
X142035000Y-103025000D01*
G36*
X142035000Y-103025000D02*
G01*
X141705000Y-103265000D01*
X141705000Y-102785000D01*
X142035000Y-103025000D01*
G37*
%TO.C,D8*%
X236185000Y-88975000D02*
X236185000Y-90675000D01*
X236185000Y-88975000D02*
X239445000Y-88975000D01*
X236185000Y-90675000D02*
X239445000Y-90675000D01*
%TO.C,Y1*%
X181950000Y-81005000D02*
X181950000Y-82605000D01*
X181950000Y-82605000D02*
X184350000Y-82605000D01*
X184350000Y-81005000D02*
X181950000Y-81005000D01*
%TO.C,R11*%
X198632742Y-109842500D02*
X199107258Y-109842500D01*
X198632742Y-110887500D02*
X199107258Y-110887500D01*
%TO.C,D3*%
X236185000Y-83075000D02*
X236185000Y-84775000D01*
X236185000Y-83075000D02*
X239445000Y-83075000D01*
X236185000Y-84775000D02*
X239445000Y-84775000D01*
%TO.C,C2*%
X202838748Y-97830000D02*
X203361252Y-97830000D01*
X202838748Y-99300000D02*
X203361252Y-99300000D01*
%TO.C,C37*%
X196198748Y-61070000D02*
X196721252Y-61070000D01*
X196198748Y-62540000D02*
X196721252Y-62540000D01*
%TO.C,U11*%
X87750000Y-85230000D02*
X88020000Y-85230000D01*
X87750000Y-91650000D02*
X87750000Y-85230000D01*
X94650000Y-85230000D02*
X94380000Y-85230000D01*
X94650000Y-91650000D02*
X94650000Y-85230000D01*
X94810000Y-83840000D02*
X94340000Y-83500000D01*
X94810000Y-83160000D01*
X94810000Y-83840000D01*
G36*
X94810000Y-83840000D02*
G01*
X94340000Y-83500000D01*
X94810000Y-83160000D01*
X94810000Y-83840000D01*
G37*
%TO.C,R43*%
X183092742Y-76092500D02*
X183567258Y-76092500D01*
X183092742Y-77137500D02*
X183567258Y-77137500D01*
%TO.C,U18*%
X98690000Y-77750000D02*
X98690000Y-79700000D01*
X98690000Y-77750000D02*
X98690000Y-75800000D01*
X103810000Y-77750000D02*
X103810000Y-79700000D01*
X103810000Y-77750000D02*
X103810000Y-75800000D01*
X98785000Y-80450000D02*
X98455000Y-80690000D01*
X98455000Y-80210000D01*
X98785000Y-80450000D01*
G36*
X98785000Y-80450000D02*
G01*
X98455000Y-80690000D01*
X98455000Y-80210000D01*
X98785000Y-80450000D01*
G37*
%TO.C,C31*%
X187298748Y-73110000D02*
X187821252Y-73110000D01*
X187298748Y-74580000D02*
X187821252Y-74580000D01*
%TO.C,R82*%
X108622500Y-71437258D02*
X108622500Y-70962742D01*
X107577500Y-71437258D02*
X107577500Y-70962742D01*
%TO.C,R55*%
X222887742Y-119247500D02*
X223362258Y-119247500D01*
X222887742Y-120292500D02*
X223362258Y-120292500D01*
%TO.C,R44*%
X183092742Y-78602500D02*
X183567258Y-78602500D01*
X183092742Y-79647500D02*
X183567258Y-79647500D01*
%TO.C,C69*%
X77465000Y-78579437D02*
X77465000Y-84335000D01*
X77465000Y-84335000D02*
X79815000Y-84335000D01*
X78529437Y-77515000D02*
X77465000Y-78579437D01*
X78529437Y-77515000D02*
X79815000Y-77515000D01*
X82722500Y-76487500D02*
X82722500Y-77275000D01*
X83116250Y-76881250D02*
X82328750Y-76881250D01*
X83220563Y-77515000D02*
X81935000Y-77515000D01*
X83220563Y-77515000D02*
X84285000Y-78579437D01*
X84285000Y-78579437D02*
X84285000Y-84335000D01*
X84285000Y-84335000D02*
X81935000Y-84335000D01*
%TO.C,C29*%
X187298748Y-67090000D02*
X187821252Y-67090000D01*
X187298748Y-68560000D02*
X187821252Y-68560000D01*
%TO.C,C38*%
X196198748Y-64080000D02*
X196721252Y-64080000D01*
X196198748Y-65550000D02*
X196721252Y-65550000D01*
%TO.C,C36*%
X191748748Y-73110000D02*
X192271252Y-73110000D01*
X191748748Y-74580000D02*
X192271252Y-74580000D01*
%TO.C,C1*%
X202838748Y-94820000D02*
X203361252Y-94820000D01*
X202838748Y-96290000D02*
X203361252Y-96290000D01*
%TO.C,U17*%
X205710000Y-65590000D02*
X204910000Y-65590000D01*
X205710000Y-65590000D02*
X206510000Y-65590000D01*
X205710000Y-68710000D02*
X204910000Y-68710000D01*
X205710000Y-68710000D02*
X206510000Y-68710000D01*
X204410000Y-65640000D02*
X204170000Y-65310000D01*
X204650000Y-65310000D01*
X204410000Y-65640000D01*
G36*
X204410000Y-65640000D02*
G01*
X204170000Y-65310000D01*
X204650000Y-65310000D01*
X204410000Y-65640000D01*
G37*
%TO.C,R7*%
X214712936Y-106990000D02*
X215167064Y-106990000D01*
X214712936Y-108460000D02*
X215167064Y-108460000D01*
D14*
%TO.C,U10*%
X189240000Y-136520000D02*
X189240000Y-136080000D01*
X189240000Y-138080000D02*
X189240000Y-137440000D01*
X189240000Y-138080000D02*
X189390000Y-138080000D01*
X191665000Y-138055000D02*
X191815000Y-138055000D01*
X191790000Y-135880000D02*
X191940000Y-135880000D01*
X191940000Y-136520000D02*
X191940000Y-135880000D01*
X191940000Y-138080000D02*
X191940000Y-137440000D01*
X189240000Y-135880000D02*
X188880000Y-135880000D01*
X189240000Y-135520000D01*
X189240000Y-135880000D01*
G36*
X189240000Y-135880000D02*
G01*
X188880000Y-135880000D01*
X189240000Y-135520000D01*
X189240000Y-135880000D01*
G37*
D15*
%TO.C,R9*%
X183092742Y-115472500D02*
X183567258Y-115472500D01*
X183092742Y-116517500D02*
X183567258Y-116517500D01*
%TO.C,R100*%
X167847500Y-66645242D02*
X167847500Y-67119758D01*
X166802500Y-66645242D02*
X166802500Y-67119758D01*
D13*
%TO.C,J8*%
X109782266Y-130320713D02*
X109782266Y-130920713D01*
X109782266Y-134420713D02*
X109782266Y-133820713D01*
X115782266Y-130020713D02*
X114782266Y-130020713D01*
X117582266Y-130320713D02*
X109782266Y-130320713D01*
X117582266Y-130920713D02*
X117582266Y-130320713D01*
X117582266Y-133820713D02*
X117582266Y-134420713D01*
X117582266Y-134420713D02*
X109782266Y-134420713D01*
D15*
%TO.C,R75*%
X115452500Y-64312742D02*
X115452500Y-64787258D01*
X116497500Y-64312742D02*
X116497500Y-64787258D01*
%TO.C,C48*%
X210984420Y-79225000D02*
X211265580Y-79225000D01*
X210984420Y-80245000D02*
X211265580Y-80245000D01*
%TO.C,RN6*%
X166335000Y-86012500D02*
X166335000Y-85012500D01*
X162975000Y-86012500D02*
X162975000Y-85012500D01*
%TO.C,D13*%
X201435000Y-109660000D02*
X201435000Y-111130000D01*
X201435000Y-111130000D02*
X203720000Y-111130000D01*
X203720000Y-109660000D02*
X201435000Y-109660000D01*
%TO.C,D22*%
X146852500Y-123840000D02*
X146852500Y-125760000D01*
X146852500Y-125760000D02*
X149537500Y-125760000D01*
X149537500Y-123840000D02*
X146852500Y-123840000D01*
%TO.C,U26*%
X220985000Y-103545000D02*
X222395000Y-103545000D01*
X220995000Y-105865000D02*
X222395000Y-105865000D01*
X220615000Y-103595000D02*
X220375000Y-103265000D01*
X220855000Y-103265000D01*
X220615000Y-103595000D01*
G36*
X220615000Y-103595000D02*
G01*
X220375000Y-103265000D01*
X220855000Y-103265000D01*
X220615000Y-103595000D01*
G37*
%TO.C,D12*%
X231735000Y-104290000D02*
X231735000Y-106210000D01*
X231735000Y-106210000D02*
X234420000Y-106210000D01*
X234420000Y-104290000D02*
X231735000Y-104290000D01*
%TO.C,C63*%
X116290580Y-79140000D02*
X116009420Y-79140000D01*
X116290580Y-80160000D02*
X116009420Y-80160000D01*
%TO.C,BT1*%
X177590000Y-27110000D02*
X177590000Y-29610000D01*
X177590000Y-29610000D02*
X180090000Y-29610000D01*
X177890000Y-25290000D02*
X177890000Y-29310000D01*
X177890000Y-27000000D02*
X178390000Y-27000000D01*
X177890000Y-27810000D02*
X178890000Y-27810000D01*
X177890000Y-29310000D02*
X185610000Y-29310000D01*
X178390000Y-25790000D02*
X185110000Y-25790000D01*
X178390000Y-27000000D02*
X178390000Y-25790000D01*
X178890000Y-27810000D02*
X178890000Y-29310000D01*
X184610000Y-27810000D02*
X184610000Y-29310000D01*
X185110000Y-25790000D02*
X185110000Y-27000000D01*
X185110000Y-27000000D02*
X185610000Y-27000000D01*
X185610000Y-25290000D02*
X177890000Y-25290000D01*
X185610000Y-27810000D02*
X184610000Y-27810000D01*
X185610000Y-29310000D02*
X185610000Y-25290000D01*
%TO.C,U25*%
X220985000Y-99620000D02*
X222395000Y-99620000D01*
X220995000Y-101940000D02*
X222395000Y-101940000D01*
X220615000Y-99670000D02*
X220375000Y-99340000D01*
X220855000Y-99340000D01*
X220615000Y-99670000D01*
G36*
X220615000Y-99670000D02*
G01*
X220375000Y-99340000D01*
X220855000Y-99340000D01*
X220615000Y-99670000D01*
G37*
%TO.C,C58*%
X110871997Y-67099129D02*
X110871997Y-67314801D01*
X111591997Y-67099129D02*
X111591997Y-67314801D01*
%TO.C,R37*%
X183092742Y-68562500D02*
X183567258Y-68562500D01*
X183092742Y-69607500D02*
X183567258Y-69607500D01*
%TO.C,D6*%
X236185000Y-86025000D02*
X236185000Y-87725000D01*
X236185000Y-86025000D02*
X239445000Y-86025000D01*
X236185000Y-87725000D02*
X239445000Y-87725000D01*
%TO.C,R106*%
X157807500Y-66645242D02*
X157807500Y-67119758D01*
X156762500Y-66645242D02*
X156762500Y-67119758D01*
%TO.C,U4*%
X124305000Y-94020000D02*
X95095000Y-94020000D01*
X95095000Y-72430000D01*
X124305000Y-72430000D01*
X124305000Y-94020000D01*
%TO.C,U9*%
X214140000Y-98815000D02*
X215550000Y-98815000D01*
X214150000Y-101135000D02*
X215550000Y-101135000D01*
X213770000Y-98865000D02*
X213530000Y-98535000D01*
X214010000Y-98535000D01*
X213770000Y-98865000D01*
G36*
X213770000Y-98865000D02*
G01*
X213530000Y-98535000D01*
X214010000Y-98535000D01*
X213770000Y-98865000D01*
G37*
%TO.C,D17*%
X87565000Y-71050000D02*
X87565000Y-74350000D01*
X87565000Y-71050000D02*
X93075000Y-71050000D01*
X87565000Y-74350000D02*
X93075000Y-74350000D01*
%TO.C,U7*%
X214140000Y-94890000D02*
X215550000Y-94890000D01*
X214150000Y-97210000D02*
X215550000Y-97210000D01*
X213770000Y-94940000D02*
X213530000Y-94610000D01*
X214010000Y-94610000D01*
X213770000Y-94940000D01*
G36*
X213770000Y-94940000D02*
G01*
X213530000Y-94610000D01*
X214010000Y-94610000D01*
X213770000Y-94940000D01*
G37*
%TO.C,C42*%
X200648748Y-61070000D02*
X201171252Y-61070000D01*
X200648748Y-62540000D02*
X201171252Y-62540000D01*
%TO.C,R8*%
X183092742Y-112962500D02*
X183567258Y-112962500D01*
X183092742Y-114007500D02*
X183567258Y-114007500D01*
%TO.C,TP1*%
X206150000Y-94875000D02*
X207550000Y-94875000D01*
X206150000Y-96275000D02*
X206150000Y-94875000D01*
X207550000Y-94875000D02*
X207550000Y-96275000D01*
X207550000Y-96275000D02*
X206150000Y-96275000D01*
%TO.C,C9*%
X219743748Y-76740000D02*
X220266252Y-76740000D01*
X219743748Y-78210000D02*
X220266252Y-78210000D01*
%TO.C,C50*%
X200973748Y-135080000D02*
X201496252Y-135080000D01*
X200973748Y-136550000D02*
X201496252Y-136550000D01*
%TO.C,RN8*%
X104602024Y-74996556D02*
X104602024Y-73996556D01*
X107962024Y-74996556D02*
X107962024Y-73996556D01*
%TO.C,C60*%
X109875736Y-67099129D02*
X109875736Y-67314801D01*
X110595736Y-67099129D02*
X110595736Y-67314801D01*
%TO.C,R4*%
X198632742Y-107332500D02*
X199107258Y-107332500D01*
X198632742Y-108377500D02*
X199107258Y-108377500D01*
%TO.C,D29*%
X218660000Y-111040000D02*
X218660000Y-113040000D01*
X218660000Y-111040000D02*
X222520000Y-111040000D01*
X218660000Y-113040000D02*
X222520000Y-113040000D01*
%TO.C,C47*%
X200973748Y-132070000D02*
X201496252Y-132070000D01*
X200973748Y-133540000D02*
X201496252Y-133540000D01*
%TO.C,R80*%
X105522500Y-71437258D02*
X105522500Y-70962742D01*
X104477500Y-71437258D02*
X104477500Y-70962742D01*
%TO.C,U21*%
X196180000Y-132050000D02*
X195430000Y-132050000D01*
X196180000Y-137270000D02*
X195130000Y-137270000D01*
X197300000Y-132050000D02*
X198350000Y-132050000D01*
X197300000Y-137270000D02*
X198350000Y-137270000D01*
X195130000Y-132050000D02*
X194990000Y-131860000D01*
X195270000Y-131860000D01*
X195130000Y-132050000D01*
G36*
X195130000Y-132050000D02*
G01*
X194990000Y-131860000D01*
X195270000Y-131860000D01*
X195130000Y-132050000D01*
G37*
%TO.C,C6*%
X187298748Y-61070000D02*
X187821252Y-61070000D01*
X187298748Y-62540000D02*
X187821252Y-62540000D01*
%TO.C,C68*%
X172855000Y-66741920D02*
X172855000Y-67023080D01*
X171835000Y-66741920D02*
X171835000Y-67023080D01*
%TO.C,U23*%
X104873236Y-64146965D02*
X102673236Y-64146965D01*
X104873236Y-64146965D02*
X107073236Y-64146965D01*
X104873236Y-69366965D02*
X102673236Y-69366965D01*
X104873236Y-69366965D02*
X107073236Y-69366965D01*
X101973236Y-64346965D02*
X101733236Y-64016965D01*
X102213236Y-64016965D01*
X101973236Y-64346965D01*
G36*
X101973236Y-64346965D02*
G01*
X101733236Y-64016965D01*
X102213236Y-64016965D01*
X101973236Y-64346965D01*
G37*
%TO.C,U13*%
X94977208Y-110000000D02*
X95472182Y-109505025D01*
X95472182Y-110494975D02*
X94977208Y-110000000D01*
X104537291Y-100439916D02*
X103572090Y-99474716D01*
X104537291Y-119560084D02*
X105032266Y-120055058D01*
X105032266Y-99944942D02*
X104537291Y-100439916D01*
X105032266Y-120055058D02*
X105527241Y-119560084D01*
X105527241Y-100439916D02*
X105032266Y-99944942D01*
X114592350Y-109505025D02*
X115087324Y-110000000D01*
X115087324Y-110000000D02*
X114592350Y-110494975D01*
%TO.C,C14*%
X219743748Y-79750000D02*
X220266252Y-79750000D01*
X219743748Y-81220000D02*
X220266252Y-81220000D01*
%TO.C,R56*%
X222887742Y-121757500D02*
X223362258Y-121757500D01*
X222887742Y-122802500D02*
X223362258Y-122802500D01*
%TO.C,R1*%
X198632742Y-99802500D02*
X199107258Y-99802500D01*
X198632742Y-100847500D02*
X199107258Y-100847500D01*
%TO.C,R108*%
X155297500Y-66645242D02*
X155297500Y-67119758D01*
X154252500Y-66645242D02*
X154252500Y-67119758D01*
%TO.C,U6*%
X126545000Y-76975000D02*
X126545000Y-75025000D01*
X126545000Y-76975000D02*
X126545000Y-78925000D01*
X131665000Y-76975000D02*
X131665000Y-75025000D01*
X131665000Y-76975000D02*
X131665000Y-78925000D01*
X126640000Y-79675000D02*
X126310000Y-79915000D01*
X126310000Y-79435000D01*
X126640000Y-79675000D01*
G36*
X126640000Y-79675000D02*
G01*
X126310000Y-79915000D01*
X126310000Y-79435000D01*
X126640000Y-79675000D01*
G37*
D16*
%TO.C,J16*%
X92972266Y-124555713D02*
X92972266Y-137655713D01*
X92972266Y-137655713D02*
X98172266Y-137655713D01*
X95472266Y-122455713D02*
X94472266Y-122455713D01*
X95472266Y-123455713D02*
X95472266Y-122455713D01*
X102572266Y-137655713D02*
X100372266Y-137655713D01*
X105372266Y-123455713D02*
X95472266Y-123455713D01*
X105972266Y-137655713D02*
X106972266Y-137655713D01*
X106972266Y-137655713D02*
X106972266Y-125455713D01*
D17*
X98072266Y-122755713D02*
G75*
G02*
X97872266Y-122755713I-100000J0D01*
G01*
X97872266Y-122755713D02*
G75*
G02*
X98072266Y-122755713I100000J0D01*
G01*
D15*
%TO.C,R6*%
X183092742Y-110452500D02*
X183567258Y-110452500D01*
X183092742Y-111497500D02*
X183567258Y-111497500D01*
%TO.C,R57*%
X222887742Y-124267500D02*
X223362258Y-124267500D01*
X222887742Y-125312500D02*
X223362258Y-125312500D01*
%TO.C,Y2*%
X203760000Y-60875000D02*
X203760000Y-64175000D01*
X203760000Y-64175000D02*
X207760000Y-64175000D01*
%TO.C,R31*%
X198262936Y-89495000D02*
X199717064Y-89495000D01*
X198262936Y-91315000D02*
X199717064Y-91315000D01*
%TO.C,R16*%
X113902500Y-64312742D02*
X113902500Y-64787258D01*
X114947500Y-64312742D02*
X114947500Y-64787258D01*
%TO.C,C10*%
X125590000Y-86990000D02*
X127940000Y-86990000D01*
X125590000Y-92745563D02*
X125590000Y-86990000D01*
X126654437Y-93810000D02*
X125590000Y-92745563D01*
X126654437Y-93810000D02*
X127940000Y-93810000D01*
X126758750Y-94443750D02*
X127546250Y-94443750D01*
X127152500Y-94837500D02*
X127152500Y-94050000D01*
X131345563Y-93810000D02*
X130060000Y-93810000D01*
X131345563Y-93810000D02*
X132410000Y-92745563D01*
X132410000Y-86990000D02*
X130060000Y-86990000D01*
X132410000Y-92745563D02*
X132410000Y-86990000D01*
%TO.C,TP4*%
X206150000Y-97925000D02*
X207550000Y-97925000D01*
X206150000Y-99325000D02*
X206150000Y-97925000D01*
X207550000Y-97925000D02*
X207550000Y-99325000D01*
X207550000Y-99325000D02*
X206150000Y-99325000D01*
%TO.C,D5*%
X231735000Y-92130000D02*
X231735000Y-94050000D01*
X231735000Y-94050000D02*
X234420000Y-94050000D01*
X234420000Y-92130000D02*
X231735000Y-92130000D01*
%TO.C,RN1*%
X142305000Y-76975000D02*
X142305000Y-75975000D01*
X138945000Y-76975000D02*
X138945000Y-75975000D01*
%TO.C,RN3*%
X179450000Y-82275000D02*
X178450000Y-82275000D01*
X179450000Y-85635000D02*
X178450000Y-85635000D01*
%TO.C,C25*%
X111850074Y-67099129D02*
X111850074Y-67314801D01*
X112570074Y-67099129D02*
X112570074Y-67314801D01*
%TO.C,J14*%
X214125000Y-76965000D02*
X215455000Y-76965000D01*
X214125000Y-78295000D02*
X214125000Y-76965000D01*
X214125000Y-79565000D02*
X214125000Y-87245000D01*
X214125000Y-79565000D02*
X216785000Y-79565000D01*
X214125000Y-87245000D02*
X216785000Y-87245000D01*
X216785000Y-79565000D02*
X216785000Y-87245000D01*
%TO.C,C51*%
X210984420Y-81735000D02*
X211265580Y-81735000D01*
X210984420Y-82755000D02*
X211265580Y-82755000D01*
%TO.C,C41*%
X196198748Y-73110000D02*
X196721252Y-73110000D01*
X196198748Y-74580000D02*
X196721252Y-74580000D01*
%TO.C,C15*%
X210984420Y-76715000D02*
X211265580Y-76715000D01*
X210984420Y-77735000D02*
X211265580Y-77735000D01*
%TO.C,R104*%
X160317500Y-66645242D02*
X160317500Y-67119758D01*
X159272500Y-66645242D02*
X159272500Y-67119758D01*
%TO.C,D10*%
X231735000Y-101250000D02*
X231735000Y-103170000D01*
X231735000Y-103170000D02*
X234420000Y-103170000D01*
X234420000Y-101250000D02*
X231735000Y-101250000D01*
%TO.C,SW1*%
X129165000Y-108675000D02*
X135285000Y-108675000D01*
X129165000Y-112375000D02*
X129165000Y-108675000D01*
X135285000Y-108675000D02*
X135285000Y-112375000D01*
X135285000Y-112375000D02*
X129165000Y-112375000D01*
%TD*%
D18*
%TO.C,J1*%
X88256857Y-58312709D03*
D19*
X92356857Y-62162709D03*
X134956857Y-62162709D03*
D18*
X139056857Y-58312709D03*
%TD*%
%LPC*%
D20*
%TO.C,FID2*%
X47625000Y-112100000D03*
%TD*%
%TO.C,FID1*%
X33750000Y-72925000D03*
%TD*%
D21*
%TO.C,U2*%
X129463029Y-65465554D03*
X130733029Y-65465554D03*
X132003029Y-65465554D03*
X133273029Y-65465554D03*
X133273029Y-70415554D03*
X132003029Y-70415554D03*
X130733029Y-70415554D03*
X129463029Y-70415554D03*
%TD*%
D22*
%TO.C,D37*%
X86325000Y-78175000D03*
X93125000Y-78175000D03*
%TD*%
D23*
%TO.C,D19*%
X189705000Y-90075000D03*
X192205000Y-90075000D03*
%TD*%
D24*
%TO.C,TP5*%
X206850000Y-101675000D03*
%TD*%
D25*
%TO.C,U1*%
X206917500Y-107575000D03*
X206917500Y-108075000D03*
X206917500Y-108575000D03*
X206917500Y-109075000D03*
X206917500Y-109575000D03*
X211142500Y-109575000D03*
X211142500Y-109075000D03*
X211142500Y-108575000D03*
X211142500Y-108075000D03*
X211142500Y-107575000D03*
%TD*%
D26*
%TO.C,D24*%
X178182500Y-73980000D03*
X180057500Y-73980000D03*
%TD*%
D27*
%TO.C,R42*%
X182505000Y-74105000D03*
X184155000Y-74105000D03*
%TD*%
D28*
%TO.C,C64*%
X172615000Y-84692500D03*
X172615000Y-85652500D03*
%TD*%
D29*
%TO.C,C33*%
X191060000Y-64815000D03*
X192960000Y-64815000D03*
%TD*%
D26*
%TO.C,D23*%
X178182500Y-70940000D03*
X180057500Y-70940000D03*
%TD*%
D30*
%TO.C,A1*%
X134660000Y-74610000D03*
D31*
X134660000Y-77150000D03*
X134660000Y-79690000D03*
X134660000Y-82230000D03*
X134660000Y-84770000D03*
X134660000Y-87310000D03*
X134660000Y-89850000D03*
X134660000Y-92390000D03*
X147360000Y-92390000D03*
X147360000Y-89850000D03*
X147360000Y-87310000D03*
X147360000Y-84770000D03*
X147360000Y-82230000D03*
X147360000Y-79690000D03*
X147360000Y-77150000D03*
X147360000Y-74610000D03*
%TD*%
D32*
%TO.C,C3*%
X198095000Y-95305000D03*
X199645000Y-95305000D03*
%TD*%
D33*
%TO.C,RN2*%
X240950000Y-95425000D03*
D34*
X240950000Y-96225000D03*
X240950000Y-97025000D03*
D33*
X240950000Y-97825000D03*
X242750000Y-97825000D03*
D34*
X242750000Y-97025000D03*
X242750000Y-96225000D03*
D33*
X242750000Y-95425000D03*
%TD*%
D35*
%TO.C,U16*%
X204642500Y-70820000D03*
X204642500Y-72720000D03*
X206517500Y-71770000D03*
%TD*%
D26*
%TO.C,D7*%
X232482500Y-96130000D03*
X234357500Y-96130000D03*
%TD*%
D28*
%TO.C,C66*%
X170645000Y-84692500D03*
X170645000Y-85652500D03*
%TD*%
D26*
%TO.C,D25*%
X178182500Y-77020000D03*
X180057500Y-77020000D03*
%TD*%
D29*
%TO.C,C34*%
X191060000Y-67825000D03*
X192960000Y-67825000D03*
%TD*%
D28*
%TO.C,C19*%
X113177885Y-66732868D03*
X113177885Y-67692868D03*
%TD*%
D21*
%TO.C,U3*%
X136420000Y-70225000D03*
X137690000Y-70225000D03*
X138960000Y-70225000D03*
X140230000Y-70225000D03*
X140230000Y-65275000D03*
X138960000Y-65275000D03*
X137690000Y-65275000D03*
X136420000Y-65275000D03*
%TD*%
D26*
%TO.C,D4*%
X232482500Y-90050000D03*
X234357500Y-90050000D03*
%TD*%
D29*
%TO.C,C46*%
X199960000Y-73845000D03*
X201860000Y-73845000D03*
%TD*%
D23*
%TO.C,D18*%
X189705000Y-87125000D03*
X192205000Y-87125000D03*
%TD*%
D36*
%TO.C,RN4*%
X112948793Y-63720123D03*
D37*
X112148793Y-63720123D03*
X111348793Y-63720123D03*
D36*
X110548793Y-63720123D03*
X110548793Y-65520123D03*
D37*
X111348793Y-65520123D03*
X112148793Y-65520123D03*
D36*
X112948793Y-65520123D03*
%TD*%
D26*
%TO.C,D9*%
X232482500Y-99170000D03*
X234357500Y-99170000D03*
%TD*%
D38*
%TO.C,D16*%
X159950000Y-70325000D03*
X159000000Y-70325000D03*
X158050000Y-70325000D03*
X158050000Y-72600000D03*
X159000000Y-72600000D03*
X159950000Y-72600000D03*
%TD*%
D29*
%TO.C,C39*%
X195510000Y-67825000D03*
X197410000Y-67825000D03*
%TD*%
D26*
%TO.C,D1*%
X232482500Y-83970000D03*
X234357500Y-83970000D03*
%TD*%
D23*
%TO.C,D11*%
X236945000Y-92775000D03*
X239445000Y-92775000D03*
%TD*%
D27*
%TO.C,R38*%
X182505000Y-71595000D03*
X184155000Y-71595000D03*
%TD*%
D29*
%TO.C,C5*%
X202150000Y-101575000D03*
X204050000Y-101575000D03*
%TD*%
%TO.C,C26*%
X186610000Y-64815000D03*
X188510000Y-64815000D03*
%TD*%
D27*
%TO.C,R3*%
X198045000Y-105345000D03*
X199695000Y-105345000D03*
%TD*%
D39*
%TO.C,U19*%
X77825000Y-87520000D03*
D40*
X84125000Y-89800000D03*
D39*
X77825000Y-92080000D03*
%TD*%
D29*
%TO.C,C30*%
X186610000Y-70835000D03*
X188510000Y-70835000D03*
%TD*%
D27*
%TO.C,R5*%
X182505000Y-108465000D03*
X184155000Y-108465000D03*
%TD*%
D41*
%TO.C,U5*%
X209537500Y-119535000D03*
X209537500Y-120185000D03*
X209537500Y-120835000D03*
X209537500Y-121485000D03*
X209537500Y-122135000D03*
X209537500Y-122785000D03*
X209537500Y-123435000D03*
X209537500Y-124085000D03*
X215262500Y-124085000D03*
X215262500Y-123435000D03*
X215262500Y-122785000D03*
X215262500Y-122135000D03*
X215262500Y-121485000D03*
X215262500Y-120835000D03*
X215262500Y-120185000D03*
X215262500Y-119535000D03*
%TD*%
D29*
%TO.C,C49*%
X219055000Y-83495000D03*
X220955000Y-83495000D03*
%TD*%
%TO.C,C32*%
X191060000Y-61805000D03*
X192960000Y-61805000D03*
%TD*%
D24*
%TO.C,TP19*%
X206850000Y-104725000D03*
%TD*%
D32*
%TO.C,C54*%
X210350000Y-89775000D03*
X211900000Y-89775000D03*
%TD*%
D33*
%TO.C,RN5*%
X212150000Y-112025000D03*
D34*
X212150000Y-112825000D03*
X212150000Y-113625000D03*
D33*
X212150000Y-114425000D03*
X213950000Y-114425000D03*
D34*
X213950000Y-113625000D03*
X213950000Y-112825000D03*
D33*
X213950000Y-112025000D03*
%TD*%
D42*
%TO.C,R102*%
X162305000Y-66057500D03*
X162305000Y-67707500D03*
%TD*%
D29*
%TO.C,C35*%
X191060000Y-70835000D03*
X192960000Y-70835000D03*
%TD*%
D27*
%TO.C,R27*%
X182505000Y-61555000D03*
X184155000Y-61555000D03*
%TD*%
%TO.C,R58*%
X222300000Y-127300000D03*
X223950000Y-127300000D03*
%TD*%
D43*
%TO.C,U8*%
X82387500Y-94675000D03*
X80087500Y-94675000D03*
D44*
X80087500Y-100975000D03*
D43*
X77787500Y-94675000D03*
%TD*%
D45*
%TO.C,R81*%
X106550000Y-72025000D03*
X106550000Y-70375000D03*
%TD*%
D32*
%TO.C,C53*%
X210350000Y-87265000D03*
X211900000Y-87265000D03*
%TD*%
D45*
%TO.C,R79*%
X103450000Y-72025000D03*
X103450000Y-70375000D03*
%TD*%
D46*
%TO.C,D15*%
X202132500Y-112985000D03*
X203707500Y-112985000D03*
%TD*%
D32*
%TO.C,C4*%
X198095000Y-97815000D03*
X199645000Y-97815000D03*
%TD*%
D47*
%TO.C,D14*%
X112750000Y-70900000D03*
X112750000Y-69950000D03*
X112750000Y-69000000D03*
X110475000Y-69000000D03*
X110475000Y-69950000D03*
X110475000Y-70900000D03*
%TD*%
D21*
%TO.C,U12*%
X136015000Y-102800000D03*
X137285000Y-102800000D03*
X138555000Y-102800000D03*
X139825000Y-102800000D03*
X139825000Y-97850000D03*
X138555000Y-97850000D03*
X137285000Y-97850000D03*
X136015000Y-97850000D03*
%TD*%
D42*
%TO.C,R99*%
X169835000Y-66057500D03*
X169835000Y-67707500D03*
%TD*%
D29*
%TO.C,C45*%
X199960000Y-70835000D03*
X201860000Y-70835000D03*
%TD*%
D26*
%TO.C,D2*%
X232482500Y-87010000D03*
X234357500Y-87010000D03*
%TD*%
D29*
%TO.C,C44*%
X199960000Y-67825000D03*
X201860000Y-67825000D03*
%TD*%
D27*
%TO.C,R2*%
X198045000Y-102835000D03*
X199695000Y-102835000D03*
%TD*%
D42*
%TO.C,R101*%
X164815000Y-66057500D03*
X164815000Y-67707500D03*
%TD*%
D48*
%TO.C,D30*%
X219470000Y-115390000D03*
X222270000Y-115390000D03*
%TD*%
D32*
%TO.C,C52*%
X210350000Y-84755000D03*
X211900000Y-84755000D03*
%TD*%
D29*
%TO.C,C43*%
X199960000Y-64815000D03*
X201860000Y-64815000D03*
%TD*%
%TO.C,C7*%
X202150000Y-104585000D03*
X204050000Y-104585000D03*
%TD*%
D33*
%TO.C,RN7*%
X218955000Y-86175000D03*
D34*
X218955000Y-86975000D03*
X218955000Y-87775000D03*
D33*
X218955000Y-88575000D03*
X220755000Y-88575000D03*
D34*
X220755000Y-87775000D03*
X220755000Y-86975000D03*
D33*
X220755000Y-86175000D03*
%TD*%
D29*
%TO.C,C8*%
X202150000Y-107595000D03*
X204050000Y-107595000D03*
%TD*%
D26*
%TO.C,D26*%
X178182500Y-80060000D03*
X180057500Y-80060000D03*
%TD*%
D49*
%TO.C,U14*%
X197785000Y-83630000D03*
X197785000Y-84900000D03*
X197785000Y-86170000D03*
X197785000Y-87440000D03*
X203035000Y-87440000D03*
X203035000Y-86170000D03*
X203035000Y-84900000D03*
X203035000Y-83630000D03*
%TD*%
D50*
%TO.C,U15*%
X197760000Y-76860000D03*
X197760000Y-78130000D03*
X197760000Y-79400000D03*
X197760000Y-80670000D03*
X204960000Y-80670000D03*
X204960000Y-79400000D03*
X204960000Y-78130000D03*
X204960000Y-76860000D03*
%TD*%
D51*
%TO.C,J9*%
X129540000Y-129960000D03*
D52*
X127000000Y-129960000D03*
D51*
X124460000Y-129960000D03*
X129540000Y-133135000D03*
X124460000Y-133135000D03*
D52*
X128016000Y-135040000D03*
X125984000Y-135040000D03*
D53*
X126365000Y-131230000D03*
X127635000Y-131230000D03*
X126365000Y-132500000D03*
X127635000Y-132500000D03*
X126365000Y-133770000D03*
X127635000Y-133770000D03*
%TD*%
D29*
%TO.C,C40*%
X195510000Y-70835000D03*
X197410000Y-70835000D03*
%TD*%
D21*
%TO.C,U20*%
X142595000Y-102800000D03*
X143865000Y-102800000D03*
X145135000Y-102800000D03*
X146405000Y-102800000D03*
X146405000Y-97850000D03*
X145135000Y-97850000D03*
X143865000Y-97850000D03*
X142595000Y-97850000D03*
%TD*%
D23*
%TO.C,D8*%
X236945000Y-89825000D03*
X239445000Y-89825000D03*
%TD*%
D54*
%TO.C,Y1*%
X182450000Y-81805000D03*
X183850000Y-81805000D03*
%TD*%
D27*
%TO.C,R11*%
X198045000Y-110365000D03*
X199695000Y-110365000D03*
%TD*%
D23*
%TO.C,D3*%
X236945000Y-83925000D03*
X239445000Y-83925000D03*
%TD*%
D29*
%TO.C,C2*%
X202150000Y-98565000D03*
X204050000Y-98565000D03*
%TD*%
%TO.C,C37*%
X195510000Y-61805000D03*
X197410000Y-61805000D03*
%TD*%
D55*
%TO.C,U11*%
X93480000Y-83500000D03*
D56*
X91200000Y-89800000D03*
D55*
X88920000Y-83500000D03*
%TD*%
D27*
%TO.C,R43*%
X182505000Y-76615000D03*
X184155000Y-76615000D03*
%TD*%
D21*
%TO.C,U18*%
X99345000Y-80225000D03*
X100615000Y-80225000D03*
X101885000Y-80225000D03*
X103155000Y-80225000D03*
X103155000Y-75275000D03*
X101885000Y-75275000D03*
X100615000Y-75275000D03*
X99345000Y-75275000D03*
%TD*%
D29*
%TO.C,C31*%
X186610000Y-73845000D03*
X188510000Y-73845000D03*
%TD*%
D45*
%TO.C,R82*%
X108100000Y-72025000D03*
X108100000Y-70375000D03*
%TD*%
D27*
%TO.C,R55*%
X222300000Y-119770000D03*
X223950000Y-119770000D03*
%TD*%
%TO.C,R44*%
X182505000Y-79125000D03*
X184155000Y-79125000D03*
%TD*%
D57*
%TO.C,C69*%
X80875000Y-78225000D03*
X80875000Y-83625000D03*
%TD*%
D29*
%TO.C,C29*%
X186610000Y-67825000D03*
X188510000Y-67825000D03*
%TD*%
%TO.C,C38*%
X195510000Y-64815000D03*
X197410000Y-64815000D03*
%TD*%
%TO.C,C36*%
X191060000Y-73845000D03*
X192960000Y-73845000D03*
%TD*%
%TO.C,C1*%
X202150000Y-95555000D03*
X204050000Y-95555000D03*
%TD*%
D58*
%TO.C,U17*%
X204572500Y-66200000D03*
X204572500Y-67150000D03*
X204572500Y-68100000D03*
X206847500Y-68100000D03*
X206847500Y-67150000D03*
X206847500Y-66200000D03*
%TD*%
D59*
%TO.C,R7*%
X214027500Y-107725000D03*
X215852500Y-107725000D03*
%TD*%
D60*
%TO.C,U10*%
X189615000Y-136180000D03*
X190265000Y-136180000D03*
X190915000Y-136180000D03*
X191565000Y-136180000D03*
X191565000Y-137780000D03*
X190915000Y-137780000D03*
X190265000Y-137780000D03*
X189615000Y-137780000D03*
%TD*%
D27*
%TO.C,R9*%
X182505000Y-115995000D03*
X184155000Y-115995000D03*
%TD*%
D42*
%TO.C,R100*%
X167325000Y-66057500D03*
X167325000Y-67707500D03*
%TD*%
D61*
%TO.C,J8*%
X115282266Y-131520713D03*
D62*
X114482266Y-133270713D03*
X113682266Y-131520713D03*
X112882266Y-133270713D03*
X112082266Y-131520713D03*
D63*
X117332266Y-132395713D03*
X110032266Y-132395713D03*
%TD*%
D42*
%TO.C,R75*%
X115975000Y-63725000D03*
X115975000Y-65375000D03*
%TD*%
D32*
%TO.C,C48*%
X210350000Y-79735000D03*
X211900000Y-79735000D03*
%TD*%
D36*
%TO.C,RN6*%
X165855000Y-84612500D03*
D37*
X165055000Y-84612500D03*
X164255000Y-84612500D03*
D36*
X163455000Y-84612500D03*
X163455000Y-86412500D03*
D37*
X164255000Y-86412500D03*
X165055000Y-86412500D03*
D36*
X165855000Y-86412500D03*
%TD*%
D46*
%TO.C,D13*%
X202132500Y-110395000D03*
X203707500Y-110395000D03*
%TD*%
D26*
%TO.C,D22*%
X147600000Y-124800000D03*
X149475000Y-124800000D03*
%TD*%
D64*
%TO.C,U26*%
X220745000Y-104055000D03*
X220745000Y-104705000D03*
X220745000Y-105355000D03*
X222645000Y-105355000D03*
X222645000Y-104705000D03*
X222645000Y-104055000D03*
%TD*%
D26*
%TO.C,D12*%
X232482500Y-105250000D03*
X234357500Y-105250000D03*
%TD*%
D65*
%TO.C,C63*%
X116925000Y-79650000D03*
X115375000Y-79650000D03*
%TD*%
D66*
%TO.C,BT1*%
X180500000Y-27000000D03*
D67*
X183000000Y-27000000D03*
%TD*%
D64*
%TO.C,U25*%
X220745000Y-100130000D03*
X220745000Y-100780000D03*
X220745000Y-101430000D03*
X222645000Y-101430000D03*
X222645000Y-100780000D03*
X222645000Y-100130000D03*
%TD*%
D28*
%TO.C,C58*%
X111231997Y-66726965D03*
X111231997Y-67686965D03*
%TD*%
D27*
%TO.C,R37*%
X182505000Y-69085000D03*
X184155000Y-69085000D03*
%TD*%
D23*
%TO.C,D6*%
X236945000Y-86875000D03*
X239445000Y-86875000D03*
%TD*%
D42*
%TO.C,R106*%
X157285000Y-66057500D03*
X157285000Y-67707500D03*
%TD*%
D68*
%TO.C,U4*%
X122400000Y-92115000D03*
X122400000Y-89575000D03*
X122400000Y-87035000D03*
X122400000Y-84495000D03*
X122400000Y-81955000D03*
X122400000Y-79415000D03*
X122400000Y-76875000D03*
X122400000Y-74335000D03*
X97000000Y-92115000D03*
X97000000Y-89575000D03*
X97000000Y-87035000D03*
X97000000Y-84495000D03*
X97000000Y-81955000D03*
X97000000Y-79415000D03*
X97000000Y-76875000D03*
X97000000Y-74335000D03*
%TD*%
D64*
%TO.C,U9*%
X213900000Y-99325000D03*
X213900000Y-99975000D03*
X213900000Y-100625000D03*
X215800000Y-100625000D03*
X215800000Y-99975000D03*
X215800000Y-99325000D03*
%TD*%
D69*
%TO.C,D17*%
X89075000Y-72700000D03*
X93075000Y-72700000D03*
%TD*%
D64*
%TO.C,U7*%
X213900000Y-95400000D03*
X213900000Y-96050000D03*
X213900000Y-96700000D03*
X215800000Y-96700000D03*
X215800000Y-96050000D03*
X215800000Y-95400000D03*
%TD*%
D29*
%TO.C,C42*%
X199960000Y-61805000D03*
X201860000Y-61805000D03*
%TD*%
D27*
%TO.C,R8*%
X182505000Y-113485000D03*
X184155000Y-113485000D03*
%TD*%
D24*
%TO.C,TP1*%
X206850000Y-95575000D03*
%TD*%
D29*
%TO.C,C9*%
X219055000Y-77475000D03*
X220955000Y-77475000D03*
%TD*%
%TO.C,C50*%
X200285000Y-135815000D03*
X202185000Y-135815000D03*
%TD*%
D36*
%TO.C,RN8*%
X107482024Y-73596556D03*
D37*
X106682024Y-73596556D03*
X105882024Y-73596556D03*
D36*
X105082024Y-73596556D03*
X105082024Y-75396556D03*
D37*
X105882024Y-75396556D03*
X106682024Y-75396556D03*
D36*
X107482024Y-75396556D03*
%TD*%
D28*
%TO.C,C60*%
X110235736Y-66726965D03*
X110235736Y-67686965D03*
%TD*%
D27*
%TO.C,R4*%
X198045000Y-107855000D03*
X199695000Y-107855000D03*
%TD*%
D48*
%TO.C,D29*%
X219470000Y-112040000D03*
X222270000Y-112040000D03*
%TD*%
D29*
%TO.C,C47*%
X200285000Y-132805000D03*
X202185000Y-132805000D03*
%TD*%
D45*
%TO.C,R80*%
X105000000Y-72025000D03*
X105000000Y-70375000D03*
%TD*%
D70*
%TO.C,U21*%
X195740000Y-132660000D03*
X195740000Y-133460000D03*
X195740000Y-134260000D03*
X195740000Y-135060000D03*
X195740000Y-135860000D03*
X195740000Y-136660000D03*
D71*
X196740000Y-136660000D03*
D70*
X197740000Y-136660000D03*
X197740000Y-135860000D03*
X197740000Y-135060000D03*
X197740000Y-134260000D03*
X197740000Y-133460000D03*
X197740000Y-132660000D03*
D71*
X196740000Y-132660000D03*
%TD*%
D29*
%TO.C,C6*%
X186610000Y-61805000D03*
X188510000Y-61805000D03*
%TD*%
D72*
%TO.C,C68*%
X172345000Y-66107500D03*
X172345000Y-67657500D03*
%TD*%
D41*
%TO.C,U23*%
X102010736Y-64806965D03*
X102010736Y-65456965D03*
X102010736Y-66106965D03*
X102010736Y-66756965D03*
X102010736Y-67406965D03*
X102010736Y-68056965D03*
X102010736Y-68706965D03*
X107735736Y-68706965D03*
X107735736Y-68056965D03*
X107735736Y-67406965D03*
X107735736Y-66756965D03*
X107735736Y-66106965D03*
X107735736Y-65456965D03*
X107735736Y-64806965D03*
%TD*%
D73*
%TO.C,U13*%
X103847862Y-100330315D03*
X103494309Y-100683868D03*
X103140755Y-101037422D03*
X102787202Y-101390975D03*
X102433649Y-101744528D03*
X102080095Y-102098082D03*
X101726542Y-102451635D03*
X101372988Y-102805189D03*
X101019435Y-103158742D03*
X100665882Y-103512295D03*
X100312328Y-103865849D03*
X99958775Y-104219402D03*
X99605221Y-104572955D03*
X99251668Y-104926509D03*
X98898115Y-105280062D03*
X98544561Y-105633616D03*
X98191008Y-105987169D03*
X97837455Y-106340722D03*
X97483901Y-106694276D03*
X97130348Y-107047829D03*
X96776794Y-107401383D03*
X96423241Y-107754936D03*
X96069688Y-108108489D03*
X95716134Y-108462043D03*
X95362581Y-108815596D03*
D74*
X95362581Y-111184404D03*
X95716134Y-111537957D03*
X96069688Y-111891511D03*
X96423241Y-112245064D03*
X96776794Y-112598617D03*
X97130348Y-112952171D03*
X97483901Y-113305724D03*
X97837455Y-113659278D03*
X98191008Y-114012831D03*
X98544561Y-114366384D03*
X98898115Y-114719938D03*
X99251668Y-115073491D03*
X99605221Y-115427045D03*
X99958775Y-115780598D03*
X100312328Y-116134151D03*
X100665882Y-116487705D03*
X101019435Y-116841258D03*
X101372988Y-117194811D03*
X101726542Y-117548365D03*
X102080095Y-117901918D03*
X102433649Y-118255472D03*
X102787202Y-118609025D03*
X103140755Y-118962578D03*
X103494309Y-119316132D03*
X103847862Y-119669685D03*
D73*
X106216670Y-119669685D03*
X106570223Y-119316132D03*
X106923777Y-118962578D03*
X107277330Y-118609025D03*
X107630883Y-118255472D03*
X107984437Y-117901918D03*
X108337990Y-117548365D03*
X108691544Y-117194811D03*
X109045097Y-116841258D03*
X109398650Y-116487705D03*
X109752204Y-116134151D03*
X110105757Y-115780598D03*
X110459311Y-115427045D03*
X110812864Y-115073491D03*
X111166417Y-114719938D03*
X111519971Y-114366384D03*
X111873524Y-114012831D03*
X112227077Y-113659278D03*
X112580631Y-113305724D03*
X112934184Y-112952171D03*
X113287738Y-112598617D03*
X113641291Y-112245064D03*
X113994844Y-111891511D03*
X114348398Y-111537957D03*
X114701951Y-111184404D03*
D74*
X114701951Y-108815596D03*
X114348398Y-108462043D03*
X113994844Y-108108489D03*
X113641291Y-107754936D03*
X113287738Y-107401383D03*
X112934184Y-107047829D03*
X112580631Y-106694276D03*
X112227077Y-106340722D03*
X111873524Y-105987169D03*
X111519971Y-105633616D03*
X111166417Y-105280062D03*
X110812864Y-104926509D03*
X110459311Y-104572955D03*
X110105757Y-104219402D03*
X109752204Y-103865849D03*
X109398650Y-103512295D03*
X109045097Y-103158742D03*
X108691544Y-102805189D03*
X108337990Y-102451635D03*
X107984437Y-102098082D03*
X107630883Y-101744528D03*
X107277330Y-101390975D03*
X106923777Y-101037422D03*
X106570223Y-100683868D03*
X106216670Y-100330315D03*
%TD*%
D29*
%TO.C,C14*%
X219055000Y-80485000D03*
X220955000Y-80485000D03*
%TD*%
D27*
%TO.C,R56*%
X222300000Y-122280000D03*
X223950000Y-122280000D03*
%TD*%
%TO.C,R1*%
X198045000Y-100325000D03*
X199695000Y-100325000D03*
%TD*%
D42*
%TO.C,R108*%
X154775000Y-66057500D03*
X154775000Y-67707500D03*
%TD*%
D75*
%TO.C,U6*%
X127200000Y-79600000D03*
X128470000Y-79600000D03*
X129740000Y-79600000D03*
X131010000Y-79600000D03*
X131010000Y-74350000D03*
X129740000Y-74350000D03*
X128470000Y-74350000D03*
X127200000Y-74350000D03*
%TD*%
D76*
%TO.C,J16*%
X98032266Y-126395713D03*
X99132266Y-126795713D03*
X100232266Y-126395713D03*
X101332266Y-126195713D03*
X102432266Y-126395713D03*
X103532266Y-126195713D03*
X104632266Y-126395713D03*
X105732266Y-126395713D03*
D77*
X104922266Y-137255713D03*
X99222266Y-137255713D03*
D78*
X106522266Y-124105713D03*
X93372266Y-123105713D03*
D79*
X103532266Y-137455713D03*
%TD*%
D27*
%TO.C,R6*%
X182505000Y-110975000D03*
X184155000Y-110975000D03*
%TD*%
%TO.C,R57*%
X222300000Y-124790000D03*
X223950000Y-124790000D03*
%TD*%
D80*
%TO.C,Y2*%
X204660000Y-63375000D03*
X206860000Y-63375000D03*
X206860000Y-61675000D03*
X204660000Y-61675000D03*
%TD*%
D81*
%TO.C,R31*%
X197527500Y-90405000D03*
X200452500Y-90405000D03*
%TD*%
D42*
%TO.C,R16*%
X114425000Y-63725000D03*
X114425000Y-65375000D03*
%TD*%
D82*
%TO.C,C10*%
X129000000Y-93100000D03*
X129000000Y-87700000D03*
%TD*%
D83*
%TO.C,J1*%
X88256857Y-58312709D03*
D84*
X92356857Y-62162709D03*
X134956857Y-62162709D03*
D83*
X139056857Y-58312709D03*
D85*
X98806857Y-53562709D03*
X98806857Y-56062709D03*
X98806857Y-58562709D03*
X98806857Y-61062709D03*
X102506857Y-53562709D03*
X102506857Y-56062709D03*
X102506857Y-58562709D03*
X102506857Y-61062709D03*
X106006857Y-53562709D03*
X106006857Y-56062709D03*
X106006857Y-58562709D03*
X106006857Y-61062709D03*
X108506857Y-53562709D03*
X108506857Y-56062709D03*
X108506857Y-58562709D03*
X108506857Y-61062709D03*
X111006857Y-53562709D03*
X111006857Y-56062709D03*
X111006857Y-58562709D03*
X111006857Y-61062709D03*
X113506857Y-53562709D03*
X113506857Y-56062709D03*
X113506857Y-58562709D03*
X113506857Y-61062709D03*
X116006857Y-53562709D03*
X116006857Y-56062709D03*
X116006857Y-58562709D03*
X116006857Y-61062709D03*
X118506857Y-53562709D03*
X118506857Y-56062709D03*
X118506857Y-58562709D03*
X118506857Y-61062709D03*
X121006857Y-53562709D03*
X121006857Y-56062709D03*
X121006857Y-58562709D03*
X121006857Y-61062709D03*
X123506857Y-53562709D03*
X123506857Y-56062709D03*
X123506857Y-58562709D03*
X123506857Y-61062709D03*
X126006857Y-53562709D03*
X126006857Y-56062709D03*
X126006857Y-58562709D03*
X126006857Y-61062709D03*
X128506857Y-53562709D03*
X128506857Y-56062709D03*
X128506857Y-58562709D03*
X128506857Y-61062709D03*
%TD*%
D24*
%TO.C,TP4*%
X206850000Y-98625000D03*
%TD*%
D26*
%TO.C,D5*%
X232482500Y-93090000D03*
X234357500Y-93090000D03*
%TD*%
D36*
%TO.C,RN1*%
X141825000Y-75575000D03*
D37*
X141025000Y-75575000D03*
X140225000Y-75575000D03*
D36*
X139425000Y-75575000D03*
X139425000Y-77375000D03*
D37*
X140225000Y-77375000D03*
X141025000Y-77375000D03*
D36*
X141825000Y-77375000D03*
%TD*%
D33*
%TO.C,RN3*%
X178050000Y-82755000D03*
D34*
X178050000Y-83555000D03*
X178050000Y-84355000D03*
D33*
X178050000Y-85155000D03*
X179850000Y-85155000D03*
D34*
X179850000Y-84355000D03*
X179850000Y-83555000D03*
D33*
X179850000Y-82755000D03*
%TD*%
D28*
%TO.C,C25*%
X112210074Y-66726965D03*
X112210074Y-67686965D03*
%TD*%
D86*
%TO.C,J14*%
X215455000Y-78295000D03*
D87*
X215455000Y-80835000D03*
X215455000Y-83375000D03*
X215455000Y-85915000D03*
%TD*%
D32*
%TO.C,C51*%
X210350000Y-82245000D03*
X211900000Y-82245000D03*
%TD*%
D29*
%TO.C,C41*%
X195510000Y-73845000D03*
X197410000Y-73845000D03*
%TD*%
D32*
%TO.C,C15*%
X210350000Y-77225000D03*
X211900000Y-77225000D03*
%TD*%
D42*
%TO.C,R104*%
X159795000Y-66057500D03*
X159795000Y-67707500D03*
%TD*%
D26*
%TO.C,D10*%
X232482500Y-102210000D03*
X234357500Y-102210000D03*
%TD*%
D88*
%TO.C,SW1*%
X128325000Y-110525000D03*
X136125000Y-110525000D03*
%TD*%
G36*
X147104327Y-62450266D02*
G01*
X147146057Y-62460679D01*
X148033176Y-62852661D01*
X148064431Y-62872400D01*
X148892991Y-63585304D01*
X148912712Y-63606706D01*
X149404797Y-64283322D01*
X149417299Y-64304631D01*
X149784068Y-65099299D01*
X149795112Y-65140304D01*
X149886072Y-66107662D01*
X149886528Y-66124395D01*
X149861859Y-66753451D01*
X149859400Y-66773764D01*
X149637342Y-67859384D01*
X149621099Y-67900346D01*
X149105981Y-68734347D01*
X149090999Y-68753994D01*
X148427827Y-69466289D01*
X148395345Y-69491369D01*
X147594456Y-69922617D01*
X147581514Y-69928666D01*
X146971673Y-70172603D01*
X146933259Y-70181336D01*
X146014253Y-70242603D01*
X145987181Y-70241488D01*
X144754876Y-70056642D01*
X144709561Y-70040568D01*
X143739547Y-69468507D01*
X143725626Y-69458987D01*
X143281557Y-69109481D01*
X143261095Y-69089181D01*
X142768724Y-68473718D01*
X142757041Y-68456326D01*
X142405848Y-67825926D01*
X142394768Y-67799221D01*
X142149614Y-66941181D01*
X142144766Y-66906566D01*
X142144766Y-66321406D01*
X144222108Y-66321406D01*
X144241404Y-66578894D01*
X144242807Y-66588200D01*
X144300262Y-66839927D01*
X144303036Y-66848921D01*
X144397367Y-67089273D01*
X144401451Y-67097752D01*
X144530554Y-67321366D01*
X144535845Y-67329127D01*
X144696845Y-67531014D01*
X144703233Y-67537898D01*
X144892511Y-67713523D01*
X144899875Y-67719396D01*
X145113210Y-67864845D01*
X145121355Y-67869547D01*
X145353991Y-67981579D01*
X145362747Y-67985015D01*
X145609481Y-68061122D01*
X145618647Y-68063214D01*
X145873977Y-68101700D01*
X145883353Y-68102402D01*
X146141559Y-68102402D01*
X146150935Y-68101700D01*
X146406265Y-68063214D01*
X146415431Y-68061122D01*
X146662165Y-67985015D01*
X146670921Y-67981579D01*
X146903557Y-67869547D01*
X146911702Y-67864845D01*
X147125037Y-67719396D01*
X147132401Y-67713523D01*
X147321679Y-67537898D01*
X147328067Y-67531014D01*
X147489067Y-67329127D01*
X147494358Y-67321366D01*
X147623461Y-67097752D01*
X147627545Y-67089273D01*
X147721876Y-66848921D01*
X147724650Y-66839927D01*
X147782105Y-66588200D01*
X147783508Y-66578894D01*
X147802804Y-66321406D01*
X147802804Y-66312012D01*
X147783508Y-66054524D01*
X147782105Y-66045218D01*
X147724650Y-65793491D01*
X147721876Y-65784497D01*
X147627545Y-65544145D01*
X147623461Y-65535666D01*
X147494358Y-65312052D01*
X147489067Y-65304291D01*
X147328067Y-65102404D01*
X147321679Y-65095520D01*
X147132401Y-64919895D01*
X147125037Y-64914022D01*
X146911702Y-64768573D01*
X146903557Y-64763871D01*
X146670921Y-64651839D01*
X146662165Y-64648403D01*
X146415431Y-64572296D01*
X146406265Y-64570204D01*
X146150935Y-64531718D01*
X146141559Y-64531016D01*
X145883353Y-64531016D01*
X145873977Y-64531718D01*
X145618647Y-64570204D01*
X145609481Y-64572296D01*
X145362747Y-64648403D01*
X145353991Y-64651839D01*
X145121355Y-64763871D01*
X145113210Y-64768573D01*
X144899875Y-64914022D01*
X144892511Y-64919895D01*
X144703233Y-65095520D01*
X144696845Y-65102404D01*
X144535845Y-65304291D01*
X144530554Y-65312052D01*
X144401451Y-65535666D01*
X144397367Y-65544145D01*
X144303036Y-65784497D01*
X144300262Y-65793491D01*
X144242807Y-66045218D01*
X144241404Y-66054524D01*
X144222108Y-66312012D01*
X144222108Y-66321406D01*
X142144766Y-66321406D01*
X142144766Y-65923724D01*
X142148528Y-65893165D01*
X142457068Y-64659005D01*
X142474043Y-64620312D01*
X143086299Y-63689683D01*
X143112850Y-63660546D01*
X143788092Y-63120352D01*
X143804290Y-63109342D01*
X144668900Y-62615279D01*
X144702555Y-62602027D01*
X145745472Y-62356635D01*
X145783526Y-62353622D01*
X147104327Y-62450266D01*
G37*
G36*
X141516327Y-124807266D02*
G01*
X141558057Y-124817679D01*
X142445176Y-125209661D01*
X142476431Y-125229400D01*
X143304991Y-125942304D01*
X143324712Y-125963706D01*
X143816797Y-126640322D01*
X143829299Y-126661631D01*
X144199085Y-127462834D01*
X144208026Y-127489899D01*
X144409197Y-128454029D01*
X144411228Y-128492303D01*
X144350384Y-129100741D01*
X144348092Y-129115156D01*
X144117899Y-130166350D01*
X144101833Y-130205906D01*
X143531709Y-131123264D01*
X143514079Y-131145558D01*
X142838839Y-131825241D01*
X142809188Y-131847377D01*
X142006455Y-132279617D01*
X141993514Y-132285666D01*
X141383673Y-132529603D01*
X141345259Y-132538336D01*
X140426253Y-132599603D01*
X140399181Y-132598488D01*
X139166876Y-132413642D01*
X139121561Y-132397568D01*
X138151547Y-131825507D01*
X138137626Y-131815987D01*
X137693557Y-131466481D01*
X137673095Y-131446181D01*
X137180724Y-130830718D01*
X137169041Y-130813326D01*
X136817848Y-130182926D01*
X136806768Y-130156221D01*
X136561614Y-129298181D01*
X136556766Y-129263566D01*
X136556766Y-128589506D01*
X138723009Y-128589506D01*
X138742305Y-128846994D01*
X138743708Y-128856300D01*
X138801163Y-129108027D01*
X138803937Y-129117021D01*
X138898268Y-129357373D01*
X138902352Y-129365852D01*
X139031455Y-129589466D01*
X139036746Y-129597227D01*
X139197746Y-129799114D01*
X139204134Y-129805998D01*
X139393412Y-129981623D01*
X139400776Y-129987496D01*
X139614111Y-130132945D01*
X139622256Y-130137647D01*
X139854892Y-130249679D01*
X139863648Y-130253115D01*
X140110382Y-130329222D01*
X140119548Y-130331314D01*
X140374878Y-130369800D01*
X140384254Y-130370502D01*
X140642460Y-130370502D01*
X140651836Y-130369800D01*
X140907166Y-130331314D01*
X140916332Y-130329222D01*
X141163066Y-130253115D01*
X141171822Y-130249679D01*
X141404458Y-130137647D01*
X141412603Y-130132945D01*
X141625938Y-129987496D01*
X141633302Y-129981623D01*
X141822580Y-129805998D01*
X141828968Y-129799114D01*
X141989968Y-129597227D01*
X141995259Y-129589466D01*
X142124362Y-129365852D01*
X142128446Y-129357373D01*
X142222777Y-129117021D01*
X142225551Y-129108027D01*
X142283006Y-128856300D01*
X142284409Y-128846994D01*
X142303705Y-128589506D01*
X142303705Y-128580112D01*
X142284409Y-128322624D01*
X142283006Y-128313318D01*
X142225551Y-128061591D01*
X142222777Y-128052597D01*
X142128446Y-127812245D01*
X142124362Y-127803766D01*
X141995259Y-127580152D01*
X141989968Y-127572391D01*
X141828968Y-127370504D01*
X141822580Y-127363620D01*
X141633302Y-127187995D01*
X141625938Y-127182122D01*
X141412603Y-127036673D01*
X141404458Y-127031971D01*
X141171822Y-126919939D01*
X141163066Y-126916503D01*
X140916332Y-126840396D01*
X140907166Y-126838304D01*
X140651836Y-126799818D01*
X140642460Y-126799116D01*
X140384254Y-126799116D01*
X140374878Y-126799818D01*
X140119548Y-126838304D01*
X140110382Y-126840396D01*
X139863648Y-126916503D01*
X139854892Y-126919939D01*
X139622256Y-127031971D01*
X139614111Y-127036673D01*
X139400776Y-127182122D01*
X139393412Y-127187995D01*
X139204134Y-127363620D01*
X139197746Y-127370504D01*
X139036746Y-127572391D01*
X139031455Y-127580152D01*
X138902352Y-127803766D01*
X138898268Y-127812245D01*
X138803937Y-128052597D01*
X138801163Y-128061591D01*
X138743708Y-128313318D01*
X138742305Y-128322624D01*
X138723009Y-128580112D01*
X138723009Y-128589506D01*
X136556766Y-128589506D01*
X136556766Y-128280724D01*
X136560528Y-128250165D01*
X136869068Y-127016005D01*
X136886043Y-126977312D01*
X137498299Y-126046683D01*
X137524850Y-126017546D01*
X138200092Y-125477352D01*
X138216290Y-125466342D01*
X139080900Y-124972279D01*
X139114555Y-124959027D01*
X140157472Y-124713635D01*
X140195526Y-124710622D01*
X141516327Y-124807266D01*
G37*
G36*
X87922327Y-124743766D02*
G01*
X87964057Y-124754179D01*
X88851176Y-125146161D01*
X88882431Y-125165900D01*
X89710991Y-125878804D01*
X89730712Y-125900206D01*
X90222797Y-126576822D01*
X90235299Y-126598131D01*
X90605085Y-127399334D01*
X90614026Y-127426399D01*
X90815197Y-128390529D01*
X90817228Y-128428803D01*
X90756384Y-129037241D01*
X90754092Y-129051656D01*
X90523899Y-130102850D01*
X90507833Y-130142406D01*
X89937709Y-131059764D01*
X89920079Y-131082058D01*
X89244839Y-131761741D01*
X89215188Y-131783877D01*
X88412455Y-132216117D01*
X88399514Y-132222166D01*
X87789673Y-132466103D01*
X87751259Y-132474836D01*
X86832253Y-132536103D01*
X86805181Y-132534988D01*
X85572876Y-132350142D01*
X85527561Y-132334068D01*
X84557547Y-131762007D01*
X84543626Y-131752487D01*
X84099557Y-131402981D01*
X84079095Y-131382681D01*
X83586724Y-130767218D01*
X83575041Y-130749826D01*
X83223848Y-130119426D01*
X83212768Y-130092721D01*
X82967614Y-129234681D01*
X82962766Y-129200066D01*
X82962766Y-128589506D01*
X85052809Y-128589506D01*
X85072105Y-128846994D01*
X85073508Y-128856300D01*
X85130963Y-129108027D01*
X85133737Y-129117021D01*
X85228068Y-129357373D01*
X85232152Y-129365852D01*
X85361255Y-129589466D01*
X85366546Y-129597227D01*
X85527546Y-129799114D01*
X85533934Y-129805998D01*
X85723212Y-129981623D01*
X85730576Y-129987496D01*
X85943911Y-130132945D01*
X85952056Y-130137647D01*
X86184692Y-130249679D01*
X86193448Y-130253115D01*
X86440182Y-130329222D01*
X86449348Y-130331314D01*
X86704678Y-130369800D01*
X86714054Y-130370502D01*
X86972260Y-130370502D01*
X86981636Y-130369800D01*
X87236966Y-130331314D01*
X87246132Y-130329222D01*
X87492866Y-130253115D01*
X87501622Y-130249679D01*
X87734258Y-130137647D01*
X87742403Y-130132945D01*
X87955738Y-129987496D01*
X87963102Y-129981623D01*
X88152380Y-129805998D01*
X88158768Y-129799114D01*
X88319768Y-129597227D01*
X88325059Y-129589466D01*
X88454162Y-129365852D01*
X88458246Y-129357373D01*
X88552577Y-129117021D01*
X88555351Y-129108027D01*
X88612806Y-128856300D01*
X88614209Y-128846994D01*
X88633505Y-128589506D01*
X88633505Y-128580112D01*
X88614209Y-128322624D01*
X88612806Y-128313318D01*
X88555351Y-128061591D01*
X88552577Y-128052597D01*
X88458246Y-127812245D01*
X88454162Y-127803766D01*
X88325059Y-127580152D01*
X88319768Y-127572391D01*
X88158768Y-127370504D01*
X88152380Y-127363620D01*
X87963102Y-127187995D01*
X87955738Y-127182122D01*
X87742403Y-127036673D01*
X87734258Y-127031971D01*
X87501622Y-126919939D01*
X87492866Y-126916503D01*
X87246132Y-126840396D01*
X87236966Y-126838304D01*
X86981636Y-126799818D01*
X86972260Y-126799116D01*
X86714054Y-126799116D01*
X86704678Y-126799818D01*
X86449348Y-126838304D01*
X86440182Y-126840396D01*
X86193448Y-126916503D01*
X86184692Y-126919939D01*
X85952056Y-127031971D01*
X85943911Y-127036673D01*
X85730576Y-127182122D01*
X85723212Y-127187995D01*
X85533934Y-127363620D01*
X85527546Y-127370504D01*
X85366546Y-127572391D01*
X85361255Y-127580152D01*
X85232152Y-127803766D01*
X85228068Y-127812245D01*
X85133737Y-128052597D01*
X85130963Y-128061591D01*
X85073508Y-128313318D01*
X85072105Y-128322624D01*
X85052809Y-128580112D01*
X85052809Y-128589506D01*
X82962766Y-128589506D01*
X82962766Y-128217224D01*
X82966528Y-128186665D01*
X83275068Y-126952505D01*
X83292043Y-126913812D01*
X83904299Y-125983183D01*
X83930850Y-125954046D01*
X84606092Y-125413852D01*
X84622290Y-125402842D01*
X85486900Y-124908779D01*
X85520555Y-124895527D01*
X86563472Y-124650135D01*
X86601526Y-124647122D01*
X87922327Y-124743766D01*
G37*
G36*
X82396598Y-62425358D02*
G01*
X82438328Y-62435771D01*
X82902030Y-62640662D01*
X82945992Y-62673013D01*
X82990884Y-62724397D01*
X82999028Y-62732184D01*
X83168197Y-62867092D01*
X83177600Y-62873298D01*
X83368135Y-62975829D01*
X83378493Y-62980256D01*
X83567344Y-63041618D01*
X83610588Y-63065939D01*
X84185262Y-63560396D01*
X84204983Y-63581798D01*
X84697068Y-64258414D01*
X84709570Y-64279723D01*
X85079356Y-65080926D01*
X85088297Y-65107991D01*
X85289468Y-66072121D01*
X85291499Y-66110395D01*
X85230655Y-66718833D01*
X85228363Y-66733248D01*
X84998170Y-67784442D01*
X84982104Y-67823998D01*
X84411980Y-68741356D01*
X84394350Y-68763650D01*
X83719110Y-69443333D01*
X83689459Y-69465469D01*
X82886726Y-69897709D01*
X82873785Y-69903758D01*
X82263944Y-70147695D01*
X82225530Y-70156428D01*
X81306524Y-70217695D01*
X81279452Y-70216580D01*
X80047147Y-70031734D01*
X80001832Y-70015660D01*
X79031818Y-69443599D01*
X79017897Y-69434079D01*
X78577290Y-69087299D01*
X78551653Y-69060053D01*
X78161880Y-68497580D01*
X78153529Y-68483701D01*
X77782610Y-67766591D01*
X77772720Y-67740946D01*
X77551433Y-66904973D01*
X77547279Y-66875961D01*
X77533060Y-66321406D01*
X79553710Y-66321406D01*
X79573006Y-66578894D01*
X79574409Y-66588200D01*
X79631864Y-66839927D01*
X79634638Y-66848921D01*
X79728969Y-67089273D01*
X79733053Y-67097752D01*
X79862156Y-67321366D01*
X79867447Y-67329127D01*
X80028447Y-67531014D01*
X80034835Y-67537898D01*
X80224113Y-67713523D01*
X80231477Y-67719396D01*
X80444812Y-67864845D01*
X80452957Y-67869547D01*
X80685593Y-67981579D01*
X80694349Y-67985015D01*
X80941083Y-68061122D01*
X80950249Y-68063214D01*
X81205579Y-68101700D01*
X81214955Y-68102402D01*
X81473161Y-68102402D01*
X81482537Y-68101700D01*
X81737867Y-68063214D01*
X81747033Y-68061122D01*
X81993767Y-67985015D01*
X82002523Y-67981579D01*
X82235159Y-67869547D01*
X82243304Y-67864845D01*
X82456639Y-67719396D01*
X82464003Y-67713523D01*
X82653281Y-67537898D01*
X82659669Y-67531014D01*
X82820669Y-67329127D01*
X82825960Y-67321366D01*
X82955063Y-67097752D01*
X82959147Y-67089273D01*
X83053478Y-66848921D01*
X83056252Y-66839927D01*
X83113707Y-66588200D01*
X83115110Y-66578894D01*
X83134406Y-66321406D01*
X83134406Y-66312012D01*
X83115110Y-66054524D01*
X83113707Y-66045218D01*
X83056252Y-65793491D01*
X83053478Y-65784497D01*
X82959147Y-65544145D01*
X82955063Y-65535666D01*
X82825960Y-65312052D01*
X82820669Y-65304291D01*
X82659669Y-65102404D01*
X82653281Y-65095520D01*
X82464003Y-64919895D01*
X82456639Y-64914022D01*
X82243304Y-64768573D01*
X82235159Y-64763871D01*
X82002523Y-64651839D01*
X81993767Y-64648403D01*
X81747033Y-64572296D01*
X81737867Y-64570204D01*
X81482537Y-64531718D01*
X81473161Y-64531016D01*
X81214955Y-64531016D01*
X81205579Y-64531718D01*
X80950249Y-64570204D01*
X80941083Y-64572296D01*
X80694349Y-64648403D01*
X80685593Y-64651839D01*
X80452957Y-64763871D01*
X80444812Y-64768573D01*
X80231477Y-64914022D01*
X80224113Y-64919895D01*
X80034835Y-65095520D01*
X80028447Y-65102404D01*
X79867447Y-65304291D01*
X79862156Y-65312052D01*
X79733053Y-65535666D01*
X79728969Y-65544145D01*
X79634638Y-65784497D01*
X79631864Y-65793491D01*
X79574409Y-66045218D01*
X79573006Y-66054524D01*
X79553710Y-66312012D01*
X79553710Y-66321406D01*
X77533060Y-66321406D01*
X77522705Y-65917563D01*
X77526574Y-65883188D01*
X77834536Y-64675975D01*
X77851363Y-64637868D01*
X78464293Y-63706214D01*
X78489457Y-63678203D01*
X79117773Y-63160766D01*
X79127482Y-63153524D01*
X79957930Y-62594175D01*
X79999461Y-62576029D01*
X81037743Y-62331727D01*
X81075797Y-62328714D01*
X82396598Y-62425358D01*
G37*
%LPD*%
M02*
