M48
; DRILL file {KiCad 8.99.0-unknown-1.20241217gite6b7397.fc40} date 2024-12-24T22:56:10-0300
; FORMAT={-:-/ absolute / inch / decimal}
; #@! TF.CreationDate,2024-12-24T22:56:10-03:00
; #@! TF.GenerationSoftware,Kicad,Pcbnew,8.99.0-unknown-1.20241217gite6b7397.fc40
; #@! TF.FileFunction,Plated,1,4,PTH
FMAT,2
INCH
; #@! TA.AperFunction,Plated,PTH,ViaDrill
T1C0.0118
; #@! TA.AperFunction,Plated,PTH,ViaDrill
T2C0.0171
; #@! TA.AperFunction,Plated,PTH,ViaDrill
T3C0.0197
; #@! TA.AperFunction,Plated,PTH,ComponentDrill
T4C0.0276
; #@! TA.AperFunction,Plated,PTH,ComponentDrill
T5C0.0300
; #@! TA.AperFunction,Plated,PTH,ComponentDrill
T6C0.0315
; #@! TA.AperFunction,Plated,PTH,ComponentDrill
T7C0.0394
; #@! TA.AperFunction,Plated,PTH,ComponentDrill
T8C0.0453
; #@! TA.AperFunction,Plated,PTH,ViaDrill
T9C0.0467
; #@! TA.AperFunction,Plated,PTH,ComponentDrill
T10C0.0866
; #@! TA.AperFunction,Plated,PTH,ComponentDrill
T11C0.1575
%
G90
G05
T1
X3.2972Y-4.751
X3.3346Y-4.5512
X3.4173Y-4.5522
X3.497Y-4.5502
X3.5Y-3.2185
X3.5698Y-4.2523
X3.5886Y-4.5581
X3.5999Y-4.0795
X3.6014Y-4.5304
X3.6526Y-4.2392
X3.6879Y-4.3686
X3.6978Y-4.4183
X3.6998Y-3.7008
X3.7106Y-4.1951
X3.7441Y-4.4587
X3.7598Y-4.4843
X3.81Y-4.1457
X3.812Y-4.5955
X3.8293Y-4.1087
X3.8445Y-4.311
X3.8539Y-4.0815
X3.8632Y-4.7131
X3.8822Y-4.2367
X3.9055Y-4.6476
X3.907Y-4.6913
X3.9082Y-3.9842
X3.9157Y-3.9555
X3.919Y-4.356
X3.9209Y-3.3074
X3.9241Y-4.2258
X3.9252Y-3.2293
X3.9359Y-4.6694
X3.9449Y-4.376
X3.9587Y-5.06
X3.9612Y-2.8923
X3.9669Y-3.9692
X3.9689Y-4.9303
X3.9754Y-3.2254
X3.9783Y-3.0846
X3.9793Y-3.0425
X3.9902Y-3.337
X3.9921Y-5.0541
X3.9944Y-4.1241
X4.0045Y-4.4802
X4.01Y-2.5237
X4.0167Y-3.2224
X4.0203Y-3.0446
X4.0228Y-2.8
X4.0331Y-4.4888
X4.0354Y-5.0581
X4.0373Y-2.5352
X4.0502Y-3.2254
X4.0612Y-2.8955
X4.063Y-4.4911
X4.0651Y-2.7022
X4.0716Y-2.626
X4.0716Y-2.6638
X4.0716Y-2.7377
X4.0797Y-5.061
X4.0809Y-4.5947
X4.0892Y-4.5049
X4.0906Y-3.3031
X4.1101Y-4.6471
X4.1101Y-4.926
X4.1161Y-4.4089
X4.1173Y-2.1594
X4.1386Y-4.176
X4.1417Y-4.5178
X4.1545Y-4.3829
X4.1564Y-2.6789
X4.1597Y-4.155
X4.1634Y-2.9764
X4.1713Y-4.5187
X4.1742Y-2.7146
X4.1752Y-4.4307
X4.1838Y-4.1308
X4.1959Y-4.6043
X4.2037Y-4.5226
X4.2053Y-2.6535
X4.2101Y-4.0759
X4.2165Y-4.582
X4.2185Y-4.1043
X4.2224Y-3.9035
X4.2364Y-4.5591
X4.2382Y-2.7268
X4.2512Y-4.5335
X4.252Y-3.1811
X4.2756Y-2.8366
X4.2803Y-4.5278
X4.2815Y-2.7598
X4.3016Y-4.6913
X4.3022Y-4.2116
X4.3037Y-2.8969
X4.3055Y-2.5352
X4.3082Y-4.5178
X4.311Y-4.1791
X4.3216Y-2.8234
X4.3268Y-4.6516
X4.3499Y-2.7604
X4.3543Y-3.125
X4.3611Y-4.68
X4.3626Y-4.7096
X4.3779Y-4.3898
X4.3831Y-3.811
X4.3831Y-3.8504
X4.3907Y-2.6447
X4.4016Y-4.3661
X4.4063Y-2.8232
X4.4094Y-2.7598
X4.4173Y-4.0226
X4.4425Y-4.337
X4.4492Y-4.0953
X4.4596Y-2.9646
X4.4713Y-2.6532
X4.4776Y-2.7323
X4.5142Y-2.8325
X4.5157Y-2.5906
X4.5531Y-3.248
X4.5665Y-4.2358
X4.5709Y-2.9469
X4.5744Y-2.8329
X4.5768Y-2.5925
X4.5768Y-3.2913
X4.5863Y-2.7026
X4.5965Y-4.4301
X4.613Y-2.6004
X4.6339Y-3.8138
X4.6409Y-4.0146
X4.6811Y-3.2717
X4.7341Y-3.1201
X4.7419Y-2.55
X4.7441Y-2.6122
X4.7587Y-4.1291
X4.7878Y-3.7772
X4.7992Y-2.5492
X4.8042Y-2.5885
X4.8189Y-2.8321
X4.8245Y-4.7444
X4.8559Y-4.6961
X4.8754Y-2.8431
X4.8799Y-2.687
X4.8886Y-3.8882
X4.9035Y-3.9594
X4.9059Y-4.3811
X4.9173Y-3.124
X4.9283Y-4.4484
X4.9709Y-2.6575
X4.974Y-4.8484
X4.9799Y-4.2173
X5.0053Y-2.9421
X5.0181Y-4.4555
X5.0387Y-3.8154
X5.0583Y-3.1016
X5.0797Y-3.6152
X5.0862Y-3.1369
X5.1055Y-4.7488
X5.1094Y-3.8831
X5.1098Y-4.291
X5.1159Y-3.1689
X5.1299Y-4.7972
X5.1309Y-2.8449
X5.1374Y-3.1409
X5.147Y-3.1908
X5.1484Y-4.3386
X5.1555Y-4.2461
X5.1683Y-4.297
X5.1717Y-3.8185
X5.1969Y-2.622
X5.2169Y-2.8129
X5.2283Y-3.7533
X5.2421Y-3.2776
X5.2427Y-2.8915
X5.2427Y-2.8273
X5.2433Y-4.2736
X5.2436Y-2.9332
X5.3228Y-4.4331
X5.3543Y-3.7673
X5.3858Y-3.9778
X5.4331Y-3.7813
X5.4358Y-4.1677
X5.4693Y-2.5041
X5.4979Y-2.8709
X5.502Y-3.0492
X5.5051Y-4.3106
X5.5118Y-3.8031
X5.5306Y-3.1087
X5.5472Y-2.9272
X5.5659Y-3.6191
X5.5764Y-3.0843
X5.5827Y-2.8736
X5.5914Y-3.2661
X5.6164Y-3.2501
X5.6693Y-2.9311
X5.6693Y-2.9902
X5.6713Y-3.1122
X5.7766Y-4.1831
T2
X3.0626Y-3.5756
X3.8984Y-4.7465
X4.6161Y-3.1555
X4.6319Y-3.2067
X4.7444Y-2.6654
X5.0433Y-2.5236
X5.2028Y-2.4685
X5.3268Y-2.5591
X5.5004Y-2.6772
T3
X3.1516Y-4.9031
X3.1535Y-3.81
X3.7926Y-2.6732
X4.4196Y-2.0433
X4.4272Y-3.8953
X4.5117Y-4.7539
T4
X4.5059Y-4.9045
X4.5374Y-4.8356
X4.5689Y-4.9045
X4.6004Y-4.8356
X4.6319Y-4.9045
T5
X3.8189Y-2.9266
X3.8189Y-3.0266
X3.8189Y-3.1266
X3.8189Y-3.2266
X3.8189Y-3.3266
X3.8189Y-3.4266
X3.8189Y-3.5266
X3.8189Y-3.6266
X4.8189Y-2.9266
X4.8189Y-3.0266
X4.8189Y-3.1266
X4.8189Y-3.2266
X4.8189Y-3.3266
X4.8189Y-3.4266
X4.8189Y-3.5266
X4.8189Y-3.6266
T6
X5.3217Y-2.9398
X5.3217Y-3.0398
X5.3217Y-3.1398
X5.3217Y-3.2398
X5.3217Y-3.3398
X5.3217Y-3.4398
X5.3217Y-3.5398
X5.3217Y-3.6398
X5.8217Y-2.9398
X5.8217Y-3.0398
X5.8217Y-3.1398
X5.8217Y-3.2398
X5.8217Y-3.3398
X5.8217Y-3.4398
X5.8217Y-3.5398
X5.8217Y-3.6398
T7
X3.0915Y-4.2077
X3.0915Y-4.3077
X3.0915Y-4.4077
X3.0915Y-4.5077
X3.4409Y-3.7835
X3.5394Y-3.7835
T8
X3.89Y-2.1088
X3.89Y-2.2072
X3.89Y-2.3056
X3.89Y-2.404
X4.0357Y-2.1088
X4.0357Y-2.2072
X4.0357Y-2.3056
X4.0357Y-2.404
X4.1735Y-2.1088
X4.1735Y-2.2072
X4.1735Y-2.3056
X4.1735Y-2.404
X4.2719Y-2.1088
X4.2719Y-2.2072
X4.2719Y-2.3056
X4.2719Y-2.404
X4.3703Y-2.1088
X4.3703Y-2.2072
X4.3703Y-2.3056
X4.3703Y-2.404
X4.4688Y-2.1088
X4.4688Y-2.2072
X4.4688Y-2.3056
X4.4688Y-2.404
X4.5672Y-2.1088
X4.5672Y-2.2072
X4.5672Y-2.3056
X4.5672Y-2.404
X4.6656Y-2.1088
X4.6656Y-2.2072
X4.6656Y-2.3056
X4.6656Y-2.404
X4.764Y-2.1088
X4.764Y-2.2072
X4.764Y-2.3056
X4.764Y-2.404
X4.8625Y-2.1088
X4.8625Y-2.2072
X4.8625Y-2.3056
X4.8625Y-2.404
X4.9609Y-2.1088
X4.9609Y-2.2072
X4.9609Y-2.3056
X4.9609Y-2.404
X5.0593Y-2.1088
X5.0593Y-2.2072
X5.0593Y-2.3056
X5.0593Y-2.404
T9
X3.1701Y-3.2835
X3.312Y-3.5354
X3.3986Y-3.0778
X3.5906Y-3.5354
X4.0606Y-3.0066
T10
X3.6361Y-2.4474
X5.3133Y-2.4474
T11
X3.4747Y-2.2958
X5.4747Y-2.2958
T4
G00X4.4252Y-4.8445
M15
G01X4.4252Y-4.8957
M16
G05
G00X4.7126Y-4.8445
M15
G01X4.7126Y-4.8957
M16
G05
M30
