%TF.GenerationSoftware,KiCad,Pcbnew,8.0.0~rc2*%
%TF.CreationDate,2024-03-12T18:06:46-03:00*%
%TF.ProjectId,hw_v1,68775f76-312e-46b6-9963-61645f706362,rev?*%
%TF.SameCoordinates,Original*%
%TF.FileFunction,Profile,NP*%
%FSLAX46Y46*%
G04 Gerber Fmt 4.6, Leading zero omitted, Abs format (unit mm)*
G04 Created by KiCad (PCBNEW 8.0.0~rc2) date 2024-03-12 18:06:46*
%MOMM*%
%LPD*%
G01*
G04 APERTURE LIST*
%TA.AperFunction,Profile*%
%ADD10C,0.050000*%
%TD*%
G04 APERTURE END LIST*
D10*
X164471600Y-53321000D02*
G75*
G02*
X166471600Y-55321000I0J-2000000D01*
G01*
X159187600Y-128778000D02*
X159187600Y-127635000D01*
X51971600Y-151321000D02*
G75*
G02*
X49971600Y-149321000I0J2000000D01*
G01*
X52471600Y-58293000D02*
X49971600Y-58293000D01*
X166471600Y-128778000D02*
X159187600Y-128778000D01*
X49971600Y-55321000D02*
G75*
G02*
X51971600Y-53321000I2000000J0D01*
G01*
X157663600Y-126111000D02*
G75*
G02*
X159187600Y-127635000I0J-1524000D01*
G01*
X166471600Y-149321000D02*
X166471600Y-128778000D01*
X52471600Y-60325000D02*
X52471600Y-58293000D01*
X142677600Y-110490000D02*
X157663600Y-110490000D01*
X164471600Y-53321000D02*
X51971600Y-53321000D01*
X142677600Y-126111000D02*
X142677600Y-110490000D01*
X52471600Y-143669000D02*
X49971600Y-143669000D01*
X49971600Y-143669000D02*
X49967600Y-60325000D01*
X166471600Y-105283000D02*
X166471600Y-55321000D01*
X49967600Y-145669000D02*
X52471600Y-145669000D01*
X49967600Y-145669000D02*
X49971600Y-149321000D01*
X159187600Y-105283000D02*
X166471600Y-105283000D01*
X166471600Y-149321000D02*
G75*
G02*
X164471600Y-151321000I-2000000J0D01*
G01*
X142677600Y-126111000D02*
X157663600Y-126111000D01*
X49971600Y-58293000D02*
X49971600Y-55321000D01*
X49967600Y-60325000D02*
X52471600Y-60325000D01*
X159187600Y-108966000D02*
G75*
G02*
X157663600Y-110490000I-1524000J0D01*
G01*
X52471600Y-145669000D02*
X52471600Y-143669000D01*
X51971600Y-151321000D02*
X164471600Y-151321000D01*
X159187600Y-108966000D02*
X159187600Y-105283000D01*
M02*
