M48
; DRILL file {KiCad 8.0.0~rc2} date 2024-03-12T18:06:46-0300
; FORMAT={-:-/ absolute / inch / decimal}
; #@! TF.CreationDate,2024-03-12T18:06:46-03:00
; #@! TF.GenerationSoftware,Kicad,Pcbnew,8.0.0~rc2
; #@! TF.FileFunction,Plated,1,4,PTH
FMAT,2
INCH
; #@! TA.AperFunction,Plated,PTH,ViaDrill
T1C0.0118
; #@! TA.AperFunction,Plated,PTH,ComponentDrill
T2C0.0118
; #@! TA.AperFunction,Plated,PTH,ViaDrill
T3C0.0157
; #@! TA.AperFunction,Plated,PTH,ComponentDrill
T4C0.0197
; #@! TA.AperFunction,Plated,PTH,ComponentDrill
T5C0.0276
; #@! TA.AperFunction,Plated,PTH,ViaDrill
T6C0.0315
; #@! TA.AperFunction,Plated,PTH,ComponentDrill
T7C0.0315
; #@! TA.AperFunction,Plated,PTH,ComponentDrill
T8C0.0394
; #@! TA.AperFunction,Plated,PTH,ComponentDrill
T9C0.0512
; #@! TA.AperFunction,Plated,PTH,ViaDrill
T10C0.0551
; #@! TA.AperFunction,Plated,PTH,ComponentDrill
T11C0.1260
%
G90
G05
T1
X2.2886Y-3.6311
X2.7791Y-3.776
X2.7913Y-3.6571
X2.8228Y-2.8504
X2.8386Y-2.6339
X2.8717Y-3.6571
X2.8858Y-3.9094
X2.8898Y-2.6693
X2.9157Y-3.7756
X2.9374Y-3.6929
X2.9833Y-5.0177
X2.9854Y-5.4039
X2.9882Y-2.6112
X3.0378Y-3.6854
X3.0748Y-3.7436
X3.0748Y-3.7913
X3.1006Y-3.5669
X3.1072Y-5.6157
X3.1185Y-5.6469
X3.1378Y-5.0945
X3.1496Y-5.6555
X3.1535Y-3.437
X3.1693Y-3.8819
X3.1772Y-2.9685
X3.189Y-2.9331
X3.1939Y-3.3071
X3.1969Y-5.6772
X3.1992Y-3.6724
X3.2047Y-3.4882
X3.2156Y-3.2776
X3.2506Y-3.5669
X3.2638Y-2.4882
X3.2756Y-3.2795
X3.2765Y-3.1146
X3.2913Y-3.4636
X3.3455Y-4.5817
X3.3465Y-3.4636
X3.3504Y-4.9213
X3.3524Y-2.7997
X3.3661Y-3.7874
X3.3937Y-5.1339
X3.4006Y-3.4449
X3.4173Y-3.8622
X3.4173Y-4.9459
X3.4291Y-2.1693
X3.4506Y-3.5669
X3.476Y-2.2419
X3.4957Y-5.3304
X3.498Y-2.2654
X3.5266Y-5.0512
X3.5433Y-3.2502
X3.5495Y-5.0732
X3.5512Y-5.1063
X3.5591Y-3.5787
X3.5734Y-3.4266
X3.5748Y-2.8543
X3.5748Y-2.9646
X3.5925Y-5.0463
X3.596Y-3.0354
X3.6083Y-3.3488
X3.622Y-2.6772
X3.6271Y-3.1798
X3.6435Y-2.3061
X3.6555Y-4.0236
X3.6842Y-2.2414
X3.686Y-2.172
X3.7087Y-2.8617
X3.7264Y-3.3238
X3.7323Y-3.5118
X3.74Y-2.2614
X3.7795Y-3.7795
X3.8102Y-3.008
X3.812Y-2.183
X3.8307Y-3.252
X3.8425Y-2.9528
X3.8425Y-3.0394
X3.8504Y-4.0
X3.8524Y-3.5354
X3.8819Y-3.0433
X3.8864Y-3.3238
X3.9191Y-3.109
X3.9193Y-3.248
X3.9213Y-2.9557
X3.932Y-2.248
X3.937Y-3.4331
X3.9528Y-4.1732
X3.9646Y-3.8583
X3.9843Y-2.9557
X3.9882Y-4.0
X3.9882Y-4.0984
X3.9941Y-4.626
X4.0091Y-3.4142
X4.0433Y-4.3937
X4.0453Y-3.3524
X4.0669Y-4.4449
X4.0906Y-4.3937
X4.1258Y-3.2674
X4.1339Y-3.5748
X4.1339Y-3.4961
X4.1378Y-3.5354
X4.1457Y-3.457
X4.1732Y-4.1575
X4.1732Y-4.2205
X4.1949Y-4.5177
X4.1959Y-3.4479
X4.2024Y-3.3988
X4.2028Y-3.3587
X4.248Y-5.4252
X4.248Y-5.4567
X4.248Y-5.523
X4.249Y-5.4892
X4.2598Y-4.063
X4.2638Y-2.9488
X4.2638Y-3.4409
X4.3081Y-4.7874
X4.3152Y-3.4116
X4.3228Y-4.1811
X4.3311Y-3.348
X4.3386Y-2.7717
X4.3409Y-4.8004
X4.3453Y-4.8886
X4.3465Y-4.3583
X4.3469Y-4.8323
X4.3488Y-3.2161
X4.3661Y-3.5748
X4.3763Y-4.3842
X4.4016Y-3.878
X4.4016Y-4.1816
X4.4016Y-4.2209
X4.4016Y-4.2992
X4.4518Y-3.1066
X4.4754Y-3.6791
X4.4803Y-3.4803
X4.5Y-3.6378
X4.5102Y-3.5319
X4.5248Y-3.713
X4.5394Y-2.6835
X4.5413Y-3.685
X4.5974Y-3.5823
X4.5976Y-3.5433
X4.6181Y-2.7634
X4.6217Y-2.9606
X4.6358Y-3.6173
X4.6413Y-3.4331
X4.6486Y-3.7795
X4.6539Y-2.9134
X4.655Y-3.5675
X4.7411Y-2.9341
X4.789Y-3.9598
X4.7972Y-3.0894
X4.8554Y-4.0878
X4.886Y-2.7951
X4.9272Y-3.2248
X4.9488Y-2.8386
X4.9529Y-3.5021
X4.9646Y-2.8661
X4.9796Y-2.815
X4.9828Y-3.5167
X5.0118Y-3.8898
X5.0437Y-3.2571
X5.0483Y-4.0884
X5.0555Y-3.1204
X5.0673Y-3.2165
X5.0925Y-2.7992
X5.0951Y-3.2004
X5.1165Y-3.0091
X5.1187Y-3.2305
X5.1201Y-2.7815
X5.1366Y-3.6626
X5.1496Y-4.0929
X5.153Y-3.5278
X5.2067Y-2.8228
X5.2105Y-3.3105
X5.2143Y-3.2692
X5.2228Y-2.7709
X5.2228Y-3.1618
X5.235Y-2.9257
X5.2386Y-4.2039
X5.2412Y-3.3495
X5.2469Y-3.4606
X5.2546Y-3.3012
X5.261Y-3.1315
X5.2688Y-3.6783
X5.2689Y-4.178
X5.274Y-3.4351
X5.2821Y-2.9827
X5.2913Y-3.4079
X5.3063Y-3.0039
X5.3064Y-3.353
X5.3134Y-3.3843
X5.3138Y-3.8831
X5.3142Y-2.4303
X5.3142Y-2.6039
X5.3299Y-3.0276
X5.378Y-2.8425
X5.3803Y-3.3323
X5.384Y-3.8282
X5.3928Y-2.8922
X5.4087Y-3.7236
X5.4177Y-3.5801
X5.44Y-2.9094
X5.4445Y-3.5555
X5.4793Y-2.5364
X5.4795Y-2.8319
X5.4872Y-3.5521
X5.5098Y-2.9567
X5.5206Y-2.8811
X5.5676Y-3.4416
X5.5677Y-3.0591
X5.5772Y-2.8205
X5.5858Y-4.1831
X5.611Y-3.9012
X5.6189Y-3.3201
X5.635Y-2.8441
X5.6447Y-2.6417
X5.6516Y-3.7512
X5.6665Y-3.2878
X5.6705Y-3.6028
X5.7269Y-3.8301
X5.7345Y-3.5486
X5.7394Y-3.3898
X5.7729Y-3.5535
X5.7901Y-3.5075
X5.7969Y-3.6008
X5.7984Y-2.8783
X5.8386Y-3.5012
X5.8713Y-3.5043
X5.8898Y-3.8976
X5.9764Y-4.0512
X6.0106Y-3.1209
X6.0441Y-3.5043
X6.0866Y-4.0512
X6.1535Y-4.0512
X6.1614Y-2.7815
X6.2213Y-3.4965
X6.2634Y-3.2839
T2
X3.5873Y-2.1868
X3.5873Y-2.2262
X3.5873Y-2.2655
T3
X2.2031Y-3.628
X2.3002Y-3.5457
X2.3575Y-3.8618
X2.3642Y-4.248
X2.4252Y-4.2441
X2.4852Y-4.2185
X2.5453Y-4.2185
X2.8465Y-4.5591
X2.9803Y-4.1732
X2.9921Y-4.063
X2.9921Y-4.6457
X2.9921Y-4.9055
X3.0Y-4.4252
X3.0118Y-3.8819
X3.1142Y-4.0827
X3.185Y-4.6102
X3.2008Y-4.1102
X3.2402Y-3.7992
X3.2402Y-3.8937
X3.3307Y-5.6919
X3.3346Y-4.5315
X3.3874Y-4.8764
X3.3898Y-4.8356
X3.4016Y-4.7992
X3.4055Y-4.7598
X3.5732Y-5.6894
X3.6193Y-5.2492
X3.6765Y-5.3428
X3.7146Y-3.6693
X3.7797Y-4.0285
X3.8071Y-5.1535
X3.9205Y-3.8898
X4.1211Y-2.9892
X4.2638Y-3.9291
X4.2746Y-5.2508
X4.2766Y-5.0591
X4.2766Y-5.0984
X4.315Y-4.0709
X4.3701Y-3.5079
X4.3839Y-3.6315
X4.3976Y-3.3701
X4.4252Y-4.0709
X4.5043Y-5.5165
X4.5059Y-5.4492
X4.5309Y-5.55
X4.5429Y-5.4856
X4.5602Y-4.7035
X4.6551Y-3.1579
X4.8657Y-2.9154
X4.8937Y-3.1969
X5.0547Y-2.7067
X5.1941Y-3.528
X5.6429Y-3.2091
X5.9705Y-3.2835
T4
X2.0984Y-3.811
X2.1024Y-3.6811
X3.124Y-3.0966
X3.126Y-2.7756
X3.4791Y-3.0983
X3.4803Y-2.7756
X3.8316Y-3.099
X3.8346Y-2.7756
X4.189Y-2.7756
X4.189Y-3.1024
T5
X4.9959Y-3.7619
X5.0404Y-3.8064
X5.0669Y-3.7354
X5.085Y-3.851
X5.1114Y-3.78
T6
X2.7126Y-4.5461
X2.8858Y-5.1614
X3.3937Y-5.2244
X3.4055Y-2.4646
X3.4405Y-5.4483
X3.5974Y-5.4587
X3.7795Y-5.4016
X4.398Y-2.522
X4.904Y-2.524
T7
X5.9372Y-5.145
X5.9372Y-5.245
X5.9372Y-5.345
X5.9372Y-5.445
X5.9372Y-5.545
X5.9372Y-5.645
X5.9372Y-5.745
X5.9372Y-5.845
X6.4372Y-5.145
X6.4372Y-5.245
X6.4372Y-5.345
X6.4372Y-5.445
X6.4372Y-5.545
X6.4372Y-5.645
X6.4372Y-5.745
X6.4372Y-5.845
T8
X2.1197Y-3.9646
X2.2197Y-3.9646
X2.3197Y-3.9646
X2.4197Y-3.9646
X2.5197Y-3.9646
X3.5098Y-4.564
X3.689Y-4.5709
X4.7136Y-4.5748
X4.7136Y-5.8071
X4.8134Y-4.4303
X4.8136Y-4.5748
X4.8136Y-5.8071
X4.8236Y-4.2559
X4.9134Y-4.4303
X4.9136Y-4.5748
X4.9136Y-5.8071
X4.9236Y-4.2559
X5.0134Y-4.4303
X5.0136Y-4.5748
X5.0136Y-5.8071
X5.0236Y-4.2559
X5.1134Y-4.4303
X5.1136Y-5.8071
X5.1236Y-4.2559
X5.1555Y-4.5748
X5.2134Y-4.4303
X5.2555Y-4.5748
X5.2638Y-5.8071
X5.3555Y-4.5748
X5.3638Y-5.8071
X5.4638Y-5.8071
X5.9203Y-2.574
X5.9203Y-2.6724
T9
X2.2625Y-2.4739
X2.2625Y-2.6372
X2.2625Y-2.7683
X2.2625Y-2.8994
X2.2625Y-3.0306
X2.2625Y-3.1617
X2.2625Y-3.2928
X2.2625Y-3.4561
X2.2625Y-4.5739
X2.2625Y-4.7372
X2.2625Y-4.8683
X2.2625Y-4.9994
X2.2625Y-5.1306
X2.2625Y-5.2617
X2.2625Y-5.3928
X2.2625Y-5.5561
X2.4279Y-2.4739
X2.4279Y-2.6372
X2.4279Y-2.7683
X2.4279Y-2.8994
X2.4279Y-3.0306
X2.4279Y-3.1617
X2.4279Y-3.2928
X2.4279Y-3.4561
X2.4279Y-4.5739
X2.4279Y-4.7372
X2.4279Y-4.8683
X2.4279Y-4.9994
X2.4279Y-5.1306
X2.4279Y-5.2617
X2.4279Y-5.3928
X2.4279Y-5.5561
X2.5932Y-2.4739
X2.5932Y-2.6372
X2.5932Y-2.7683
X2.5932Y-2.8994
X2.5932Y-3.0306
X2.5932Y-3.1617
X2.5932Y-3.2928
X2.5932Y-3.4561
X2.5932Y-4.5739
X2.5932Y-4.7372
X2.5932Y-4.8683
X2.5932Y-4.9994
X2.5932Y-5.1306
X2.5932Y-5.2617
X2.5932Y-5.3928
X2.5932Y-5.5561
T10
X3.1535Y-5.3504
X3.3868Y-4.6565
T11
X2.936Y-2.315
X2.936Y-5.741
X6.206Y-2.3158
X6.206Y-5.741
T5
G00X4.9813Y-3.6624
M15
G01X4.9451Y-3.6986
M16
G05
G00X5.1845Y-3.8656
M15
G01X5.1483Y-3.9018
M16
G05
M30
